<?xml version="1.0" encoding="utf-8" standalone="no"?>
<!DOCTYPE svg PUBLIC "-//W3C//DTD SVG 1.1//EN"
  "http://www.w3.org/Graphics/SVG/1.1/DTD/svg11.dtd">
<svg xmlns:xlink="http://www.w3.org/1999/xlink" width="504pt" height="432pt" viewBox="0 0 504 432" xmlns="http://www.w3.org/2000/svg" version="1.1">
 <metadata>
  <rdf:RDF xmlns:dc="http://purl.org/dc/elements/1.1/" xmlns:cc="http://creativecommons.org/ns#" xmlns:rdf="http://www.w3.org/1999/02/22-rdf-syntax-ns#">
   <cc:Work>
    <dc:type rdf:resource="http://purl.org/dc/dcmitype/StillImage"/>
    <dc:date>2023-07-05T15:37:09.982149</dc:date>
    <dc:format>image/svg+xml</dc:format>
    <dc:creator>
     <cc:Agent>
      <dc:title>Matplotlib v3.6.1, https://matplotlib.org/</dc:title>
     </cc:Agent>
    </dc:creator>
   </cc:Work>
  </rdf:RDF>
 </metadata>
 <defs>
  <style type="text/css">*{stroke-linejoin: round; stroke-linecap: butt}</style>
 </defs>
 <g id="figure_1">
  <g id="patch_1">
   <path d="M 0 432 
L 504 432 
L 504 0 
L 0 0 
L 0 432 
z
" style="fill: none"/>
  </g>
  <g id="axes_1">
   <g id="PolyCollection_1">
    <defs>
     <path id="m0c318b711d" d="M 65.675342 -378.552905 
L 65.675342 -346.410998 
L 74.593151 -346.410998 
L 83.510959 -346.410998 
L 92.428767 -346.410998 
L 101.346575 -346.410998 
L 110.264384 -346.410998 
L 119.182192 -346.410998 
L 128.1 -346.410998 
L 137.017808 -346.410998 
L 145.935616 -346.410998 
L 145.935616 -378.552905 
L 145.935616 -378.552905 
L 137.017808 -378.552905 
L 128.1 -378.552905 
L 119.182192 -378.552905 
L 110.264384 -378.552905 
L 101.346575 -378.552905 
L 92.428767 -378.552905 
L 83.510959 -378.552905 
L 74.593151 -378.552905 
L 65.675342 -378.552905 
z
" style="stroke: #000000; stroke-opacity: 0.1"/>
    </defs>
    <g clip-path="url(#pc32e1e5991)">
     <use xlink:href="#m0c318b711d" x="0" y="432" style="fill-opacity: 0.1; stroke: #000000; stroke-opacity: 0.1"/>
    </g>
   </g>
   <g id="PolyCollection_2">
    <defs>
     <path id="m48d70aa31c" d="M 147.005753 -378.552905 
L 147.005753 -346.410998 
L 158.77726 -346.410998 
L 170.548767 -346.410998 
L 182.320274 -346.410998 
L 194.091781 -346.410998 
L 205.863288 -346.410998 
L 217.634795 -346.410998 
L 229.406301 -346.410998 
L 241.177808 -346.410998 
L 252.949315 -346.410998 
L 252.949315 -378.552905 
L 252.949315 -378.552905 
L 241.177808 -378.552905 
L 229.406301 -378.552905 
L 217.634795 -378.552905 
L 205.863288 -378.552905 
L 194.091781 -378.552905 
L 182.320274 -378.552905 
L 170.548767 -378.552905 
L 158.77726 -378.552905 
L 147.005753 -378.552905 
z
" style="stroke: #ffa500; stroke-opacity: 0.25"/>
    </defs>
    <g clip-path="url(#pc32e1e5991)">
     <use xlink:href="#m48d70aa31c" x="0" y="432" style="fill: #ffa500; fill-opacity: 0.25; stroke: #ffa500; stroke-opacity: 0.25"/>
    </g>
   </g>
   <g id="PolyCollection_3">
    <defs>
     <path id="m1bcb29a507" d="M 254.019452 -378.552905 
L 254.019452 -346.410998 
L 265.790959 -346.410998 
L 277.562466 -346.410998 
L 289.333973 -346.410998 
L 301.105479 -346.410998 
L 312.876986 -346.410998 
L 324.648493 -346.410998 
L 336.42 -346.410998 
L 348.191507 -346.410998 
L 359.963014 -346.410998 
L 359.963014 -378.552905 
L 359.963014 -378.552905 
L 348.191507 -378.552905 
L 336.42 -378.552905 
L 324.648493 -378.552905 
L 312.876986 -378.552905 
L 301.105479 -378.552905 
L 289.333973 -378.552905 
L 277.562466 -378.552905 
L 265.790959 -378.552905 
L 254.019452 -378.552905 
z
" style="stroke: #ffa500; stroke-opacity: 0.15"/>
    </defs>
    <g clip-path="url(#pc32e1e5991)">
     <use xlink:href="#m1bcb29a507" x="0" y="432" style="fill: #ffa500; fill-opacity: 0.15; stroke: #ffa500; stroke-opacity: 0.15"/>
    </g>
   </g>
   <g id="PolyCollection_4">
    <defs>
     <path id="m3fadb7a9c2" d="M 361.033151 -378.552905 
L 361.033151 -346.410998 
L 371.021096 -346.410998 
L 381.009041 -346.410998 
L 390.996986 -346.410998 
L 400.984932 -346.410998 
L 410.972877 -346.410998 
L 420.960822 -346.410998 
L 430.948767 -346.410998 
L 440.936712 -346.410998 
L 450.924658 -346.410998 
L 450.924658 -378.552905 
L 450.924658 -378.552905 
L 440.936712 -378.552905 
L 430.948767 -378.552905 
L 420.960822 -378.552905 
L 410.972877 -378.552905 
L 400.984932 -378.552905 
L 390.996986 -378.552905 
L 381.009041 -378.552905 
L 371.021096 -378.552905 
L 361.033151 -378.552905 
z
" style="stroke: #000000; stroke-opacity: 0.1"/>
    </defs>
    <g clip-path="url(#pc32e1e5991)">
     <use xlink:href="#m3fadb7a9c2" x="0" y="432" style="fill-opacity: 0.1; stroke: #000000; stroke-opacity: 0.1"/>
    </g>
   </g>
   <g id="text_1">
    <!-- First -->
    <g transform="translate(81.727397 68.164461) scale(0.15 -0.15)">
     <defs>
      <path id="HFBR17-46" d="M 512 4437 
L 512 0 
L 960 0 
L 960 2048 
L 3078 2048 
L 3078 2388 
L 960 2388 
L 960 4096 
L 3354 4096 
L 3354 4437 
L 512 4437 
z
" transform="scale(0.015625)"/>
      <path id="HFBR17-69" d="M 410 4480 
L 410 4075 
L 813 4075 
L 813 4480 
L 410 4480 
z
M 410 3033 
L 410 0 
L 813 0 
L 813 3033 
L 410 3033 
z
" transform="scale(0.015625)"/>
      <path id="HFBR17-72" d="M 800 2224 
L 794 2224 
L 794 3033 
L 410 3033 
L 410 0 
L 813 0 
L 813 1465 
C 813 1562 813 1658 826 1754 
C 915 2301 1389 2706 2010 2706 
L 2010 3072 
C 1600 3072 1222 2873 979 2545 
C 909 2449 832 2339 800 2224 
z
" transform="scale(0.015625)"/>
      <path id="HFBR17-73" d="M 198 617 
C 186 527 166 444 154 354 
C 141 283 122 251 186 219 
C 448 65 762 -19 1133 -51 
C 1549 -90 2074 7 2278 418 
C 2336 534 2368 662 2374 791 
C 2400 1253 2035 1549 1722 1658 
C 1370 1793 890 1748 646 2018 
C 518 2166 512 2385 634 2539 
C 890 2899 1715 2744 2042 2584 
C 2093 2558 2138 2526 2195 2513 
L 2253 2860 
C 1952 2995 1690 3072 1274 3072 
C 915 3072 589 2989 384 2783 
C 179 2571 109 2217 230 1948 
C 346 1690 589 1523 851 1440 
C 1229 1305 1658 1369 1907 1061 
C 2048 881 2022 611 1862 450 
C 1555 167 902 270 544 424 
C 422 476 314 553 198 617 
z
" transform="scale(0.015625)"/>
      <path id="HFBR17-74" d="M 691 3872 
L 691 3009 
L 70 3009 
L 70 2688 
L 685 2688 
L 685 961 
C 685 677 666 335 851 97 
C 960 -45 1107 -83 1331 -64 
C 1517 -64 1702 -25 1875 42 
C 1933 68 2144 161 2170 207 
C 2182 233 2099 518 2099 518 
L 1946 401 
C 1747 278 1350 149 1184 382 
C 1037 582 1075 880 1075 1112 
L 1075 2688 
L 2067 2688 
L 2067 3009 
L 1075 3009 
L 1075 3872 
L 691 3872 
z
" transform="scale(0.015625)"/>
     </defs>
     <use xlink:href="#HFBR17-46" transform="scale(0.996264)"/>
     <use xlink:href="#HFBR17-69" transform="translate(55.832057 0) scale(0.996264)"/>
     <use xlink:href="#HFBR17-72" transform="translate(74.927016 0) scale(0.996264)"/>
     <use xlink:href="#HFBR17-73" transform="translate(106.890375 0) scale(0.996264)"/>
     <use xlink:href="#HFBR17-74" transform="translate(145.329404 0) scale(0.996264)"/>
    </g>
    <!--  stimulus -->
    <g transform="translate(81.727397 83.108409) scale(0.15 -0.15)">
     <defs>
      <path id="HFBR17-6d" d="M 806 2391 
L 800 2391 
L 800 3033 
L 410 3033 
L 410 0 
L 819 0 
L 819 1411 
C 819 1725 800 2040 941 2328 
C 1062 2578 1274 2777 1651 2738 
C 1843 2738 2035 2687 2157 2525 
C 2272 2377 2278 2185 2278 2004 
L 2278 0 
L 2688 0 
L 2688 1411 
C 2688 1725 2669 2040 2810 2328 
C 2931 2578 3142 2777 3520 2738 
C 3712 2738 3904 2687 4026 2525 
C 4141 2377 4147 2185 4147 2004 
L 4147 0 
L 4557 0 
L 4557 1700 
C 4557 2008 4595 2354 4461 2636 
C 4326 2899 4109 3040 3757 3040 
C 3552 3059 3347 3028 3162 2934 
C 2938 2811 2771 2608 2669 2385 
C 2624 2597 2573 2741 2432 2880 
C 2285 3012 2086 3072 1894 3072 
C 1427 3110 1133 2916 934 2624 
C 883 2552 832 2475 806 2391 
z
" transform="scale(0.015625)"/>
      <path id="HFBR17-75" d="M 410 3008 
L 410 830 
C 410 643 416 457 493 283 
C 614 33 870 -64 1133 -64 
C 1485 -64 1837 52 2093 303 
C 2163 373 2227 444 2272 534 
L 2278 534 
L 2278 -25 
L 2682 -25 
L 2682 3008 
L 2272 3008 
L 2272 1466 
C 2272 1196 2310 900 2170 656 
C 2067 476 1888 335 1690 271 
C 1555 232 1414 232 1274 245 
C 1139 258 992 271 902 386 
C 774 541 819 907 819 1132 
L 819 3008 
L 410 3008 
z
" transform="scale(0.015625)"/>
      <path id="HFBR17-6c" d="M 410 4460 
L 410 0 
L 813 0 
L 813 4460 
L 410 4460 
z
" transform="scale(0.015625)"/>
     </defs>
     <use xlink:href="#HFBR17-73" transform="scale(0.996264)"/>
     <use xlink:href="#HFBR17-74" transform="translate(38.439029 0) scale(0.996264)"/>
     <use xlink:href="#HFBR17-69" transform="translate(74.553417 0) scale(0.996264)"/>
     <use xlink:href="#HFBR17-6d" transform="translate(93.648376 0) scale(0.996264)"/>
     <use xlink:href="#HFBR17-75" transform="translate(170.858502 0) scale(0.996264)"/>
     <use xlink:href="#HFBR17-6c" transform="translate(219.010999 0) scale(0.996264)"/>
     <use xlink:href="#HFBR17-75" transform="translate(238.105958 0) scale(0.996264)"/>
     <use xlink:href="#HFBR17-73" transform="translate(286.258455 0) scale(0.996264)"/>
    </g>
   </g>
   <g id="text_2">
    <!-- Decision period -->
    <g transform="translate(153.961644 74.108675) scale(0.15 -0.15)">
     <defs>
      <path id="HFBR17-44" d="M 512 4480 
L 512 0 
L 1805 0 
C 2010 0 2214 0 2413 19 
C 2925 71 3366 321 3661 629 
C 4486 1483 4480 2952 3667 3819 
C 3373 4133 2976 4384 2477 4448 
C 2234 4480 1984 4480 1741 4480 
L 512 4480 
z
M 954 340 
L 954 4132 
L 1779 4132 
C 1952 4132 2125 4132 2298 4119 
C 2586 4087 2867 3991 3104 3823 
C 3622 3464 3840 2827 3840 2217 
C 3840 1703 3699 1176 3322 809 
C 3066 572 2720 398 2304 353 
C 2138 340 1965 340 1798 340 
L 954 340 
z
" transform="scale(0.015625)"/>
      <path id="HFBR17-65" d="M 2675 700 
C 2528 591 2483 533 2298 436 
C 1907 224 1446 224 1114 459 
C 794 689 608 1065 608 1600 
L 2720 1600 
C 2720 2075 2611 2487 2342 2776 
C 2048 3065 1587 3155 1197 3033 
C 1050 2988 915 2911 794 2814 
C 390 2487 218 1966 224 1458 
C 237 790 691 122 1363 -20 
C 1715 -91 2086 -13 2400 147 
C 2458 179 2669 295 2694 353 
C 2714 385 2675 700 2675 700 
z
M 2381 1850 
L 640 1850 
C 717 2319 1101 2814 1619 2756 
C 2042 2718 2266 2416 2349 2037 
C 2362 1972 2368 1915 2381 1850 
z
" transform="scale(0.015625)"/>
      <path id="HFBR17-63" d="M 2714 720 
C 2592 630 2483 533 2349 456 
C 2048 296 1587 219 1242 379 
C 742 636 608 1260 678 1774 
C 691 1877 710 1979 742 2076 
C 883 2494 1235 2821 1811 2757 
C 2118 2731 2272 2680 2515 2545 
C 2560 2519 2598 2487 2650 2474 
C 2656 2551 2675 2635 2688 2712 
C 2707 2815 2707 2828 2611 2873 
C 2541 2905 2470 2943 2394 2969 
C 2099 3098 1613 3136 1280 3040 
C 826 2911 486 2519 339 2082 
C 269 1883 250 1671 250 1459 
C 256 784 717 122 1389 -13 
C 1760 -90 2189 19 2445 154 
C 2509 186 2701 302 2733 360 
C 2752 392 2714 720 2714 720 
z
" transform="scale(0.015625)"/>
      <path id="HFBR17-6f" d="M 685 2693 
C 115 2127 51 1144 544 508 
C 614 411 698 328 794 257 
C 1030 64 1376 -77 1779 -32 
C 2419 45 2861 566 2995 1112 
C 3174 1877 2797 2731 2093 3001 
C 1542 3226 992 3001 685 2693 
z
M 2285 2519 
C 2592 2242 2650 1799 2624 1407 
C 2605 1105 2522 790 2310 565 
C 1965 192 1325 192 954 552 
C 762 758 646 1053 627 1407 
C 595 1927 723 2480 1235 2686 
C 1613 2853 2048 2731 2285 2519 
z
" transform="scale(0.015625)"/>
      <path id="HFBR17-6e" d="M 806 2386 
L 800 2386 
L 800 3033 
L 410 3033 
L 410 0 
L 819 0 
L 819 1404 
C 819 1718 800 2040 941 2334 
C 1011 2482 1120 2610 1267 2687 
C 1389 2745 1517 2745 1651 2732 
C 1843 2732 2029 2681 2150 2520 
C 2266 2372 2272 2180 2272 2000 
L 2272 0 
L 2682 0 
L 2682 1719 
C 2682 2040 2714 2392 2560 2681 
C 2438 2912 2202 3021 1952 3053 
C 1824 3072 1690 3072 1562 3047 
C 1229 2976 922 2707 806 2386 
z
" transform="scale(0.015625)"/>
      <path id="HFBR17-70" d="M 813 2594 
L 813 3018 
L 410 3018 
L 410 -1088 
L 819 -1088 
L 819 390 
C 909 261 1011 146 1146 69 
C 1600 -208 2176 11 2490 422 
C 2906 958 2950 1760 2662 2367 
C 2496 2716 2182 3040 1779 3072 
C 1427 3072 1158 2932 966 2760 
C 909 2709 864 2652 813 2594 
z
M 1402 2744 
C 1664 2763 1920 2641 2099 2449 
C 2208 2326 2291 2185 2342 2031 
C 2566 1427 2362 591 1715 341 
C 1344 199 979 328 838 675 
C 806 739 819 823 819 893 
L 819 2217 
C 819 2365 832 2378 928 2487 
C 1043 2628 1216 2725 1402 2744 
z
" transform="scale(0.015625)"/>
      <path id="HFBR17-64" d="M 2278 4460 
L 2278 2648 
C 2157 2783 2035 2911 1869 2988 
C 1299 3226 749 2918 467 2410 
C 141 1806 179 1009 570 443 
C 845 51 1299 -141 1779 32 
C 1965 103 2189 289 2266 456 
L 2272 456 
L 2272 0 
L 2682 0 
L 2682 4460 
L 2278 4460 
z
M 2253 2397 
C 2285 2339 2272 2262 2272 2198 
L 2272 874 
C 2272 726 2266 713 2182 598 
C 2067 424 1888 302 1677 283 
C 1370 257 1056 405 877 656 
C 774 803 717 983 685 1163 
C 672 1234 672 1298 666 1369 
C 627 1793 717 2294 1088 2564 
C 1152 2609 1222 2641 1293 2673 
C 1664 2815 2074 2776 2253 2397 
z
" transform="scale(0.015625)"/>
     </defs>
     <use xlink:href="#HFBR17-44" transform="scale(0.996264)"/>
     <use xlink:href="#HFBR17-65" transform="translate(71.606187 0) scale(0.996264)"/>
     <use xlink:href="#HFBR17-63" transform="translate(116.437855 0) scale(0.996264)"/>
     <use xlink:href="#HFBR17-69" transform="translate(161.269522 0) scale(0.996264)"/>
     <use xlink:href="#HFBR17-73" transform="translate(180.364481 0) scale(0.996264)"/>
     <use xlink:href="#HFBR17-69" transform="translate(218.80351 0) scale(0.996264)"/>
     <use xlink:href="#HFBR17-6f" transform="translate(237.898469 0) scale(0.996264)"/>
     <use xlink:href="#HFBR17-6e" transform="translate(288.541687 0) scale(0.996264)"/>
     <use xlink:href="#HFBR17-70" transform="translate(368.159396 0) scale(0.996264)"/>
     <use xlink:href="#HFBR17-65" transform="translate(416.311893 0) scale(0.996264)"/>
     <use xlink:href="#HFBR17-72" transform="translate(461.14356 0) scale(0.996264)"/>
     <use xlink:href="#HFBR17-69" transform="translate(493.106919 0) scale(0.996264)"/>
     <use xlink:href="#HFBR17-6f" transform="translate(512.201878 0) scale(0.996264)"/>
     <use xlink:href="#HFBR17-64" transform="translate(562.845096 0) scale(0.996264)"/>
    </g>
   </g>
   <g id="text_3">
    <!-- Delay -->
    <g transform="translate(290.40411 74.108675) scale(0.15 -0.15)">
     <defs>
      <path id="HFBR17-61" d="M 506 2497 
C 614 2551 704 2630 813 2683 
C 986 2762 1165 2816 1357 2816 
C 1446 2822 1549 2835 1638 2816 
C 1798 2790 1939 2693 2035 2557 
C 2131 2401 2170 2265 2170 2014 
L 2170 1729 
C 1862 1729 1555 1703 1261 1625 
C 890 1541 486 1352 352 1014 
C 218 690 358 261 646 66 
C 787 -32 954 -32 1120 -19 
C 1389 0 1658 65 1888 208 
C 1997 272 2106 357 2170 467 
L 2176 467 
L 2176 13 
L 2579 13 
L 2579 1721 
C 2579 1908 2598 2109 2560 2297 
C 2522 2555 2362 2769 2176 2918 
C 1958 3086 1709 3143 1376 3118 
C 1069 3118 832 3040 602 2929 
C 570 2916 506 2895 486 2857 
C 467 2830 480 2785 480 2752 
C 493 2667 499 2582 506 2497 
z
M 2170 1536 
L 2170 1048 
C 2170 900 2176 765 2093 637 
C 2022 534 1926 463 1824 412 
C 1459 225 902 283 742 592 
C 614 816 749 1080 934 1228 
C 1210 1440 1747 1536 2170 1536 
z
" transform="scale(0.015625)"/>
      <path id="HFBR17-79" d="M 45 3050 
C 83 2928 346 2279 352 2260 
L 1114 293 
L 1178 133 
C 1216 43 1229 30 1190 -73 
L 1120 -259 
C 1062 -414 998 -574 877 -671 
C 659 -851 314 -748 51 -690 
L 83 -1056 
C 205 -1075 326 -1088 448 -1088 
C 723 -1121 902 -1056 1069 -915 
C 1280 -735 1382 -484 1478 -227 
L 1677 325 
L 2330 2106 
C 2438 2427 2573 2729 2675 3050 
L 2387 3050 
C 2355 3050 2304 3063 2278 3038 
C 2266 3018 2259 2993 2253 2973 
L 2202 2838 
C 2138 2671 2080 2511 2022 2343 
L 1651 1296 
C 1555 1013 1446 724 1395 428 
C 1325 724 1229 1007 1126 1289 
C 1043 1508 544 2851 480 2980 
C 454 3050 429 3050 333 3050 
L 45 3050 
z
" transform="scale(0.015625)"/>
     </defs>
     <use xlink:href="#HFBR17-44" transform="scale(0.996264)"/>
     <use xlink:href="#HFBR17-65" transform="translate(71.606187 0) scale(0.996264)"/>
     <use xlink:href="#HFBR17-6c" transform="translate(116.437855 0) scale(0.996264)"/>
     <use xlink:href="#HFBR17-61" transform="translate(135.532813 0) scale(0.996264)"/>
     <use xlink:href="#HFBR17-79" transform="translate(179.119166 0) scale(0.996264)"/>
    </g>
   </g>
   <g id="text_4">
    <!-- Second -->
    <g transform="translate(381.365753 68.164461) scale(0.15 -0.15)">
     <defs>
      <path id="HFBR17-53" d="M 326 833 
C 314 729 288 619 275 515 
C 262 418 230 391 314 340 
C 531 217 717 132 986 48 
C 1587 -128 2278 -128 2803 265 
C 2886 329 2963 399 3034 482 
C 3194 697 3341 958 3302 1314 
C 3258 1771 2950 2152 2534 2343 
C 1965 2597 1037 2597 781 3160 
C 582 3596 934 3979 1331 4120 
C 1722 4268 2234 4210 2566 4056 
C 2720 3985 2848 3882 2989 3792 
C 3002 3902 3027 4005 3046 4114 
C 3059 4184 3078 4249 3002 4274 
L 2880 4339 
C 2707 4416 2528 4474 2342 4512 
C 1766 4621 1101 4557 666 4127 
C 448 3908 262 3612 339 3169 
C 429 2713 787 2424 1158 2282 
C 1376 2199 1619 2154 1850 2096 
C 1984 2070 2125 2038 2259 1993 
C 2605 1864 2906 1607 2906 1132 
C 2867 723 2509 424 2131 333 
C 1645 209 1069 385 736 560 
C 589 638 461 742 326 833 
z
" transform="scale(0.015625)"/>
     </defs>
     <use xlink:href="#HFBR17-53" transform="scale(0.996264)"/>
     <use xlink:href="#HFBR17-65" transform="translate(56.454753 0) scale(0.996264)"/>
     <use xlink:href="#HFBR17-63" transform="translate(101.28642 0) scale(0.996264)"/>
     <use xlink:href="#HFBR17-6f" transform="translate(146.118088 0) scale(0.996264)"/>
     <use xlink:href="#HFBR17-6e" transform="translate(196.761306 0) scale(0.996264)"/>
     <use xlink:href="#HFBR17-64" transform="translate(244.913803 0) scale(0.996264)"/>
    </g>
    <!--  stimulus -->
    <g transform="translate(381.365753 83.108409) scale(0.15 -0.15)">
     <use xlink:href="#HFBR17-73" transform="scale(0.996264)"/>
     <use xlink:href="#HFBR17-74" transform="translate(38.439029 0) scale(0.996264)"/>
     <use xlink:href="#HFBR17-69" transform="translate(74.553417 0) scale(0.996264)"/>
     <use xlink:href="#HFBR17-6d" transform="translate(93.648376 0) scale(0.996264)"/>
     <use xlink:href="#HFBR17-75" transform="translate(170.858502 0) scale(0.996264)"/>
     <use xlink:href="#HFBR17-6c" transform="translate(219.010999 0) scale(0.996264)"/>
     <use xlink:href="#HFBR17-75" transform="translate(238.105958 0) scale(0.996264)"/>
     <use xlink:href="#HFBR17-73" transform="translate(286.258455 0) scale(0.996264)"/>
    </g>
   </g>
  </g>
  <g id="axes_2">
   <g id="patch_2">
    <path d="M 63 378 
L 453.6 378 
L 453.6 95.15122 
L 63 95.15122 
z
" style="fill: #ffffff"/>
   </g>
   <g id="PolyCollection_5">
    <defs>
     <path id="m40c4bf7871" d="M 65.675342 -335.17085 
L 65.675342 -55.67793 
L 74.593151 -55.67793 
L 83.510959 -55.67793 
L 92.428767 -55.67793 
L 101.346575 -55.67793 
L 110.264384 -55.67793 
L 119.182192 -55.67793 
L 128.1 -55.67793 
L 137.017808 -55.67793 
L 145.935616 -55.67793 
L 145.935616 -335.17085 
L 145.935616 -335.17085 
L 137.017808 -335.17085 
L 128.1 -335.17085 
L 119.182192 -335.17085 
L 110.264384 -335.17085 
L 101.346575 -335.17085 
L 92.428767 -335.17085 
L 83.510959 -335.17085 
L 74.593151 -335.17085 
L 65.675342 -335.17085 
z
" style="stroke: #000000; stroke-opacity: 0.05"/>
    </defs>
    <g clip-path="url(#p4288adfb96)">
     <use xlink:href="#m40c4bf7871" x="0" y="432" style="fill-opacity: 0.05; stroke: #000000; stroke-opacity: 0.05"/>
    </g>
   </g>
   <g id="PolyCollection_6">
    <defs>
     <path id="m34c83307dc" d="M 147.005753 -335.17085 
L 147.005753 -55.67793 
L 158.77726 -55.67793 
L 170.548767 -55.67793 
L 182.320274 -55.67793 
L 194.091781 -55.67793 
L 205.863288 -55.67793 
L 217.634795 -55.67793 
L 229.406301 -55.67793 
L 241.177808 -55.67793 
L 252.949315 -55.67793 
L 252.949315 -335.17085 
L 252.949315 -335.17085 
L 241.177808 -335.17085 
L 229.406301 -335.17085 
L 217.634795 -335.17085 
L 205.863288 -335.17085 
L 194.091781 -335.17085 
L 182.320274 -335.17085 
L 170.548767 -335.17085 
L 158.77726 -335.17085 
L 147.005753 -335.17085 
z
" style="stroke: #ffa500; stroke-opacity: 0.25"/>
    </defs>
    <g clip-path="url(#p4288adfb96)">
     <use xlink:href="#m34c83307dc" x="0" y="432" style="fill: #ffa500; fill-opacity: 0.25; stroke: #ffa500; stroke-opacity: 0.25"/>
    </g>
   </g>
   <g id="PolyCollection_7">
    <defs>
     <path id="m205f61133b" d="M 254.019452 -335.17085 
L 254.019452 -55.67793 
L 265.790959 -55.67793 
L 277.562466 -55.67793 
L 289.333973 -55.67793 
L 301.105479 -55.67793 
L 312.876986 -55.67793 
L 324.648493 -55.67793 
L 336.42 -55.67793 
L 348.191507 -55.67793 
L 359.963014 -55.67793 
L 359.963014 -335.17085 
L 359.963014 -335.17085 
L 348.191507 -335.17085 
L 336.42 -335.17085 
L 324.648493 -335.17085 
L 312.876986 -335.17085 
L 301.105479 -335.17085 
L 289.333973 -335.17085 
L 277.562466 -335.17085 
L 265.790959 -335.17085 
L 254.019452 -335.17085 
z
" style="stroke: #ffa500; stroke-opacity: 0.15"/>
    </defs>
    <g clip-path="url(#p4288adfb96)">
     <use xlink:href="#m205f61133b" x="0" y="432" style="fill: #ffa500; fill-opacity: 0.15; stroke: #ffa500; stroke-opacity: 0.15"/>
    </g>
   </g>
   <g id="PolyCollection_8">
    <defs>
     <path id="m8cb9f212e1" d="M 361.033151 -335.17085 
L 361.033151 -55.67793 
L 371.021096 -55.67793 
L 381.009041 -55.67793 
L 390.996986 -55.67793 
L 400.984932 -55.67793 
L 410.972877 -55.67793 
L 420.960822 -55.67793 
L 430.948767 -55.67793 
L 440.936712 -55.67793 
L 450.924658 -55.67793 
L 450.924658 -335.17085 
L 450.924658 -335.17085 
L 440.936712 -335.17085 
L 430.948767 -335.17085 
L 420.960822 -335.17085 
L 410.972877 -335.17085 
L 400.984932 -335.17085 
L 390.996986 -335.17085 
L 381.009041 -335.17085 
L 371.021096 -335.17085 
L 361.033151 -335.17085 
z
" style="stroke: #000000; stroke-opacity: 0.05"/>
    </defs>
    <g clip-path="url(#p4288adfb96)">
     <use xlink:href="#m8cb9f212e1" x="0" y="432" style="fill-opacity: 0.05; stroke: #000000; stroke-opacity: 0.05"/>
    </g>
   </g>
   <g id="matplotlib.axis_1">
    <g id="xtick_1">
     <g id="line2d_1">
      <defs>
       <path id="mfbc11cb16e" d="M 0 0 
L 0 3.5 
" style="stroke: #000000; stroke-width: 0.8"/>
      </defs>
      <g>
       <use xlink:href="#mfbc11cb16e" x="65.675342" y="378" style="stroke: #000000; stroke-width: 0.8"/>
      </g>
     </g>
     <g id="text_5">
      <!-- $\mathdefault{0.0}$ -->
      <g transform="translate(55.650535 395.37774) scale(0.15 -0.15)">
       <defs>
        <path id="HFBR17-30" d="M 947 4087 
C 762 3959 634 3785 538 3586 
C 307 3136 282 2609 282 2037 
C 282 1317 410 656 768 276 
C 1107 -77 1645 -167 2099 19 
C 2381 129 2586 366 2714 623 
C 2944 1080 2970 1626 2970 2191 
C 2970 2371 2963 2551 2944 2731 
C 2899 3162 2752 3637 2515 3901 
C 2125 4332 1427 4428 947 4087 
z
M 2234 3721 
C 2534 3400 2560 2783 2560 2198 
L 2560 1851 
C 2560 1555 2509 1170 2445 951 
C 2355 649 2208 431 1914 296 
C 1555 167 1184 289 979 572 
C 704 938 691 1587 691 2159 
C 691 2699 698 3297 960 3650 
C 1248 4036 1869 4100 2234 3721 
z
" transform="scale(0.015625)"/>
        <path id="HFBRMI10-3a" d="M 685 500 
L 685 0 
L 1184 0 
L 1184 500 
L 685 500 
z
" transform="scale(0.015625)"/>
       </defs>
       <use xlink:href="#HFBR17-30" transform="scale(0.996264)"/>
       <use xlink:href="#HFBRMI10-3a" transform="translate(50.643218 0) scale(0.996264)"/>
       <use xlink:href="#HFBR17-30" transform="translate(79.700665 0) scale(0.996264)"/>
      </g>
     </g>
    </g>
    <g id="xtick_2">
     <g id="line2d_2">
      <g>
       <use xlink:href="#mfbc11cb16e" x="119.182192" y="378" style="stroke: #000000; stroke-width: 0.8"/>
      </g>
     </g>
     <g id="text_6">
      <!-- $\mathdefault{0.5}$ -->
      <g transform="translate(109.157384 395.37774) scale(0.15 -0.15)">
       <defs>
        <path id="HFBR17-35" d="M 538 4245 
L 538 1949 
L 781 1949 
C 813 1949 858 1943 883 1956 
C 915 1975 934 2020 954 2046 
C 998 2103 1050 2148 1101 2193 
C 1331 2386 1773 2463 2067 2315 
C 2470 2123 2547 1614 2515 1216 
C 2496 964 2419 733 2272 585 
C 1933 224 1363 224 947 435 
C 742 538 570 699 442 891 
L 435 891 
C 416 859 269 634 269 595 
C 269 569 288 550 301 531 
C 493 306 742 132 1030 36 
C 1600 -144 2240 -3 2643 460 
C 3123 1019 3059 1930 2502 2417 
C 2336 2572 2106 2681 1830 2706 
C 1459 2758 1126 2578 928 2411 
L 928 3904 
L 2746 3904 
L 2746 4245 
L 538 4245 
z
" transform="scale(0.015625)"/>
       </defs>
       <use xlink:href="#HFBR17-30" transform="scale(0.996264)"/>
       <use xlink:href="#HFBRMI10-3a" transform="translate(50.643218 0) scale(0.996264)"/>
       <use xlink:href="#HFBR17-35" transform="translate(79.700665 0) scale(0.996264)"/>
      </g>
     </g>
    </g>
    <g id="xtick_3">
     <g id="line2d_3">
      <g>
       <use xlink:href="#mfbc11cb16e" x="172.689041" y="378" style="stroke: #000000; stroke-width: 0.8"/>
      </g>
     </g>
     <g id="text_7">
      <!-- $\mathdefault{1.0}$ -->
      <g transform="translate(162.664233 395.37774) scale(0.15 -0.15)">
       <defs>
        <path id="HFBR17-31" d="M 621 3841 
L 621 3520 
C 973 3520 1216 3584 1498 3706 
L 1498 321 
L 659 321 
L 659 0 
L 2752 0 
L 2752 321 
L 1914 321 
L 1914 4288 
C 1760 4288 1786 4247 1664 4152 
C 1402 3950 1037 3841 621 3841 
z
" transform="scale(0.015625)"/>
       </defs>
       <use xlink:href="#HFBR17-31" transform="scale(0.996264)"/>
       <use xlink:href="#HFBRMI10-3a" transform="translate(50.643218 0) scale(0.996264)"/>
       <use xlink:href="#HFBR17-30" transform="translate(79.700665 0) scale(0.996264)"/>
      </g>
     </g>
    </g>
    <g id="xtick_4">
     <g id="line2d_4">
      <g>
       <use xlink:href="#mfbc11cb16e" x="226.19589" y="378" style="stroke: #000000; stroke-width: 0.8"/>
      </g>
     </g>
     <g id="text_8">
      <!-- $\mathdefault{1.5}$ -->
      <g transform="translate(216.171083 395.37774) scale(0.15 -0.15)">
       <use xlink:href="#HFBR17-31" transform="scale(0.996264)"/>
       <use xlink:href="#HFBRMI10-3a" transform="translate(50.643218 0) scale(0.996264)"/>
       <use xlink:href="#HFBR17-35" transform="translate(79.700665 0) scale(0.996264)"/>
      </g>
     </g>
    </g>
    <g id="xtick_5">
     <g id="line2d_5">
      <g>
       <use xlink:href="#mfbc11cb16e" x="279.70274" y="378" style="stroke: #000000; stroke-width: 0.8"/>
      </g>
     </g>
     <g id="text_9">
      <!-- $\mathdefault{2.0}$ -->
      <g transform="translate(269.677932 395.37774) scale(0.15 -0.15)">
       <defs>
        <path id="HFBR17-32" d="M 467 2942 
C 557 3302 710 3711 1075 3872 
C 1229 3936 1395 3949 1562 3936 
C 1875 3910 2182 3782 2374 3526 
C 2515 3333 2566 3096 2541 2866 
C 2464 2198 1811 1718 1389 1359 
C 1146 1154 454 500 454 500 
L 346 397 
C 288 340 282 340 282 224 
L 282 0 
L 2970 0 
L 2970 360 
L 653 360 
C 858 559 1709 1313 1824 1403 
C 2195 1706 2611 2008 2835 2446 
C 3085 2948 2976 3580 2554 3953 
C 2298 4179 1946 4288 1606 4288 
C 1293 4288 973 4224 723 4026 
C 531 3865 371 3628 282 3384 
C 262 3346 230 3282 237 3237 
C 243 3199 282 3167 301 3141 
C 352 3077 403 3000 467 2942 
z
" transform="scale(0.015625)"/>
       </defs>
       <use xlink:href="#HFBR17-32" transform="scale(0.996264)"/>
       <use xlink:href="#HFBRMI10-3a" transform="translate(50.643218 0) scale(0.996264)"/>
       <use xlink:href="#HFBR17-30" transform="translate(79.700665 0) scale(0.996264)"/>
      </g>
     </g>
    </g>
    <g id="xtick_6">
     <g id="line2d_6">
      <g>
       <use xlink:href="#mfbc11cb16e" x="333.209589" y="378" style="stroke: #000000; stroke-width: 0.8"/>
      </g>
     </g>
     <g id="text_10">
      <!-- $\mathdefault{2.5}$ -->
      <g transform="translate(323.184781 395.37774) scale(0.15 -0.15)">
       <use xlink:href="#HFBR17-32" transform="scale(0.996264)"/>
       <use xlink:href="#HFBRMI10-3a" transform="translate(50.643218 0) scale(0.996264)"/>
       <use xlink:href="#HFBR17-35" transform="translate(79.700665 0) scale(0.996264)"/>
      </g>
     </g>
    </g>
    <g id="xtick_7">
     <g id="line2d_7">
      <g>
       <use xlink:href="#mfbc11cb16e" x="386.716438" y="378" style="stroke: #000000; stroke-width: 0.8"/>
      </g>
     </g>
     <g id="text_11">
      <!-- $\mathdefault{3.0}$ -->
      <g transform="translate(376.691631 395.37774) scale(0.15 -0.15)">
       <defs>
        <path id="HFBR17-33" d="M 518 3246 
C 570 3323 608 3407 666 3484 
C 800 3664 986 3805 1197 3889 
C 1530 4024 2016 4024 2278 3726 
C 2509 3461 2413 3047 2202 2802 
C 2010 2576 1760 2466 1389 2466 
C 1280 2466 1178 2434 1069 2434 
L 1069 2112 
L 1510 2112 
C 1882 2112 2125 2055 2330 1836 
C 2682 1463 2650 801 2259 461 
C 2061 294 1786 242 1530 261 
C 1030 300 589 564 294 975 
C 262 911 262 821 250 750 
C 230 647 230 647 294 564 
C 480 313 845 82 1133 -2 
C 1645 -156 2240 -86 2637 306 
C 2714 384 2784 467 2842 557 
C 3078 930 3085 1418 2822 1778 
C 2714 1926 2573 2042 2413 2132 
C 2304 2196 2176 2260 2048 2273 
C 2419 2447 2765 2741 2829 3223 
C 2886 3672 2624 3948 2355 4108 
C 1939 4352 1395 4352 966 4139 
C 768 4043 589 3902 454 3728 
C 429 3696 333 3587 333 3535 
C 333 3503 358 3471 378 3445 
L 518 3246 
z
" transform="scale(0.015625)"/>
       </defs>
       <use xlink:href="#HFBR17-33" transform="scale(0.996264)"/>
       <use xlink:href="#HFBRMI10-3a" transform="translate(50.643218 0) scale(0.996264)"/>
       <use xlink:href="#HFBR17-30" transform="translate(79.700665 0) scale(0.996264)"/>
      </g>
     </g>
    </g>
    <g id="xtick_8">
     <g id="line2d_8">
      <g>
       <use xlink:href="#mfbc11cb16e" x="440.223288" y="378" style="stroke: #000000; stroke-width: 0.8"/>
      </g>
     </g>
     <g id="text_12">
      <!-- $\mathdefault{3.5}$ -->
      <g transform="translate(430.19848 395.37774) scale(0.15 -0.15)">
       <use xlink:href="#HFBR17-33" transform="scale(0.996264)"/>
       <use xlink:href="#HFBRMI10-3a" transform="translate(50.643218 0) scale(0.996264)"/>
       <use xlink:href="#HFBR17-35" transform="translate(79.700665 0) scale(0.996264)"/>
      </g>
     </g>
    </g>
    <g id="text_13">
     <!-- Time (s) -->
     <g transform="translate(230.081099 413.07637) scale(0.15 -0.15)">
      <defs>
       <path id="HFBR17-54" d="M 192 4437 
L 192 4096 
L 2016 4096 
L 2016 0 
L 2464 0 
L 2464 4096 
L 4288 4096 
L 4288 4437 
L 192 4437 
z
" transform="scale(0.015625)"/>
       <path id="HFBR17-28" d="M 2189 -1408 
C 2138 -1350 2074 -1298 2016 -1247 
C 1965 -1202 1920 -1151 1875 -1099 
C 1235 -392 902 739 954 1941 
C 979 2596 1107 3264 1414 3856 
C 1555 4119 1798 4492 2016 4678 
C 2074 4730 2138 4781 2189 4839 
L 1978 4839 
C 1946 4839 1901 4845 1869 4833 
C 1792 4794 1600 4601 1574 4575 
C 960 3959 595 3027 544 1941 
C 512 1163 640 372 986 -322 
C 1139 -630 1344 -913 1587 -1157 
C 1651 -1221 1792 -1363 1869 -1401 
C 1901 -1414 1946 -1408 1978 -1408 
L 2189 -1408 
z
" transform="scale(0.015625)"/>
       <path id="HFBR17-29" d="M 320 4839 
C 371 4781 435 4730 493 4678 
C 544 4633 589 4582 634 4530 
C 1190 3888 1510 3014 1555 1941 
C 1587 1144 1466 315 1101 -405 
C 979 -656 819 -894 634 -1099 
C 589 -1151 544 -1202 493 -1247 
C 435 -1298 371 -1350 320 -1408 
L 531 -1408 
C 563 -1408 608 -1414 640 -1401 
C 717 -1363 909 -1170 934 -1144 
C 1549 -527 1914 405 1965 1491 
C 1997 2268 1869 3059 1523 3753 
C 1370 4061 1165 4344 922 4588 
C 858 4653 717 4794 640 4833 
C 608 4845 563 4839 531 4839 
L 320 4839 
z
" transform="scale(0.015625)"/>
      </defs>
      <use xlink:href="#HFBR17-54" transform="scale(0.996264)"/>
      <use xlink:href="#HFBR17-69" transform="translate(69.738177 0) scale(0.996264)"/>
      <use xlink:href="#HFBR17-6d" transform="translate(88.833136 0) scale(0.996264)"/>
      <use xlink:href="#HFBR17-65" transform="translate(166.043262 0) scale(0.996264)"/>
      <use xlink:href="#HFBR17-28" transform="translate(242.340141 0) scale(0.996264)"/>
      <use xlink:href="#HFBR17-73" transform="translate(281.36035 0) scale(0.996264)"/>
      <use xlink:href="#HFBR17-29" transform="translate(319.799379 0) scale(0.996264)"/>
     </g>
    </g>
   </g>
   <g id="matplotlib.axis_2">
    <g id="ytick_1">
     <g id="line2d_9">
      <defs>
       <path id="m4c3caf7ee8" d="M 0 0 
L -3.5 0 
" style="stroke: #000000; stroke-width: 0.8"/>
      </defs>
      <g>
       <use xlink:href="#m4c3caf7ee8" x="63" y="344.58643" style="stroke: #000000; stroke-width: 0.8"/>
      </g>
     </g>
     <g id="text_14">
      <!-- $\mathdefault{5}$ -->
      <g transform="translate(48.154497 349.7753) scale(0.15 -0.15)">
       <use xlink:href="#HFBR17-35" transform="scale(0.996264)"/>
      </g>
     </g>
    </g>
    <g id="ytick_2">
     <g id="line2d_10">
      <g>
       <use xlink:href="#m4c3caf7ee8" x="63" y="311.027823" style="stroke: #000000; stroke-width: 0.8"/>
      </g>
     </g>
     <g id="text_15">
      <!-- $\mathdefault{10}$ -->
      <g transform="translate(40.308994 316.216693) scale(0.15 -0.15)">
       <use xlink:href="#HFBR17-31" transform="scale(0.996264)"/>
       <use xlink:href="#HFBR17-30" transform="translate(50.643218 0) scale(0.996264)"/>
      </g>
     </g>
    </g>
    <g id="ytick_3">
     <g id="line2d_11">
      <g>
       <use xlink:href="#m4c3caf7ee8" x="63" y="277.469216" style="stroke: #000000; stroke-width: 0.8"/>
      </g>
     </g>
     <g id="text_16">
      <!-- $\mathdefault{15}$ -->
      <g transform="translate(40.308994 282.658086) scale(0.15 -0.15)">
       <use xlink:href="#HFBR17-31" transform="scale(0.996264)"/>
       <use xlink:href="#HFBR17-35" transform="translate(50.643218 0) scale(0.996264)"/>
      </g>
     </g>
    </g>
    <g id="ytick_4">
     <g id="line2d_12">
      <g>
       <use xlink:href="#m4c3caf7ee8" x="63" y="243.910609" style="stroke: #000000; stroke-width: 0.8"/>
      </g>
     </g>
     <g id="text_17">
      <!-- $\mathdefault{20}$ -->
      <g transform="translate(40.308994 249.099479) scale(0.15 -0.15)">
       <use xlink:href="#HFBR17-32" transform="scale(0.996264)"/>
       <use xlink:href="#HFBR17-30" transform="translate(50.643218 0) scale(0.996264)"/>
      </g>
     </g>
    </g>
    <g id="ytick_5">
     <g id="line2d_13">
      <g>
       <use xlink:href="#m4c3caf7ee8" x="63" y="210.352002" style="stroke: #000000; stroke-width: 0.8"/>
      </g>
     </g>
     <g id="text_18">
      <!-- $\mathdefault{25}$ -->
      <g transform="translate(40.308994 215.540872) scale(0.15 -0.15)">
       <use xlink:href="#HFBR17-32" transform="scale(0.996264)"/>
       <use xlink:href="#HFBR17-35" transform="translate(50.643218 0) scale(0.996264)"/>
      </g>
     </g>
    </g>
    <g id="ytick_6">
     <g id="line2d_14">
      <g>
       <use xlink:href="#m4c3caf7ee8" x="63" y="176.793394" style="stroke: #000000; stroke-width: 0.8"/>
      </g>
     </g>
     <g id="text_19">
      <!-- $\mathdefault{30}$ -->
      <g transform="translate(40.308994 181.982264) scale(0.15 -0.15)">
       <use xlink:href="#HFBR17-33" transform="scale(0.996264)"/>
       <use xlink:href="#HFBR17-30" transform="translate(50.643218 0) scale(0.996264)"/>
      </g>
     </g>
    </g>
    <g id="ytick_7">
     <g id="line2d_15">
      <g>
       <use xlink:href="#m4c3caf7ee8" x="63" y="143.234787" style="stroke: #000000; stroke-width: 0.8"/>
      </g>
     </g>
     <g id="text_20">
      <!-- $\mathdefault{35}$ -->
      <g transform="translate(40.308994 148.423657) scale(0.15 -0.15)">
       <use xlink:href="#HFBR17-33" transform="scale(0.996264)"/>
       <use xlink:href="#HFBR17-35" transform="translate(50.643218 0) scale(0.996264)"/>
      </g>
     </g>
    </g>
    <g id="ytick_8">
     <g id="line2d_16">
      <g>
       <use xlink:href="#m4c3caf7ee8" x="63" y="109.67618" style="stroke: #000000; stroke-width: 0.8"/>
      </g>
     </g>
     <g id="text_21">
      <!-- $\mathdefault{40}$ -->
      <g transform="translate(40.308994 114.86505) scale(0.15 -0.15)">
       <defs>
        <path id="HFBR17-34" d="M 134 1152 
L 1984 1152 
L 1984 0 
L 2387 0 
L 2387 1152 
L 3117 1152 
L 3117 1493 
L 2387 1493 
L 2387 4254 
L 2042 4254 
C 1926 4254 1894 4261 1843 4164 
C 1587 3745 237 1649 192 1591 
C 141 1500 134 1507 134 1372 
L 134 1152 
z
M 2003 3896 
L 2003 1493 
L 550 1493 
C 595 1583 659 1666 717 1756 
C 1037 2251 1798 3427 1958 3794 
C 1978 3826 1984 3864 2003 3896 
z
" transform="scale(0.015625)"/>
       </defs>
       <use xlink:href="#HFBR17-34" transform="scale(0.996264)"/>
       <use xlink:href="#HFBR17-30" transform="translate(50.643218 0) scale(0.996264)"/>
      </g>
     </g>
    </g>
    <g id="text_22">
     <!-- Maximum of firing rate (Hz) -->
     <g transform="translate(32.988104 327.583451) rotate(-90) scale(0.15 -0.15)">
      <defs>
       <path id="HFBR17-4d" d="M 538 4454 
L 538 0 
L 934 0 
L 934 4049 
L 941 4049 
C 966 3940 1056 3721 1082 3650 
L 1363 2943 
C 1638 2269 2464 263 2502 161 
C 2522 90 2554 77 2637 77 
L 2810 77 
C 2835 77 2867 71 2899 77 
C 2931 84 2938 116 2950 141 
C 2970 199 2995 251 3021 308 
C 3315 1028 4480 3875 4525 4049 
L 4531 4049 
L 4531 0 
L 4928 0 
L 4928 4454 
C 4736 4454 4506 4486 4339 4454 
L 4294 4358 
C 3770 3071 3232 1801 2733 488 
C 2624 779 2509 1061 2394 1345 
C 1965 2374 1568 3437 1120 4454 
C 960 4493 723 4454 538 4454 
z
" transform="scale(0.015625)"/>
       <path id="HFBR17-78" d="M -13 3033 
L 646 2206 
L 1165 1571 
L 1165 1565 
L 1005 1365 
L -51 0 
C 96 0 250 0 390 0 
L 474 104 
L 1338 1333 
L 1344 1333 
C 1664 891 1984 442 2323 19 
C 2458 0 2618 0 2771 0 
L 1990 979 
C 1837 1178 1677 1372 1517 1565 
L 1517 1571 
L 1734 1840 
L 2656 3033 
C 2509 3033 2362 3033 2221 3033 
L 2138 2937 
L 1344 1867 
C 1037 2243 749 2644 435 3014 
C 301 3033 141 3033 -13 3033 
z
" transform="scale(0.015625)"/>
       <path id="HFBR17-66" d="M 678 3009 
L 128 3009 
L 128 2688 
L 678 2688 
L 678 -32 
L 1082 -32 
L 1082 2688 
L 1875 2688 
L 1875 3009 
L 1075 3009 
L 1075 3570 
C 1075 3660 1056 3771 1094 3861 
C 1229 4144 1683 4196 2054 4132 
C 2131 4119 2202 4093 2278 4080 
L 2278 4441 
C 1843 4512 1363 4512 1005 4219 
C 947 4168 896 4118 851 4053 
C 717 3888 678 3704 678 3417 
L 678 3009 
z
" transform="scale(0.015625)"/>
       <path id="HFBR17-c" d="M 678 3009 
L 128 3009 
L 128 2688 
L 678 2688 
L 678 0 
L 1082 0 
L 1082 2688 
L 1926 2688 
L 1926 3009 
L 1075 3009 
L 1075 3533 
C 1075 3792 1050 3931 1210 4077 
C 1402 4222 1645 4222 1926 4101 
L 1926 4474 
C 1773 4500 1613 4525 1453 4513 
C 1280 4500 1094 4414 992 4309 
C 819 4170 704 3900 678 3650 
C 672 3563 678 3484 678 3399 
L 678 3009 
z
M 2438 4480 
L 2438 4075 
L 2842 4075 
L 2842 4480 
L 2438 4480 
z
M 2438 3033 
L 2438 0 
L 2842 0 
L 2842 3033 
L 2438 3033 
z
" transform="scale(0.015625)"/>
       <path id="HFBR17-67" d="M 2266 767 
L 2272 767 
L 2272 170 
C 2272 -10 2272 -183 2214 -356 
C 2118 -588 1952 -800 1677 -838 
C 1600 -845 1517 -838 1440 -832 
C 1024 -832 749 -707 416 -555 
L 416 -799 
C 416 -922 435 -928 557 -967 
C 883 -1102 1472 -1236 1875 -1134 
C 2323 -1018 2650 -594 2682 -78 
C 2688 12 2682 109 2682 200 
L 2682 3072 
L 2278 3072 
L 2278 2559 
C 2182 2719 2080 2867 1914 2970 
C 1466 3240 858 2944 608 2597 
C 198 2089 122 1302 448 735 
C 512 626 589 523 678 433 
C 986 131 1510 -30 1888 240 
C 2042 343 2221 581 2266 767 
z
M 1632 2752 
C 1690 2752 1754 2752 1811 2739 
C 2042 2694 2170 2488 2246 2282 
C 2291 2141 2278 1987 2278 1839 
C 2278 1518 2272 1184 2163 881 
C 2086 657 1926 457 1677 432 
C 1594 425 1510 438 1427 457 
C 1037 547 768 881 685 1267 
C 570 1826 845 2507 1408 2700 
C 1478 2726 1555 2745 1632 2752 
z
" transform="scale(0.015625)"/>
       <path id="HFBR17-48" d="M 512 4460 
L 512 0 
L 960 0 
L 960 2155 
L 3386 2155 
L 3386 0 
L 3834 0 
L 3834 4460 
L 3386 4460 
L 3386 2496 
L 960 2496 
L 960 4460 
L 512 4460 
z
" transform="scale(0.015625)"/>
       <path id="HFBR17-7a" d="M 230 3008 
L 230 2693 
L 2074 2693 
L 646 866 
C 480 643 294 446 141 210 
C 134 147 134 70 134 0 
L 2650 0 
L 2650 321 
L 691 321 
L 2131 2155 
C 2291 2372 2464 2575 2624 2798 
C 2630 2862 2630 2939 2630 3008 
L 230 3008 
z
" transform="scale(0.015625)"/>
      </defs>
      <use xlink:href="#HFBR17-4d" transform="scale(0.996264)"/>
      <use xlink:href="#HFBR17-61" transform="translate(85.097297 0) scale(0.996264)"/>
      <use xlink:href="#HFBR17-78" transform="translate(131.58938 0) scale(0.996264)"/>
      <use xlink:href="#HFBR17-69" transform="translate(173.930418 0) scale(0.996264)"/>
      <use xlink:href="#HFBR17-6d" transform="translate(193.025377 0) scale(0.996264)"/>
      <use xlink:href="#HFBR17-75" transform="translate(270.235503 0) scale(0.996264)"/>
      <use xlink:href="#HFBR17-6d" transform="translate(318.388 0) scale(0.996264)"/>
      <use xlink:href="#HFBR17-6f" transform="translate(427.063338 0) scale(0.996264)"/>
      <use xlink:href="#HFBR17-66" transform="translate(477.706556 0) scale(0.996264)"/>
      <use xlink:href="#HFBR17-c" transform="translate(539.474712 0) scale(0.996264)"/>
      <use xlink:href="#HFBR17-72" transform="translate(590.117929 0) scale(0.996264)"/>
      <use xlink:href="#HFBR17-69" transform="translate(622.081288 0) scale(0.996264)"/>
      <use xlink:href="#HFBR17-6e" transform="translate(641.176247 0) scale(0.996264)"/>
      <use xlink:href="#HFBR17-67" transform="translate(689.328744 0) scale(0.996264)"/>
      <use xlink:href="#HFBR17-72" transform="translate(768.946453 0) scale(0.996264)"/>
      <use xlink:href="#HFBR17-61" transform="translate(800.909811 0) scale(0.996264)"/>
      <use xlink:href="#HFBR17-74" transform="translate(847.401894 0) scale(0.996264)"/>
      <use xlink:href="#HFBR17-65" transform="translate(883.516282 0) scale(0.996264)"/>
      <use xlink:href="#HFBR17-28" transform="translate(959.813161 0) scale(0.996264)"/>
      <use xlink:href="#HFBR17-48" transform="translate(998.83337 0) scale(0.996264)"/>
      <use xlink:href="#HFBR17-7a" transform="translate(1066.496123 0) scale(0.996264)"/>
      <use xlink:href="#HFBR17-29" transform="translate(1109.252276 0) scale(0.996264)"/>
     </g>
    </g>
   </g>
   <g id="line2d_17">
    <path d="M 65.675342 376.311562 
L 69.979804 374.183316 
L 71.055919 373.740264 
L 73.20815 372.561146 
L 75.360381 371.492567 
L 77.512612 370.21827 
L 80.740958 367.875927 
L 85.04542 364.367861 
L 89.349881 360.433895 
L 92.578228 357.632462 
L 96.882689 353.923974 
L 106.567728 345.776537 
L 110.872189 342.322483 
L 113.02442 340.535271 
L 125.937805 330.983698 
L 132.394498 326.79302 
L 139.927305 322.121546 
L 143.155652 320.443727 
L 146.383998 318.510504 
L 148.536229 317.066443 
L 150.688459 316.17906 
L 152.84069 315.663339 
L 156.069037 315.204774 
L 163.601844 314.498652 
L 187.276383 312.591819 
L 213.103153 310.72015 
L 238.929923 309.077096 
L 264.756692 307.661452 
L 291.659578 306.414606 
L 319.638578 305.34102 
L 349.769809 304.406814 
L 360.530963 304.119188 
L 361.607079 304.511502 
L 363.75931 306.351842 
L 366.987656 308.549825 
L 369.139887 309.853153 
L 372.368233 311.488316 
L 374.520464 312.352462 
L 375.596579 312.739888 
L 377.74881 313.271769 
L 379.901041 314.02396 
L 383.129387 314.705195 
L 389.586079 315.789332 
L 390.662195 315.831576 
L 394.966656 316.424446 
L 399.271118 316.585578 
L 402.499464 316.503291 
L 404.651695 316.407476 
L 406.803926 316.32892 
L 408.956157 316.005728 
L 412.184503 315.848211 
L 415.412849 315.560141 
L 418.641195 315.045461 
L 422.945657 314.370287 
L 426.174003 313.717891 
L 430.478465 312.858056 
L 434.782926 311.902775 
L 435.859042 311.710565 
L 439.087388 310.839741 
L 441.239619 310.30862 
L 445.544081 308.20508 
L 447.696311 307.741261 
L 450.924658 307.470907 
L 450.924658 307.470907 
" clip-path="url(#p4288adfb96)" style="fill: none; stroke-dasharray: 9.6,2.4,1.5,2.4; stroke-dashoffset: 0; stroke: #ffa500; stroke-width: 1.5"/>
   </g>
   <g id="line2d_18">
    <path d="M 65.675342 376.253031 
L 67.827573 375.080361 
L 72.132035 372.77275 
L 76.436497 370.267832 
L 78.588727 368.801009 
L 81.817074 366.146566 
L 85.04542 362.907898 
L 93.654343 353.865006 
L 101.187151 345.320619 
L 104.415497 341.681985 
L 114.100536 330.626039 
L 117.328882 327.009796 
L 120.557228 323.317929 
L 131.318382 312.043238 
L 138.85119 304.888346 
L 145.307882 299.125037 
L 147.460113 296.471822 
L 149.612344 294.058574 
L 151.764575 292.160324 
L 154.992921 289.820475 
L 159.297383 287.059492 
L 165.754075 283.200682 
L 172.210768 279.590803 
L 178.66746 276.242354 
L 185.124152 273.174227 
L 190.504729 270.839608 
L 195.885306 268.708555 
L 201.265884 266.778227 
L 207.722576 264.717563 
L 214.179268 262.920179 
L 220.635961 261.365533 
L 227.092653 260.030655 
L 234.625461 258.719169 
L 242.158269 257.636894 
L 250.767192 256.635773 
L 260.452231 255.754437 
L 271.213385 255.013348 
L 284.12677 254.370859 
L 299.192385 253.86091 
L 318.562463 253.450788 
L 344.389232 253.15188 
L 360.530963 253.053993 
L 361.607079 254.03595 
L 364.835425 258.852925 
L 366.987656 261.623181 
L 370.216002 265.002929 
L 372.368233 266.783461 
L 376.672695 269.859867 
L 379.901041 271.799349 
L 387.433849 275.27075 
L 394.966656 277.871437 
L 401.423349 279.519666 
L 403.57558 280.000035 
L 405.727811 280.465929 
L 407.880041 280.852282 
L 411.108388 281.434587 
L 414.336734 281.700213 
L 416.488965 281.941039 
L 420.793426 282.212264 
L 428.326234 282.728775 
L 430.478465 282.791616 
L 438.011273 282.602689 
L 441.239619 282.56523 
L 442.315734 281.968725 
L 444.467965 280.158412 
L 446.620196 278.709484 
L 448.772427 277.573586 
L 450.924658 276.601582 
L 450.924658 276.601582 
" clip-path="url(#p4288adfb96)" style="fill: none; stroke-dasharray: 5.55,2.4; stroke-dashoffset: 0; stroke: #ffa500; stroke-width: 1.5"/>
   </g>
   <g id="line2d_19">
    <path d="M 65.675342 376.14251 
L 67.827573 374.814904 
L 73.20815 371.801663 
L 76.436497 369.557594 
L 78.588727 367.678604 
L 80.740958 365.446856 
L 83.969304 361.887793 
L 89.349881 354.400086 
L 93.654343 347.812904 
L 96.882689 342.404754 
L 99.03492 338.58259 
L 104.415497 328.866235 
L 113.02442 312.181285 
L 119.481113 299.12036 
L 128.090036 281.911239 
L 132.394498 273.980756 
L 135.622844 268.555329 
L 138.85119 263.613819 
L 144.231767 256.230306 
L 145.307882 254.880357 
L 146.383998 252.702349 
L 148.536229 247.792886 
L 150.688459 243.607736 
L 152.84069 240.063169 
L 154.992921 236.945292 
L 157.145152 234.13568 
L 159.297383 231.581205 
L 161.449614 229.258033 
L 163.601844 227.152835 
L 165.754075 225.255153 
L 168.982421 222.774721 
L 172.210768 220.698604 
L 175.439114 218.982791 
L 178.66746 217.580009 
L 181.895806 216.442824 
L 185.124152 215.526431 
L 189.428614 214.579092 
L 193.733076 213.872587 
L 199.113653 213.232942 
L 205.570345 212.706597 
L 214.179268 212.253088 
L 226.016538 211.87523 
L 244.3105 211.540041 
L 273.365616 211.250751 
L 319.638578 211.031185 
L 360.530963 210.970406 
L 361.607079 212.961504 
L 363.75931 217.698378 
L 365.911541 221.59867 
L 366.987656 223.229922 
L 369.139887 225.914654 
L 372.368233 229.150087 
L 374.520464 230.879229 
L 377.74881 232.917913 
L 382.053272 234.800871 
L 386.357733 236.019175 
L 389.586079 236.924117 
L 393.890541 237.62787 
L 394.966656 237.884765 
L 399.271118 238.302566 
L 402.499464 238.806538 
L 408.956157 239.329466 
L 410.032272 239.503885 
L 414.336734 239.651176 
L 415.412849 239.630863 
L 416.488965 239.825065 
L 421.869542 239.996041 
L 422.945657 239.909244 
L 425.097888 240.005588 
L 426.174003 240.167045 
L 434.782926 240.194022 
L 435.859042 240.265586 
L 436.935157 240.203011 
L 439.087388 240.299806 
L 441.239619 240.26486 
L 442.315734 239.00142 
L 445.544081 233.818994 
L 447.696311 230.982217 
L 449.848542 228.565092 
L 450.924658 227.473568 
L 450.924658 227.473568 
" clip-path="url(#p4288adfb96)" style="fill: none; stroke: #ffa500; stroke-width: 1.5; stroke-linecap: square"/>
   </g>
   <g id="line2d_20">
    <path d="M 65.675342 376.03624 
L 66.751458 375.301949 
L 69.979804 373.507307 
L 72.132035 371.905717 
L 74.284266 370.139802 
L 77.512612 367.352564 
L 79.664843 364.963795 
L 81.817074 362.112123 
L 83.969304 358.846462 
L 86.121535 355.185557 
L 90.425997 346.797641 
L 92.578228 342.151672 
L 95.806574 334.648213 
L 97.958805 329.340449 
L 100.111035 323.611775 
L 103.339382 314.475677 
L 108.719959 297.895075 
L 120.557228 260.417565 
L 122.709459 254.179288 
L 124.86169 248.313431 
L 128.090036 240.336207 
L 132.394498 231.472044 
L 134.546728 227.673045 
L 137.775075 222.91857 
L 139.927305 220.253477 
L 142.079536 217.955743 
L 145.307882 215.127076 
L 149.612344 204.771628 
L 150.688459 202.84944 
L 151.764575 201.213171 
L 152.84069 199.813347 
L 154.992921 197.566385 
L 157.145152 195.873129 
L 159.297383 194.5859 
L 161.449614 193.603809 
L 163.601844 192.852463 
L 166.830191 192.038053 
L 170.058537 191.481045 
L 174.362998 190.987164 
L 179.743575 190.59739 
L 188.352499 190.218941 
L 203.418114 189.812296 
L 230.320999 189.329861 
L 270.137269 188.855636 
L 334.704194 188.341041 
L 360.530963 188.193797 
L 361.607079 190.219658 
L 363.75931 194.853219 
L 365.911541 198.491488 
L 366.987656 199.860864 
L 369.139887 202.061928 
L 370.216002 203.020831 
L 372.368233 204.470664 
L 375.596579 205.997477 
L 377.74881 206.839311 
L 382.053272 207.836147 
L 383.129387 207.929417 
L 386.357733 208.499589 
L 389.586079 208.804984 
L 393.890541 208.918371 
L 396.042772 209.078281 
L 398.195003 209.135137 
L 402.499464 209.289505 
L 413.260618 209.428684 
L 415.412849 209.293008 
L 420.793426 209.454252 
L 421.869542 209.499723 
L 424.021772 209.445739 
L 426.174003 209.507685 
L 428.326234 209.505451 
L 429.402349 209.558644 
L 430.478465 209.463524 
L 431.55458 209.544783 
L 433.706811 209.404074 
L 440.163503 209.520181 
L 441.239619 209.399587 
L 442.315734 207.368244 
L 444.467965 202.759522 
L 445.544081 200.832318 
L 446.620196 199.18811 
L 447.696311 197.789059 
L 448.772427 196.595377 
L 450.924658 194.694594 
L 450.924658 194.694594 
" clip-path="url(#p4288adfb96)" style="fill: none; stroke-dasharray: 1.5,2.475; stroke-dashoffset: 0; stroke: #ffa500; stroke-width: 1.5"/>
   </g>
   <g id="patch_3">
    <path d="M 63 378 
L 63 95.15122 
" style="fill: none; stroke: #000000; stroke-width: 0.8; stroke-linejoin: miter; stroke-linecap: square"/>
   </g>
   <g id="patch_4">
    <path d="M 453.6 378 
L 453.6 95.15122 
" style="fill: none; stroke: #000000; stroke-width: 0.8; stroke-linejoin: miter; stroke-linecap: square"/>
   </g>
   <g id="patch_5">
    <path d="M 63 378 
L 453.6 378 
" style="fill: none; stroke: #000000; stroke-width: 0.8; stroke-linejoin: miter; stroke-linecap: square"/>
   </g>
   <g id="patch_6">
    <path d="M 63 95.15122 
L 453.6 95.15122 
" style="fill: none; stroke: #000000; stroke-width: 0.8; stroke-linejoin: miter; stroke-linecap: square"/>
   </g>
   <g id="line2d_21">
    <path d="M 65.675342 376.32207 
L 66.751458 375.591755 
L 68.903689 374.622465 
L 71.055919 373.579111 
L 73.20815 372.544333 
L 78.588727 369.520197 
L 81.817074 367.249962 
L 83.969304 365.474059 
L 89.349881 360.648723 
L 94.730458 355.966091 
L 95.806574 355.129108 
L 100.111035 351.251976 
L 107.643843 344.813224 
L 108.719959 344.004156 
L 110.872189 342.110953 
L 123.785574 332.440423 
L 130.242267 328.163825 
L 133.470613 326.224392 
L 138.85119 323.043623 
L 141.003421 321.858022 
L 145.307882 319.730399 
L 146.383998 317.756123 
L 147.460113 314.057507 
L 149.612344 304.252405 
L 151.764575 294.429035 
L 152.84069 290.34733 
L 154.992921 283.700699 
L 157.145152 277.30411 
L 158.221267 273.459355 
L 159.297383 268.834089 
L 160.373498 263.213745 
L 161.449614 256.453086 
L 162.525729 248.52098 
L 164.67796 229.735862 
L 168.982421 189.550004 
L 171.134652 172.865493 
L 172.210768 165.839516 
L 173.286883 159.680427 
L 174.362998 154.331303 
L 175.439114 149.716854 
L 176.515229 145.755649 
L 177.591345 142.368499 
L 178.66746 139.482499 
L 179.743575 137.032933 
L 180.819691 134.963325 
L 181.895806 133.224158 
L 182.971922 131.771074 
L 184.048037 130.563863 
L 185.124152 129.565946 
L 186.200268 128.744299 
L 188.352499 127.517092 
L 190.504729 126.696507 
L 192.65696 126.151066 
L 195.885306 125.652993 
L 200.189768 125.305463 
L 206.646461 125.065541 
L 216.331499 124.920101 
L 243.234384 124.896672 
L 252.919423 124.896594 
L 253.995538 125.949558 
L 255.071654 128.124006 
L 259.376115 138.251135 
L 261.528346 142.564798 
L 263.680577 146.156054 
L 265.832808 149.052007 
L 267.985039 151.324314 
L 270.137269 153.063763 
L 272.2895 154.36547 
L 274.441731 155.319576 
L 276.593962 156.005853 
L 278.746193 156.491279 
L 281.974539 156.957307 
L 286.279001 157.281856 
L 292.735693 157.475105 
L 306.725193 157.576345 
L 357.302617 157.616361 
L 360.530963 157.641192 
L 364.835425 164.26047 
L 365.911541 165.464639 
L 368.063771 167.202369 
L 370.216002 168.419968 
L 371.292118 168.835811 
L 376.672695 169.983725 
L 379.901041 170.359385 
L 384.205502 170.65173 
L 389.586079 170.679734 
L 398.195003 170.804547 
L 400.347233 170.820339 
L 414.336734 170.677604 
L 422.945657 170.745519 
L 428.326234 170.723676 
L 438.011273 170.773613 
L 440.163503 170.72289 
L 441.239619 170.847338 
L 444.467965 165.263305 
L 445.544081 163.911719 
L 446.620196 162.85673 
L 447.696311 162.037257 
L 448.772427 161.398038 
L 450.924658 160.496647 
L 450.924658 160.496647 
" clip-path="url(#p4288adfb96)" style="fill: none; stroke-dasharray: 9.6,2.4,1.5,2.4; stroke-dashoffset: 0; stroke: #0000ff; stroke-width: 1.5"/>
   </g>
   <g id="line2d_22">
    <path d="M 65.675342 376.139888 
L 66.751458 375.430166 
L 68.903689 374.379666 
L 73.20815 372.352911 
L 77.512612 369.810629 
L 78.588727 369.023546 
L 82.893189 365.188228 
L 86.121535 361.944588 
L 88.273766 359.799737 
L 90.425997 357.440188 
L 97.958805 349.122596 
L 108.719959 336.81495 
L 111.948305 333.074594 
L 114.100536 330.768394 
L 120.557228 323.496894 
L 122.709459 321.137658 
L 136.698959 306.512205 
L 142.079536 301.636746 
L 144.231767 299.691814 
L 145.307882 298.754069 
L 146.383998 295.85349 
L 147.460113 290.491238 
L 148.536229 283.721063 
L 151.764575 261.778137 
L 152.84069 255.621013 
L 154.992921 245.125317 
L 157.145152 234.390434 
L 158.221267 227.936072 
L 159.297383 220.475944 
L 161.449614 202.950195 
L 164.67796 175.389532 
L 165.754075 167.27446 
L 166.830191 160.014451 
L 167.906306 153.644996 
L 168.982421 148.132758 
L 170.058537 143.4054 
L 171.134652 139.375753 
L 172.210768 135.956935 
L 173.286883 133.069027 
L 174.362998 130.640771 
L 175.439114 128.609091 
L 176.515229 126.917423 
L 177.591345 125.514568 
L 178.66746 124.354552 
L 179.743575 123.396783 
L 181.895806 121.950486 
L 184.048037 120.94426 
L 186.200268 120.214843 
L 189.428614 119.442877 
L 192.65696 118.952293 
L 195.885306 118.675579 
L 201.265884 118.470776 
L 218.48373 118.167559 
L 248.614961 118.146897 
L 252.919423 118.146871 
L 253.995538 119.182885 
L 255.071654 121.317923 
L 259.376115 131.183832 
L 261.528346 135.338603 
L 263.680577 138.767236 
L 265.832808 141.504525 
L 267.985039 143.627826 
L 270.137269 145.231842 
L 272.2895 146.413974 
L 274.441731 147.2652 
L 276.593962 147.864965 
L 279.822308 148.43333 
L 283.050654 148.746796 
L 288.431231 148.978314 
L 298.11627 149.081702 
L 339.008655 149.122243 
L 360.530963 149.148563 
L 363.75931 154.032339 
L 364.835425 155.357013 
L 365.911541 156.355051 
L 368.063771 157.895884 
L 369.139887 158.492714 
L 370.216002 158.900286 
L 372.368233 159.484479 
L 373.444348 159.782809 
L 379.901041 160.41595 
L 385.281618 160.521685 
L 386.357733 160.558608 
L 388.509964 160.517998 
L 392.814426 160.583199 
L 394.966656 160.557648 
L 400.347233 160.487104 
L 402.499464 160.519581 
L 405.727811 160.331933 
L 408.956157 160.500103 
L 412.184503 160.544654 
L 414.336734 160.516363 
L 416.488965 160.482858 
L 441.239619 160.67982 
L 443.39185 157.109133 
L 444.467965 155.594478 
L 445.544081 154.398423 
L 446.620196 153.477234 
L 447.696311 152.771668 
L 449.848542 151.808029 
L 450.924658 151.478276 
L 450.924658 151.478276 
" clip-path="url(#p4288adfb96)" style="fill: none; stroke-dasharray: 5.55,2.4; stroke-dashoffset: 0; stroke: #0000ff; stroke-width: 1.5"/>
   </g>
   <g id="line2d_23">
    <path d="M 65.675342 376.166631 
L 66.751458 375.420169 
L 69.979804 373.670673 
L 74.284266 370.85847 
L 77.512612 368.372177 
L 81.817074 364.002673 
L 83.969304 361.558592 
L 87.197651 357.261566 
L 90.425997 352.628606 
L 93.654343 347.740275 
L 97.958805 340.497713 
L 102.263266 332.803147 
L 108.719959 320.2277 
L 123.785574 289.750963 
L 129.166151 279.417806 
L 135.622844 268.133124 
L 137.775075 264.75137 
L 143.155652 257.199477 
L 145.307882 254.525296 
L 146.383998 249.782457 
L 147.460113 241.108914 
L 151.764575 199.169143 
L 152.84069 191.782013 
L 153.916806 185.827759 
L 158.221267 164.954381 
L 162.525729 141.984235 
L 163.601844 137.100867 
L 164.67796 132.782533 
L 165.754075 129.029525 
L 166.830191 125.806211 
L 167.906306 123.058184 
L 168.982421 120.724569 
L 170.058537 118.746181 
L 171.134652 117.070081 
L 172.210768 115.65104 
L 173.286883 114.45065 
L 174.362998 113.435424 
L 176.515229 111.843487 
L 178.66746 110.676588 
L 180.819691 109.804667 
L 182.971922 109.155177 
L 186.200268 108.484586 
L 190.504729 107.918396 
L 194.809191 107.569565 
L 200.189768 107.374062 
L 210.950922 107.301559 
L 252.919423 107.295877 
L 253.995538 108.308063 
L 255.071654 110.388347 
L 259.376115 119.908599 
L 261.528346 123.864474 
L 263.680577 127.096901 
L 265.832808 129.649445 
L 267.985039 131.60517 
L 270.137269 133.062029 
L 272.2895 134.118651 
L 274.441731 134.865647 
L 276.593962 135.380931 
L 279.822308 135.854569 
L 284.12677 136.155752 
L 290.583462 136.301446 
L 308.877424 136.34958 
L 360.530963 136.381214 
L 363.75931 140.756018 
L 364.835425 141.861342 
L 366.987656 143.448829 
L 368.063771 144.041359 
L 370.216002 144.739052 
L 372.368233 145.139308 
L 374.520464 145.390879 
L 387.433849 145.635181 
L 392.814426 145.52598 
L 394.966656 145.583152 
L 398.195003 145.519802 
L 400.347233 145.529309 
L 402.499464 145.552632 
L 408.956157 145.451974 
L 411.108388 145.481319 
L 413.260618 145.498971 
L 416.488965 145.581641 
L 418.641195 145.591506 
L 422.945657 145.688605 
L 425.097888 145.796019 
L 427.250119 145.716539 
L 441.239619 145.815569 
L 443.39185 142.704195 
L 444.467965 141.428491 
L 445.544081 140.438273 
L 446.620196 139.689799 
L 447.696311 139.127895 
L 449.848542 138.382392 
L 450.924658 138.134809 
L 450.924658 138.134809 
" clip-path="url(#p4288adfb96)" style="fill: none; stroke: #0000ff; stroke-width: 1.5; stroke-linecap: square"/>
   </g>
   <g id="line2d_24">
    <path d="M 65.675342 376.040524 
L 66.751458 375.268152 
L 69.979804 373.347729 
L 74.284266 370.134048 
L 76.436497 368.262948 
L 78.588727 366.094914 
L 79.664843 364.898932 
L 81.817074 361.959783 
L 83.969304 358.732093 
L 86.121535 355.130662 
L 89.349881 348.995676 
L 92.578228 342.175162 
L 94.730458 337.342203 
L 99.03492 326.530916 
L 102.263266 317.422331 
L 105.491612 307.847701 
L 110.872189 290.782724 
L 114.100536 280.348989 
L 119.481113 263.574083 
L 123.785574 251.242335 
L 125.937805 245.536778 
L 128.090036 240.283612 
L 130.242267 235.581143 
L 132.394498 231.366419 
L 134.546728 227.616083 
L 136.698959 224.355739 
L 138.85119 221.4894 
L 141.003421 218.985204 
L 144.231767 215.969999 
L 145.307882 215.138565 
L 146.383998 209.344973 
L 147.460113 199.378499 
L 149.612344 176.905891 
L 150.688459 167.449706 
L 151.764575 160.125091 
L 152.84069 154.695861 
L 153.916806 150.482358 
L 157.145152 139.225794 
L 161.449614 123.214526 
L 163.601844 116.554206 
L 164.67796 113.773682 
L 165.754075 111.352047 
L 166.830191 109.261507 
L 167.906306 107.468105 
L 168.982421 105.937312 
L 170.058537 104.635971 
L 171.134652 103.532469 
L 173.286883 101.802679 
L 175.439114 100.548093 
L 177.591345 99.626152 
L 179.743575 98.937764 
L 182.971922 98.200892 
L 186.200268 97.700291 
L 190.504729 97.307991 
L 195.885306 97.099336 
L 205.570345 96.964251 
L 249.691077 96.829168 
L 252.919423 96.82915 
L 253.995538 97.816926 
L 255.071654 99.8411 
L 259.376115 109.012967 
L 261.528346 112.772116 
L 263.680577 115.812696 
L 265.832808 118.186759 
L 267.985039 119.982762 
L 270.137269 121.30151 
L 272.2895 122.24237 
L 274.441731 122.895059 
L 276.593962 123.335479 
L 279.822308 123.727441 
L 284.12677 123.962194 
L 291.659578 124.066686 
L 328.247501 124.085115 
L 360.530963 124.103694 
L 363.75931 128.068478 
L 365.911541 129.814357 
L 366.987656 130.404379 
L 369.139887 131.122292 
L 370.216002 131.464604 
L 371.292118 131.660874 
L 373.444348 131.738089 
L 376.672695 131.970274 
L 398.195003 131.813258 
L 402.499464 131.784924 
L 405.727811 131.869153 
L 407.880041 131.772752 
L 413.260618 131.903785 
L 417.56508 131.830352 
L 419.717311 131.894869 
L 425.097888 131.862072 
L 429.402349 131.85922 
L 431.55458 131.979392 
L 435.859042 131.950044 
L 436.935157 131.94534 
L 439.087388 132.108625 
L 440.163503 132.161683 
L 441.239619 132.094384 
L 443.39185 129.374581 
L 444.467965 128.276121 
L 445.544081 127.432374 
L 446.620196 126.802724 
L 448.772427 125.991379 
L 450.924658 125.537303 
L 450.924658 125.537303 
" clip-path="url(#p4288adfb96)" style="fill: none; stroke-dasharray: 1.5,2.475; stroke-dashoffset: 0; stroke: #0000ff; stroke-width: 1.5"/>
   </g>
   <g id="legend_1">
    <g id="patch_7">
     <path d="M 348.083619 371.5 
L 444.5 371.5 
Q 447.1 371.5 447.1 368.9 
L 447.1 334.682876 
Q 447.1 332.082876 444.5 332.082876 
L 348.083619 332.082876 
Q 345.483619 332.082876 345.483619 334.682876 
L 345.483619 368.9 
Q 345.483619 371.5 348.083619 371.5 
z
" style="fill: #ffffff; opacity: 0.8; stroke: #cccccc; stroke-linejoin: miter"/>
    </g>
    <g id="line2d_25">
     <path d="M 350.683619 341.832876 
L 363.683619 341.832876 
L 376.683619 341.832876 
" style="fill: none; stroke: #0000ff; stroke-width: 1.5; stroke-linecap: square"/>
    </g>
    <g id="text_23">
     <!-- Choice -->
     <g transform="translate(387.083619 346.382876) scale(0.13 -0.13)">
      <defs>
       <path id="HFBR17-43" d="M 3872 696 
C 3744 631 3629 541 3501 477 
C 3200 323 2816 265 2400 303 
C 2029 355 1722 535 1498 760 
C 781 1482 730 2750 1363 3542 
C 1632 3896 2042 4160 2643 4160 
C 2886 4160 3136 4115 3360 4025 
C 3494 3966 3622 3889 3750 3825 
L 3827 4276 
C 3686 4331 3539 4388 3392 4422 
C 3034 4520 2490 4520 2118 4430 
C 1466 4283 992 3829 723 3304 
C 352 2561 397 1633 845 934 
C 960 749 1107 583 1274 441 
C 1658 108 2131 -84 2790 -32 
C 3187 -32 3418 33 3725 205 
C 3757 224 3878 289 3898 316 
C 3910 348 3878 610 3872 696 
z
" transform="scale(0.015625)"/>
       <path id="HFBR17-68" d="M 410 4460 
L 410 0 
L 819 0 
L 819 1407 
C 819 1722 800 2044 941 2339 
C 1011 2487 1120 2616 1267 2693 
C 1389 2751 1517 2751 1651 2738 
C 1843 2738 2029 2687 2150 2525 
C 2266 2377 2272 2185 2272 2004 
L 2272 0 
L 2682 0 
L 2682 1742 
C 2682 2063 2714 2416 2554 2706 
C 2426 2924 2202 3027 1965 3059 
C 1837 3072 1709 3072 1581 3053 
C 1350 3009 1152 2882 998 2710 
C 928 2627 845 2526 819 2417 
L 813 2417 
L 813 4460 
L 410 4460 
z
" transform="scale(0.015625)"/>
      </defs>
      <use xlink:href="#HFBR17-43" transform="scale(0.996264)"/>
      <use xlink:href="#HFBR17-68" transform="translate(65.172032 0) scale(0.996264)"/>
      <use xlink:href="#HFBR17-6f" transform="translate(113.324529 0) scale(0.996264)"/>
      <use xlink:href="#HFBR17-69" transform="translate(163.967747 0) scale(0.996264)"/>
      <use xlink:href="#HFBR17-63" transform="translate(183.062706 0) scale(0.996264)"/>
      <use xlink:href="#HFBR17-65" transform="translate(227.894374 0) scale(0.996264)"/>
     </g>
    </g>
    <g id="line2d_26">
     <path d="M 350.683619 359.591438 
L 363.683619 359.591438 
L 376.683619 359.591438 
" style="fill: none; stroke: #ffa500; stroke-width: 1.5; stroke-linecap: square"/>
    </g>
    <g id="text_24">
     <!-- No choice -->
     <g transform="translate(387.083619 364.141438) scale(0.13 -0.13)">
      <defs>
       <path id="HFBR17-4e" d="M 525 4454 
L 525 0 
L 922 0 
L 922 4100 
L 928 4100 
L 2547 1161 
C 2765 773 2976 380 3200 0 
C 3373 -39 3622 0 3821 0 
L 3821 4454 
L 3424 4454 
L 3424 354 
L 1811 3268 
C 1587 3661 1382 4074 1146 4454 
C 973 4493 723 4454 525 4454 
z
" transform="scale(0.015625)"/>
      </defs>
      <use xlink:href="#HFBR17-4e" transform="scale(0.996264)"/>
      <use xlink:href="#HFBR17-6f" transform="translate(67.662753 0) scale(0.996264)"/>
      <use xlink:href="#HFBR17-63" transform="translate(149.771183 0) scale(0.996264)"/>
      <use xlink:href="#HFBR17-68" transform="translate(194.60285 0) scale(0.996264)"/>
      <use xlink:href="#HFBR17-6f" transform="translate(242.755347 0) scale(0.996264)"/>
      <use xlink:href="#HFBR17-69" transform="translate(293.398565 0) scale(0.996264)"/>
      <use xlink:href="#HFBR17-63" transform="translate(312.493524 0) scale(0.996264)"/>
      <use xlink:href="#HFBR17-65" transform="translate(357.325192 0) scale(0.996264)"/>
     </g>
    </g>
   </g>
  </g>
  <g id="text_25">
   <!-- \textbf{Amplitude vs time} -->
   <g transform="translate(168.65657 46.236997) scale(0.2 -0.2)">
    <defs>
     <path id="HFBRBX10-41" d="M 1747 4480 
L 198 -32 
C 480 -32 781 -32 1050 -13 
L 1088 52 
C 1197 350 1293 656 1395 960 
C 1978 960 2611 960 3162 960 
L 3200 887 
C 3302 583 3411 285 3507 -26 
L 4486 -26 
L 2938 4480 
L 1747 4480 
z
M 2291 3661 
L 2355 3409 
L 2982 1511 
L 1594 1511 
C 1824 2230 2080 2923 2291 3661 
z
" transform="scale(0.015625)"/>
     <path id="HFBRBX10-6d" d="M 1222 2409 
L 1216 2409 
L 1216 3096 
L 384 3096 
L 384 0 
L 1254 0 
L 1254 1373 
C 1254 1652 1229 1937 1325 2202 
C 1408 2416 1568 2610 1798 2656 
C 1952 2668 2112 2656 2195 2578 
C 2362 2442 2336 2150 2336 1872 
L 2336 0 
L 3206 0 
L 3206 1373 
C 3206 1652 3181 1937 3277 2202 
C 3360 2416 3520 2610 3750 2656 
C 3904 2668 4064 2656 4147 2578 
C 4314 2442 4288 2150 4288 1872 
L 4288 0 
L 5158 0 
L 5158 1809 
C 5158 2166 5178 2510 5050 2771 
C 4915 3031 4640 3122 4371 3122 
C 4256 3122 4134 3122 4019 3102 
C 3744 3058 3501 2899 3334 2683 
C 3277 2614 3226 2530 3194 2448 
C 3174 2508 3168 2572 3149 2632 
C 3110 2749 3046 2867 2950 2945 
C 2797 3083 2598 3115 2406 3115 
C 2246 3136 2086 3136 1933 3090 
C 1619 2998 1344 2723 1222 2409 
z
" transform="scale(0.015625)"/>
     <path id="HFBRBX10-70" d="M 1242 2720 
L 1242 3051 
L 390 3051 
L 390 -1088 
L 1261 -1088 
L 1261 274 
C 1485 55 1766 -103 2195 -64 
C 2560 -64 2906 93 3104 412 
C 3315 751 3347 1162 3347 1552 
C 3347 2093 3270 2588 2976 2875 
C 2688 3149 2278 3149 1914 3061 
C 1664 2998 1434 2884 1242 2720 
z
M 2246 2422 
C 2445 2207 2477 1877 2477 1487 
C 2477 1078 2406 657 2125 481 
C 1920 345 1606 345 1376 514 
C 1338 540 1286 572 1267 618 
C 1254 650 1261 697 1261 735 
L 1261 2356 
C 1261 2447 1318 2479 1389 2512 
C 1658 2668 2029 2668 2246 2422 
z
" transform="scale(0.015625)"/>
     <path id="HFBRBX10-6c" d="M 390 4495 
L 390 0 
L 1242 0 
L 1242 4495 
L 390 4495 
z
" transform="scale(0.015625)"/>
     <path id="HFBRBX10-69" d="M 390 4502 
L 390 3712 
L 1242 3712 
L 1242 4502 
L 390 4502 
z
M 390 3057 
L 390 0 
L 1242 0 
L 1242 3057 
L 390 3057 
z
" transform="scale(0.015625)"/>
     <path id="HFBRBX10-74" d="M 582 3904 
L 582 3026 
L 128 3026 
L 128 2560 
L 563 2560 
L 563 809 
C 563 512 621 168 813 27 
C 966 -96 1158 -96 1344 -96 
C 1786 -96 2042 22 2387 189 
L 2272 642 
C 2157 557 2189 551 2042 480 
C 1882 402 1606 337 1485 512 
C 1382 687 1395 888 1395 1166 
L 1395 2560 
L 2272 2560 
L 2272 3026 
L 1395 3026 
L 1395 3904 
L 582 3904 
z
" transform="scale(0.015625)"/>
     <path id="HFBRBX10-75" d="M 384 3058 
L 384 828 
C 384 639 390 437 480 268 
C 608 20 883 -64 1146 -64 
C 1267 -64 1395 -64 1517 -51 
C 1766 -13 2010 107 2182 290 
C 2246 354 2310 436 2342 518 
L 2349 518 
L 2349 0 
L 3200 0 
L 3200 3057 
L 2330 3057 
L 2330 1211 
C 2330 1049 2323 900 2266 751 
C 2189 570 2048 408 1856 350 
C 1779 324 1702 324 1619 324 
C 1523 324 1402 324 1325 396 
C 1267 454 1267 539 1261 610 
C 1248 772 1254 942 1254 1104 
L 1254 3058 
L 384 3058 
z
" transform="scale(0.015625)"/>
     <path id="HFBRBX10-64" d="M 2342 4495 
L 2342 2772 
C 2157 2941 1926 3057 1677 3102 
C 1286 3180 832 3089 570 2772 
C 326 2487 262 2105 243 1742 
C 218 1295 262 797 422 499 
C 480 402 538 298 621 220 
C 934 -84 1434 -142 1830 0 
C 2022 71 2182 194 2323 337 
L 2323 0 
L 3194 0 
L 3194 4495 
L 2342 4495 
z
M 2189 2571 
C 2227 2545 2285 2520 2310 2481 
C 2336 2435 2323 2351 2323 2299 
L 2323 777 
C 2323 648 2304 615 2202 551 
C 2086 460 1952 408 1811 395 
C 1594 376 1350 453 1235 648 
C 1126 816 1107 1159 1107 1405 
L 1107 1606 
C 1107 1982 1126 2358 1376 2532 
C 1414 2565 1459 2584 1504 2604 
C 1728 2688 1978 2688 2189 2571 
z
" transform="scale(0.015625)"/>
     <path id="HFBRBX10-65" d="M 2976 817 
C 2867 745 2778 661 2662 596 
C 2259 376 1536 188 1203 681 
C 1043 933 1011 1186 1011 1600 
L 3072 1600 
C 3072 2008 3027 2468 2746 2786 
C 2573 2973 2336 3077 2086 3122 
C 1491 3213 896 3077 576 2747 
C 250 2403 186 1905 192 1445 
C 198 1017 320 557 646 266 
C 1056 -90 1850 -194 2547 20 
C 2669 52 2778 104 2893 156 
C 2931 175 2995 195 3014 234 
C 3027 247 3021 266 3021 285 
C 3008 467 2989 642 2976 817 
z
M 2349 1944 
L 1037 1944 
C 1056 2170 1165 2403 1293 2520 
C 1510 2714 1882 2747 2106 2552 
C 2272 2403 2336 2157 2349 1944 
z
" transform="scale(0.015625)"/>
     <path id="HFBRBX10-76" d="M 96 3072 
L 1050 0 
L 2144 0 
L 3098 3040 
C 2848 3040 2554 3073 2336 3040 
L 2310 2995 
L 1606 755 
L 1075 2452 
C 998 2648 973 2883 877 3059 
L 813 3072 
L 96 3072 
z
" transform="scale(0.015625)"/>
     <path id="HFBRBX10-73" d="M 314 953 
C 288 781 256 616 224 444 
C 218 400 205 362 198 317 
C 198 298 192 280 205 260 
C 237 222 307 203 346 183 
C 698 37 1050 -64 1562 -64 
C 1882 -64 2221 22 2394 327 
C 2554 611 2586 1082 2432 1394 
C 2298 1646 2067 1831 1805 1924 
C 1632 1984 1453 2010 1274 2043 
C 1139 2077 998 2117 922 2242 
C 838 2374 864 2573 986 2673 
C 1056 2725 1146 2746 1229 2752 
C 1504 2752 1786 2694 2029 2567 
C 2138 2510 2221 2427 2323 2364 
L 2432 2985 
C 2086 3130 1830 3199 1357 3199 
C 1165 3199 966 3199 781 3133 
C 467 3021 269 2752 243 2364 
C 224 2146 256 1935 378 1749 
C 570 1466 845 1327 1216 1248 
C 1440 1202 1773 1202 1875 941 
C 1933 801 1888 615 1766 521 
C 1677 462 1562 441 1453 441 
C 1139 441 838 526 582 707 
C 525 752 474 798 422 843 
C 384 882 352 921 314 953 
z
" transform="scale(0.015625)"/>
    </defs>
    <use xlink:href="#HFBRBX10-41" transform="scale(0.996264)"/>
    <use xlink:href="#HFBRBX10-6d" transform="translate(73.059766 0) scale(0.996264)"/>
    <use xlink:href="#HFBRBX10-70" transform="translate(159.403123 0) scale(0.996264)"/>
    <use xlink:href="#HFBRBX10-6c" transform="translate(215.304911 0) scale(0.996264)"/>
    <use xlink:href="#HFBRBX10-69" transform="translate(240.76513 0) scale(0.996264)"/>
    <use xlink:href="#HFBRBX10-74" transform="translate(266.225349 0) scale(0.996264)"/>
    <use xlink:href="#HFBRBX10-75" transform="translate(306.491252 0) scale(0.996264)"/>
    <use xlink:href="#HFBRBX10-64" transform="translate(362.39304 0) scale(0.996264)"/>
    <use xlink:href="#HFBRBX10-65" transform="translate(418.294828 0) scale(0.996264)"/>
    <use xlink:href="#HFBRBX10-76" transform="translate(503.91867 0) scale(0.996264)"/>
    <use xlink:href="#HFBRBX10-73" transform="translate(553.732144 0) scale(0.996264)"/>
    <use xlink:href="#HFBRBX10-74" transform="translate(630.444898 0) scale(0.996264)"/>
    <use xlink:href="#HFBRBX10-69" transform="translate(670.710802 0) scale(0.996264)"/>
    <use xlink:href="#HFBRBX10-6d" transform="translate(696.171021 0) scale(0.996264)"/>
    <use xlink:href="#HFBRBX10-65" transform="translate(782.514378 0) scale(0.996264)"/>
   </g>
  </g>
 </g>
 <defs>
  <clipPath id="pc32e1e5991">
   <rect x="63" y="51.84" width="390.6" height="35.356098"/>
  </clipPath>
  <clipPath id="p4288adfb96">
   <rect x="63" y="95.15122" width="390.6" height="282.84878"/>
  </clipPath>
 </defs>
</svg>
