<?xml version="1.0" encoding="utf-8" standalone="no"?>
<!DOCTYPE svg PUBLIC "-//W3C//DTD SVG 1.1//EN"
  "http://www.w3.org/Graphics/SVG/1.1/DTD/svg11.dtd">
<svg xmlns:xlink="http://www.w3.org/1999/xlink" width="504pt" height="432pt" viewBox="0 0 504 432" xmlns="http://www.w3.org/2000/svg" version="1.1">
 <metadata>
  <rdf:RDF xmlns:dc="http://purl.org/dc/elements/1.1/" xmlns:cc="http://creativecommons.org/ns#" xmlns:rdf="http://www.w3.org/1999/02/22-rdf-syntax-ns#">
   <cc:Work>
    <dc:type rdf:resource="http://purl.org/dc/dcmitype/StillImage"/>
    <dc:date>2023-07-05T15:33:33.523047</dc:date>
    <dc:format>image/svg+xml</dc:format>
    <dc:creator>
     <cc:Agent>
      <dc:title>Matplotlib v3.6.1, https://matplotlib.org/</dc:title>
     </cc:Agent>
    </dc:creator>
   </cc:Work>
  </rdf:RDF>
 </metadata>
 <defs>
  <style type="text/css">*{stroke-linejoin: round; stroke-linecap: butt}</style>
 </defs>
 <g id="figure_1">
  <g id="patch_1">
   <path d="M 0 432 
L 504 432 
L 504 0 
L 0 0 
L 0 432 
z
" style="fill: none"/>
  </g>
  <g id="axes_1">
   <g id="PolyCollection_1">
    <defs>
     <path id="m769f2fa6b9" d="M 65.675342 -378.552905 
L 65.675342 -346.410998 
L 74.593151 -346.410998 
L 83.510959 -346.410998 
L 92.428767 -346.410998 
L 101.346575 -346.410998 
L 110.264384 -346.410998 
L 119.182192 -346.410998 
L 128.1 -346.410998 
L 137.017808 -346.410998 
L 145.935616 -346.410998 
L 145.935616 -378.552905 
L 145.935616 -378.552905 
L 137.017808 -378.552905 
L 128.1 -378.552905 
L 119.182192 -378.552905 
L 110.264384 -378.552905 
L 101.346575 -378.552905 
L 92.428767 -378.552905 
L 83.510959 -378.552905 
L 74.593151 -378.552905 
L 65.675342 -378.552905 
z
" style="stroke: #000000; stroke-opacity: 0.1"/>
    </defs>
    <g clip-path="url(#p4b6d22c9db)">
     <use xlink:href="#m769f2fa6b9" x="0" y="432" style="fill-opacity: 0.1; stroke: #000000; stroke-opacity: 0.1"/>
    </g>
   </g>
   <g id="PolyCollection_2">
    <defs>
     <path id="ma72543f120" d="M 147.005753 -378.552905 
L 147.005753 -346.410998 
L 158.77726 -346.410998 
L 170.548767 -346.410998 
L 182.320274 -346.410998 
L 194.091781 -346.410998 
L 205.863288 -346.410998 
L 217.634795 -346.410998 
L 229.406301 -346.410998 
L 241.177808 -346.410998 
L 252.949315 -346.410998 
L 252.949315 -378.552905 
L 252.949315 -378.552905 
L 241.177808 -378.552905 
L 229.406301 -378.552905 
L 217.634795 -378.552905 
L 205.863288 -378.552905 
L 194.091781 -378.552905 
L 182.320274 -378.552905 
L 170.548767 -378.552905 
L 158.77726 -378.552905 
L 147.005753 -378.552905 
z
" style="stroke: #ffa500; stroke-opacity: 0.25"/>
    </defs>
    <g clip-path="url(#p4b6d22c9db)">
     <use xlink:href="#ma72543f120" x="0" y="432" style="fill: #ffa500; fill-opacity: 0.25; stroke: #ffa500; stroke-opacity: 0.25"/>
    </g>
   </g>
   <g id="PolyCollection_3">
    <defs>
     <path id="m83241eb35d" d="M 254.019452 -378.552905 
L 254.019452 -346.410998 
L 265.790959 -346.410998 
L 277.562466 -346.410998 
L 289.333973 -346.410998 
L 301.105479 -346.410998 
L 312.876986 -346.410998 
L 324.648493 -346.410998 
L 336.42 -346.410998 
L 348.191507 -346.410998 
L 359.963014 -346.410998 
L 359.963014 -378.552905 
L 359.963014 -378.552905 
L 348.191507 -378.552905 
L 336.42 -378.552905 
L 324.648493 -378.552905 
L 312.876986 -378.552905 
L 301.105479 -378.552905 
L 289.333973 -378.552905 
L 277.562466 -378.552905 
L 265.790959 -378.552905 
L 254.019452 -378.552905 
z
" style="stroke: #ffa500; stroke-opacity: 0.15"/>
    </defs>
    <g clip-path="url(#p4b6d22c9db)">
     <use xlink:href="#m83241eb35d" x="0" y="432" style="fill: #ffa500; fill-opacity: 0.15; stroke: #ffa500; stroke-opacity: 0.15"/>
    </g>
   </g>
   <g id="PolyCollection_4">
    <defs>
     <path id="m4eb22ef73a" d="M 361.033151 -378.552905 
L 361.033151 -346.410998 
L 371.021096 -346.410998 
L 381.009041 -346.410998 
L 390.996986 -346.410998 
L 400.984932 -346.410998 
L 410.972877 -346.410998 
L 420.960822 -346.410998 
L 430.948767 -346.410998 
L 440.936712 -346.410998 
L 450.924658 -346.410998 
L 450.924658 -378.552905 
L 450.924658 -378.552905 
L 440.936712 -378.552905 
L 430.948767 -378.552905 
L 420.960822 -378.552905 
L 410.972877 -378.552905 
L 400.984932 -378.552905 
L 390.996986 -378.552905 
L 381.009041 -378.552905 
L 371.021096 -378.552905 
L 361.033151 -378.552905 
z
" style="stroke: #000000; stroke-opacity: 0.1"/>
    </defs>
    <g clip-path="url(#p4b6d22c9db)">
     <use xlink:href="#m4eb22ef73a" x="0" y="432" style="fill-opacity: 0.1; stroke: #000000; stroke-opacity: 0.1"/>
    </g>
   </g>
   <g id="text_1">
    <!-- First -->
    <g transform="translate(81.727397 67.914687) scale(0.15 -0.15)">
     <defs>
      <path id="HFBR17-46" d="M 512 4437 
L 512 0 
L 960 0 
L 960 2048 
L 3078 2048 
L 3078 2388 
L 960 2388 
L 960 4096 
L 3354 4096 
L 3354 4437 
L 512 4437 
z
" transform="scale(0.015625)"/>
      <path id="HFBR17-69" d="M 410 4480 
L 410 4075 
L 813 4075 
L 813 4480 
L 410 4480 
z
M 410 3033 
L 410 0 
L 813 0 
L 813 3033 
L 410 3033 
z
" transform="scale(0.015625)"/>
      <path id="HFBR17-72" d="M 800 2224 
L 794 2224 
L 794 3033 
L 410 3033 
L 410 0 
L 813 0 
L 813 1465 
C 813 1562 813 1658 826 1754 
C 915 2301 1389 2706 2010 2706 
L 2010 3072 
C 1600 3072 1222 2873 979 2545 
C 909 2449 832 2339 800 2224 
z
" transform="scale(0.015625)"/>
      <path id="HFBR17-73" d="M 198 617 
C 186 527 166 444 154 354 
C 141 283 122 251 186 219 
C 448 65 762 -19 1133 -51 
C 1549 -90 2074 7 2278 418 
C 2336 534 2368 662 2374 791 
C 2400 1253 2035 1549 1722 1658 
C 1370 1793 890 1748 646 2018 
C 518 2166 512 2385 634 2539 
C 890 2899 1715 2744 2042 2584 
C 2093 2558 2138 2526 2195 2513 
L 2253 2860 
C 1952 2995 1690 3072 1274 3072 
C 915 3072 589 2989 384 2783 
C 179 2571 109 2217 230 1948 
C 346 1690 589 1523 851 1440 
C 1229 1305 1658 1369 1907 1061 
C 2048 881 2022 611 1862 450 
C 1555 167 902 270 544 424 
C 422 476 314 553 198 617 
z
" transform="scale(0.015625)"/>
      <path id="HFBR17-74" d="M 691 3872 
L 691 3009 
L 70 3009 
L 70 2688 
L 685 2688 
L 685 961 
C 685 677 666 335 851 97 
C 960 -45 1107 -83 1331 -64 
C 1517 -64 1702 -25 1875 42 
C 1933 68 2144 161 2170 207 
C 2182 233 2099 518 2099 518 
L 1946 401 
C 1747 278 1350 149 1184 382 
C 1037 582 1075 880 1075 1112 
L 1075 2688 
L 2067 2688 
L 2067 3009 
L 1075 3009 
L 1075 3872 
L 691 3872 
z
" transform="scale(0.015625)"/>
     </defs>
     <use xlink:href="#HFBR17-46" transform="scale(0.996264)"/>
     <use xlink:href="#HFBR17-69" transform="translate(55.832057 0) scale(0.996264)"/>
     <use xlink:href="#HFBR17-72" transform="translate(74.927016 0) scale(0.996264)"/>
     <use xlink:href="#HFBR17-73" transform="translate(106.890375 0) scale(0.996264)"/>
     <use xlink:href="#HFBR17-74" transform="translate(145.329404 0) scale(0.996264)"/>
    </g>
    <!--  stimulus -->
    <g transform="translate(81.727397 82.858635) scale(0.15 -0.15)">
     <defs>
      <path id="HFBR17-6d" d="M 806 2391 
L 800 2391 
L 800 3033 
L 410 3033 
L 410 0 
L 819 0 
L 819 1411 
C 819 1725 800 2040 941 2328 
C 1062 2578 1274 2777 1651 2738 
C 1843 2738 2035 2687 2157 2525 
C 2272 2377 2278 2185 2278 2004 
L 2278 0 
L 2688 0 
L 2688 1411 
C 2688 1725 2669 2040 2810 2328 
C 2931 2578 3142 2777 3520 2738 
C 3712 2738 3904 2687 4026 2525 
C 4141 2377 4147 2185 4147 2004 
L 4147 0 
L 4557 0 
L 4557 1700 
C 4557 2008 4595 2354 4461 2636 
C 4326 2899 4109 3040 3757 3040 
C 3552 3059 3347 3028 3162 2934 
C 2938 2811 2771 2608 2669 2385 
C 2624 2597 2573 2741 2432 2880 
C 2285 3012 2086 3072 1894 3072 
C 1427 3110 1133 2916 934 2624 
C 883 2552 832 2475 806 2391 
z
" transform="scale(0.015625)"/>
      <path id="HFBR17-75" d="M 410 3008 
L 410 830 
C 410 643 416 457 493 283 
C 614 33 870 -64 1133 -64 
C 1485 -64 1837 52 2093 303 
C 2163 373 2227 444 2272 534 
L 2278 534 
L 2278 -25 
L 2682 -25 
L 2682 3008 
L 2272 3008 
L 2272 1466 
C 2272 1196 2310 900 2170 656 
C 2067 476 1888 335 1690 271 
C 1555 232 1414 232 1274 245 
C 1139 258 992 271 902 386 
C 774 541 819 907 819 1132 
L 819 3008 
L 410 3008 
z
" transform="scale(0.015625)"/>
      <path id="HFBR17-6c" d="M 410 4460 
L 410 0 
L 813 0 
L 813 4460 
L 410 4460 
z
" transform="scale(0.015625)"/>
     </defs>
     <use xlink:href="#HFBR17-73" transform="scale(0.996264)"/>
     <use xlink:href="#HFBR17-74" transform="translate(38.439029 0) scale(0.996264)"/>
     <use xlink:href="#HFBR17-69" transform="translate(74.553417 0) scale(0.996264)"/>
     <use xlink:href="#HFBR17-6d" transform="translate(93.648376 0) scale(0.996264)"/>
     <use xlink:href="#HFBR17-75" transform="translate(170.858502 0) scale(0.996264)"/>
     <use xlink:href="#HFBR17-6c" transform="translate(219.010999 0) scale(0.996264)"/>
     <use xlink:href="#HFBR17-75" transform="translate(238.105958 0) scale(0.996264)"/>
     <use xlink:href="#HFBR17-73" transform="translate(286.258455 0) scale(0.996264)"/>
    </g>
   </g>
   <g id="text_2">
    <!-- Decision period -->
    <g transform="translate(153.961644 73.858901) scale(0.15 -0.15)">
     <defs>
      <path id="HFBR17-44" d="M 512 4480 
L 512 0 
L 1805 0 
C 2010 0 2214 0 2413 19 
C 2925 71 3366 321 3661 629 
C 4486 1483 4480 2952 3667 3819 
C 3373 4133 2976 4384 2477 4448 
C 2234 4480 1984 4480 1741 4480 
L 512 4480 
z
M 954 340 
L 954 4132 
L 1779 4132 
C 1952 4132 2125 4132 2298 4119 
C 2586 4087 2867 3991 3104 3823 
C 3622 3464 3840 2827 3840 2217 
C 3840 1703 3699 1176 3322 809 
C 3066 572 2720 398 2304 353 
C 2138 340 1965 340 1798 340 
L 954 340 
z
" transform="scale(0.015625)"/>
      <path id="HFBR17-65" d="M 2675 700 
C 2528 591 2483 533 2298 436 
C 1907 224 1446 224 1114 459 
C 794 689 608 1065 608 1600 
L 2720 1600 
C 2720 2075 2611 2487 2342 2776 
C 2048 3065 1587 3155 1197 3033 
C 1050 2988 915 2911 794 2814 
C 390 2487 218 1966 224 1458 
C 237 790 691 122 1363 -20 
C 1715 -91 2086 -13 2400 147 
C 2458 179 2669 295 2694 353 
C 2714 385 2675 700 2675 700 
z
M 2381 1850 
L 640 1850 
C 717 2319 1101 2814 1619 2756 
C 2042 2718 2266 2416 2349 2037 
C 2362 1972 2368 1915 2381 1850 
z
" transform="scale(0.015625)"/>
      <path id="HFBR17-63" d="M 2714 720 
C 2592 630 2483 533 2349 456 
C 2048 296 1587 219 1242 379 
C 742 636 608 1260 678 1774 
C 691 1877 710 1979 742 2076 
C 883 2494 1235 2821 1811 2757 
C 2118 2731 2272 2680 2515 2545 
C 2560 2519 2598 2487 2650 2474 
C 2656 2551 2675 2635 2688 2712 
C 2707 2815 2707 2828 2611 2873 
C 2541 2905 2470 2943 2394 2969 
C 2099 3098 1613 3136 1280 3040 
C 826 2911 486 2519 339 2082 
C 269 1883 250 1671 250 1459 
C 256 784 717 122 1389 -13 
C 1760 -90 2189 19 2445 154 
C 2509 186 2701 302 2733 360 
C 2752 392 2714 720 2714 720 
z
" transform="scale(0.015625)"/>
      <path id="HFBR17-6f" d="M 685 2693 
C 115 2127 51 1144 544 508 
C 614 411 698 328 794 257 
C 1030 64 1376 -77 1779 -32 
C 2419 45 2861 566 2995 1112 
C 3174 1877 2797 2731 2093 3001 
C 1542 3226 992 3001 685 2693 
z
M 2285 2519 
C 2592 2242 2650 1799 2624 1407 
C 2605 1105 2522 790 2310 565 
C 1965 192 1325 192 954 552 
C 762 758 646 1053 627 1407 
C 595 1927 723 2480 1235 2686 
C 1613 2853 2048 2731 2285 2519 
z
" transform="scale(0.015625)"/>
      <path id="HFBR17-6e" d="M 806 2386 
L 800 2386 
L 800 3033 
L 410 3033 
L 410 0 
L 819 0 
L 819 1404 
C 819 1718 800 2040 941 2334 
C 1011 2482 1120 2610 1267 2687 
C 1389 2745 1517 2745 1651 2732 
C 1843 2732 2029 2681 2150 2520 
C 2266 2372 2272 2180 2272 2000 
L 2272 0 
L 2682 0 
L 2682 1719 
C 2682 2040 2714 2392 2560 2681 
C 2438 2912 2202 3021 1952 3053 
C 1824 3072 1690 3072 1562 3047 
C 1229 2976 922 2707 806 2386 
z
" transform="scale(0.015625)"/>
      <path id="HFBR17-70" d="M 813 2594 
L 813 3018 
L 410 3018 
L 410 -1088 
L 819 -1088 
L 819 390 
C 909 261 1011 146 1146 69 
C 1600 -208 2176 11 2490 422 
C 2906 958 2950 1760 2662 2367 
C 2496 2716 2182 3040 1779 3072 
C 1427 3072 1158 2932 966 2760 
C 909 2709 864 2652 813 2594 
z
M 1402 2744 
C 1664 2763 1920 2641 2099 2449 
C 2208 2326 2291 2185 2342 2031 
C 2566 1427 2362 591 1715 341 
C 1344 199 979 328 838 675 
C 806 739 819 823 819 893 
L 819 2217 
C 819 2365 832 2378 928 2487 
C 1043 2628 1216 2725 1402 2744 
z
" transform="scale(0.015625)"/>
      <path id="HFBR17-64" d="M 2278 4460 
L 2278 2648 
C 2157 2783 2035 2911 1869 2988 
C 1299 3226 749 2918 467 2410 
C 141 1806 179 1009 570 443 
C 845 51 1299 -141 1779 32 
C 1965 103 2189 289 2266 456 
L 2272 456 
L 2272 0 
L 2682 0 
L 2682 4460 
L 2278 4460 
z
M 2253 2397 
C 2285 2339 2272 2262 2272 2198 
L 2272 874 
C 2272 726 2266 713 2182 598 
C 2067 424 1888 302 1677 283 
C 1370 257 1056 405 877 656 
C 774 803 717 983 685 1163 
C 672 1234 672 1298 666 1369 
C 627 1793 717 2294 1088 2564 
C 1152 2609 1222 2641 1293 2673 
C 1664 2815 2074 2776 2253 2397 
z
" transform="scale(0.015625)"/>
     </defs>
     <use xlink:href="#HFBR17-44" transform="scale(0.996264)"/>
     <use xlink:href="#HFBR17-65" transform="translate(71.606187 0) scale(0.996264)"/>
     <use xlink:href="#HFBR17-63" transform="translate(116.437855 0) scale(0.996264)"/>
     <use xlink:href="#HFBR17-69" transform="translate(161.269522 0) scale(0.996264)"/>
     <use xlink:href="#HFBR17-73" transform="translate(180.364481 0) scale(0.996264)"/>
     <use xlink:href="#HFBR17-69" transform="translate(218.80351 0) scale(0.996264)"/>
     <use xlink:href="#HFBR17-6f" transform="translate(237.898469 0) scale(0.996264)"/>
     <use xlink:href="#HFBR17-6e" transform="translate(288.541687 0) scale(0.996264)"/>
     <use xlink:href="#HFBR17-70" transform="translate(368.159396 0) scale(0.996264)"/>
     <use xlink:href="#HFBR17-65" transform="translate(416.311893 0) scale(0.996264)"/>
     <use xlink:href="#HFBR17-72" transform="translate(461.14356 0) scale(0.996264)"/>
     <use xlink:href="#HFBR17-69" transform="translate(493.106919 0) scale(0.996264)"/>
     <use xlink:href="#HFBR17-6f" transform="translate(512.201878 0) scale(0.996264)"/>
     <use xlink:href="#HFBR17-64" transform="translate(562.845096 0) scale(0.996264)"/>
    </g>
   </g>
   <g id="text_3">
    <!-- Delay -->
    <g transform="translate(290.40411 73.858901) scale(0.15 -0.15)">
     <defs>
      <path id="HFBR17-61" d="M 506 2497 
C 614 2551 704 2630 813 2683 
C 986 2762 1165 2816 1357 2816 
C 1446 2822 1549 2835 1638 2816 
C 1798 2790 1939 2693 2035 2557 
C 2131 2401 2170 2265 2170 2014 
L 2170 1729 
C 1862 1729 1555 1703 1261 1625 
C 890 1541 486 1352 352 1014 
C 218 690 358 261 646 66 
C 787 -32 954 -32 1120 -19 
C 1389 0 1658 65 1888 208 
C 1997 272 2106 357 2170 467 
L 2176 467 
L 2176 13 
L 2579 13 
L 2579 1721 
C 2579 1908 2598 2109 2560 2297 
C 2522 2555 2362 2769 2176 2918 
C 1958 3086 1709 3143 1376 3118 
C 1069 3118 832 3040 602 2929 
C 570 2916 506 2895 486 2857 
C 467 2830 480 2785 480 2752 
C 493 2667 499 2582 506 2497 
z
M 2170 1536 
L 2170 1048 
C 2170 900 2176 765 2093 637 
C 2022 534 1926 463 1824 412 
C 1459 225 902 283 742 592 
C 614 816 749 1080 934 1228 
C 1210 1440 1747 1536 2170 1536 
z
" transform="scale(0.015625)"/>
      <path id="HFBR17-79" d="M 45 3050 
C 83 2928 346 2279 352 2260 
L 1114 293 
L 1178 133 
C 1216 43 1229 30 1190 -73 
L 1120 -259 
C 1062 -414 998 -574 877 -671 
C 659 -851 314 -748 51 -690 
L 83 -1056 
C 205 -1075 326 -1088 448 -1088 
C 723 -1121 902 -1056 1069 -915 
C 1280 -735 1382 -484 1478 -227 
L 1677 325 
L 2330 2106 
C 2438 2427 2573 2729 2675 3050 
L 2387 3050 
C 2355 3050 2304 3063 2278 3038 
C 2266 3018 2259 2993 2253 2973 
L 2202 2838 
C 2138 2671 2080 2511 2022 2343 
L 1651 1296 
C 1555 1013 1446 724 1395 428 
C 1325 724 1229 1007 1126 1289 
C 1043 1508 544 2851 480 2980 
C 454 3050 429 3050 333 3050 
L 45 3050 
z
" transform="scale(0.015625)"/>
     </defs>
     <use xlink:href="#HFBR17-44" transform="scale(0.996264)"/>
     <use xlink:href="#HFBR17-65" transform="translate(71.606187 0) scale(0.996264)"/>
     <use xlink:href="#HFBR17-6c" transform="translate(116.437855 0) scale(0.996264)"/>
     <use xlink:href="#HFBR17-61" transform="translate(135.532813 0) scale(0.996264)"/>
     <use xlink:href="#HFBR17-79" transform="translate(179.119166 0) scale(0.996264)"/>
    </g>
   </g>
   <g id="text_4">
    <!-- Second -->
    <g transform="translate(381.365753 67.914687) scale(0.15 -0.15)">
     <defs>
      <path id="HFBR17-53" d="M 326 833 
C 314 729 288 619 275 515 
C 262 418 230 391 314 340 
C 531 217 717 132 986 48 
C 1587 -128 2278 -128 2803 265 
C 2886 329 2963 399 3034 482 
C 3194 697 3341 958 3302 1314 
C 3258 1771 2950 2152 2534 2343 
C 1965 2597 1037 2597 781 3160 
C 582 3596 934 3979 1331 4120 
C 1722 4268 2234 4210 2566 4056 
C 2720 3985 2848 3882 2989 3792 
C 3002 3902 3027 4005 3046 4114 
C 3059 4184 3078 4249 3002 4274 
L 2880 4339 
C 2707 4416 2528 4474 2342 4512 
C 1766 4621 1101 4557 666 4127 
C 448 3908 262 3612 339 3169 
C 429 2713 787 2424 1158 2282 
C 1376 2199 1619 2154 1850 2096 
C 1984 2070 2125 2038 2259 1993 
C 2605 1864 2906 1607 2906 1132 
C 2867 723 2509 424 2131 333 
C 1645 209 1069 385 736 560 
C 589 638 461 742 326 833 
z
" transform="scale(0.015625)"/>
     </defs>
     <use xlink:href="#HFBR17-53" transform="scale(0.996264)"/>
     <use xlink:href="#HFBR17-65" transform="translate(56.454753 0) scale(0.996264)"/>
     <use xlink:href="#HFBR17-63" transform="translate(101.28642 0) scale(0.996264)"/>
     <use xlink:href="#HFBR17-6f" transform="translate(146.118088 0) scale(0.996264)"/>
     <use xlink:href="#HFBR17-6e" transform="translate(196.761306 0) scale(0.996264)"/>
     <use xlink:href="#HFBR17-64" transform="translate(244.913803 0) scale(0.996264)"/>
    </g>
    <!--  stimulus -->
    <g transform="translate(381.365753 82.858635) scale(0.15 -0.15)">
     <use xlink:href="#HFBR17-73" transform="scale(0.996264)"/>
     <use xlink:href="#HFBR17-74" transform="translate(38.439029 0) scale(0.996264)"/>
     <use xlink:href="#HFBR17-69" transform="translate(74.553417 0) scale(0.996264)"/>
     <use xlink:href="#HFBR17-6d" transform="translate(93.648376 0) scale(0.996264)"/>
     <use xlink:href="#HFBR17-75" transform="translate(170.858502 0) scale(0.996264)"/>
     <use xlink:href="#HFBR17-6c" transform="translate(219.010999 0) scale(0.996264)"/>
     <use xlink:href="#HFBR17-75" transform="translate(238.105958 0) scale(0.996264)"/>
     <use xlink:href="#HFBR17-73" transform="translate(286.258455 0) scale(0.996264)"/>
    </g>
   </g>
  </g>
  <g id="axes_2">
   <g id="patch_2">
    <path d="M 63 378 
L 453.6 378 
L 453.6 95.15122 
L 63 95.15122 
z
" style="fill: #ffffff"/>
   </g>
   <g id="PolyCollection_5">
    <defs>
     <path id="m92267b5717" d="M 65.675342 -334.762357 
L 65.675342 -56.086423 
L 74.593151 -56.086423 
L 83.510959 -56.086423 
L 92.428767 -56.086423 
L 101.346575 -56.086423 
L 110.264384 -56.086423 
L 119.182192 -56.086423 
L 128.1 -56.086423 
L 137.017808 -56.086423 
L 145.935616 -56.086423 
L 145.935616 -334.762357 
L 145.935616 -334.762357 
L 137.017808 -334.762357 
L 128.1 -334.762357 
L 119.182192 -334.762357 
L 110.264384 -334.762357 
L 101.346575 -334.762357 
L 92.428767 -334.762357 
L 83.510959 -334.762357 
L 74.593151 -334.762357 
L 65.675342 -334.762357 
z
" style="stroke: #000000; stroke-opacity: 0.05"/>
    </defs>
    <g clip-path="url(#p71f05fab5c)">
     <use xlink:href="#m92267b5717" x="0" y="432" style="fill-opacity: 0.05; stroke: #000000; stroke-opacity: 0.05"/>
    </g>
   </g>
   <g id="PolyCollection_6">
    <defs>
     <path id="m90ee5a824a" d="M 147.005753 -334.762357 
L 147.005753 -56.086423 
L 158.77726 -56.086423 
L 170.548767 -56.086423 
L 182.320274 -56.086423 
L 194.091781 -56.086423 
L 205.863288 -56.086423 
L 217.634795 -56.086423 
L 229.406301 -56.086423 
L 241.177808 -56.086423 
L 252.949315 -56.086423 
L 252.949315 -334.762357 
L 252.949315 -334.762357 
L 241.177808 -334.762357 
L 229.406301 -334.762357 
L 217.634795 -334.762357 
L 205.863288 -334.762357 
L 194.091781 -334.762357 
L 182.320274 -334.762357 
L 170.548767 -334.762357 
L 158.77726 -334.762357 
L 147.005753 -334.762357 
z
" style="stroke: #ffa500; stroke-opacity: 0.25"/>
    </defs>
    <g clip-path="url(#p71f05fab5c)">
     <use xlink:href="#m90ee5a824a" x="0" y="432" style="fill: #ffa500; fill-opacity: 0.25; stroke: #ffa500; stroke-opacity: 0.25"/>
    </g>
   </g>
   <g id="PolyCollection_7">
    <defs>
     <path id="maf1b66d222" d="M 254.019452 -334.762357 
L 254.019452 -56.086423 
L 265.790959 -56.086423 
L 277.562466 -56.086423 
L 289.333973 -56.086423 
L 301.105479 -56.086423 
L 312.876986 -56.086423 
L 324.648493 -56.086423 
L 336.42 -56.086423 
L 348.191507 -56.086423 
L 359.963014 -56.086423 
L 359.963014 -334.762357 
L 359.963014 -334.762357 
L 348.191507 -334.762357 
L 336.42 -334.762357 
L 324.648493 -334.762357 
L 312.876986 -334.762357 
L 301.105479 -334.762357 
L 289.333973 -334.762357 
L 277.562466 -334.762357 
L 265.790959 -334.762357 
L 254.019452 -334.762357 
z
" style="stroke: #ffa500; stroke-opacity: 0.15"/>
    </defs>
    <g clip-path="url(#p71f05fab5c)">
     <use xlink:href="#maf1b66d222" x="0" y="432" style="fill: #ffa500; fill-opacity: 0.15; stroke: #ffa500; stroke-opacity: 0.15"/>
    </g>
   </g>
   <g id="PolyCollection_8">
    <defs>
     <path id="m60e1ee101a" d="M 361.033151 -334.762357 
L 361.033151 -56.086423 
L 371.021096 -56.086423 
L 381.009041 -56.086423 
L 390.996986 -56.086423 
L 400.984932 -56.086423 
L 410.972877 -56.086423 
L 420.960822 -56.086423 
L 430.948767 -56.086423 
L 440.936712 -56.086423 
L 450.924658 -56.086423 
L 450.924658 -334.762357 
L 450.924658 -334.762357 
L 440.936712 -334.762357 
L 430.948767 -334.762357 
L 420.960822 -334.762357 
L 410.972877 -334.762357 
L 400.984932 -334.762357 
L 390.996986 -334.762357 
L 381.009041 -334.762357 
L 371.021096 -334.762357 
L 361.033151 -334.762357 
z
" style="stroke: #000000; stroke-opacity: 0.05"/>
    </defs>
    <g clip-path="url(#p71f05fab5c)">
     <use xlink:href="#m60e1ee101a" x="0" y="432" style="fill-opacity: 0.05; stroke: #000000; stroke-opacity: 0.05"/>
    </g>
   </g>
   <g id="matplotlib.axis_1">
    <g id="xtick_1">
     <g id="line2d_1">
      <defs>
       <path id="ma1c9ef07d3" d="M 0 0 
L 0 3.5 
" style="stroke: #000000; stroke-width: 0.8"/>
      </defs>
      <g>
       <use xlink:href="#ma1c9ef07d3" x="65.675342" y="378" style="stroke: #000000; stroke-width: 0.8"/>
      </g>
     </g>
     <g id="text_5">
      <!-- $\mathdefault{0.0}$ -->
      <g transform="translate(55.650535 395.37774) scale(0.15 -0.15)">
       <defs>
        <path id="HFBR17-30" d="M 947 4087 
C 762 3959 634 3785 538 3586 
C 307 3136 282 2609 282 2037 
C 282 1317 410 656 768 276 
C 1107 -77 1645 -167 2099 19 
C 2381 129 2586 366 2714 623 
C 2944 1080 2970 1626 2970 2191 
C 2970 2371 2963 2551 2944 2731 
C 2899 3162 2752 3637 2515 3901 
C 2125 4332 1427 4428 947 4087 
z
M 2234 3721 
C 2534 3400 2560 2783 2560 2198 
L 2560 1851 
C 2560 1555 2509 1170 2445 951 
C 2355 649 2208 431 1914 296 
C 1555 167 1184 289 979 572 
C 704 938 691 1587 691 2159 
C 691 2699 698 3297 960 3650 
C 1248 4036 1869 4100 2234 3721 
z
" transform="scale(0.015625)"/>
        <path id="HFBRMI10-3a" d="M 685 500 
L 685 0 
L 1184 0 
L 1184 500 
L 685 500 
z
" transform="scale(0.015625)"/>
       </defs>
       <use xlink:href="#HFBR17-30" transform="scale(0.996264)"/>
       <use xlink:href="#HFBRMI10-3a" transform="translate(50.643218 0) scale(0.996264)"/>
       <use xlink:href="#HFBR17-30" transform="translate(79.700665 0) scale(0.996264)"/>
      </g>
     </g>
    </g>
    <g id="xtick_2">
     <g id="line2d_2">
      <g>
       <use xlink:href="#ma1c9ef07d3" x="119.182192" y="378" style="stroke: #000000; stroke-width: 0.8"/>
      </g>
     </g>
     <g id="text_6">
      <!-- $\mathdefault{0.5}$ -->
      <g transform="translate(109.157384 395.37774) scale(0.15 -0.15)">
       <defs>
        <path id="HFBR17-35" d="M 538 4245 
L 538 1949 
L 781 1949 
C 813 1949 858 1943 883 1956 
C 915 1975 934 2020 954 2046 
C 998 2103 1050 2148 1101 2193 
C 1331 2386 1773 2463 2067 2315 
C 2470 2123 2547 1614 2515 1216 
C 2496 964 2419 733 2272 585 
C 1933 224 1363 224 947 435 
C 742 538 570 699 442 891 
L 435 891 
C 416 859 269 634 269 595 
C 269 569 288 550 301 531 
C 493 306 742 132 1030 36 
C 1600 -144 2240 -3 2643 460 
C 3123 1019 3059 1930 2502 2417 
C 2336 2572 2106 2681 1830 2706 
C 1459 2758 1126 2578 928 2411 
L 928 3904 
L 2746 3904 
L 2746 4245 
L 538 4245 
z
" transform="scale(0.015625)"/>
       </defs>
       <use xlink:href="#HFBR17-30" transform="scale(0.996264)"/>
       <use xlink:href="#HFBRMI10-3a" transform="translate(50.643218 0) scale(0.996264)"/>
       <use xlink:href="#HFBR17-35" transform="translate(79.700665 0) scale(0.996264)"/>
      </g>
     </g>
    </g>
    <g id="xtick_3">
     <g id="line2d_3">
      <g>
       <use xlink:href="#ma1c9ef07d3" x="172.689041" y="378" style="stroke: #000000; stroke-width: 0.8"/>
      </g>
     </g>
     <g id="text_7">
      <!-- $\mathdefault{1.0}$ -->
      <g transform="translate(162.664233 395.37774) scale(0.15 -0.15)">
       <defs>
        <path id="HFBR17-31" d="M 621 3841 
L 621 3520 
C 973 3520 1216 3584 1498 3706 
L 1498 321 
L 659 321 
L 659 0 
L 2752 0 
L 2752 321 
L 1914 321 
L 1914 4288 
C 1760 4288 1786 4247 1664 4152 
C 1402 3950 1037 3841 621 3841 
z
" transform="scale(0.015625)"/>
       </defs>
       <use xlink:href="#HFBR17-31" transform="scale(0.996264)"/>
       <use xlink:href="#HFBRMI10-3a" transform="translate(50.643218 0) scale(0.996264)"/>
       <use xlink:href="#HFBR17-30" transform="translate(79.700665 0) scale(0.996264)"/>
      </g>
     </g>
    </g>
    <g id="xtick_4">
     <g id="line2d_4">
      <g>
       <use xlink:href="#ma1c9ef07d3" x="226.19589" y="378" style="stroke: #000000; stroke-width: 0.8"/>
      </g>
     </g>
     <g id="text_8">
      <!-- $\mathdefault{1.5}$ -->
      <g transform="translate(216.171083 395.37774) scale(0.15 -0.15)">
       <use xlink:href="#HFBR17-31" transform="scale(0.996264)"/>
       <use xlink:href="#HFBRMI10-3a" transform="translate(50.643218 0) scale(0.996264)"/>
       <use xlink:href="#HFBR17-35" transform="translate(79.700665 0) scale(0.996264)"/>
      </g>
     </g>
    </g>
    <g id="xtick_5">
     <g id="line2d_5">
      <g>
       <use xlink:href="#ma1c9ef07d3" x="279.70274" y="378" style="stroke: #000000; stroke-width: 0.8"/>
      </g>
     </g>
     <g id="text_9">
      <!-- $\mathdefault{2.0}$ -->
      <g transform="translate(269.677932 395.37774) scale(0.15 -0.15)">
       <defs>
        <path id="HFBR17-32" d="M 467 2942 
C 557 3302 710 3711 1075 3872 
C 1229 3936 1395 3949 1562 3936 
C 1875 3910 2182 3782 2374 3526 
C 2515 3333 2566 3096 2541 2866 
C 2464 2198 1811 1718 1389 1359 
C 1146 1154 454 500 454 500 
L 346 397 
C 288 340 282 340 282 224 
L 282 0 
L 2970 0 
L 2970 360 
L 653 360 
C 858 559 1709 1313 1824 1403 
C 2195 1706 2611 2008 2835 2446 
C 3085 2948 2976 3580 2554 3953 
C 2298 4179 1946 4288 1606 4288 
C 1293 4288 973 4224 723 4026 
C 531 3865 371 3628 282 3384 
C 262 3346 230 3282 237 3237 
C 243 3199 282 3167 301 3141 
C 352 3077 403 3000 467 2942 
z
" transform="scale(0.015625)"/>
       </defs>
       <use xlink:href="#HFBR17-32" transform="scale(0.996264)"/>
       <use xlink:href="#HFBRMI10-3a" transform="translate(50.643218 0) scale(0.996264)"/>
       <use xlink:href="#HFBR17-30" transform="translate(79.700665 0) scale(0.996264)"/>
      </g>
     </g>
    </g>
    <g id="xtick_6">
     <g id="line2d_6">
      <g>
       <use xlink:href="#ma1c9ef07d3" x="333.209589" y="378" style="stroke: #000000; stroke-width: 0.8"/>
      </g>
     </g>
     <g id="text_10">
      <!-- $\mathdefault{2.5}$ -->
      <g transform="translate(323.184781 395.37774) scale(0.15 -0.15)">
       <use xlink:href="#HFBR17-32" transform="scale(0.996264)"/>
       <use xlink:href="#HFBRMI10-3a" transform="translate(50.643218 0) scale(0.996264)"/>
       <use xlink:href="#HFBR17-35" transform="translate(79.700665 0) scale(0.996264)"/>
      </g>
     </g>
    </g>
    <g id="xtick_7">
     <g id="line2d_7">
      <g>
       <use xlink:href="#ma1c9ef07d3" x="386.716438" y="378" style="stroke: #000000; stroke-width: 0.8"/>
      </g>
     </g>
     <g id="text_11">
      <!-- $\mathdefault{3.0}$ -->
      <g transform="translate(376.691631 395.37774) scale(0.15 -0.15)">
       <defs>
        <path id="HFBR17-33" d="M 518 3246 
C 570 3323 608 3407 666 3484 
C 800 3664 986 3805 1197 3889 
C 1530 4024 2016 4024 2278 3726 
C 2509 3461 2413 3047 2202 2802 
C 2010 2576 1760 2466 1389 2466 
C 1280 2466 1178 2434 1069 2434 
L 1069 2112 
L 1510 2112 
C 1882 2112 2125 2055 2330 1836 
C 2682 1463 2650 801 2259 461 
C 2061 294 1786 242 1530 261 
C 1030 300 589 564 294 975 
C 262 911 262 821 250 750 
C 230 647 230 647 294 564 
C 480 313 845 82 1133 -2 
C 1645 -156 2240 -86 2637 306 
C 2714 384 2784 467 2842 557 
C 3078 930 3085 1418 2822 1778 
C 2714 1926 2573 2042 2413 2132 
C 2304 2196 2176 2260 2048 2273 
C 2419 2447 2765 2741 2829 3223 
C 2886 3672 2624 3948 2355 4108 
C 1939 4352 1395 4352 966 4139 
C 768 4043 589 3902 454 3728 
C 429 3696 333 3587 333 3535 
C 333 3503 358 3471 378 3445 
L 518 3246 
z
" transform="scale(0.015625)"/>
       </defs>
       <use xlink:href="#HFBR17-33" transform="scale(0.996264)"/>
       <use xlink:href="#HFBRMI10-3a" transform="translate(50.643218 0) scale(0.996264)"/>
       <use xlink:href="#HFBR17-30" transform="translate(79.700665 0) scale(0.996264)"/>
      </g>
     </g>
    </g>
    <g id="xtick_8">
     <g id="line2d_8">
      <g>
       <use xlink:href="#ma1c9ef07d3" x="440.223288" y="378" style="stroke: #000000; stroke-width: 0.8"/>
      </g>
     </g>
     <g id="text_12">
      <!-- $\mathdefault{3.5}$ -->
      <g transform="translate(430.19848 395.37774) scale(0.15 -0.15)">
       <use xlink:href="#HFBR17-33" transform="scale(0.996264)"/>
       <use xlink:href="#HFBRMI10-3a" transform="translate(50.643218 0) scale(0.996264)"/>
       <use xlink:href="#HFBR17-35" transform="translate(79.700665 0) scale(0.996264)"/>
      </g>
     </g>
    </g>
    <g id="text_13">
     <!-- Time (s) -->
     <g transform="translate(230.081099 413.07637) scale(0.15 -0.15)">
      <defs>
       <path id="HFBR17-54" d="M 192 4437 
L 192 4096 
L 2016 4096 
L 2016 0 
L 2464 0 
L 2464 4096 
L 4288 4096 
L 4288 4437 
L 192 4437 
z
" transform="scale(0.015625)"/>
       <path id="HFBR17-28" d="M 2189 -1408 
C 2138 -1350 2074 -1298 2016 -1247 
C 1965 -1202 1920 -1151 1875 -1099 
C 1235 -392 902 739 954 1941 
C 979 2596 1107 3264 1414 3856 
C 1555 4119 1798 4492 2016 4678 
C 2074 4730 2138 4781 2189 4839 
L 1978 4839 
C 1946 4839 1901 4845 1869 4833 
C 1792 4794 1600 4601 1574 4575 
C 960 3959 595 3027 544 1941 
C 512 1163 640 372 986 -322 
C 1139 -630 1344 -913 1587 -1157 
C 1651 -1221 1792 -1363 1869 -1401 
C 1901 -1414 1946 -1408 1978 -1408 
L 2189 -1408 
z
" transform="scale(0.015625)"/>
       <path id="HFBR17-29" d="M 320 4839 
C 371 4781 435 4730 493 4678 
C 544 4633 589 4582 634 4530 
C 1190 3888 1510 3014 1555 1941 
C 1587 1144 1466 315 1101 -405 
C 979 -656 819 -894 634 -1099 
C 589 -1151 544 -1202 493 -1247 
C 435 -1298 371 -1350 320 -1408 
L 531 -1408 
C 563 -1408 608 -1414 640 -1401 
C 717 -1363 909 -1170 934 -1144 
C 1549 -527 1914 405 1965 1491 
C 1997 2268 1869 3059 1523 3753 
C 1370 4061 1165 4344 922 4588 
C 858 4653 717 4794 640 4833 
C 608 4845 563 4839 531 4839 
L 320 4839 
z
" transform="scale(0.015625)"/>
      </defs>
      <use xlink:href="#HFBR17-54" transform="scale(0.996264)"/>
      <use xlink:href="#HFBR17-69" transform="translate(69.738177 0) scale(0.996264)"/>
      <use xlink:href="#HFBR17-6d" transform="translate(88.833136 0) scale(0.996264)"/>
      <use xlink:href="#HFBR17-65" transform="translate(166.043262 0) scale(0.996264)"/>
      <use xlink:href="#HFBR17-28" transform="translate(242.340141 0) scale(0.996264)"/>
      <use xlink:href="#HFBR17-73" transform="translate(281.36035 0) scale(0.996264)"/>
      <use xlink:href="#HFBR17-29" transform="translate(319.799379 0) scale(0.996264)"/>
     </g>
    </g>
   </g>
   <g id="matplotlib.axis_2">
    <g id="ytick_1">
     <g id="line2d_9">
      <defs>
       <path id="m695128b402" d="M 0 0 
L -3.5 0 
" style="stroke: #000000; stroke-width: 0.8"/>
      </defs>
      <g>
       <use xlink:href="#m695128b402" x="63" y="363.258784" style="stroke: #000000; stroke-width: 0.8"/>
      </g>
     </g>
     <g id="text_14">
      <!-- $\mathdefault{10}$ -->
      <g transform="translate(40.308994 368.447654) scale(0.15 -0.15)">
       <use xlink:href="#HFBR17-31" transform="scale(0.996264)"/>
       <use xlink:href="#HFBR17-30" transform="translate(50.643218 0) scale(0.996264)"/>
      </g>
     </g>
    </g>
    <g id="ytick_2">
     <g id="line2d_10">
      <g>
       <use xlink:href="#m695128b402" x="63" y="321.530323" style="stroke: #000000; stroke-width: 0.8"/>
      </g>
     </g>
     <g id="text_15">
      <!-- $\mathdefault{15}$ -->
      <g transform="translate(40.308994 326.719193) scale(0.15 -0.15)">
       <use xlink:href="#HFBR17-31" transform="scale(0.996264)"/>
       <use xlink:href="#HFBR17-35" transform="translate(50.643218 0) scale(0.996264)"/>
      </g>
     </g>
    </g>
    <g id="ytick_3">
     <g id="line2d_11">
      <g>
       <use xlink:href="#m695128b402" x="63" y="279.801861" style="stroke: #000000; stroke-width: 0.8"/>
      </g>
     </g>
     <g id="text_16">
      <!-- $\mathdefault{20}$ -->
      <g transform="translate(40.308994 284.990731) scale(0.15 -0.15)">
       <use xlink:href="#HFBR17-32" transform="scale(0.996264)"/>
       <use xlink:href="#HFBR17-30" transform="translate(50.643218 0) scale(0.996264)"/>
      </g>
     </g>
    </g>
    <g id="ytick_4">
     <g id="line2d_12">
      <g>
       <use xlink:href="#m695128b402" x="63" y="238.0734" style="stroke: #000000; stroke-width: 0.8"/>
      </g>
     </g>
     <g id="text_17">
      <!-- $\mathdefault{25}$ -->
      <g transform="translate(40.308994 243.26227) scale(0.15 -0.15)">
       <use xlink:href="#HFBR17-32" transform="scale(0.996264)"/>
       <use xlink:href="#HFBR17-35" transform="translate(50.643218 0) scale(0.996264)"/>
      </g>
     </g>
    </g>
    <g id="ytick_5">
     <g id="line2d_13">
      <g>
       <use xlink:href="#m695128b402" x="63" y="196.344939" style="stroke: #000000; stroke-width: 0.8"/>
      </g>
     </g>
     <g id="text_18">
      <!-- $\mathdefault{30}$ -->
      <g transform="translate(40.308994 201.533809) scale(0.15 -0.15)">
       <use xlink:href="#HFBR17-33" transform="scale(0.996264)"/>
       <use xlink:href="#HFBR17-30" transform="translate(50.643218 0) scale(0.996264)"/>
      </g>
     </g>
    </g>
    <g id="ytick_6">
     <g id="line2d_14">
      <g>
       <use xlink:href="#m695128b402" x="63" y="154.616478" style="stroke: #000000; stroke-width: 0.8"/>
      </g>
     </g>
     <g id="text_19">
      <!-- $\mathdefault{35}$ -->
      <g transform="translate(40.308994 159.805348) scale(0.15 -0.15)">
       <use xlink:href="#HFBR17-33" transform="scale(0.996264)"/>
       <use xlink:href="#HFBR17-35" transform="translate(50.643218 0) scale(0.996264)"/>
      </g>
     </g>
    </g>
    <g id="ytick_7">
     <g id="line2d_15">
      <g>
       <use xlink:href="#m695128b402" x="63" y="112.888016" style="stroke: #000000; stroke-width: 0.8"/>
      </g>
     </g>
     <g id="text_20">
      <!-- $\mathdefault{40}$ -->
      <g transform="translate(40.308994 118.076886) scale(0.15 -0.15)">
       <defs>
        <path id="HFBR17-34" d="M 134 1152 
L 1984 1152 
L 1984 0 
L 2387 0 
L 2387 1152 
L 3117 1152 
L 3117 1493 
L 2387 1493 
L 2387 4254 
L 2042 4254 
C 1926 4254 1894 4261 1843 4164 
C 1587 3745 237 1649 192 1591 
C 141 1500 134 1507 134 1372 
L 134 1152 
z
M 2003 3896 
L 2003 1493 
L 550 1493 
C 595 1583 659 1666 717 1756 
C 1037 2251 1798 3427 1958 3794 
C 1978 3826 1984 3864 2003 3896 
z
" transform="scale(0.015625)"/>
       </defs>
       <use xlink:href="#HFBR17-34" transform="scale(0.996264)"/>
       <use xlink:href="#HFBR17-30" transform="translate(50.643218 0) scale(0.996264)"/>
      </g>
     </g>
    </g>
    <g id="text_21">
     <!-- Maximum of firing rate (Hz) -->
     <g transform="translate(32.988104 327.583451) rotate(-90) scale(0.15 -0.15)">
      <defs>
       <path id="HFBR17-4d" d="M 538 4454 
L 538 0 
L 934 0 
L 934 4049 
L 941 4049 
C 966 3940 1056 3721 1082 3650 
L 1363 2943 
C 1638 2269 2464 263 2502 161 
C 2522 90 2554 77 2637 77 
L 2810 77 
C 2835 77 2867 71 2899 77 
C 2931 84 2938 116 2950 141 
C 2970 199 2995 251 3021 308 
C 3315 1028 4480 3875 4525 4049 
L 4531 4049 
L 4531 0 
L 4928 0 
L 4928 4454 
C 4736 4454 4506 4486 4339 4454 
L 4294 4358 
C 3770 3071 3232 1801 2733 488 
C 2624 779 2509 1061 2394 1345 
C 1965 2374 1568 3437 1120 4454 
C 960 4493 723 4454 538 4454 
z
" transform="scale(0.015625)"/>
       <path id="HFBR17-78" d="M -13 3033 
L 646 2206 
L 1165 1571 
L 1165 1565 
L 1005 1365 
L -51 0 
C 96 0 250 0 390 0 
L 474 104 
L 1338 1333 
L 1344 1333 
C 1664 891 1984 442 2323 19 
C 2458 0 2618 0 2771 0 
L 1990 979 
C 1837 1178 1677 1372 1517 1565 
L 1517 1571 
L 1734 1840 
L 2656 3033 
C 2509 3033 2362 3033 2221 3033 
L 2138 2937 
L 1344 1867 
C 1037 2243 749 2644 435 3014 
C 301 3033 141 3033 -13 3033 
z
" transform="scale(0.015625)"/>
       <path id="HFBR17-66" d="M 678 3009 
L 128 3009 
L 128 2688 
L 678 2688 
L 678 -32 
L 1082 -32 
L 1082 2688 
L 1875 2688 
L 1875 3009 
L 1075 3009 
L 1075 3570 
C 1075 3660 1056 3771 1094 3861 
C 1229 4144 1683 4196 2054 4132 
C 2131 4119 2202 4093 2278 4080 
L 2278 4441 
C 1843 4512 1363 4512 1005 4219 
C 947 4168 896 4118 851 4053 
C 717 3888 678 3704 678 3417 
L 678 3009 
z
" transform="scale(0.015625)"/>
       <path id="HFBR17-c" d="M 678 3009 
L 128 3009 
L 128 2688 
L 678 2688 
L 678 0 
L 1082 0 
L 1082 2688 
L 1926 2688 
L 1926 3009 
L 1075 3009 
L 1075 3533 
C 1075 3792 1050 3931 1210 4077 
C 1402 4222 1645 4222 1926 4101 
L 1926 4474 
C 1773 4500 1613 4525 1453 4513 
C 1280 4500 1094 4414 992 4309 
C 819 4170 704 3900 678 3650 
C 672 3563 678 3484 678 3399 
L 678 3009 
z
M 2438 4480 
L 2438 4075 
L 2842 4075 
L 2842 4480 
L 2438 4480 
z
M 2438 3033 
L 2438 0 
L 2842 0 
L 2842 3033 
L 2438 3033 
z
" transform="scale(0.015625)"/>
       <path id="HFBR17-67" d="M 2266 767 
L 2272 767 
L 2272 170 
C 2272 -10 2272 -183 2214 -356 
C 2118 -588 1952 -800 1677 -838 
C 1600 -845 1517 -838 1440 -832 
C 1024 -832 749 -707 416 -555 
L 416 -799 
C 416 -922 435 -928 557 -967 
C 883 -1102 1472 -1236 1875 -1134 
C 2323 -1018 2650 -594 2682 -78 
C 2688 12 2682 109 2682 200 
L 2682 3072 
L 2278 3072 
L 2278 2559 
C 2182 2719 2080 2867 1914 2970 
C 1466 3240 858 2944 608 2597 
C 198 2089 122 1302 448 735 
C 512 626 589 523 678 433 
C 986 131 1510 -30 1888 240 
C 2042 343 2221 581 2266 767 
z
M 1632 2752 
C 1690 2752 1754 2752 1811 2739 
C 2042 2694 2170 2488 2246 2282 
C 2291 2141 2278 1987 2278 1839 
C 2278 1518 2272 1184 2163 881 
C 2086 657 1926 457 1677 432 
C 1594 425 1510 438 1427 457 
C 1037 547 768 881 685 1267 
C 570 1826 845 2507 1408 2700 
C 1478 2726 1555 2745 1632 2752 
z
" transform="scale(0.015625)"/>
       <path id="HFBR17-48" d="M 512 4460 
L 512 0 
L 960 0 
L 960 2155 
L 3386 2155 
L 3386 0 
L 3834 0 
L 3834 4460 
L 3386 4460 
L 3386 2496 
L 960 2496 
L 960 4460 
L 512 4460 
z
" transform="scale(0.015625)"/>
       <path id="HFBR17-7a" d="M 230 3008 
L 230 2693 
L 2074 2693 
L 646 866 
C 480 643 294 446 141 210 
C 134 147 134 70 134 0 
L 2650 0 
L 2650 321 
L 691 321 
L 2131 2155 
C 2291 2372 2464 2575 2624 2798 
C 2630 2862 2630 2939 2630 3008 
L 230 3008 
z
" transform="scale(0.015625)"/>
      </defs>
      <use xlink:href="#HFBR17-4d" transform="scale(0.996264)"/>
      <use xlink:href="#HFBR17-61" transform="translate(85.097297 0) scale(0.996264)"/>
      <use xlink:href="#HFBR17-78" transform="translate(131.58938 0) scale(0.996264)"/>
      <use xlink:href="#HFBR17-69" transform="translate(173.930418 0) scale(0.996264)"/>
      <use xlink:href="#HFBR17-6d" transform="translate(193.025377 0) scale(0.996264)"/>
      <use xlink:href="#HFBR17-75" transform="translate(270.235503 0) scale(0.996264)"/>
      <use xlink:href="#HFBR17-6d" transform="translate(318.388 0) scale(0.996264)"/>
      <use xlink:href="#HFBR17-6f" transform="translate(427.063338 0) scale(0.996264)"/>
      <use xlink:href="#HFBR17-66" transform="translate(477.706556 0) scale(0.996264)"/>
      <use xlink:href="#HFBR17-c" transform="translate(539.474712 0) scale(0.996264)"/>
      <use xlink:href="#HFBR17-72" transform="translate(590.117929 0) scale(0.996264)"/>
      <use xlink:href="#HFBR17-69" transform="translate(622.081288 0) scale(0.996264)"/>
      <use xlink:href="#HFBR17-6e" transform="translate(641.176247 0) scale(0.996264)"/>
      <use xlink:href="#HFBR17-67" transform="translate(689.328744 0) scale(0.996264)"/>
      <use xlink:href="#HFBR17-72" transform="translate(768.946453 0) scale(0.996264)"/>
      <use xlink:href="#HFBR17-61" transform="translate(800.909811 0) scale(0.996264)"/>
      <use xlink:href="#HFBR17-74" transform="translate(847.401894 0) scale(0.996264)"/>
      <use xlink:href="#HFBR17-65" transform="translate(883.516282 0) scale(0.996264)"/>
      <use xlink:href="#HFBR17-28" transform="translate(959.813161 0) scale(0.996264)"/>
      <use xlink:href="#HFBR17-48" transform="translate(998.83337 0) scale(0.996264)"/>
      <use xlink:href="#HFBR17-7a" transform="translate(1066.496123 0) scale(0.996264)"/>
      <use xlink:href="#HFBR17-29" transform="translate(1109.252276 0) scale(0.996264)"/>
     </g>
    </g>
   </g>
   <g id="line2d_16">
    <path d="M 65.675342 374.670048 
L 66.751458 375.913577 
L 67.827573 374.964711 
L 69.979804 372.209165 
L 71.055919 371.385925 
L 72.132035 370.90033 
L 73.20815 370.814135 
L 74.284266 371.042423 
L 76.436497 372.096342 
L 77.512612 372.339542 
L 78.588727 372.848881 
L 80.740958 373.224089 
L 83.969304 373.274835 
L 85.04542 373.127348 
L 87.197651 372.456592 
L 90.425997 372.366417 
L 100.111035 370.357259 
L 103.339382 369.421932 
L 104.415497 369.02155 
L 105.491612 368.480468 
L 106.567728 368.11394 
L 108.719959 367.691435 
L 113.02442 366.487611 
L 114.100536 366.017944 
L 115.176651 365.897483 
L 116.252767 365.512664 
L 118.404997 365.092898 
L 119.481113 364.644154 
L 121.633344 364.212022 
L 122.709459 364.046939 
L 125.937805 363.107653 
L 127.013921 362.670773 
L 129.166151 362.175062 
L 130.242267 361.663434 
L 132.394498 361.013841 
L 134.546728 360.166932 
L 137.775075 359.561709 
L 138.85119 358.957035 
L 139.927305 358.78429 
L 142.079536 358.186253 
L 143.155652 357.703371 
L 145.307882 357.161115 
L 146.383998 356.488742 
L 147.460113 355.657506 
L 148.536229 354.973859 
L 149.612344 354.470104 
L 151.764575 353.878541 
L 153.916806 353.61739 
L 158.221267 353.462874 
L 173.286883 353.402009 
L 213.103153 353.147213 
L 331.475848 352.308088 
L 360.530963 352.168861 
L 361.607079 352.895823 
L 369.139887 359.920606 
L 371.292118 361.295861 
L 372.368233 361.679843 
L 376.672695 363.90895 
L 378.824925 364.61874 
L 380.977156 365.112462 
L 382.053272 365.346272 
L 383.129387 365.454854 
L 386.357733 366.323248 
L 387.433849 366.443461 
L 388.509964 366.736695 
L 405.727811 366.225669 
L 406.803926 365.958083 
L 410.032272 365.767237 
L 414.336734 364.850209 
L 415.412849 364.934831 
L 416.488965 364.821923 
L 417.56508 364.444772 
L 420.793426 363.761278 
L 421.869542 363.481636 
L 424.021772 363.167609 
L 427.250119 362.360517 
L 429.402349 362.123132 
L 430.478465 361.775777 
L 432.630696 361.390423 
L 433.706811 360.88495 
L 436.935157 359.982133 
L 438.011273 359.680375 
L 439.087388 359.531342 
L 441.239619 358.883757 
L 442.315734 358.251573 
L 443.39185 357.469754 
L 444.467965 356.828583 
L 445.544081 356.358562 
L 447.696311 355.813546 
L 449.848542 355.581033 
L 450.924658 355.524985 
L 450.924658 355.524985 
" clip-path="url(#p71f05fab5c)" style="fill: none; stroke-dasharray: 9.6,2.4,1.5,2.4; stroke-dashoffset: 0; stroke: #ffa500; stroke-width: 1.5"/>
   </g>
   <g id="line2d_17">
    <path d="M 65.675342 304.266001 
L 66.751458 307.129114 
L 67.827573 305.69628 
L 68.903689 302.998184 
L 69.979804 300.620263 
L 71.055919 299.29768 
L 72.132035 298.959021 
L 73.20815 299.941765 
L 74.284266 301.351634 
L 77.512612 306.2632 
L 78.588727 307.717047 
L 80.740958 309.943258 
L 81.817074 310.879721 
L 82.893189 311.574904 
L 85.04542 312.403387 
L 86.121535 313.029422 
L 87.197651 313.25148 
L 90.425997 314.519714 
L 91.502112 315.129964 
L 92.578228 315.461548 
L 94.730458 315.972441 
L 97.958805 316.946869 
L 99.03492 317.08391 
L 100.111035 317.009045 
L 102.263266 317.209271 
L 103.339382 317.517097 
L 104.415497 317.649991 
L 105.491612 317.645768 
L 106.567728 317.902605 
L 109.796074 317.955729 
L 110.872189 318.097079 
L 111.948305 318.070848 
L 113.02442 317.908452 
L 116.252767 318.160245 
L 117.328882 317.969189 
L 118.404997 318.140161 
L 124.86169 317.565506 
L 125.937805 317.688118 
L 128.090036 317.367133 
L 129.166151 317.489454 
L 134.546728 317.294355 
L 135.622844 317.170942 
L 137.775075 317.230917 
L 138.85119 317.074945 
L 141.003421 317.152736 
L 143.155652 317.051443 
L 145.307882 316.859328 
L 146.383998 316.012024 
L 148.536229 313.618335 
L 149.612344 312.650151 
L 151.764575 311.161167 
L 153.916806 310.040814 
L 157.145152 308.675686 
L 161.449614 307.106786 
L 166.830191 305.367123 
L 173.286883 303.536909 
L 179.743575 301.957813 
L 186.200268 300.604697 
L 193.733076 299.278434 
L 201.265884 298.187382 
L 209.874807 297.182509 
L 219.559845 296.303568 
L 230.320999 295.571434 
L 242.158269 294.989196 
L 257.223885 294.487114 
L 275.517846 294.112266 
L 300.268501 293.840449 
L 337.93254 293.669809 
L 360.530963 293.633211 
L 361.607079 294.855743 
L 363.75931 298.918747 
L 364.835425 300.786155 
L 365.911541 302.423751 
L 369.139887 306.216405 
L 374.520464 311.336655 
L 375.596579 311.893498 
L 377.74881 313.430533 
L 380.977156 314.885481 
L 384.205502 316.666194 
L 385.281618 317.071545 
L 386.357733 317.333049 
L 387.433849 317.797942 
L 394.966656 319.812284 
L 398.195003 320.371706 
L 402.499464 320.904547 
L 403.57558 321.01373 
L 404.651695 320.908735 
L 406.803926 321.157359 
L 410.032272 321.153876 
L 411.108388 321.33961 
L 413.260618 321.182152 
L 418.641195 321.716027 
L 419.717311 321.459171 
L 420.793426 321.363415 
L 421.869542 321.132493 
L 424.021772 321.210514 
L 425.097888 321.176995 
L 426.174003 321.021087 
L 428.326234 321.063343 
L 429.402349 321.040727 
L 430.478465 320.897575 
L 434.782926 320.771975 
L 441.239619 319.86524 
L 442.315734 319.011347 
L 444.467965 316.617843 
L 445.544081 315.633114 
L 447.696311 314.08223 
L 449.848542 312.876552 
L 450.924658 312.345389 
L 450.924658 312.345389 
" clip-path="url(#p71f05fab5c)" style="fill: none; stroke-dasharray: 5.55,2.4; stroke-dashoffset: 0; stroke: #ffa500; stroke-width: 1.5"/>
   </g>
   <g id="line2d_18">
    <path d="M 65.675342 260.681962 
L 66.751458 263.911488 
L 67.827573 261.65544 
L 68.903689 258.139072 
L 69.979804 255.123691 
L 71.055919 253.693026 
L 72.132035 253.666395 
L 73.20815 255.05009 
L 74.284266 256.882326 
L 76.436497 261.426356 
L 77.512612 263.35521 
L 79.664843 266.295336 
L 81.817074 268.189334 
L 82.893189 269.06341 
L 87.197651 270.663322 
L 88.273766 270.823796 
L 91.502112 271.696558 
L 93.654343 272.121137 
L 95.806574 272.866567 
L 96.882689 273.112561 
L 97.958805 273.199687 
L 99.03492 273.544572 
L 100.111035 273.715769 
L 109.796074 273.607054 
L 111.948305 274.054205 
L 113.02442 273.980427 
L 114.100536 273.746843 
L 117.328882 273.572206 
L 118.404997 273.590205 
L 119.481113 273.409915 
L 120.557228 273.50681 
L 121.633344 273.332438 
L 123.785574 273.362337 
L 125.937805 273.611553 
L 127.013921 273.447544 
L 128.090036 273.469198 
L 129.166151 273.645102 
L 130.242267 273.476351 
L 131.318382 273.186705 
L 134.546728 272.840338 
L 135.622844 272.553783 
L 137.775075 272.248455 
L 138.85119 272.32247 
L 139.927305 272.217378 
L 141.003421 271.964309 
L 144.231767 271.822913 
L 145.307882 271.727985 
L 146.383998 270.122797 
L 148.536229 265.830214 
L 150.688459 262.293849 
L 152.84069 259.484565 
L 154.992921 257.144677 
L 157.145152 255.128844 
L 159.297383 253.36812 
L 161.449614 251.826618 
L 163.601844 250.480336 
L 166.830191 248.783682 
L 170.058537 247.420248 
L 173.286883 246.33385 
L 176.515229 245.474078 
L 180.819691 244.60539 
L 185.124152 243.976986 
L 190.504729 243.431046 
L 196.961422 243.009827 
L 205.570345 242.683971 
L 218.48373 242.44666 
L 241.082154 242.295038 
L 294.887924 242.214465 
L 360.530963 242.227833 
L 361.607079 244.469494 
L 363.75931 250.368383 
L 364.835425 253.123748 
L 366.987656 257.067062 
L 368.063771 259.029835 
L 369.139887 260.720817 
L 371.292118 263.30649 
L 372.368233 264.498181 
L 374.520464 266.292419 
L 376.672695 267.657754 
L 377.74881 268.453008 
L 378.824925 269.041394 
L 384.205502 271.241566 
L 386.357733 271.896882 
L 387.433849 272.23157 
L 393.890541 273.459339 
L 394.966656 273.459101 
L 396.042772 273.830482 
L 397.118887 274.051124 
L 400.347233 274.276951 
L 403.57558 274.596954 
L 404.651695 274.776231 
L 405.727811 274.776104 
L 406.803926 274.936828 
L 408.956157 274.78803 
L 410.032272 274.928184 
L 412.184503 274.78475 
L 414.336734 275.037185 
L 415.412849 274.791952 
L 417.56508 274.685075 
L 418.641195 274.88926 
L 419.717311 274.624498 
L 422.945657 274.836274 
L 425.097888 274.804939 
L 429.402349 274.860413 
L 431.55458 274.649611 
L 435.859042 274.826889 
L 436.935157 274.806826 
L 439.087388 274.416301 
L 440.163503 274.465343 
L 441.239619 274.26011 
L 442.315734 272.611196 
L 444.467965 268.226123 
L 446.620196 264.534639 
L 448.772427 261.529389 
L 450.924658 258.978517 
L 450.924658 258.978517 
" clip-path="url(#p71f05fab5c)" style="fill: none; stroke: #ffa500; stroke-width: 1.5; stroke-linecap: square"/>
   </g>
   <g id="line2d_19">
    <path d="M 65.675342 254.439764 
L 66.751458 254.297824 
L 67.827573 249.657256 
L 68.903689 244.215862 
L 69.979804 239.638805 
L 71.055919 236.522842 
L 72.132035 235.133982 
L 73.20815 235.261028 
L 74.284266 236.225915 
L 75.360381 237.46876 
L 76.436497 238.894905 
L 78.588727 240.809118 
L 79.664843 241.373231 
L 80.740958 241.751903 
L 82.893189 241.899883 
L 83.969304 242.028772 
L 85.04542 241.960342 
L 86.121535 241.7368 
L 90.425997 241.5473 
L 91.502112 241.259963 
L 92.578228 241.357987 
L 96.882689 241.007059 
L 100.111035 241.154229 
L 102.263266 240.670393 
L 104.415497 240.796075 
L 110.872189 240.579114 
L 113.02442 240.370395 
L 115.176651 240.37338 
L 118.404997 240.147906 
L 119.481113 240.212418 
L 123.785574 239.965419 
L 124.86169 239.653126 
L 125.937805 239.826121 
L 131.318382 239.763829 
L 132.394498 239.546985 
L 136.698959 239.329839 
L 137.775075 239.455713 
L 142.079536 239.348651 
L 143.155652 239.418884 
L 145.307882 239.343939 
L 146.383998 236.863923 
L 148.536229 231.295943 
L 149.612344 228.998236 
L 150.688459 227.053561 
L 151.764575 225.408962 
L 152.84069 224.011006 
L 153.916806 222.815217 
L 156.069037 220.898985 
L 158.221267 219.465028 
L 160.373498 218.387927 
L 162.525729 217.578956 
L 164.67796 216.971805 
L 167.906306 216.33286 
L 171.134652 215.916429 
L 175.439114 215.574969 
L 181.895806 215.310857 
L 192.65696 215.138403 
L 218.48373 215.025503 
L 298.11627 214.961942 
L 360.530963 214.997871 
L 362.683194 220.557332 
L 363.75931 223.428756 
L 365.911541 227.979033 
L 366.987656 229.641858 
L 368.063771 231.038524 
L 369.139887 232.706565 
L 371.292118 235.046666 
L 372.368233 235.811824 
L 373.444348 236.326543 
L 375.596579 237.826876 
L 376.672695 238.390177 
L 377.74881 238.715224 
L 378.824925 239.246387 
L 379.901041 239.492306 
L 380.977156 239.432543 
L 384.205502 240.034255 
L 387.433849 240.168466 
L 388.509964 240.00328 
L 396.042772 240.94898 
L 397.118887 240.779262 
L 398.195003 240.921129 
L 400.347233 240.884528 
L 401.423349 240.853232 
L 403.57558 241.111208 
L 404.651695 240.760555 
L 406.803926 240.547382 
L 407.880041 240.695145 
L 408.956157 240.381434 
L 414.336734 240.269569 
L 415.412849 240.268548 
L 416.488965 240.455641 
L 417.56508 240.430052 
L 419.717311 240.051778 
L 420.793426 240.172822 
L 426.174003 239.531081 
L 428.326234 239.603368 
L 429.402349 239.792483 
L 430.478465 239.774336 
L 431.55458 239.513806 
L 432.630696 239.583246 
L 433.706811 239.511972 
L 435.859042 239.688418 
L 441.239619 239.466238 
L 442.315734 236.983387 
L 444.467965 231.378961 
L 445.544081 229.051524 
L 446.620196 227.072843 
L 447.696311 225.392459 
L 448.772427 223.958911 
L 449.848542 222.729095 
L 450.924658 221.669079 
L 450.924658 221.669079 
" clip-path="url(#p71f05fab5c)" style="fill: none; stroke-dasharray: 1.5,2.475; stroke-dashoffset: 0; stroke: #ffa500; stroke-width: 1.5"/>
   </g>
   <g id="patch_3">
    <path d="M 63 378 
L 63 95.15122 
" style="fill: none; stroke: #000000; stroke-width: 0.8; stroke-linejoin: miter; stroke-linecap: square"/>
   </g>
   <g id="patch_4">
    <path d="M 453.6 378 
L 453.6 95.15122 
" style="fill: none; stroke: #000000; stroke-width: 0.8; stroke-linejoin: miter; stroke-linecap: square"/>
   </g>
   <g id="patch_5">
    <path d="M 63 378 
L 453.6 378 
" style="fill: none; stroke: #000000; stroke-width: 0.8; stroke-linejoin: miter; stroke-linecap: square"/>
   </g>
   <g id="patch_6">
    <path d="M 63 95.15122 
L 453.6 95.15122 
" style="fill: none; stroke: #000000; stroke-width: 0.8; stroke-linejoin: miter; stroke-linecap: square"/>
   </g>
   <g id="line2d_20">
    <path d="M 65.675342 374.645882 
L 66.751458 375.878544 
L 67.827573 375.069204 
L 69.979804 372.016012 
L 71.055919 371.004687 
L 72.132035 370.605723 
L 73.20815 370.55746 
L 75.360381 371.08544 
L 76.436497 371.736401 
L 78.588727 372.589826 
L 79.664843 372.932117 
L 80.740958 372.802233 
L 81.817074 372.851983 
L 83.969304 372.62586 
L 85.04542 372.314082 
L 88.273766 371.873542 
L 90.425997 371.374991 
L 93.654343 371.03711 
L 96.882689 370.18797 
L 100.111035 369.085178 
L 108.719959 366.350946 
L 116.252767 364.238236 
L 119.481113 362.992169 
L 122.709459 362.419348 
L 123.785574 361.949982 
L 125.937805 361.520867 
L 127.013921 361.128523 
L 130.242267 360.365562 
L 131.318382 359.915253 
L 132.394498 359.725481 
L 138.85119 357.454297 
L 139.927305 357.286658 
L 141.003421 356.924486 
L 142.079536 356.767775 
L 143.155652 356.739135 
L 145.307882 356.077865 
L 146.383998 353.566733 
L 147.460113 348.301557 
L 149.612344 334.052537 
L 151.764575 320.018999 
L 152.84069 314.41941 
L 153.916806 309.804556 
L 157.145152 298.029735 
L 158.221267 293.335454 
L 159.297383 287.640353 
L 160.373498 280.680149 
L 161.449614 272.317037 
L 162.525729 262.611766 
L 164.67796 240.404753 
L 167.906306 206.773131 
L 170.058537 188.057382 
L 171.134652 180.179866 
L 172.210768 173.255943 
L 173.286883 167.208073 
L 174.362998 161.943263 
L 175.439114 157.369903 
L 176.515229 153.408136 
L 177.591345 149.991483 
L 178.66746 147.062736 
L 179.743575 144.568923 
L 180.819691 142.459166 
L 181.895806 140.68569 
L 182.971922 139.204615 
L 184.048037 137.975818 
L 185.124152 136.962504 
L 186.200268 136.130434 
L 188.352499 134.885347 
L 190.504729 134.024068 
L 192.65696 133.400367 
L 195.885306 132.747547 
L 199.113653 132.348164 
L 203.418114 132.09096 
L 209.874807 131.970708 
L 230.320999 131.936611 
L 252.919423 131.93616 
L 253.995538 133.25725 
L 255.071654 135.990007 
L 259.376115 148.79945 
L 261.528346 154.312175 
L 263.680577 158.941912 
L 265.832808 162.713577 
L 267.985039 165.708076 
L 270.137269 168.031521 
L 272.2895 169.79732 
L 274.441731 171.114662 
L 276.593962 172.081568 
L 278.746193 172.781495 
L 280.898424 173.282533 
L 284.12677 173.774911 
L 288.431231 174.135482 
L 294.887924 174.373649 
L 306.725193 174.511742 
L 337.93254 174.576565 
L 360.530963 174.613699 
L 363.75931 181.420868 
L 364.835425 183.235826 
L 365.911541 184.667343 
L 366.987656 185.903128 
L 368.063771 186.843154 
L 371.292118 188.574251 
L 373.444348 189.323264 
L 374.520464 189.72473 
L 382.053272 190.467147 
L 383.129387 190.45184 
L 385.281618 190.64043 
L 386.357733 190.58061 
L 388.509964 190.766248 
L 389.586079 190.808475 
L 390.662195 190.728428 
L 391.73831 190.872298 
L 392.814426 190.689257 
L 394.966656 190.813895 
L 396.042772 190.799254 
L 398.195003 190.993716 
L 403.57558 191.011858 
L 404.651695 190.774084 
L 407.880041 190.718315 
L 410.032272 190.409713 
L 412.184503 190.848416 
L 413.260618 190.663971 
L 415.412849 190.734861 
L 417.56508 190.819871 
L 418.641195 190.792191 
L 419.717311 190.977319 
L 420.793426 191.011724 
L 422.945657 190.722914 
L 424.021772 190.999948 
L 425.097888 191.005895 
L 427.250119 191.267242 
L 430.478465 191.251377 
L 432.630696 191.296533 
L 433.706811 191.132243 
L 434.782926 191.265987 
L 438.011273 191.105931 
L 439.087388 191.221658 
L 441.239619 191.141334 
L 444.467965 184.343334 
L 445.544081 182.707525 
L 446.620196 181.437663 
L 447.696311 180.456992 
L 448.772427 179.696406 
L 450.924658 178.632292 
L 450.924658 178.632292 
" clip-path="url(#p71f05fab5c)" style="fill: none; stroke-dasharray: 9.6,2.4,1.5,2.4; stroke-dashoffset: 0; stroke: #0000ff; stroke-width: 1.5"/>
   </g>
   <g id="line2d_21">
    <path d="M 65.675342 304.149248 
L 66.751458 306.75846 
L 67.827573 305.263622 
L 69.979804 300.777224 
L 71.055919 299.462828 
L 72.132035 299.332626 
L 73.20815 300.273738 
L 74.284266 301.607619 
L 78.588727 308.106969 
L 79.664843 309.51648 
L 81.817074 311.044581 
L 86.121535 313.454954 
L 88.273766 314.28524 
L 89.349881 314.436948 
L 94.730458 316.336552 
L 95.806574 316.598352 
L 96.882689 316.671496 
L 100.111035 317.273566 
L 101.187151 317.683161 
L 103.339382 317.827593 
L 105.491612 318.043916 
L 106.567728 318.048551 
L 109.796074 318.434006 
L 114.100536 318.694888 
L 115.176651 318.559376 
L 117.328882 318.820187 
L 118.404997 318.906454 
L 119.481113 319.250767 
L 120.557228 319.116916 
L 121.633344 319.120489 
L 122.709459 319.01022 
L 125.937805 319.251227 
L 129.166151 319.165947 
L 130.242267 319.260849 
L 135.622844 318.862661 
L 145.307882 317.567864 
L 146.383998 314.045808 
L 147.460113 306.471462 
L 149.612344 286.010435 
L 150.688459 275.626656 
L 151.764575 266.556781 
L 152.84069 259.267219 
L 153.916806 253.620428 
L 156.069037 244.917118 
L 157.145152 240.533449 
L 158.221267 235.434058 
L 159.297383 229.329522 
L 160.373498 222.142711 
L 162.525729 205.262203 
L 164.67796 187.576349 
L 166.830191 171.91658 
L 167.906306 165.266742 
L 168.982421 159.429491 
L 170.058537 154.357157 
L 171.134652 149.980109 
L 172.210768 146.223239 
L 173.286883 143.012986 
L 174.362998 140.278493 
L 175.439114 137.952107 
L 176.515229 135.971188 
L 177.591345 134.280522 
L 178.66746 132.83369 
L 179.743575 131.593056 
L 181.895806 129.618398 
L 184.048037 128.184364 
L 186.200268 127.14685 
L 188.352499 126.358365 
L 191.580845 125.432564 
L 194.809191 124.73853 
L 198.037537 124.249574 
L 201.265884 123.948391 
L 205.570345 123.759548 
L 214.179268 123.66577 
L 252.919423 123.651801 
L 253.995538 124.962585 
L 255.071654 127.672682 
L 259.376115 140.351386 
L 261.528346 145.797054 
L 263.680577 150.366062 
L 265.832808 154.084615 
L 267.985039 157.033312 
L 270.137269 159.317346 
L 272.2895 161.049148 
L 274.441731 162.337068 
L 276.593962 163.278472 
L 278.746193 163.956295 
L 280.898424 164.438194 
L 284.12677 164.906627 
L 288.431231 165.242523 
L 294.887924 165.455211 
L 307.801309 165.573461 
L 347.617579 165.620651 
L 360.530963 165.666992 
L 363.75931 171.817601 
L 364.835425 173.476015 
L 366.987656 175.967373 
L 369.139887 177.464758 
L 371.292118 178.327776 
L 372.368233 178.460466 
L 373.444348 178.850523 
L 375.596579 179.09084 
L 376.672695 179.169445 
L 378.824925 179.571654 
L 379.901041 179.675689 
L 384.205502 179.464541 
L 385.281618 179.466635 
L 386.357733 179.300271 
L 387.433849 179.277419 
L 388.509964 179.499701 
L 389.586079 179.397997 
L 390.662195 179.680261 
L 392.814426 179.556528 
L 393.890541 179.798986 
L 402.499464 179.336646 
L 403.57558 179.254513 
L 404.651695 179.364495 
L 405.727811 179.211654 
L 411.108388 179.289317 
L 412.184503 179.438688 
L 413.260618 179.451912 
L 414.336734 179.349712 
L 415.412849 179.372991 
L 417.56508 178.927944 
L 420.793426 178.966099 
L 425.097888 179.209616 
L 427.250119 179.524691 
L 428.326234 179.441117 
L 430.478465 179.513863 
L 431.55458 179.40235 
L 433.706811 179.648544 
L 441.239619 179.613669 
L 443.39185 175.285546 
L 444.467965 173.459125 
L 445.544081 172.028691 
L 446.620196 170.937871 
L 447.696311 170.111216 
L 448.772427 169.482107 
L 450.924658 168.624257 
L 450.924658 168.624257 
" clip-path="url(#p71f05fab5c)" style="fill: none; stroke-dasharray: 5.55,2.4; stroke-dashoffset: 0; stroke: #0000ff; stroke-width: 1.5"/>
   </g>
   <g id="line2d_22">
    <path d="M 65.675342 260.701529 
L 66.751458 264.162436 
L 67.827573 261.891009 
L 69.979804 255.568776 
L 71.055919 253.997569 
L 72.132035 253.849561 
L 73.20815 255.088178 
L 75.360381 259.233545 
L 77.512612 263.355276 
L 78.588727 264.98348 
L 79.664843 266.287496 
L 81.817074 268.20216 
L 82.893189 268.738934 
L 83.969304 269.080008 
L 87.197651 270.498648 
L 89.349881 271.135034 
L 90.425997 271.590257 
L 91.502112 271.76289 
L 92.578228 272.183462 
L 93.654343 272.301606 
L 94.730458 272.562192 
L 96.882689 273.277256 
L 99.03492 273.406028 
L 102.263266 274.212216 
L 105.491612 274.192226 
L 107.643843 274.177833 
L 109.796074 274.017123 
L 111.948305 274.063664 
L 119.481113 274.477404 
L 120.557228 274.386627 
L 122.709459 274.619942 
L 124.86169 274.621109 
L 125.937805 274.746961 
L 129.166151 274.694791 
L 131.318382 274.262553 
L 135.622844 274.250839 
L 136.698959 274.019928 
L 137.775075 274.154483 
L 145.307882 273.182484 
L 146.383998 267.976796 
L 147.460113 257.384061 
L 150.688459 219.404133 
L 151.764575 210.376708 
L 152.84069 204.290739 
L 153.916806 200.597042 
L 154.992921 198.320571 
L 156.069037 196.45609 
L 157.145152 194.201179 
L 158.221267 191.034073 
L 159.297383 186.719896 
L 160.373498 181.293731 
L 162.525729 168.28878 
L 164.67796 155.085808 
L 165.754075 149.169464 
L 166.830191 143.875419 
L 167.906306 139.20886 
L 168.982421 135.126059 
L 170.058537 131.565535 
L 171.134652 128.466732 
L 172.210768 125.777113 
L 173.286883 123.451435 
L 174.362998 121.448627 
L 175.439114 119.730476 
L 176.515229 118.262463 
L 177.591345 117.014484 
L 178.66746 115.959973 
L 179.743575 115.074228 
L 181.895806 113.717573 
L 184.048037 112.78824 
L 186.200268 112.169396 
L 189.428614 111.605436 
L 196.961422 110.773625 
L 201.265884 110.440478 
L 206.646461 110.269316 
L 218.48373 110.20895 
L 252.919423 110.205244 
L 253.995538 111.491476 
L 255.071654 114.14577 
L 259.376115 126.482298 
L 261.528346 131.737317 
L 263.680577 136.121598 
L 265.832808 139.668071 
L 267.985039 142.460942 
L 270.137269 144.607047 
L 272.2895 146.219127 
L 274.441731 147.404917 
L 276.593962 148.260526 
L 278.746193 148.867228 
L 281.974539 149.4505 
L 285.202885 149.781462 
L 290.583462 150.039717 
L 299.192385 150.163691 
L 326.095271 150.216574 
L 360.530963 150.24984 
L 363.75931 155.770297 
L 364.835425 157.169754 
L 366.987656 159.12005 
L 368.063771 159.825879 
L 369.139887 160.247158 
L 370.216002 160.842384 
L 372.368233 161.497363 
L 374.520464 161.90059 
L 375.596579 162.018807 
L 378.824925 161.770157 
L 379.901041 161.90652 
L 383.129387 161.748545 
L 386.357733 161.580828 
L 388.509964 161.61093 
L 389.586079 161.538436 
L 390.662195 161.664927 
L 391.73831 161.570117 
L 392.814426 161.593422 
L 393.890541 161.44627 
L 394.966656 161.51147 
L 397.118887 161.207755 
L 398.195003 161.075409 
L 400.347233 161.378503 
L 404.651695 161.508794 
L 405.727811 161.606102 
L 407.880041 161.345503 
L 408.956157 161.437864 
L 410.032272 161.410899 
L 412.184503 161.628462 
L 413.260618 161.622278 
L 414.336734 161.78409 
L 416.488965 161.63957 
L 417.56508 161.854065 
L 419.717311 161.659757 
L 420.793426 161.791978 
L 422.945657 161.636134 
L 426.174003 161.886753 
L 431.55458 161.676887 
L 432.630696 161.965881 
L 434.782926 162.042286 
L 435.859042 161.893713 
L 438.011273 162.043333 
L 440.163503 161.906351 
L 441.239619 161.918124 
L 443.39185 158.188365 
L 444.467965 156.654865 
L 445.544081 155.473145 
L 446.620196 154.589246 
L 447.696311 153.934042 
L 448.772427 153.447269 
L 450.924658 152.807393 
L 450.924658 152.807393 
" clip-path="url(#p71f05fab5c)" style="fill: none; stroke: #0000ff; stroke-width: 1.5; stroke-linecap: square"/>
   </g>
   <g id="line2d_23">
    <path d="M 65.675342 254.086918 
L 66.751458 253.986962 
L 67.827573 249.548823 
L 68.903689 244.09209 
L 69.979804 239.33471 
L 71.055919 236.465791 
L 72.132035 235.061381 
L 73.20815 235.085379 
L 74.284266 236.173074 
L 77.512612 240.177793 
L 78.588727 241.188436 
L 79.664843 241.657293 
L 80.740958 241.910463 
L 81.817074 242.048152 
L 82.893189 241.934945 
L 85.04542 242.009925 
L 86.121535 241.81972 
L 92.578228 241.493751 
L 93.654343 241.604122 
L 99.03492 241.434715 
L 101.187151 241.25843 
L 102.263266 240.975673 
L 104.415497 240.753658 
L 105.491612 240.583507 
L 106.567728 240.767591 
L 108.719959 240.568304 
L 109.796074 240.602962 
L 113.02442 240.285709 
L 115.176651 240.462007 
L 116.252767 240.360145 
L 117.328882 240.06174 
L 118.404997 239.989844 
L 119.481113 239.780089 
L 123.785574 239.642629 
L 128.090036 239.124693 
L 136.698959 239.194739 
L 137.775075 238.942211 
L 138.85119 238.83284 
L 141.003421 238.889547 
L 142.079536 238.74042 
L 144.231767 238.88425 
L 145.307882 238.7554 
L 146.383998 232.329953 
L 147.460113 220.657023 
L 149.612344 194.555742 
L 150.688459 184.255523 
L 151.764575 177.247377 
L 152.84069 173.369887 
L 153.916806 171.7356 
L 156.069037 170.7448 
L 157.145152 169.587166 
L 158.221267 167.292452 
L 159.297383 163.730965 
L 160.373498 159.040364 
L 162.525729 147.653755 
L 164.67796 136.161267 
L 165.754075 131.068091 
L 166.830191 126.571949 
L 167.906306 122.690002 
L 168.982421 119.388558 
L 170.058537 116.605107 
L 171.134652 114.265247 
L 172.210768 112.294942 
L 173.286883 110.627203 
L 174.362998 109.204466 
L 176.515229 106.916731 
L 178.66746 105.182373 
L 180.819691 103.860014 
L 182.971922 102.827968 
L 186.200268 101.596626 
L 189.428614 100.592135 
L 192.65696 99.835368 
L 195.885306 99.310602 
L 201.265884 98.70488 
L 212.027038 97.754439 
L 217.407615 97.418319 
L 223.864307 97.274059 
L 241.082154 97.238195 
L 252.919423 97.237643 
L 253.995538 98.498807 
L 255.071654 101.096072 
L 259.376115 113.089319 
L 261.528346 118.157362 
L 263.680577 122.36306 
L 265.832808 125.745751 
L 267.985039 128.392963 
L 270.137269 130.412798 
L 272.2895 131.917835 
L 274.441731 133.014666 
L 276.593962 133.797637 
L 278.746193 134.345932 
L 281.974539 134.863508 
L 285.202885 135.148971 
L 290.583462 135.36113 
L 300.268501 135.456091 
L 343.313117 135.485684 
L 360.530963 135.521693 
L 362.683194 139.108176 
L 363.75931 140.516679 
L 364.835425 141.702589 
L 365.911541 142.693436 
L 366.987656 143.470855 
L 369.139887 144.556885 
L 370.216002 144.821857 
L 371.292118 144.966757 
L 373.444348 145.062267 
L 374.520464 145.307709 
L 379.901041 145.594838 
L 380.977156 145.463302 
L 382.053272 145.611424 
L 385.281618 145.497004 
L 386.357733 145.513937 
L 387.433849 145.277831 
L 388.509964 145.171686 
L 389.586079 145.379615 
L 391.73831 145.293279 
L 392.814426 145.432931 
L 393.890541 145.33268 
L 396.042772 145.423595 
L 397.118887 145.507767 
L 399.271118 145.377631 
L 400.347233 145.46589 
L 401.423349 145.331389 
L 402.499464 145.075603 
L 403.57558 145.093952 
L 404.651695 145.338885 
L 405.727811 145.251533 
L 406.803926 145.402974 
L 407.880041 145.333944 
L 408.956157 145.510463 
L 411.108388 145.35392 
L 415.412849 145.176242 
L 416.488965 145.238008 
L 418.641195 145.069672 
L 421.869542 145.417384 
L 424.021772 145.205194 
L 432.630696 145.587562 
L 434.782926 145.480017 
L 435.859042 145.638264 
L 436.935157 145.668496 
L 441.239619 145.225616 
L 443.39185 141.948578 
L 444.467965 140.620945 
L 445.544081 139.60697 
L 446.620196 138.856689 
L 447.696311 138.307342 
L 449.848542 137.606974 
L 450.924658 137.385033 
L 450.924658 137.385033 
" clip-path="url(#p71f05fab5c)" style="fill: none; stroke-dasharray: 1.5,2.475; stroke-dashoffset: 0; stroke: #0000ff; stroke-width: 1.5"/>
   </g>
   <g id="legend_1">
    <g id="patch_7">
     <path d="M 72.1 141.068343 
L 168.516381 141.068343 
Q 171.116381 141.068343 171.116381 138.468343 
L 171.116381 104.25122 
Q 171.116381 101.65122 168.516381 101.65122 
L 72.1 101.65122 
Q 69.5 101.65122 69.5 104.25122 
L 69.5 138.468343 
Q 69.5 141.068343 72.1 141.068343 
z
" style="fill: #ffffff; opacity: 0.8; stroke: #cccccc; stroke-linejoin: miter"/>
    </g>
    <g id="line2d_24">
     <path d="M 74.7 111.40122 
L 87.7 111.40122 
L 100.7 111.40122 
" style="fill: none; stroke: #0000ff; stroke-width: 1.5; stroke-linecap: square"/>
    </g>
    <g id="text_22">
     <!-- Choice -->
     <g transform="translate(111.1 115.95122) scale(0.13 -0.13)">
      <defs>
       <path id="HFBR17-43" d="M 3872 696 
C 3744 631 3629 541 3501 477 
C 3200 323 2816 265 2400 303 
C 2029 355 1722 535 1498 760 
C 781 1482 730 2750 1363 3542 
C 1632 3896 2042 4160 2643 4160 
C 2886 4160 3136 4115 3360 4025 
C 3494 3966 3622 3889 3750 3825 
L 3827 4276 
C 3686 4331 3539 4388 3392 4422 
C 3034 4520 2490 4520 2118 4430 
C 1466 4283 992 3829 723 3304 
C 352 2561 397 1633 845 934 
C 960 749 1107 583 1274 441 
C 1658 108 2131 -84 2790 -32 
C 3187 -32 3418 33 3725 205 
C 3757 224 3878 289 3898 316 
C 3910 348 3878 610 3872 696 
z
" transform="scale(0.015625)"/>
       <path id="HFBR17-68" d="M 410 4460 
L 410 0 
L 819 0 
L 819 1407 
C 819 1722 800 2044 941 2339 
C 1011 2487 1120 2616 1267 2693 
C 1389 2751 1517 2751 1651 2738 
C 1843 2738 2029 2687 2150 2525 
C 2266 2377 2272 2185 2272 2004 
L 2272 0 
L 2682 0 
L 2682 1742 
C 2682 2063 2714 2416 2554 2706 
C 2426 2924 2202 3027 1965 3059 
C 1837 3072 1709 3072 1581 3053 
C 1350 3009 1152 2882 998 2710 
C 928 2627 845 2526 819 2417 
L 813 2417 
L 813 4460 
L 410 4460 
z
" transform="scale(0.015625)"/>
      </defs>
      <use xlink:href="#HFBR17-43" transform="scale(0.996264)"/>
      <use xlink:href="#HFBR17-68" transform="translate(65.172032 0) scale(0.996264)"/>
      <use xlink:href="#HFBR17-6f" transform="translate(113.324529 0) scale(0.996264)"/>
      <use xlink:href="#HFBR17-69" transform="translate(163.967747 0) scale(0.996264)"/>
      <use xlink:href="#HFBR17-63" transform="translate(183.062706 0) scale(0.996264)"/>
      <use xlink:href="#HFBR17-65" transform="translate(227.894374 0) scale(0.996264)"/>
     </g>
    </g>
    <g id="line2d_25">
     <path d="M 74.7 129.159781 
L 87.7 129.159781 
L 100.7 129.159781 
" style="fill: none; stroke: #ffa500; stroke-width: 1.5; stroke-linecap: square"/>
    </g>
    <g id="text_23">
     <!-- No choice -->
     <g transform="translate(111.1 133.709781) scale(0.13 -0.13)">
      <defs>
       <path id="HFBR17-4e" d="M 525 4454 
L 525 0 
L 922 0 
L 922 4100 
L 928 4100 
L 2547 1161 
C 2765 773 2976 380 3200 0 
C 3373 -39 3622 0 3821 0 
L 3821 4454 
L 3424 4454 
L 3424 354 
L 1811 3268 
C 1587 3661 1382 4074 1146 4454 
C 973 4493 723 4454 525 4454 
z
" transform="scale(0.015625)"/>
      </defs>
      <use xlink:href="#HFBR17-4e" transform="scale(0.996264)"/>
      <use xlink:href="#HFBR17-6f" transform="translate(67.662753 0) scale(0.996264)"/>
      <use xlink:href="#HFBR17-63" transform="translate(149.771183 0) scale(0.996264)"/>
      <use xlink:href="#HFBR17-68" transform="translate(194.60285 0) scale(0.996264)"/>
      <use xlink:href="#HFBR17-6f" transform="translate(242.755347 0) scale(0.996264)"/>
      <use xlink:href="#HFBR17-69" transform="translate(293.398565 0) scale(0.996264)"/>
      <use xlink:href="#HFBR17-63" transform="translate(312.493524 0) scale(0.996264)"/>
      <use xlink:href="#HFBR17-65" transform="translate(357.325192 0) scale(0.996264)"/>
     </g>
    </g>
   </g>
  </g>
  <g id="text_24">
   <!-- \textbf{Amplitude vs time} -->
   <g transform="translate(168.65657 46.236997) scale(0.2 -0.2)">
    <defs>
     <path id="HFBRBX10-41" d="M 1747 4480 
L 198 -32 
C 480 -32 781 -32 1050 -13 
L 1088 52 
C 1197 350 1293 656 1395 960 
C 1978 960 2611 960 3162 960 
L 3200 887 
C 3302 583 3411 285 3507 -26 
L 4486 -26 
L 2938 4480 
L 1747 4480 
z
M 2291 3661 
L 2355 3409 
L 2982 1511 
L 1594 1511 
C 1824 2230 2080 2923 2291 3661 
z
" transform="scale(0.015625)"/>
     <path id="HFBRBX10-6d" d="M 1222 2409 
L 1216 2409 
L 1216 3096 
L 384 3096 
L 384 0 
L 1254 0 
L 1254 1373 
C 1254 1652 1229 1937 1325 2202 
C 1408 2416 1568 2610 1798 2656 
C 1952 2668 2112 2656 2195 2578 
C 2362 2442 2336 2150 2336 1872 
L 2336 0 
L 3206 0 
L 3206 1373 
C 3206 1652 3181 1937 3277 2202 
C 3360 2416 3520 2610 3750 2656 
C 3904 2668 4064 2656 4147 2578 
C 4314 2442 4288 2150 4288 1872 
L 4288 0 
L 5158 0 
L 5158 1809 
C 5158 2166 5178 2510 5050 2771 
C 4915 3031 4640 3122 4371 3122 
C 4256 3122 4134 3122 4019 3102 
C 3744 3058 3501 2899 3334 2683 
C 3277 2614 3226 2530 3194 2448 
C 3174 2508 3168 2572 3149 2632 
C 3110 2749 3046 2867 2950 2945 
C 2797 3083 2598 3115 2406 3115 
C 2246 3136 2086 3136 1933 3090 
C 1619 2998 1344 2723 1222 2409 
z
" transform="scale(0.015625)"/>
     <path id="HFBRBX10-70" d="M 1242 2720 
L 1242 3051 
L 390 3051 
L 390 -1088 
L 1261 -1088 
L 1261 274 
C 1485 55 1766 -103 2195 -64 
C 2560 -64 2906 93 3104 412 
C 3315 751 3347 1162 3347 1552 
C 3347 2093 3270 2588 2976 2875 
C 2688 3149 2278 3149 1914 3061 
C 1664 2998 1434 2884 1242 2720 
z
M 2246 2422 
C 2445 2207 2477 1877 2477 1487 
C 2477 1078 2406 657 2125 481 
C 1920 345 1606 345 1376 514 
C 1338 540 1286 572 1267 618 
C 1254 650 1261 697 1261 735 
L 1261 2356 
C 1261 2447 1318 2479 1389 2512 
C 1658 2668 2029 2668 2246 2422 
z
" transform="scale(0.015625)"/>
     <path id="HFBRBX10-6c" d="M 390 4495 
L 390 0 
L 1242 0 
L 1242 4495 
L 390 4495 
z
" transform="scale(0.015625)"/>
     <path id="HFBRBX10-69" d="M 390 4502 
L 390 3712 
L 1242 3712 
L 1242 4502 
L 390 4502 
z
M 390 3057 
L 390 0 
L 1242 0 
L 1242 3057 
L 390 3057 
z
" transform="scale(0.015625)"/>
     <path id="HFBRBX10-74" d="M 582 3904 
L 582 3026 
L 128 3026 
L 128 2560 
L 563 2560 
L 563 809 
C 563 512 621 168 813 27 
C 966 -96 1158 -96 1344 -96 
C 1786 -96 2042 22 2387 189 
L 2272 642 
C 2157 557 2189 551 2042 480 
C 1882 402 1606 337 1485 512 
C 1382 687 1395 888 1395 1166 
L 1395 2560 
L 2272 2560 
L 2272 3026 
L 1395 3026 
L 1395 3904 
L 582 3904 
z
" transform="scale(0.015625)"/>
     <path id="HFBRBX10-75" d="M 384 3058 
L 384 828 
C 384 639 390 437 480 268 
C 608 20 883 -64 1146 -64 
C 1267 -64 1395 -64 1517 -51 
C 1766 -13 2010 107 2182 290 
C 2246 354 2310 436 2342 518 
L 2349 518 
L 2349 0 
L 3200 0 
L 3200 3057 
L 2330 3057 
L 2330 1211 
C 2330 1049 2323 900 2266 751 
C 2189 570 2048 408 1856 350 
C 1779 324 1702 324 1619 324 
C 1523 324 1402 324 1325 396 
C 1267 454 1267 539 1261 610 
C 1248 772 1254 942 1254 1104 
L 1254 3058 
L 384 3058 
z
" transform="scale(0.015625)"/>
     <path id="HFBRBX10-64" d="M 2342 4495 
L 2342 2772 
C 2157 2941 1926 3057 1677 3102 
C 1286 3180 832 3089 570 2772 
C 326 2487 262 2105 243 1742 
C 218 1295 262 797 422 499 
C 480 402 538 298 621 220 
C 934 -84 1434 -142 1830 0 
C 2022 71 2182 194 2323 337 
L 2323 0 
L 3194 0 
L 3194 4495 
L 2342 4495 
z
M 2189 2571 
C 2227 2545 2285 2520 2310 2481 
C 2336 2435 2323 2351 2323 2299 
L 2323 777 
C 2323 648 2304 615 2202 551 
C 2086 460 1952 408 1811 395 
C 1594 376 1350 453 1235 648 
C 1126 816 1107 1159 1107 1405 
L 1107 1606 
C 1107 1982 1126 2358 1376 2532 
C 1414 2565 1459 2584 1504 2604 
C 1728 2688 1978 2688 2189 2571 
z
" transform="scale(0.015625)"/>
     <path id="HFBRBX10-65" d="M 2976 817 
C 2867 745 2778 661 2662 596 
C 2259 376 1536 188 1203 681 
C 1043 933 1011 1186 1011 1600 
L 3072 1600 
C 3072 2008 3027 2468 2746 2786 
C 2573 2973 2336 3077 2086 3122 
C 1491 3213 896 3077 576 2747 
C 250 2403 186 1905 192 1445 
C 198 1017 320 557 646 266 
C 1056 -90 1850 -194 2547 20 
C 2669 52 2778 104 2893 156 
C 2931 175 2995 195 3014 234 
C 3027 247 3021 266 3021 285 
C 3008 467 2989 642 2976 817 
z
M 2349 1944 
L 1037 1944 
C 1056 2170 1165 2403 1293 2520 
C 1510 2714 1882 2747 2106 2552 
C 2272 2403 2336 2157 2349 1944 
z
" transform="scale(0.015625)"/>
     <path id="HFBRBX10-76" d="M 96 3072 
L 1050 0 
L 2144 0 
L 3098 3040 
C 2848 3040 2554 3073 2336 3040 
L 2310 2995 
L 1606 755 
L 1075 2452 
C 998 2648 973 2883 877 3059 
L 813 3072 
L 96 3072 
z
" transform="scale(0.015625)"/>
     <path id="HFBRBX10-73" d="M 314 953 
C 288 781 256 616 224 444 
C 218 400 205 362 198 317 
C 198 298 192 280 205 260 
C 237 222 307 203 346 183 
C 698 37 1050 -64 1562 -64 
C 1882 -64 2221 22 2394 327 
C 2554 611 2586 1082 2432 1394 
C 2298 1646 2067 1831 1805 1924 
C 1632 1984 1453 2010 1274 2043 
C 1139 2077 998 2117 922 2242 
C 838 2374 864 2573 986 2673 
C 1056 2725 1146 2746 1229 2752 
C 1504 2752 1786 2694 2029 2567 
C 2138 2510 2221 2427 2323 2364 
L 2432 2985 
C 2086 3130 1830 3199 1357 3199 
C 1165 3199 966 3199 781 3133 
C 467 3021 269 2752 243 2364 
C 224 2146 256 1935 378 1749 
C 570 1466 845 1327 1216 1248 
C 1440 1202 1773 1202 1875 941 
C 1933 801 1888 615 1766 521 
C 1677 462 1562 441 1453 441 
C 1139 441 838 526 582 707 
C 525 752 474 798 422 843 
C 384 882 352 921 314 953 
z
" transform="scale(0.015625)"/>
    </defs>
    <use xlink:href="#HFBRBX10-41" transform="scale(0.996264)"/>
    <use xlink:href="#HFBRBX10-6d" transform="translate(73.059766 0) scale(0.996264)"/>
    <use xlink:href="#HFBRBX10-70" transform="translate(159.403123 0) scale(0.996264)"/>
    <use xlink:href="#HFBRBX10-6c" transform="translate(215.304911 0) scale(0.996264)"/>
    <use xlink:href="#HFBRBX10-69" transform="translate(240.76513 0) scale(0.996264)"/>
    <use xlink:href="#HFBRBX10-74" transform="translate(266.225349 0) scale(0.996264)"/>
    <use xlink:href="#HFBRBX10-75" transform="translate(306.491252 0) scale(0.996264)"/>
    <use xlink:href="#HFBRBX10-64" transform="translate(362.39304 0) scale(0.996264)"/>
    <use xlink:href="#HFBRBX10-65" transform="translate(418.294828 0) scale(0.996264)"/>
    <use xlink:href="#HFBRBX10-76" transform="translate(503.91867 0) scale(0.996264)"/>
    <use xlink:href="#HFBRBX10-73" transform="translate(553.732144 0) scale(0.996264)"/>
    <use xlink:href="#HFBRBX10-74" transform="translate(630.444898 0) scale(0.996264)"/>
    <use xlink:href="#HFBRBX10-69" transform="translate(670.710802 0) scale(0.996264)"/>
    <use xlink:href="#HFBRBX10-6d" transform="translate(696.171021 0) scale(0.996264)"/>
    <use xlink:href="#HFBRBX10-65" transform="translate(782.514378 0) scale(0.996264)"/>
   </g>
  </g>
 </g>
 <defs>
  <clipPath id="p4b6d22c9db">
   <rect x="63" y="51.84" width="390.6" height="35.356098"/>
  </clipPath>
  <clipPath id="p71f05fab5c">
   <rect x="63" y="95.15122" width="390.6" height="282.84878"/>
  </clipPath>
 </defs>
</svg>
