<?xml version="1.0" encoding="utf-8" standalone="no"?>
<!DOCTYPE svg PUBLIC "-//W3C//DTD SVG 1.1//EN"
  "http://www.w3.org/Graphics/SVG/1.1/DTD/svg11.dtd">
<svg xmlns:xlink="http://www.w3.org/1999/xlink" width="504pt" height="432pt" viewBox="0 0 504 432" xmlns="http://www.w3.org/2000/svg" version="1.1">
 <metadata>
  <rdf:RDF xmlns:dc="http://purl.org/dc/elements/1.1/" xmlns:cc="http://creativecommons.org/ns#" xmlns:rdf="http://www.w3.org/1999/02/22-rdf-syntax-ns#">
   <cc:Work>
    <dc:type rdf:resource="http://purl.org/dc/dcmitype/StillImage"/>
    <dc:date>2023-06-27T11:21:31.758586</dc:date>
    <dc:format>image/svg+xml</dc:format>
    <dc:creator>
     <cc:Agent>
      <dc:title>Matplotlib v3.6.1, https://matplotlib.org/</dc:title>
     </cc:Agent>
    </dc:creator>
   </cc:Work>
  </rdf:RDF>
 </metadata>
 <defs>
  <style type="text/css">*{stroke-linejoin: round; stroke-linecap: butt}</style>
 </defs>
 <g id="figure_1">
  <g id="patch_1">
   <path d="M 0 432 
L 504 432 
L 504 0 
L 0 0 
L 0 432 
z
" style="fill: none"/>
  </g>
  <g id="axes_1">
   <g id="patch_2">
    <path d="M 63 378 
L 453.6 378 
L 453.6 51.84 
L 63 51.84 
L 63 378 
z
" style="fill: none"/>
   </g>
   <g id="PathCollection_1">
    <defs>
     <path id="m3f99f063ab" d="M -0 8.660254 
L 8.660254 -8.660254 
L -8.660254 -8.660254 
z
" style="stroke: #1e90ff"/>
    </defs>
    <g clip-path="url(#pe18b6b9bb2)">
     <use xlink:href="#m3f99f063ab" x="269.272351" y="67.060136" style="fill: #1e90ff; stroke: #1e90ff"/>
    </g>
   </g>
   <g id="LineCollection_1">
    <path d="M 269.272351 189.033718 
L 269.272351 67.060136 
" clip-path="url(#pe18b6b9bb2)" style="fill: none; stroke-dasharray: 4.625,2; stroke-dashoffset: 0; stroke: #1e90ff; stroke-width: 1.25"/>
   </g>
   <g id="LineCollection_2">
    <path d="M 314.240134 201.339761 
L 314.240134 67.060136 
" clip-path="url(#pe18b6b9bb2)" style="fill: none; stroke-dasharray: 4.625,2; stroke-dashoffset: 0; stroke: #00008b; stroke-width: 1.25"/>
   </g>
   <g id="line2d_1">
    <path d="M 63 365.518296 
L 64.962814 370.075954 
L 66.925628 369.145472 
L 68.888442 370.367289 
L 70.851256 369.308544 
L 72.81407 368.807991 
L 74.776884 369.784431 
L 76.739698 370.346369 
L 78.702513 364.031666 
L 80.665327 370.609603 
L 82.628141 369.044414 
L 84.590955 369.232768 
L 86.553769 367.726195 
L 88.516583 370.213968 
L 92.442211 368.414301 
L 94.405025 370.709657 
L 96.367839 369.082811 
L 98.330653 367.79386 
L 100.293467 368.087856 
L 102.256281 367.707294 
L 104.219095 369.287149 
L 106.18191 368.954439 
L 108.144724 369.329352 
L 110.107538 367.899427 
L 112.070352 364.468921 
L 114.033166 367.431975 
L 115.99598 361.259389 
L 117.958794 364.017969 
L 119.921608 365.12542 
L 121.884422 363.338098 
L 123.847236 363.769862 
L 125.81005 358.831449 
L 127.772864 361.96057 
L 129.735678 360.469753 
L 131.698492 362.434574 
L 133.661307 362.227008 
L 135.624121 359.888406 
L 137.586935 351.555997 
L 139.549749 358.091192 
L 141.512563 349.772472 
L 143.475377 355.121566 
L 145.438191 350.320142 
L 147.401005 342.875849 
L 149.363819 345.443411 
L 151.326633 348.411632 
L 153.289447 341.841397 
L 155.252261 337.0811 
L 157.215075 340.182214 
L 159.177889 334.343687 
L 161.140704 337.744021 
L 163.103518 331.586427 
L 165.066332 332.342083 
L 167.029146 321.368938 
L 168.99196 320.505635 
L 170.954774 309.852444 
L 172.917588 323.423155 
L 174.880402 327.294682 
L 176.843216 300.288913 
L 178.80603 315.395491 
L 180.768844 295.855162 
L 182.731658 302.506575 
L 184.694472 288.014436 
L 186.657286 284.243608 
L 188.620101 286.40738 
L 190.582915 272.056656 
L 192.545729 274.703195 
L 194.508543 273.417769 
L 196.471357 266.430745 
L 198.434171 270.573843 
L 200.396985 263.076759 
L 202.359799 247.375384 
L 204.322613 240.633093 
L 206.285427 247.79357 
L 208.248241 232.909585 
L 210.211055 235.754508 
L 212.173869 206.097922 
L 214.136683 212.56362 
L 216.099497 201.337769 
L 218.062312 205.224231 
L 220.025126 188.533658 
L 221.98794 226.37249 
L 223.950754 201.103635 
L 225.913568 202.313743 
L 227.876382 204.39688 
L 229.839196 178.001974 
L 231.80201 174.712778 
L 233.764824 154.898327 
L 235.727638 166.320978 
L 237.690452 167.381907 
L 239.653266 166.465516 
L 241.61608 176.732272 
L 243.578894 145.891272 
L 245.541709 140.879438 
L 247.504523 166.599111 
L 249.467337 148.843703 
L 251.430151 151.809886 
L 253.392965 140.568159 
L 255.355779 161.670859 
L 257.318593 136.381999 
L 259.281407 155.992668 
L 261.244221 159.634533 
L 263.207035 161.52936 
L 265.169849 162.047544 
L 267.132663 129.862495 
L 269.095477 145.405889 
L 271.058291 164.486689 
L 273.021106 149.858514 
L 274.98392 153.799679 
L 276.946734 161.300177 
L 278.909548 167.432983 
L 280.872362 159.788684 
L 282.835176 162.463025 
L 284.79799 180.59487 
L 286.760804 184.619929 
L 288.723618 173.844773 
L 290.686432 197.033462 
L 292.649246 180.11322 
L 294.61206 184.155625 
L 296.574874 200.940358 
L 298.537688 207.283185 
L 300.500503 195.96897 
L 302.463317 206.421705 
L 304.426131 220.243918 
L 306.388945 229.985363 
L 308.351759 230.056466 
L 310.314573 212.266513 
L 312.277387 243.123858 
L 314.240201 235.706917 
L 316.203015 233.261255 
L 318.165829 245.421494 
L 320.128643 255.263895 
L 322.091457 254.459173 
L 324.054271 262.154685 
L 326.017085 277.767635 
L 327.979899 265.420752 
L 329.942714 281.661772 
L 331.905528 287.95754 
L 333.868342 289.778678 
L 335.831156 284.120888 
L 337.79397 295.647652 
L 339.756784 311.876758 
L 341.719598 307.769495 
L 343.682412 311.78221 
L 345.645226 311.825194 
L 347.60804 316.00525 
L 349.570854 316.594029 
L 351.533668 320.751769 
L 353.496482 334.456182 
L 355.459296 326.518578 
L 357.422111 337.805673 
L 359.384925 337.859614 
L 361.347739 342.184876 
L 363.310553 336.328637 
L 365.273367 347.061074 
L 367.236181 346.619606 
L 369.198995 349.301193 
L 371.161809 340.679737 
L 373.124623 350.610278 
L 375.087437 347.653438 
L 377.050251 356.452697 
L 379.013065 356.509092 
L 380.975879 357.903564 
L 382.938693 356.922617 
L 384.901508 355.153396 
L 386.864322 357.672749 
L 388.827136 359.756395 
L 390.78995 357.408895 
L 392.752764 358.996059 
L 394.715578 363.347681 
L 396.678392 358.807571 
L 398.641206 358.631297 
L 400.60402 366.229037 
L 402.566834 362.96541 
L 404.529648 363.606247 
L 406.492462 364.467976 
L 408.455276 367.845798 
L 410.41809 368.907929 
L 412.380905 364.023517 
L 414.343719 367.906457 
L 416.306533 366.36948 
L 418.269347 368.278797 
L 420.232161 368.470578 
L 422.194975 367.897607 
L 424.157789 369.563202 
L 426.120603 370.611701 
L 428.083417 368.327888 
L 430.046231 368.469679 
L 432.009045 367.170777 
L 433.971859 369.736868 
L 435.934673 370.780523 
L 437.897487 366.893795 
L 439.860302 365.060299 
L 441.823116 371.110252 
L 443.78593 371.462848 
L 445.748744 369.884068 
L 447.711558 368.612933 
L 449.674372 371.088929 
L 451.637186 371.438475 
L 453.6 368.982256 
L 453.6 368.982256 
" clip-path="url(#pe18b6b9bb2)" style="fill: none; stroke: #add8e6; stroke-width: 3; stroke-linecap: square"/>
   </g>
   <g id="matplotlib.axis_1">
    <g id="xtick_1">
     <g id="line2d_2">
      <defs>
       <path id="m6b11717c2f" d="M 0 0 
L 0 3.5 
" style="stroke: #000000; stroke-width: 0.8"/>
      </defs>
      <g>
       <use xlink:href="#m6b11717c2f" x="95.55" y="378" style="stroke: #000000; stroke-width: 0.8"/>
      </g>
     </g>
     <g id="text_1">
      <!-- $\mathdefault{−150}$ -->
      <g transform="translate(77.970188 395.37774) scale(0.15 -0.15)">
       <defs>
        <path id="HFBRSY10-0" d="M 627 1797 
C 512 1759 499 1586 627 1554 
C 659 1541 698 1548 736 1548 
L 4141 1548 
C 4218 1548 4339 1522 4403 1586 
C 4474 1656 4435 1784 4333 1804 
C 4256 1816 4166 1804 4090 1804 
L 730 1804 
C 698 1804 659 1810 627 1797 
z
" transform="scale(0.015625)"/>
        <path id="HFBR17-31" d="M 621 3841 
L 621 3520 
C 973 3520 1216 3584 1498 3706 
L 1498 321 
L 659 321 
L 659 0 
L 2752 0 
L 2752 321 
L 1914 321 
L 1914 4288 
C 1760 4288 1786 4247 1664 4152 
C 1402 3950 1037 3841 621 3841 
z
" transform="scale(0.015625)"/>
        <path id="HFBR17-35" d="M 538 4245 
L 538 1949 
L 781 1949 
C 813 1949 858 1943 883 1956 
C 915 1975 934 2020 954 2046 
C 998 2103 1050 2148 1101 2193 
C 1331 2386 1773 2463 2067 2315 
C 2470 2123 2547 1614 2515 1216 
C 2496 964 2419 733 2272 585 
C 1933 224 1363 224 947 435 
C 742 538 570 699 442 891 
L 435 891 
C 416 859 269 634 269 595 
C 269 569 288 550 301 531 
C 493 306 742 132 1030 36 
C 1600 -144 2240 -3 2643 460 
C 3123 1019 3059 1930 2502 2417 
C 2336 2572 2106 2681 1830 2706 
C 1459 2758 1126 2578 928 2411 
L 928 3904 
L 2746 3904 
L 2746 4245 
L 538 4245 
z
" transform="scale(0.015625)"/>
        <path id="HFBR17-30" d="M 947 4087 
C 762 3959 634 3785 538 3586 
C 307 3136 282 2609 282 2037 
C 282 1317 410 656 768 276 
C 1107 -77 1645 -167 2099 19 
C 2381 129 2586 366 2714 623 
C 2944 1080 2970 1626 2970 2191 
C 2970 2371 2963 2551 2944 2731 
C 2899 3162 2752 3637 2515 3901 
C 2125 4332 1427 4428 947 4087 
z
M 2234 3721 
C 2534 3400 2560 2783 2560 2198 
L 2560 1851 
C 2560 1555 2509 1170 2445 951 
C 2355 649 2208 431 1914 296 
C 1555 167 1184 289 979 572 
C 704 938 691 1587 691 2159 
C 691 2699 698 3297 960 3650 
C 1248 4036 1869 4100 2234 3721 
z
" transform="scale(0.015625)"/>
       </defs>
       <use xlink:href="#HFBRSY10-0" transform="scale(0.996264)"/>
       <use xlink:href="#HFBR17-31" transform="translate(77.487468 0) scale(0.996264)"/>
       <use xlink:href="#HFBR17-35" transform="translate(128.130685 0) scale(0.996264)"/>
       <use xlink:href="#HFBR17-30" transform="translate(178.773903 0) scale(0.996264)"/>
      </g>
     </g>
    </g>
    <g id="xtick_2">
     <g id="line2d_3">
      <g>
       <use xlink:href="#m6b11717c2f" x="149.8" y="378" style="stroke: #000000; stroke-width: 0.8"/>
      </g>
     </g>
     <g id="text_2">
      <!-- $\mathdefault{−100}$ -->
      <g transform="translate(132.220188 395.37774) scale(0.15 -0.15)">
       <use xlink:href="#HFBRSY10-0" transform="scale(0.996264)"/>
       <use xlink:href="#HFBR17-31" transform="translate(77.487468 0) scale(0.996264)"/>
       <use xlink:href="#HFBR17-30" transform="translate(128.130685 0) scale(0.996264)"/>
       <use xlink:href="#HFBR17-30" transform="translate(178.773903 0) scale(0.996264)"/>
      </g>
     </g>
    </g>
    <g id="xtick_3">
     <g id="line2d_4">
      <g>
       <use xlink:href="#m6b11717c2f" x="204.05" y="378" style="stroke: #000000; stroke-width: 0.8"/>
      </g>
     </g>
     <g id="text_3">
      <!-- $\mathdefault{−50}$ -->
      <g transform="translate(190.392939 395.37774) scale(0.15 -0.15)">
       <use xlink:href="#HFBRSY10-0" transform="scale(0.996264)"/>
       <use xlink:href="#HFBR17-35" transform="translate(77.487468 0) scale(0.996264)"/>
       <use xlink:href="#HFBR17-30" transform="translate(128.130685 0) scale(0.996264)"/>
      </g>
     </g>
    </g>
    <g id="xtick_4">
     <g id="line2d_5">
      <g>
       <use xlink:href="#m6b11717c2f" x="258.3" y="378" style="stroke: #000000; stroke-width: 0.8"/>
      </g>
     </g>
     <g id="text_4">
      <!-- $\mathdefault{0}$ -->
      <g transform="translate(254.377248 395.37774) scale(0.15 -0.15)">
       <use xlink:href="#HFBR17-30" transform="scale(0.996264)"/>
      </g>
     </g>
    </g>
    <g id="xtick_5">
     <g id="line2d_6">
      <g>
       <use xlink:href="#m6b11717c2f" x="312.55" y="378" style="stroke: #000000; stroke-width: 0.8"/>
      </g>
     </g>
     <g id="text_5">
      <!-- $\mathdefault{50}$ -->
      <g transform="translate(304.704497 395.37774) scale(0.15 -0.15)">
       <use xlink:href="#HFBR17-35" transform="scale(0.996264)"/>
       <use xlink:href="#HFBR17-30" transform="translate(50.643218 0) scale(0.996264)"/>
      </g>
     </g>
    </g>
    <g id="xtick_6">
     <g id="line2d_7">
      <g>
       <use xlink:href="#m6b11717c2f" x="366.8" y="378" style="stroke: #000000; stroke-width: 0.8"/>
      </g>
     </g>
     <g id="text_6">
      <!-- $\mathdefault{100}$ -->
      <g transform="translate(355.031745 395.37774) scale(0.15 -0.15)">
       <use xlink:href="#HFBR17-31" transform="scale(0.996264)"/>
       <use xlink:href="#HFBR17-30" transform="translate(50.643218 0) scale(0.996264)"/>
       <use xlink:href="#HFBR17-30" transform="translate(101.286436 0) scale(0.996264)"/>
      </g>
     </g>
    </g>
    <g id="xtick_7">
     <g id="line2d_8">
      <g>
       <use xlink:href="#m6b11717c2f" x="421.05" y="378" style="stroke: #000000; stroke-width: 0.8"/>
      </g>
     </g>
     <g id="text_7">
      <!-- $\mathdefault{150}$ -->
      <g transform="translate(409.281745 395.37774) scale(0.15 -0.15)">
       <use xlink:href="#HFBR17-31" transform="scale(0.996264)"/>
       <use xlink:href="#HFBR17-35" transform="translate(50.643218 0) scale(0.996264)"/>
       <use xlink:href="#HFBR17-30" transform="translate(101.286436 0) scale(0.996264)"/>
      </g>
     </g>
    </g>
    <g id="text_8">
     <!-- Preferred orientation of neurons $(^\circ)$ -->
     <g transform="translate(132.910948 418.444335) scale(0.175 -0.175)">
      <defs>
       <path id="HFBR17-50" d="M 512 4480 
L 512 32 
L 960 32 
L 960 1920 
L 1862 1920 
C 2003 1920 2144 1920 2278 1920 
C 2752 1959 3149 2153 3418 2443 
C 3693 2746 3814 3210 3635 3603 
C 3430 4099 2944 4415 2323 4480 
C 2138 4480 1946 4480 1760 4480 
L 512 4480 
z
M 954 2254 
L 954 4139 
L 1830 4139 
C 2387 4139 2893 4075 3149 3690 
C 3322 3432 3347 3072 3206 2795 
C 3130 2646 3014 2531 2874 2447 
C 2560 2254 2195 2254 1843 2254 
L 954 2254 
z
" transform="scale(0.015625)"/>
       <path id="HFBR17-72" d="M 800 2224 
L 794 2224 
L 794 3033 
L 410 3033 
L 410 0 
L 813 0 
L 813 1465 
C 813 1562 813 1658 826 1754 
C 915 2301 1389 2706 2010 2706 
L 2010 3072 
C 1600 3072 1222 2873 979 2545 
C 909 2449 832 2339 800 2224 
z
" transform="scale(0.015625)"/>
       <path id="HFBR17-65" d="M 2675 700 
C 2528 591 2483 533 2298 436 
C 1907 224 1446 224 1114 459 
C 794 689 608 1065 608 1600 
L 2720 1600 
C 2720 2075 2611 2487 2342 2776 
C 2048 3065 1587 3155 1197 3033 
C 1050 2988 915 2911 794 2814 
C 390 2487 218 1966 224 1458 
C 237 790 691 122 1363 -20 
C 1715 -91 2086 -13 2400 147 
C 2458 179 2669 295 2694 353 
C 2714 385 2675 700 2675 700 
z
M 2381 1850 
L 640 1850 
C 717 2319 1101 2814 1619 2756 
C 2042 2718 2266 2416 2349 2037 
C 2362 1972 2368 1915 2381 1850 
z
" transform="scale(0.015625)"/>
       <path id="HFBR17-66" d="M 678 3009 
L 128 3009 
L 128 2688 
L 678 2688 
L 678 -32 
L 1082 -32 
L 1082 2688 
L 1875 2688 
L 1875 3009 
L 1075 3009 
L 1075 3570 
C 1075 3660 1056 3771 1094 3861 
C 1229 4144 1683 4196 2054 4132 
C 2131 4119 2202 4093 2278 4080 
L 2278 4441 
C 1843 4512 1363 4512 1005 4219 
C 947 4168 896 4118 851 4053 
C 717 3888 678 3704 678 3417 
L 678 3009 
z
" transform="scale(0.015625)"/>
       <path id="HFBR17-64" d="M 2278 4460 
L 2278 2648 
C 2157 2783 2035 2911 1869 2988 
C 1299 3226 749 2918 467 2410 
C 141 1806 179 1009 570 443 
C 845 51 1299 -141 1779 32 
C 1965 103 2189 289 2266 456 
L 2272 456 
L 2272 0 
L 2682 0 
L 2682 4460 
L 2278 4460 
z
M 2253 2397 
C 2285 2339 2272 2262 2272 2198 
L 2272 874 
C 2272 726 2266 713 2182 598 
C 2067 424 1888 302 1677 283 
C 1370 257 1056 405 877 656 
C 774 803 717 983 685 1163 
C 672 1234 672 1298 666 1369 
C 627 1793 717 2294 1088 2564 
C 1152 2609 1222 2641 1293 2673 
C 1664 2815 2074 2776 2253 2397 
z
" transform="scale(0.015625)"/>
       <path id="HFBR17-6f" d="M 685 2693 
C 115 2127 51 1144 544 508 
C 614 411 698 328 794 257 
C 1030 64 1376 -77 1779 -32 
C 2419 45 2861 566 2995 1112 
C 3174 1877 2797 2731 2093 3001 
C 1542 3226 992 3001 685 2693 
z
M 2285 2519 
C 2592 2242 2650 1799 2624 1407 
C 2605 1105 2522 790 2310 565 
C 1965 192 1325 192 954 552 
C 762 758 646 1053 627 1407 
C 595 1927 723 2480 1235 2686 
C 1613 2853 2048 2731 2285 2519 
z
" transform="scale(0.015625)"/>
       <path id="HFBR17-69" d="M 410 4480 
L 410 4075 
L 813 4075 
L 813 4480 
L 410 4480 
z
M 410 3033 
L 410 0 
L 813 0 
L 813 3033 
L 410 3033 
z
" transform="scale(0.015625)"/>
       <path id="HFBR17-6e" d="M 806 2386 
L 800 2386 
L 800 3033 
L 410 3033 
L 410 0 
L 819 0 
L 819 1404 
C 819 1718 800 2040 941 2334 
C 1011 2482 1120 2610 1267 2687 
C 1389 2745 1517 2745 1651 2732 
C 1843 2732 2029 2681 2150 2520 
C 2266 2372 2272 2180 2272 2000 
L 2272 0 
L 2682 0 
L 2682 1719 
C 2682 2040 2714 2392 2560 2681 
C 2438 2912 2202 3021 1952 3053 
C 1824 3072 1690 3072 1562 3047 
C 1229 2976 922 2707 806 2386 
z
" transform="scale(0.015625)"/>
       <path id="HFBR17-74" d="M 691 3872 
L 691 3009 
L 70 3009 
L 70 2688 
L 685 2688 
L 685 961 
C 685 677 666 335 851 97 
C 960 -45 1107 -83 1331 -64 
C 1517 -64 1702 -25 1875 42 
C 1933 68 2144 161 2170 207 
C 2182 233 2099 518 2099 518 
L 1946 401 
C 1747 278 1350 149 1184 382 
C 1037 582 1075 880 1075 1112 
L 1075 2688 
L 2067 2688 
L 2067 3009 
L 1075 3009 
L 1075 3872 
L 691 3872 
z
" transform="scale(0.015625)"/>
       <path id="HFBR17-61" d="M 506 2497 
C 614 2551 704 2630 813 2683 
C 986 2762 1165 2816 1357 2816 
C 1446 2822 1549 2835 1638 2816 
C 1798 2790 1939 2693 2035 2557 
C 2131 2401 2170 2265 2170 2014 
L 2170 1729 
C 1862 1729 1555 1703 1261 1625 
C 890 1541 486 1352 352 1014 
C 218 690 358 261 646 66 
C 787 -32 954 -32 1120 -19 
C 1389 0 1658 65 1888 208 
C 1997 272 2106 357 2170 467 
L 2176 467 
L 2176 13 
L 2579 13 
L 2579 1721 
C 2579 1908 2598 2109 2560 2297 
C 2522 2555 2362 2769 2176 2918 
C 1958 3086 1709 3143 1376 3118 
C 1069 3118 832 3040 602 2929 
C 570 2916 506 2895 486 2857 
C 467 2830 480 2785 480 2752 
C 493 2667 499 2582 506 2497 
z
M 2170 1536 
L 2170 1048 
C 2170 900 2176 765 2093 637 
C 2022 534 1926 463 1824 412 
C 1459 225 902 283 742 592 
C 614 816 749 1080 934 1228 
C 1210 1440 1747 1536 2170 1536 
z
" transform="scale(0.015625)"/>
       <path id="HFBR17-75" d="M 410 3008 
L 410 830 
C 410 643 416 457 493 283 
C 614 33 870 -64 1133 -64 
C 1485 -64 1837 52 2093 303 
C 2163 373 2227 444 2272 534 
L 2278 534 
L 2278 -25 
L 2682 -25 
L 2682 3008 
L 2272 3008 
L 2272 1466 
C 2272 1196 2310 900 2170 656 
C 2067 476 1888 335 1690 271 
C 1555 232 1414 232 1274 245 
C 1139 258 992 271 902 386 
C 774 541 819 907 819 1132 
L 819 3008 
L 410 3008 
z
" transform="scale(0.015625)"/>
       <path id="HFBR17-73" d="M 198 617 
C 186 527 166 444 154 354 
C 141 283 122 251 186 219 
C 448 65 762 -19 1133 -51 
C 1549 -90 2074 7 2278 418 
C 2336 534 2368 662 2374 791 
C 2400 1253 2035 1549 1722 1658 
C 1370 1793 890 1748 646 2018 
C 518 2166 512 2385 634 2539 
C 890 2899 1715 2744 2042 2584 
C 2093 2558 2138 2526 2195 2513 
L 2253 2860 
C 1952 2995 1690 3072 1274 3072 
C 915 3072 589 2989 384 2783 
C 179 2571 109 2217 230 1948 
C 346 1690 589 1523 851 1440 
C 1229 1305 1658 1369 1907 1061 
C 2048 881 2022 611 1862 450 
C 1555 167 902 270 544 424 
C 422 476 314 553 198 617 
z
" transform="scale(0.015625)"/>
       <path id="HFBR17-28" d="M 2189 -1408 
C 2138 -1350 2074 -1298 2016 -1247 
C 1965 -1202 1920 -1151 1875 -1099 
C 1235 -392 902 739 954 1941 
C 979 2596 1107 3264 1414 3856 
C 1555 4119 1798 4492 2016 4678 
C 2074 4730 2138 4781 2189 4839 
L 1978 4839 
C 1946 4839 1901 4845 1869 4833 
C 1792 4794 1600 4601 1574 4575 
C 960 3959 595 3027 544 1941 
C 512 1163 640 372 986 -322 
C 1139 -630 1344 -913 1587 -1157 
C 1651 -1221 1792 -1363 1869 -1401 
C 1901 -1414 1946 -1408 1978 -1408 
L 2189 -1408 
z
" transform="scale(0.015625)"/>
       <path id="HFBRSY10-e" d="M 582 2413 
C 250 1933 282 1248 698 819 
C 858 659 1050 550 1267 486 
C 1773 339 2266 570 2509 832 
C 2938 1293 2944 2029 2541 2502 
C 2394 2682 2182 2803 1965 2874 
C 1389 3072 832 2758 582 2413 
z
M 1894 2630 
C 2029 2586 2150 2522 2253 2432 
C 2643 2080 2694 1472 2368 1062 
C 2202 864 1978 723 1658 698 
C 1357 685 1107 794 941 941 
C 550 1293 499 1901 826 2310 
C 902 2400 992 2483 1094 2541 
C 1318 2669 1606 2726 1894 2630 
z
" transform="scale(0.015625)"/>
       <path id="HFBR17-29" d="M 320 4839 
C 371 4781 435 4730 493 4678 
C 544 4633 589 4582 634 4530 
C 1190 3888 1510 3014 1555 1941 
C 1587 1144 1466 315 1101 -405 
C 979 -656 819 -894 634 -1099 
C 589 -1151 544 -1202 493 -1247 
C 435 -1298 371 -1350 320 -1408 
L 531 -1408 
C 563 -1408 608 -1414 640 -1401 
C 717 -1363 909 -1170 934 -1144 
C 1549 -527 1914 405 1965 1491 
C 1997 2268 1869 3059 1523 3753 
C 1370 4061 1165 4344 922 4588 
C 858 4653 717 4794 640 4833 
C 608 4845 563 4839 531 4839 
L 320 4839 
z
" transform="scale(0.015625)"/>
      </defs>
      <use xlink:href="#HFBR17-50" transform="scale(0.996264)"/>
      <use xlink:href="#HFBR17-72" transform="translate(62.888907 0) scale(0.996264)"/>
      <use xlink:href="#HFBR17-65" transform="translate(94.852266 0) scale(0.996264)"/>
      <use xlink:href="#HFBR17-66" transform="translate(139.683934 0) scale(0.996264)"/>
      <use xlink:href="#HFBR17-65" transform="translate(169.986878 0) scale(0.996264)"/>
      <use xlink:href="#HFBR17-72" transform="translate(214.818545 0) scale(0.996264)"/>
      <use xlink:href="#HFBR17-72" transform="translate(246.781904 0) scale(0.996264)"/>
      <use xlink:href="#HFBR17-65" transform="translate(278.745263 0) scale(0.996264)"/>
      <use xlink:href="#HFBR17-64" transform="translate(323.576931 0) scale(0.996264)"/>
      <use xlink:href="#HFBR17-6f" transform="translate(403.194639 0) scale(0.996264)"/>
      <use xlink:href="#HFBR17-72" transform="translate(450.932128 0) scale(0.996264)"/>
      <use xlink:href="#HFBR17-69" transform="translate(482.895487 0) scale(0.996264)"/>
      <use xlink:href="#HFBR17-65" transform="translate(501.990445 0) scale(0.996264)"/>
      <use xlink:href="#HFBR17-6e" transform="translate(546.822113 0) scale(0.996264)"/>
      <use xlink:href="#HFBR17-74" transform="translate(594.97461 0) scale(0.996264)"/>
      <use xlink:href="#HFBR17-61" transform="translate(631.088998 0) scale(0.996264)"/>
      <use xlink:href="#HFBR17-74" transform="translate(677.58108 0) scale(0.996264)"/>
      <use xlink:href="#HFBR17-69" transform="translate(713.695468 0) scale(0.996264)"/>
      <use xlink:href="#HFBR17-6f" transform="translate(732.790427 0) scale(0.996264)"/>
      <use xlink:href="#HFBR17-6e" transform="translate(783.433645 0) scale(0.996264)"/>
      <use xlink:href="#HFBR17-6f" transform="translate(863.051353 0) scale(0.996264)"/>
      <use xlink:href="#HFBR17-66" transform="translate(913.694571 0) scale(0.996264)"/>
      <use xlink:href="#HFBR17-6e" transform="translate(975.462727 0) scale(0.996264)"/>
      <use xlink:href="#HFBR17-65" transform="translate(1023.615224 0) scale(0.996264)"/>
      <use xlink:href="#HFBR17-75" transform="translate(1068.446892 0) scale(0.996264)"/>
      <use xlink:href="#HFBR17-72" transform="translate(1116.599389 0) scale(0.996264)"/>
      <use xlink:href="#HFBR17-6f" transform="translate(1148.562747 0) scale(0.996264)"/>
      <use xlink:href="#HFBR17-6e" transform="translate(1199.205965 0) scale(0.996264)"/>
      <use xlink:href="#HFBR17-73" transform="translate(1247.358462 0) scale(0.996264)"/>
      <use xlink:href="#HFBR17-28" transform="translate(1317.262703 0) scale(0.996264)"/>
      <use xlink:href="#HFBRSY10-e" transform="translate(1356.282912 36.153639) scale(0.697382)"/>
      <use xlink:href="#HFBR17-29" transform="translate(1391.650254 0) scale(0.996264)"/>
     </g>
    </g>
   </g>
   <g id="matplotlib.axis_2">
    <g id="ytick_1">
     <g id="line2d_9">
      <defs>
       <path id="m0b0fc9341b" d="M 0 0 
L -3.5 0 
" style="stroke: #000000; stroke-width: 0.8"/>
      </defs>
      <g>
       <use xlink:href="#m0b0fc9341b" x="63" y="376.429941" style="stroke: #000000; stroke-width: 0.8"/>
      </g>
     </g>
     <g id="text_9">
      <!-- $\mathdefault{0}$ -->
      <g transform="translate(48.154497 381.618811) scale(0.15 -0.15)">
       <use xlink:href="#HFBR17-30" transform="scale(0.996264)"/>
      </g>
     </g>
    </g>
    <g id="ytick_2">
     <g id="line2d_10">
      <g>
       <use xlink:href="#m0b0fc9341b" x="63" y="313.627582" style="stroke: #000000; stroke-width: 0.8"/>
      </g>
     </g>
     <g id="text_10">
      <!-- $\mathdefault{10}$ -->
      <g transform="translate(40.308994 318.816452) scale(0.15 -0.15)">
       <use xlink:href="#HFBR17-31" transform="scale(0.996264)"/>
       <use xlink:href="#HFBR17-30" transform="translate(50.643218 0) scale(0.996264)"/>
      </g>
     </g>
    </g>
    <g id="ytick_3">
     <g id="line2d_11">
      <g>
       <use xlink:href="#m0b0fc9341b" x="63" y="250.825223" style="stroke: #000000; stroke-width: 0.8"/>
      </g>
     </g>
     <g id="text_11">
      <!-- $\mathdefault{20}$ -->
      <g transform="translate(40.308994 256.014093) scale(0.15 -0.15)">
       <defs>
        <path id="HFBR17-32" d="M 467 2942 
C 557 3302 710 3711 1075 3872 
C 1229 3936 1395 3949 1562 3936 
C 1875 3910 2182 3782 2374 3526 
C 2515 3333 2566 3096 2541 2866 
C 2464 2198 1811 1718 1389 1359 
C 1146 1154 454 500 454 500 
L 346 397 
C 288 340 282 340 282 224 
L 282 0 
L 2970 0 
L 2970 360 
L 653 360 
C 858 559 1709 1313 1824 1403 
C 2195 1706 2611 2008 2835 2446 
C 3085 2948 2976 3580 2554 3953 
C 2298 4179 1946 4288 1606 4288 
C 1293 4288 973 4224 723 4026 
C 531 3865 371 3628 282 3384 
C 262 3346 230 3282 237 3237 
C 243 3199 282 3167 301 3141 
C 352 3077 403 3000 467 2942 
z
" transform="scale(0.015625)"/>
       </defs>
       <use xlink:href="#HFBR17-32" transform="scale(0.996264)"/>
       <use xlink:href="#HFBR17-30" transform="translate(50.643218 0) scale(0.996264)"/>
      </g>
     </g>
    </g>
    <g id="ytick_4">
     <g id="line2d_12">
      <g>
       <use xlink:href="#m0b0fc9341b" x="63" y="188.022864" style="stroke: #000000; stroke-width: 0.8"/>
      </g>
     </g>
     <g id="text_12">
      <!-- $\mathdefault{30}$ -->
      <g transform="translate(40.308994 193.211734) scale(0.15 -0.15)">
       <defs>
        <path id="HFBR17-33" d="M 518 3246 
C 570 3323 608 3407 666 3484 
C 800 3664 986 3805 1197 3889 
C 1530 4024 2016 4024 2278 3726 
C 2509 3461 2413 3047 2202 2802 
C 2010 2576 1760 2466 1389 2466 
C 1280 2466 1178 2434 1069 2434 
L 1069 2112 
L 1510 2112 
C 1882 2112 2125 2055 2330 1836 
C 2682 1463 2650 801 2259 461 
C 2061 294 1786 242 1530 261 
C 1030 300 589 564 294 975 
C 262 911 262 821 250 750 
C 230 647 230 647 294 564 
C 480 313 845 82 1133 -2 
C 1645 -156 2240 -86 2637 306 
C 2714 384 2784 467 2842 557 
C 3078 930 3085 1418 2822 1778 
C 2714 1926 2573 2042 2413 2132 
C 2304 2196 2176 2260 2048 2273 
C 2419 2447 2765 2741 2829 3223 
C 2886 3672 2624 3948 2355 4108 
C 1939 4352 1395 4352 966 4139 
C 768 4043 589 3902 454 3728 
C 429 3696 333 3587 333 3535 
C 333 3503 358 3471 378 3445 
L 518 3246 
z
" transform="scale(0.015625)"/>
       </defs>
       <use xlink:href="#HFBR17-33" transform="scale(0.996264)"/>
       <use xlink:href="#HFBR17-30" transform="translate(50.643218 0) scale(0.996264)"/>
      </g>
     </g>
    </g>
    <g id="text_13">
     <!-- Firing rate (Hz) -->
     <g transform="translate(32.434637 270.314588) rotate(-90) scale(0.175 -0.175)">
      <defs>
       <path id="HFBR17-46" d="M 512 4437 
L 512 0 
L 960 0 
L 960 2048 
L 3078 2048 
L 3078 2388 
L 960 2388 
L 960 4096 
L 3354 4096 
L 3354 4437 
L 512 4437 
z
" transform="scale(0.015625)"/>
       <path id="HFBR17-67" d="M 2266 767 
L 2272 767 
L 2272 170 
C 2272 -10 2272 -183 2214 -356 
C 2118 -588 1952 -800 1677 -838 
C 1600 -845 1517 -838 1440 -832 
C 1024 -832 749 -707 416 -555 
L 416 -799 
C 416 -922 435 -928 557 -967 
C 883 -1102 1472 -1236 1875 -1134 
C 2323 -1018 2650 -594 2682 -78 
C 2688 12 2682 109 2682 200 
L 2682 3072 
L 2278 3072 
L 2278 2559 
C 2182 2719 2080 2867 1914 2970 
C 1466 3240 858 2944 608 2597 
C 198 2089 122 1302 448 735 
C 512 626 589 523 678 433 
C 986 131 1510 -30 1888 240 
C 2042 343 2221 581 2266 767 
z
M 1632 2752 
C 1690 2752 1754 2752 1811 2739 
C 2042 2694 2170 2488 2246 2282 
C 2291 2141 2278 1987 2278 1839 
C 2278 1518 2272 1184 2163 881 
C 2086 657 1926 457 1677 432 
C 1594 425 1510 438 1427 457 
C 1037 547 768 881 685 1267 
C 570 1826 845 2507 1408 2700 
C 1478 2726 1555 2745 1632 2752 
z
" transform="scale(0.015625)"/>
       <path id="HFBR17-48" d="M 512 4460 
L 512 0 
L 960 0 
L 960 2155 
L 3386 2155 
L 3386 0 
L 3834 0 
L 3834 4460 
L 3386 4460 
L 3386 2496 
L 960 2496 
L 960 4460 
L 512 4460 
z
" transform="scale(0.015625)"/>
       <path id="HFBR17-7a" d="M 230 3008 
L 230 2693 
L 2074 2693 
L 646 866 
C 480 643 294 446 141 210 
C 134 147 134 70 134 0 
L 2650 0 
L 2650 321 
L 691 321 
L 2131 2155 
C 2291 2372 2464 2575 2624 2798 
C 2630 2862 2630 2939 2630 3008 
L 230 3008 
z
" transform="scale(0.015625)"/>
      </defs>
      <use xlink:href="#HFBR17-46" transform="scale(0.996264)"/>
      <use xlink:href="#HFBR17-69" transform="translate(55.832057 0) scale(0.996264)"/>
      <use xlink:href="#HFBR17-72" transform="translate(74.927016 0) scale(0.996264)"/>
      <use xlink:href="#HFBR17-69" transform="translate(106.890375 0) scale(0.996264)"/>
      <use xlink:href="#HFBR17-6e" transform="translate(125.985334 0) scale(0.996264)"/>
      <use xlink:href="#HFBR17-67" transform="translate(174.137831 0) scale(0.996264)"/>
      <use xlink:href="#HFBR17-72" transform="translate(253.75554 0) scale(0.996264)"/>
      <use xlink:href="#HFBR17-61" transform="translate(285.718898 0) scale(0.996264)"/>
      <use xlink:href="#HFBR17-74" transform="translate(332.210981 0) scale(0.996264)"/>
      <use xlink:href="#HFBR17-65" transform="translate(368.325369 0) scale(0.996264)"/>
      <use xlink:href="#HFBR17-28" transform="translate(444.622248 0) scale(0.996264)"/>
      <use xlink:href="#HFBR17-48" transform="translate(483.642457 0) scale(0.996264)"/>
      <use xlink:href="#HFBR17-7a" transform="translate(551.30521 0) scale(0.996264)"/>
      <use xlink:href="#HFBR17-29" transform="translate(594.061363 0) scale(0.996264)"/>
     </g>
    </g>
   </g>
   <g id="PathCollection_2">
    <defs>
     <path id="mea7ea6a52e" d="M -0 8.660254 
L 8.660254 -8.660254 
L -8.660254 -8.660254 
z
" style="stroke: #00008b"/>
    </defs>
    <g clip-path="url(#pe18b6b9bb2)">
     <use xlink:href="#mea7ea6a52e" x="314.240134" y="67.060136" style="fill: #00008b; stroke: #00008b"/>
    </g>
   </g>
   <g id="line2d_13">
    <path d="M 63 355.511174 
L 66.925628 355.728758 
L 74.776884 355.888728 
L 82.628141 355.72025 
L 90.479397 355.202733 
L 98.330653 354.327499 
L 106.18191 353.066672 
L 112.070352 351.805893 
L 119.921608 349.659322 
L 123.847236 348.372262 
L 131.698492 345.211863 
L 135.624121 343.362384 
L 141.512563 340.16555 
L 147.401005 336.41425 
L 151.326633 333.662906 
L 157.215075 328.911051 
L 161.140704 325.388324 
L 163.103518 323.580409 
L 167.029146 319.585814 
L 170.954774 315.330136 
L 174.880402 310.7418 
L 180.768844 303.376948 
L 186.657286 295.232355 
L 190.582915 289.38419 
L 196.471357 280.331889 
L 206.285427 264.239827 
L 218.062312 244.237733 
L 229.839196 225.036736 
L 235.727638 216.230328 
L 243.578894 206.02617 
L 247.504523 201.654584 
L 249.467337 199.571612 
L 253.392965 196.094246 
L 259.281407 192.083964 
L 263.207035 190.287901 
L 265.169849 189.853078 
L 267.132663 189.208873 
L 269.095477 189.059217 
L 271.058291 189.033718 
L 273.021106 189.142773 
L 274.98392 189.424338 
L 276.946734 189.897628 
L 278.909548 190.548804 
L 280.872362 191.386477 
L 286.760804 194.879302 
L 288.723618 196.634873 
L 290.686432 198.196852 
L 294.61206 202.189225 
L 298.537688 206.49647 
L 304.426131 214.236414 
L 306.388945 216.941419 
L 312.277387 225.794448 
L 316.203015 232.052611 
L 326.017085 248.365386 
L 329.942714 255.042214 
L 339.756784 271.640429 
L 347.60804 284.250115 
L 353.496482 293.183633 
L 359.384925 301.420837 
L 365.273367 309.058889 
L 369.198995 313.828951 
L 375.087437 320.256498 
L 379.013065 324.179604 
L 382.938693 327.754938 
L 386.864322 331.069098 
L 388.827136 332.685779 
L 394.715578 336.963588 
L 398.641206 339.386267 
L 400.60402 340.624642 
L 404.529648 342.727062 
L 408.455276 344.658501 
L 414.343719 347.188532 
L 418.269347 348.590097 
L 422.194975 349.883212 
L 426.120603 351.04788 
L 432.009045 352.466273 
L 437.897487 353.545404 
L 439.860302 353.891219 
L 443.78593 354.43883 
L 451.637186 355.294408 
L 453.6 355.429417 
L 453.6 355.429417 
" clip-path="url(#pe18b6b9bb2)" style="fill: none; stroke: #1e90ff; stroke-width: 3; stroke-linecap: square"/>
   </g>
   <g id="line2d_14">
    <path d="M 63 348.315143 
L 68.888442 348.617059 
L 74.776884 348.710761 
L 80.665327 348.598257 
L 86.553769 348.277139 
L 92.442211 347.740612 
L 98.330653 346.97756 
L 104.219095 345.97268 
L 110.107538 344.706684 
L 115.99598 343.156612 
L 121.884422 341.29629 
L 127.772864 339.096963 
L 131.698492 337.427402 
L 135.624121 335.584421 
L 139.549749 333.55886 
L 143.475377 331.341837 
L 147.401005 328.924986 
L 151.326633 326.300724 
L 155.252261 323.462539 
L 159.177889 320.405308 
L 163.103518 317.125619 
L 167.029146 313.622112 
L 170.954774 309.895825 
L 174.880402 305.950522 
L 180.768844 299.637737 
L 186.657286 292.885653 
L 192.545729 285.750242 
L 200.396985 275.773649 
L 223.950754 245.188863 
L 229.839196 238.1259 
L 233.764824 233.709871 
L 237.690452 229.582184 
L 241.61608 225.787668 
L 245.541709 222.368742 
L 249.467337 219.364585 
L 253.392965 216.810358 
L 257.318593 214.736483 
L 259.281407 213.887731 
L 261.244221 213.168011 
L 263.207035 212.579529 
L 265.169849 212.124095 
L 267.132663 211.803113 
L 269.095477 211.617577 
L 271.058291 211.568061 
L 273.021106 211.654718 
L 274.98392 211.87728 
L 276.946734 212.235059 
L 278.909548 212.726947 
L 280.872362 213.351429 
L 282.835176 214.106586 
L 284.79799 214.990107 
L 288.723618 217.131108 
L 292.649246 219.748614 
L 296.574874 222.811519 
L 300.500503 226.28407 
L 304.426131 230.126596 
L 308.351759 234.296302 
L 312.277387 238.748091 
L 318.165829 245.852662 
L 324.054271 253.328181 
L 335.831156 268.776459 
L 345.645226 281.496585 
L 351.533668 288.819633 
L 357.422111 295.800566 
L 363.310553 302.372172 
L 369.198995 308.486498 
L 373.124623 312.293157 
L 377.050251 315.878039 
L 380.975879 319.239143 
L 384.901508 322.376992 
L 388.827136 325.294297 
L 392.752764 327.995611 
L 396.678392 330.486991 
L 400.60402 332.775677 
L 404.529648 334.869792 
L 408.455276 336.778063 
L 412.380905 338.509576 
L 416.306533 340.073553 
L 422.194975 342.125379 
L 428.083417 343.850674 
L 433.971859 345.277182 
L 439.860302 346.42978 
L 445.748744 347.329913 
L 451.637186 347.995211 
L 453.6 348.167255 
L 453.6 348.167255 
" clip-path="url(#pe18b6b9bb2)" style="fill: none; stroke-dasharray: 11.1,4.8; stroke-dashoffset: 0; stroke: #1e90ff; stroke-width: 3"/>
   </g>
   <g id="patch_3">
    <path d="M 63 376.429941 
L 63 125.220505 
" style="fill: none; stroke: #000000; stroke-width: 0.8; stroke-linejoin: miter; stroke-linecap: square"/>
   </g>
   <g id="patch_4">
    <path d="M 63 378 
L 453.6 378 
" style="fill: none; stroke: #000000; stroke-width: 0.8; stroke-linejoin: miter; stroke-linecap: square"/>
   </g>
   <g id="line2d_15">
    <path d="M 63 341.278586 
L 64.962814 342.150047 
L 66.925628 342.794059 
L 68.888442 343.619448 
L 70.851256 344.30058 
L 72.81407 345.147487 
L 74.776884 345.793044 
L 76.739698 346.261499 
L 80.665327 347.344037 
L 84.590955 348.313834 
L 90.479397 349.432897 
L 94.405025 349.986426 
L 96.367839 350.392116 
L 98.330653 350.549688 
L 104.219095 351.420196 
L 106.18191 351.483064 
L 108.144724 351.678532 
L 119.921608 351.96723 
L 121.884422 351.859667 
L 125.81005 351.893977 
L 129.735678 351.696839 
L 135.624121 351.196896 
L 137.586935 351.154811 
L 139.549749 350.747719 
L 141.512563 350.635586 
L 147.401005 349.741871 
L 153.289447 348.590211 
L 155.252261 347.986401 
L 159.177889 347.07645 
L 161.140704 346.549559 
L 163.103518 345.891134 
L 165.066332 345.408559 
L 167.029146 344.526612 
L 168.99196 344.140137 
L 174.880402 341.664536 
L 176.843216 340.923575 
L 178.80603 339.646022 
L 180.768844 338.935372 
L 186.657286 335.88652 
L 190.582915 333.433691 
L 196.471357 329.334889 
L 200.396985 326.228965 
L 202.359799 324.913609 
L 204.322613 323.090997 
L 208.248241 319.63565 
L 214.136683 313.823383 
L 218.062312 309.769359 
L 223.950754 303.008459 
L 225.913568 300.655507 
L 227.876382 298.128426 
L 229.839196 295.816765 
L 233.764824 290.672686 
L 235.727638 287.640403 
L 237.690452 285.36355 
L 249.467337 268.570754 
L 251.430151 265.21425 
L 253.392965 262.669932 
L 255.355779 259.793798 
L 257.318593 256.599449 
L 261.244221 250.684911 
L 263.207035 248.033788 
L 265.169849 244.97408 
L 267.132663 242.422248 
L 273.021106 233.943978 
L 280.872362 223.840553 
L 282.835176 221.534017 
L 284.79799 219.455272 
L 286.760804 217.177223 
L 288.723618 215.43867 
L 292.649246 211.41933 
L 294.61206 210.049045 
L 296.574874 208.328736 
L 300.500503 205.862808 
L 302.463317 204.54138 
L 304.426131 204.082855 
L 306.388945 203.180108 
L 308.351759 202.668945 
L 310.314573 201.709146 
L 312.277387 201.408705 
L 314.240201 201.339761 
L 316.203015 201.51333 
L 318.165829 201.497469 
L 320.128643 201.812269 
L 322.091457 202.383675 
L 324.054271 202.776374 
L 326.017085 203.453983 
L 327.979899 204.991952 
L 329.942714 205.855077 
L 333.868342 207.963367 
L 335.831156 209.745019 
L 337.79397 211.097674 
L 345.645226 218.794735 
L 347.60804 221.229642 
L 351.533668 225.684711 
L 355.459296 230.786141 
L 359.384925 235.937257 
L 361.347739 238.955949 
L 363.310553 241.736246 
L 365.273367 244.221029 
L 367.236181 247.325667 
L 371.161809 253.072697 
L 373.124623 256.180831 
L 375.087437 258.844838 
L 382.938693 270.790345 
L 394.715578 287.387267 
L 396.678392 289.76331 
L 398.641206 292.638281 
L 400.60402 294.843972 
L 402.566834 297.556687 
L 408.455276 304.712353 
L 416.306533 313.226159 
L 420.232161 317.265198 
L 426.120603 322.423251 
L 428.083417 324.323903 
L 430.046231 325.685128 
L 433.971859 328.758021 
L 437.897487 331.56881 
L 445.748744 336.463568 
L 449.674372 338.567054 
L 453.6 340.512879 
L 453.6 340.512879 
" clip-path="url(#pe18b6b9bb2)" style="fill: none; stroke: #00008b; stroke-width: 3; stroke-linecap: square"/>
   </g>
   <g id="legend_1">
    <g id="patch_5">
     <path d="M 369.205021 133.274248 
L 444.5 133.274248 
Q 447.1 133.274248 447.1 130.674248 
L 447.1 60.94 
Q 447.1 58.34 444.5 58.34 
L 369.205021 58.34 
Q 366.605021 58.34 366.605021 60.94 
L 366.605021 130.674248 
Q 366.605021 133.274248 369.205021 133.274248 
z
" style="fill: #ffffff; opacity: 0.8; stroke: #cccccc; stroke-linejoin: miter"/>
    </g>
    <g id="line2d_16">
     <path d="M 371.805021 68.09 
L 384.805021 68.09 
L 397.805021 68.09 
" style="fill: none; stroke: #add8e6; stroke-width: 3; stroke-linecap: square"/>
    </g>
    <g id="text_14">
     <!-- 0 s -->
     <g transform="translate(408.205021 72.64) scale(0.13 -0.13)">
      <use xlink:href="#HFBR17-30" transform="scale(0.996264)"/>
      <use xlink:href="#HFBR17-73" transform="translate(82.108429 0) scale(0.996264)"/>
     </g>
    </g>
    <g id="line2d_17">
     <path d="M 371.805021 85.848562 
L 384.805021 85.848562 
L 397.805021 85.848562 
" style="fill: none; stroke: #1e90ff; stroke-width: 3; stroke-linecap: square"/>
    </g>
    <g id="text_15">
     <!-- 0.75 s -->
     <g transform="translate(408.205021 90.398562) scale(0.13 -0.13)">
      <defs>
       <path id="HFBR17-2e" d="M 634 501 
L 634 0 
L 1133 0 
L 1133 501 
L 634 501 
z
" transform="scale(0.015625)"/>
       <path id="HFBR17-37" d="M 230 4200 
L 230 3840 
L 2739 3840 
L 2502 3608 
C 2291 3383 2099 3144 1926 2887 
C 1350 2017 1037 980 1037 -64 
L 1466 -64 
C 1466 877 1702 1817 2150 2648 
C 2368 3067 2598 3369 2899 3723 
C 2938 3762 2995 3807 3014 3858 
C 3027 3890 3021 3935 3021 3975 
L 3021 4200 
L 230 4200 
z
" transform="scale(0.015625)"/>
      </defs>
      <use xlink:href="#HFBR17-30" transform="scale(0.996264)"/>
      <use xlink:href="#HFBR17-2e" transform="translate(50.643218 0) scale(0.996264)"/>
      <use xlink:href="#HFBR17-37" transform="translate(78.040341 0) scale(0.996264)"/>
      <use xlink:href="#HFBR17-35" transform="translate(128.683559 0) scale(0.996264)"/>
      <use xlink:href="#HFBR17-73" transform="translate(210.791989 0) scale(0.996264)"/>
     </g>
    </g>
    <g id="line2d_18">
     <path d="M 371.805021 103.607124 
L 384.805021 103.607124 
L 397.805021 103.607124 
" style="fill: none; stroke-dasharray: 11.1,4.8; stroke-dashoffset: 0; stroke: #1e90ff; stroke-width: 3"/>
    </g>
    <g id="text_16">
     <!-- 2.75 -->
     <g transform="translate(408.205021 108.157124) scale(0.13 -0.13)">
      <use xlink:href="#HFBR17-32" transform="scale(0.996264)"/>
      <use xlink:href="#HFBR17-2e" transform="translate(50.643218 0) scale(0.996264)"/>
      <use xlink:href="#HFBR17-37" transform="translate(78.040341 0) scale(0.996264)"/>
      <use xlink:href="#HFBR17-35" transform="translate(128.683559 0) scale(0.996264)"/>
     </g>
    </g>
    <g id="line2d_19">
     <path d="M 371.805021 121.365686 
L 384.805021 121.365686 
L 397.805021 121.365686 
" style="fill: none; stroke: #00008b; stroke-width: 3; stroke-linecap: square"/>
    </g>
    <g id="text_17">
     <!-- 3.5 s -->
     <g transform="translate(408.205021 125.915686) scale(0.13 -0.13)">
      <use xlink:href="#HFBR17-33" transform="scale(0.996264)"/>
      <use xlink:href="#HFBR17-2e" transform="translate(50.643218 0) scale(0.996264)"/>
      <use xlink:href="#HFBR17-35" transform="translate(78.040341 0) scale(0.996264)"/>
      <use xlink:href="#HFBR17-73" transform="translate(160.148771 0) scale(0.996264)"/>
     </g>
    </g>
   </g>
  </g>
  <g id="text_18">
   <!-- \textbf{Firing rate of the integration circuit} -->
   <g transform="translate(89.40058 46.236997) scale(0.2 -0.2)">
    <defs>
     <path id="HFBRBX10-46" d="M 582 4480 
L 582 0 
L 1523 0 
L 1523 1920 
L 3315 1920 
L 3315 2535 
L 1523 2535 
L 1523 3812 
L 3610 3812 
L 3610 4480 
L 582 4480 
z
" transform="scale(0.015625)"/>
     <path id="HFBRBX10-69" d="M 390 4502 
L 390 3712 
L 1242 3712 
L 1242 4502 
L 390 4502 
z
M 390 3057 
L 390 0 
L 1242 0 
L 1242 3057 
L 390 3057 
z
" transform="scale(0.015625)"/>
     <path id="HFBRBX10-72" d="M 1216 2320 
L 1210 2320 
L 1210 3096 
L 390 3096 
L 390 0 
L 1242 0 
L 1242 1521 
C 1242 1631 1242 1742 1274 1845 
C 1414 2267 1869 2476 2278 2476 
L 2278 3136 
C 1894 3136 1568 2923 1357 2605 
C 1306 2521 1242 2424 1216 2320 
z
" transform="scale(0.015625)"/>
     <path id="HFBRBX10-6e" d="M 1222 2409 
L 1216 2409 
L 1216 3096 
L 384 3096 
L 384 0 
L 1254 0 
L 1254 1367 
C 1254 1645 1229 1943 1325 2209 
C 1408 2422 1568 2610 1798 2656 
C 1952 2675 2106 2649 2189 2578 
C 2362 2448 2330 2131 2330 1872 
L 2330 0 
L 3200 0 
L 3200 1805 
C 3200 2155 3219 2506 3091 2759 
C 2970 3006 2714 3109 2406 3109 
C 2259 3136 2112 3136 1965 3097 
C 1715 3026 1498 2857 1350 2643 
C 1299 2571 1248 2494 1222 2409 
z
" transform="scale(0.015625)"/>
     <path id="HFBRBX10-67" d="M 2317 784 
L 2323 784 
L 2323 75 
C 2323 -202 2304 -447 2131 -621 
C 1990 -756 1792 -756 1606 -736 
C 1331 -736 1069 -677 826 -538 
C 704 -466 602 -373 486 -301 
L 486 -730 
C 486 -775 474 -859 499 -892 
C 531 -931 595 -950 640 -969 
C 941 -1125 1312 -1216 1747 -1216 
C 2195 -1216 2714 -1138 2989 -737 
C 3251 -355 3194 130 3194 563 
L 3194 3136 
L 2342 3136 
L 2342 2681 
C 2125 2959 1907 3167 1414 3128 
C 1082 3102 755 2979 544 2707 
C 256 2337 218 1817 243 1362 
C 256 1109 307 848 448 628 
C 646 317 992 188 1344 162 
C 1754 123 1997 272 2182 531 
C 2234 609 2291 693 2317 784 
z
M 2342 1612 
L 2323 1612 
C 2323 1334 2285 997 2099 777 
C 1920 576 1581 576 1370 738 
C 1306 783 1261 841 1222 913 
C 1101 1133 1107 1392 1107 1632 
C 1107 1897 1152 2215 1325 2428 
C 1498 2629 1811 2720 2054 2603 
C 2150 2558 2234 2474 2285 2383 
C 2355 2292 2342 2221 2342 2059 
L 2342 1612 
z
" transform="scale(0.015625)"/>
     <path id="HFBRBX10-61" d="M 582 2253 
C 666 2325 736 2409 826 2474 
C 1043 2642 1293 2720 1562 2739 
C 1696 2752 1837 2752 1946 2648 
C 2074 2518 2099 2309 2099 2082 
L 2099 1757 
C 1997 1744 1888 1744 1786 1744 
C 1152 1692 397 1568 230 1041 
C 109 677 333 293 525 132 
C 1037 -302 1882 34 2112 449 
L 2118 449 
L 2118 0 
L 2970 0 
L 2970 1840 
C 2970 2180 2982 2552 2746 2827 
C 2438 3179 1926 3179 1491 3179 
C 1126 3179 851 3076 582 2932 
C 538 2919 531 2897 531 2836 
C 531 2794 538 2752 538 2713 
C 557 2558 570 2409 582 2253 
z
M 2099 1497 
L 2099 1082 
C 2099 991 2106 901 2080 810 
C 1984 454 1434 253 1146 545 
C 954 752 1018 1076 1222 1244 
C 1434 1425 1773 1451 2099 1497 
z
" transform="scale(0.015625)"/>
     <path id="HFBRBX10-74" d="M 582 3904 
L 582 3026 
L 128 3026 
L 128 2560 
L 563 2560 
L 563 809 
C 563 512 621 168 813 27 
C 966 -96 1158 -96 1344 -96 
C 1786 -96 2042 22 2387 189 
L 2272 642 
C 2157 557 2189 551 2042 480 
C 1882 402 1606 337 1485 512 
C 1382 687 1395 888 1395 1166 
L 1395 2560 
L 2272 2560 
L 2272 3026 
L 1395 3026 
L 1395 3904 
L 582 3904 
z
" transform="scale(0.015625)"/>
     <path id="HFBRBX10-65" d="M 2976 817 
C 2867 745 2778 661 2662 596 
C 2259 376 1536 188 1203 681 
C 1043 933 1011 1186 1011 1600 
L 3072 1600 
C 3072 2008 3027 2468 2746 2786 
C 2573 2973 2336 3077 2086 3122 
C 1491 3213 896 3077 576 2747 
C 250 2403 186 1905 192 1445 
C 198 1017 320 557 646 266 
C 1056 -90 1850 -194 2547 20 
C 2669 52 2778 104 2893 156 
C 2931 175 2995 195 3014 234 
C 3027 247 3021 266 3021 285 
C 3008 467 2989 642 2976 817 
z
M 2349 1944 
L 1037 1944 
C 1056 2170 1165 2403 1293 2520 
C 1510 2714 1882 2747 2106 2552 
C 2272 2403 2336 2157 2349 1944 
z
" transform="scale(0.015625)"/>
     <path id="HFBRBX10-6f" d="M 627 2737 
C 282 2413 198 1919 198 1465 
C 198 992 301 591 550 325 
C 928 -83 1530 -141 2048 -89 
C 2394 -50 2746 73 2982 345 
C 3238 643 3347 1122 3309 1640 
C 3283 2023 3206 2411 2957 2708 
C 2694 3011 2298 3136 1920 3136 
C 1376 3136 922 3016 627 2737 
z
M 1933 2681 
C 1990 2675 2048 2656 2099 2630 
C 2445 2455 2445 2008 2445 1671 
L 2445 1470 
C 2445 1179 2426 874 2304 687 
C 2131 421 1690 356 1395 518 
C 1050 706 1069 1192 1069 1684 
C 1069 1937 1069 2228 1210 2448 
C 1344 2662 1645 2746 1933 2681 
z
" transform="scale(0.015625)"/>
     <path id="HFBRBX10-66" d="M 550 3026 
L 186 3026 
L 186 2560 
L 550 2560 
L 550 -32 
L 1402 -32 
L 1402 2560 
L 2016 2560 
L 2016 3026 
L 1382 3026 
L 1382 3555 
C 1382 3658 1370 3768 1421 3864 
C 1523 4096 1875 4096 2093 4032 
C 2253 3993 2310 3903 2438 3812 
L 2438 4459 
C 2208 4504 2144 4530 1843 4530 
C 1459 4530 1005 4478 749 4149 
C 589 3962 550 3698 550 3381 
L 550 3026 
z
" transform="scale(0.015625)"/>
     <path id="HFBRBX10-68" d="M 384 4495 
L 384 0 
L 1254 0 
L 1254 1367 
C 1254 1645 1229 1943 1325 2209 
C 1408 2422 1568 2610 1798 2656 
C 1952 2675 2106 2649 2189 2578 
C 2362 2448 2330 2131 2330 1872 
L 2330 0 
L 3200 0 
L 3200 1815 
C 3200 2166 3219 2517 3091 2771 
C 2950 3031 2688 3122 2413 3122 
C 2266 3122 2118 3122 1971 3084 
C 1728 3020 1517 2868 1370 2671 
C 1318 2601 1267 2530 1242 2448 
L 1235 2448 
L 1235 4495 
L 384 4495 
z
" transform="scale(0.015625)"/>
     <path id="HFBRBX10-63" d="M 2874 881 
C 2771 810 2682 732 2573 667 
C 2362 544 2131 486 1888 466 
C 1728 453 1562 466 1421 551 
C 1158 719 1114 1082 1107 1367 
L 1107 1535 
C 1107 1976 1120 2390 1395 2578 
C 1549 2688 1741 2688 1926 2688 
C 2099 2675 2272 2648 2426 2562 
C 2554 2490 2656 2385 2778 2299 
C 2816 2428 2861 2724 2880 2852 
C 2880 2930 2854 2924 2784 2962 
C 2701 3007 2618 3039 2534 3072 
C 2349 3148 2163 3168 1971 3168 
C 1421 3213 928 3085 646 2801 
C 378 2537 275 2151 243 1784 
C 198 1212 294 524 819 188 
C 1363 -162 2253 -91 2797 188 
C 2829 201 2893 220 2912 259 
C 2925 272 2918 298 2918 317 
C 2912 512 2880 693 2874 881 
z
" transform="scale(0.015625)"/>
     <path id="HFBRBX10-75" d="M 384 3058 
L 384 828 
C 384 639 390 437 480 268 
C 608 20 883 -64 1146 -64 
C 1267 -64 1395 -64 1517 -51 
C 1766 -13 2010 107 2182 290 
C 2246 354 2310 436 2342 518 
L 2349 518 
L 2349 0 
L 3200 0 
L 3200 3057 
L 2330 3057 
L 2330 1211 
C 2330 1049 2323 900 2266 751 
C 2189 570 2048 408 1856 350 
C 1779 324 1702 324 1619 324 
C 1523 324 1402 324 1325 396 
C 1267 454 1267 539 1261 610 
C 1248 772 1254 942 1254 1104 
L 1254 3058 
L 384 3058 
z
" transform="scale(0.015625)"/>
    </defs>
    <use xlink:href="#HFBRBX10-46" transform="scale(0.996264)"/>
    <use xlink:href="#HFBRBX10-69" transform="translate(60.883138 0) scale(0.996264)"/>
    <use xlink:href="#HFBRBX10-72" transform="translate(86.343357 0) scale(0.996264)"/>
    <use xlink:href="#HFBRBX10-69" transform="translate(123.426768 0) scale(0.996264)"/>
    <use xlink:href="#HFBRBX10-6e" transform="translate(148.886986 0) scale(0.996264)"/>
    <use xlink:href="#HFBRBX10-67" transform="translate(204.788774 0) scale(0.996264)"/>
    <use xlink:href="#HFBRBX10-72" transform="translate(295.393951 0) scale(0.996264)"/>
    <use xlink:href="#HFBRBX10-61" transform="translate(332.477362 0) scale(0.996264)"/>
    <use xlink:href="#HFBRBX10-74" transform="translate(384.781556 0) scale(0.996264)"/>
    <use xlink:href="#HFBRBX10-65" transform="translate(425.04746 0) scale(0.996264)"/>
    <use xlink:href="#HFBRBX10-6f" transform="translate(510.671302 0) scale(0.996264)"/>
    <use xlink:href="#HFBRBX10-66" transform="translate(565.466126 0) scale(0.996264)"/>
    <use xlink:href="#HFBRBX10-74" transform="translate(633.655241 0) scale(0.996264)"/>
    <use xlink:href="#HFBRBX10-68" transform="translate(673.921145 0) scale(0.996264)"/>
    <use xlink:href="#HFBRBX10-65" transform="translate(729.822933 0) scale(0.996264)"/>
    <use xlink:href="#HFBRBX10-69" transform="translate(815.446774 0) scale(0.996264)"/>
    <use xlink:href="#HFBRBX10-6e" transform="translate(840.906993 0) scale(0.996264)"/>
    <use xlink:href="#HFBRBX10-74" transform="translate(896.808781 0) scale(0.996264)"/>
    <use xlink:href="#HFBRBX10-65" transform="translate(937.074685 0) scale(0.996264)"/>
    <use xlink:href="#HFBRBX10-67" transform="translate(987.995137 0) scale(0.996264)"/>
    <use xlink:href="#HFBRBX10-72" transform="translate(1043.896925 0) scale(0.996264)"/>
    <use xlink:href="#HFBRBX10-61" transform="translate(1080.980336 0) scale(0.996264)"/>
    <use xlink:href="#HFBRBX10-74" transform="translate(1133.284531 0) scale(0.996264)"/>
    <use xlink:href="#HFBRBX10-69" transform="translate(1173.550434 0) scale(0.996264)"/>
    <use xlink:href="#HFBRBX10-6f" transform="translate(1199.010653 0) scale(0.996264)"/>
    <use xlink:href="#HFBRBX10-6e" transform="translate(1253.805477 0) scale(0.996264)"/>
    <use xlink:href="#HFBRBX10-63" transform="translate(1344.410654 0) scale(0.996264)"/>
    <use xlink:href="#HFBRBX10-69" transform="translate(1393.117165 0) scale(0.996264)"/>
    <use xlink:href="#HFBRBX10-72" transform="translate(1418.577384 0) scale(0.996264)"/>
    <use xlink:href="#HFBRBX10-63" transform="translate(1455.660794 0) scale(0.996264)"/>
    <use xlink:href="#HFBRBX10-75" transform="translate(1504.367305 0) scale(0.996264)"/>
    <use xlink:href="#HFBRBX10-69" transform="translate(1560.269093 0) scale(0.996264)"/>
    <use xlink:href="#HFBRBX10-74" transform="translate(1585.729312 0) scale(0.996264)"/>
   </g>
  </g>
 </g>
 <defs>
  <clipPath id="pe18b6b9bb2">
   <rect x="63" y="51.84" width="390.6" height="326.16"/>
  </clipPath>
 </defs>
</svg>
