<?xml version="1.0" encoding="utf-8" standalone="no"?>
<!DOCTYPE svg PUBLIC "-//W3C//DTD SVG 1.1//EN"
  "http://www.w3.org/Graphics/SVG/1.1/DTD/svg11.dtd">
<svg xmlns:xlink="http://www.w3.org/1999/xlink" width="504pt" height="432pt" viewBox="0 0 504 432" xmlns="http://www.w3.org/2000/svg" version="1.1">
 <metadata>
  <rdf:RDF xmlns:dc="http://purl.org/dc/elements/1.1/" xmlns:cc="http://creativecommons.org/ns#" xmlns:rdf="http://www.w3.org/1999/02/22-rdf-syntax-ns#">
   <cc:Work>
    <dc:type rdf:resource="http://purl.org/dc/dcmitype/StillImage"/>
    <dc:date>2023-06-27T11:39:42.959642</dc:date>
    <dc:format>image/svg+xml</dc:format>
    <dc:creator>
     <cc:Agent>
      <dc:title>Matplotlib v3.6.1, https://matplotlib.org/</dc:title>
     </cc:Agent>
    </dc:creator>
   </cc:Work>
  </rdf:RDF>
 </metadata>
 <defs>
  <style type="text/css">*{stroke-linejoin: round; stroke-linecap: butt}</style>
 </defs>
 <g id="figure_1">
  <g id="patch_1">
   <path d="M 0 432 
L 504 432 
L 504 0 
L 0 0 
L 0 432 
z
" style="fill: none"/>
  </g>
  <g id="axes_1">
   <g id="patch_2">
    <path d="M 63 378 
L 453.6 378 
L 453.6 51.84 
L 63 51.84 
L 63 378 
z
" style="fill: none"/>
   </g>
   <g id="PathCollection_1">
    <defs>
     <path id="m204b5e5b2f" d="M -0 8.660254 
L 8.660254 -8.660254 
L -8.660254 -8.660254 
z
" style="stroke: #1e90ff"/>
    </defs>
    <g clip-path="url(#p79b497a6d7)">
     <use xlink:href="#m204b5e5b2f" x="248.758745" y="67.328584" style="fill: #1e90ff; stroke: #1e90ff"/>
    </g>
   </g>
   <g id="LineCollection_1">
    <path d="M 248.758745 140.723639 
L 248.758745 67.328584 
" clip-path="url(#p79b497a6d7)" style="fill: none; stroke-dasharray: 4.625,2; stroke-dashoffset: 0; stroke: #1e90ff; stroke-width: 1.25"/>
   </g>
   <g id="LineCollection_2">
    <path d="M 225.201181 103.318011 
L 225.201181 67.328584 
" clip-path="url(#p79b497a6d7)" style="fill: none; stroke-dasharray: 4.625,2; stroke-dashoffset: 0; stroke: #00008b; stroke-width: 1.25"/>
   </g>
   <g id="line2d_1">
    <path d="M 63 372.731582 
L 68.888442 373.447892 
L 70.851256 370.745685 
L 72.81407 372.338438 
L 74.776884 369.797975 
L 76.739698 372.902007 
L 78.702513 374.04395 
L 80.665327 371.290453 
L 82.628141 370.030157 
L 84.590955 372.205022 
L 86.553769 370.601731 
L 88.516583 372.623669 
L 90.479397 370.427889 
L 92.442211 373.137773 
L 96.367839 372.059956 
L 98.330653 366.766385 
L 100.293467 370.861714 
L 102.256281 372.693738 
L 104.219095 370.148555 
L 106.18191 368.018324 
L 108.144724 369.808189 
L 110.107538 371.968711 
L 112.070352 368.340483 
L 114.033166 371.061257 
L 115.99598 369.314901 
L 117.958794 368.544611 
L 119.921608 371.108004 
L 121.884422 368.307333 
L 123.847236 368.932346 
L 125.81005 368.624611 
L 127.772864 367.129366 
L 129.735678 368.514216 
L 131.698492 365.743734 
L 133.661307 365.461396 
L 135.624121 367.401452 
L 137.586935 364.365151 
L 139.549749 364.271607 
L 141.512563 362.42122 
L 143.475377 364.536681 
L 145.438191 361.853207 
L 147.401005 361.132327 
L 149.363819 358.905794 
L 151.326633 359.756684 
L 153.289447 358.299247 
L 155.252261 356.126337 
L 157.215075 357.064436 
L 159.177889 353.932137 
L 161.140704 345.28317 
L 163.103518 350.631758 
L 165.066332 347.122876 
L 167.029146 346.981492 
L 168.99196 347.429899 
L 170.954774 345.296613 
L 172.917588 347.660215 
L 174.880402 342.122879 
L 176.843216 334.784957 
L 178.80603 335.492611 
L 180.768844 339.665685 
L 182.731658 328.443014 
L 184.694472 325.165593 
L 186.657286 326.906003 
L 188.620101 318.586411 
L 190.582915 322.377613 
L 192.545729 315.492392 
L 194.508543 312.74654 
L 196.471357 305.194897 
L 198.434171 314.974906 
L 200.396985 295.113647 
L 202.359799 298.216868 
L 204.322613 304.877549 
L 206.285427 290.513572 
L 208.248241 289.302148 
L 210.211055 288.26426 
L 212.173869 291.477941 
L 214.136683 281.15336 
L 216.099497 271.860655 
L 218.062312 273.967959 
L 220.025126 273.696209 
L 221.98794 259.984767 
L 223.950754 271.715003 
L 225.913568 270.957872 
L 227.876382 254.498088 
L 229.839196 263.213081 
L 231.80201 258.791139 
L 233.764824 253.522343 
L 235.727638 246.729018 
L 237.690452 243.160384 
L 239.653266 259.83829 
L 241.61608 254.080215 
L 243.578894 251.595247 
L 245.541709 227.257637 
L 247.504523 235.501884 
L 249.467337 238.071776 
L 251.430151 227.047675 
L 253.392965 232.499108 
L 255.355779 223.489649 
L 257.318593 227.45187 
L 259.281407 224.502454 
L 261.244221 246.892087 
L 263.207035 244.486332 
L 265.169849 228.793419 
L 267.132663 238.670721 
L 269.095477 253.522862 
L 273.021106 226.796792 
L 274.98392 241.673857 
L 276.946734 239.974124 
L 278.909548 246.125189 
L 280.872362 254.15838 
L 282.835176 253.719644 
L 284.79799 253.735525 
L 286.760804 263.850641 
L 288.723618 258.903758 
L 290.686432 263.621699 
L 292.649246 264.26381 
L 294.61206 273.717377 
L 296.574874 260.681531 
L 298.537688 262.697966 
L 300.500503 265.56278 
L 302.463317 274.643796 
L 304.426131 276.213121 
L 306.388945 283.874477 
L 308.351759 283.468197 
L 310.314573 276.165008 
L 312.277387 295.354898 
L 314.240201 291.302021 
L 316.203015 299.740033 
L 318.165829 297.119048 
L 320.128643 305.523497 
L 322.091457 307.158999 
L 324.054271 310.740162 
L 326.017085 322.120925 
L 327.979899 309.889106 
L 329.942714 317.555521 
L 331.905528 323.306315 
L 333.868342 323.684421 
L 335.831156 317.497704 
L 337.79397 329.373807 
L 339.756784 331.988903 
L 341.719598 332.113888 
L 343.682412 335.885348 
L 345.645226 343.781206 
L 347.60804 327.812611 
L 349.570854 350.303987 
L 351.533668 346.155129 
L 353.496482 346.68654 
L 355.459296 343.369593 
L 357.422111 348.301581 
L 359.384925 352.181322 
L 361.347739 350.530475 
L 363.310553 350.865841 
L 365.273367 354.304782 
L 367.236181 354.860543 
L 369.198995 357.545423 
L 371.161809 359.24114 
L 373.124623 360.200127 
L 375.087437 363.170211 
L 377.050251 363.106528 
L 379.013065 364.445058 
L 380.975879 360.27927 
L 382.938693 365.098851 
L 384.901508 367.050979 
L 386.864322 367.157536 
L 388.827136 362.865388 
L 390.78995 364.50209 
L 392.752764 367.06072 
L 394.715578 366.157276 
L 396.678392 366.273754 
L 398.641206 368.073649 
L 400.60402 370.549076 
L 402.566834 369.921567 
L 404.529648 370.186197 
L 406.492462 365.997076 
L 408.455276 369.286457 
L 410.41809 366.462956 
L 412.380905 370.642086 
L 414.343719 372.283614 
L 416.306533 370.093301 
L 418.269347 367.235992 
L 420.232161 373.013426 
L 422.194975 372.140134 
L 424.157789 370.884996 
L 426.120603 371.017365 
L 428.083417 372.218344 
L 432.009045 373.862622 
L 435.934673 371.506234 
L 439.860302 372.300044 
L 441.823116 373.747363 
L 443.78593 371.717898 
L 445.748744 373.462524 
L 447.711558 373.837864 
L 449.674372 373.595779 
L 451.637186 369.52297 
L 453.6 372.596584 
L 453.6 372.596584 
" clip-path="url(#p79b497a6d7)" style="fill: none; stroke: #add8e6; stroke-width: 3; stroke-linecap: square"/>
   </g>
   <g id="matplotlib.axis_1">
    <g id="xtick_1">
     <g id="line2d_2">
      <defs>
       <path id="me7512b09af" d="M 0 0 
L 0 3.5 
" style="stroke: #000000; stroke-width: 0.8"/>
      </defs>
      <g>
       <use xlink:href="#me7512b09af" x="95.55" y="378" style="stroke: #000000; stroke-width: 0.8"/>
      </g>
     </g>
     <g id="text_1">
      <!-- $\mathdefault{−150}$ -->
      <g transform="translate(77.970188 395.37774) scale(0.15 -0.15)">
       <defs>
        <path id="HFBRSY10-0" d="M 627 1797 
C 512 1759 499 1586 627 1554 
C 659 1541 698 1548 736 1548 
L 4141 1548 
C 4218 1548 4339 1522 4403 1586 
C 4474 1656 4435 1784 4333 1804 
C 4256 1816 4166 1804 4090 1804 
L 730 1804 
C 698 1804 659 1810 627 1797 
z
" transform="scale(0.015625)"/>
        <path id="HFBR17-31" d="M 621 3841 
L 621 3520 
C 973 3520 1216 3584 1498 3706 
L 1498 321 
L 659 321 
L 659 0 
L 2752 0 
L 2752 321 
L 1914 321 
L 1914 4288 
C 1760 4288 1786 4247 1664 4152 
C 1402 3950 1037 3841 621 3841 
z
" transform="scale(0.015625)"/>
        <path id="HFBR17-35" d="M 538 4245 
L 538 1949 
L 781 1949 
C 813 1949 858 1943 883 1956 
C 915 1975 934 2020 954 2046 
C 998 2103 1050 2148 1101 2193 
C 1331 2386 1773 2463 2067 2315 
C 2470 2123 2547 1614 2515 1216 
C 2496 964 2419 733 2272 585 
C 1933 224 1363 224 947 435 
C 742 538 570 699 442 891 
L 435 891 
C 416 859 269 634 269 595 
C 269 569 288 550 301 531 
C 493 306 742 132 1030 36 
C 1600 -144 2240 -3 2643 460 
C 3123 1019 3059 1930 2502 2417 
C 2336 2572 2106 2681 1830 2706 
C 1459 2758 1126 2578 928 2411 
L 928 3904 
L 2746 3904 
L 2746 4245 
L 538 4245 
z
" transform="scale(0.015625)"/>
        <path id="HFBR17-30" d="M 947 4087 
C 762 3959 634 3785 538 3586 
C 307 3136 282 2609 282 2037 
C 282 1317 410 656 768 276 
C 1107 -77 1645 -167 2099 19 
C 2381 129 2586 366 2714 623 
C 2944 1080 2970 1626 2970 2191 
C 2970 2371 2963 2551 2944 2731 
C 2899 3162 2752 3637 2515 3901 
C 2125 4332 1427 4428 947 4087 
z
M 2234 3721 
C 2534 3400 2560 2783 2560 2198 
L 2560 1851 
C 2560 1555 2509 1170 2445 951 
C 2355 649 2208 431 1914 296 
C 1555 167 1184 289 979 572 
C 704 938 691 1587 691 2159 
C 691 2699 698 3297 960 3650 
C 1248 4036 1869 4100 2234 3721 
z
" transform="scale(0.015625)"/>
       </defs>
       <use xlink:href="#HFBRSY10-0" transform="scale(0.996264)"/>
       <use xlink:href="#HFBR17-31" transform="translate(77.487468 0) scale(0.996264)"/>
       <use xlink:href="#HFBR17-35" transform="translate(128.130685 0) scale(0.996264)"/>
       <use xlink:href="#HFBR17-30" transform="translate(178.773903 0) scale(0.996264)"/>
      </g>
     </g>
    </g>
    <g id="xtick_2">
     <g id="line2d_3">
      <g>
       <use xlink:href="#me7512b09af" x="149.8" y="378" style="stroke: #000000; stroke-width: 0.8"/>
      </g>
     </g>
     <g id="text_2">
      <!-- $\mathdefault{−100}$ -->
      <g transform="translate(132.220188 395.37774) scale(0.15 -0.15)">
       <use xlink:href="#HFBRSY10-0" transform="scale(0.996264)"/>
       <use xlink:href="#HFBR17-31" transform="translate(77.487468 0) scale(0.996264)"/>
       <use xlink:href="#HFBR17-30" transform="translate(128.130685 0) scale(0.996264)"/>
       <use xlink:href="#HFBR17-30" transform="translate(178.773903 0) scale(0.996264)"/>
      </g>
     </g>
    </g>
    <g id="xtick_3">
     <g id="line2d_4">
      <g>
       <use xlink:href="#me7512b09af" x="204.05" y="378" style="stroke: #000000; stroke-width: 0.8"/>
      </g>
     </g>
     <g id="text_3">
      <!-- $\mathdefault{−50}$ -->
      <g transform="translate(190.392939 395.37774) scale(0.15 -0.15)">
       <use xlink:href="#HFBRSY10-0" transform="scale(0.996264)"/>
       <use xlink:href="#HFBR17-35" transform="translate(77.487468 0) scale(0.996264)"/>
       <use xlink:href="#HFBR17-30" transform="translate(128.130685 0) scale(0.996264)"/>
      </g>
     </g>
    </g>
    <g id="xtick_4">
     <g id="line2d_5">
      <g>
       <use xlink:href="#me7512b09af" x="258.3" y="378" style="stroke: #000000; stroke-width: 0.8"/>
      </g>
     </g>
     <g id="text_4">
      <!-- $\mathdefault{0}$ -->
      <g transform="translate(254.377248 395.37774) scale(0.15 -0.15)">
       <use xlink:href="#HFBR17-30" transform="scale(0.996264)"/>
      </g>
     </g>
    </g>
    <g id="xtick_5">
     <g id="line2d_6">
      <g>
       <use xlink:href="#me7512b09af" x="312.55" y="378" style="stroke: #000000; stroke-width: 0.8"/>
      </g>
     </g>
     <g id="text_5">
      <!-- $\mathdefault{50}$ -->
      <g transform="translate(304.704497 395.37774) scale(0.15 -0.15)">
       <use xlink:href="#HFBR17-35" transform="scale(0.996264)"/>
       <use xlink:href="#HFBR17-30" transform="translate(50.643218 0) scale(0.996264)"/>
      </g>
     </g>
    </g>
    <g id="xtick_6">
     <g id="line2d_7">
      <g>
       <use xlink:href="#me7512b09af" x="366.8" y="378" style="stroke: #000000; stroke-width: 0.8"/>
      </g>
     </g>
     <g id="text_6">
      <!-- $\mathdefault{100}$ -->
      <g transform="translate(355.031745 395.37774) scale(0.15 -0.15)">
       <use xlink:href="#HFBR17-31" transform="scale(0.996264)"/>
       <use xlink:href="#HFBR17-30" transform="translate(50.643218 0) scale(0.996264)"/>
       <use xlink:href="#HFBR17-30" transform="translate(101.286436 0) scale(0.996264)"/>
      </g>
     </g>
    </g>
    <g id="xtick_7">
     <g id="line2d_8">
      <g>
       <use xlink:href="#me7512b09af" x="421.05" y="378" style="stroke: #000000; stroke-width: 0.8"/>
      </g>
     </g>
     <g id="text_7">
      <!-- $\mathdefault{150}$ -->
      <g transform="translate(409.281745 395.37774) scale(0.15 -0.15)">
       <use xlink:href="#HFBR17-31" transform="scale(0.996264)"/>
       <use xlink:href="#HFBR17-35" transform="translate(50.643218 0) scale(0.996264)"/>
       <use xlink:href="#HFBR17-30" transform="translate(101.286436 0) scale(0.996264)"/>
      </g>
     </g>
    </g>
    <g id="text_8">
     <!-- Preferred orientation of neurons $(^\circ)$ -->
     <g transform="translate(132.910948 418.444335) scale(0.175 -0.175)">
      <defs>
       <path id="HFBR17-50" d="M 512 4480 
L 512 32 
L 960 32 
L 960 1920 
L 1862 1920 
C 2003 1920 2144 1920 2278 1920 
C 2752 1959 3149 2153 3418 2443 
C 3693 2746 3814 3210 3635 3603 
C 3430 4099 2944 4415 2323 4480 
C 2138 4480 1946 4480 1760 4480 
L 512 4480 
z
M 954 2254 
L 954 4139 
L 1830 4139 
C 2387 4139 2893 4075 3149 3690 
C 3322 3432 3347 3072 3206 2795 
C 3130 2646 3014 2531 2874 2447 
C 2560 2254 2195 2254 1843 2254 
L 954 2254 
z
" transform="scale(0.015625)"/>
       <path id="HFBR17-72" d="M 800 2224 
L 794 2224 
L 794 3033 
L 410 3033 
L 410 0 
L 813 0 
L 813 1465 
C 813 1562 813 1658 826 1754 
C 915 2301 1389 2706 2010 2706 
L 2010 3072 
C 1600 3072 1222 2873 979 2545 
C 909 2449 832 2339 800 2224 
z
" transform="scale(0.015625)"/>
       <path id="HFBR17-65" d="M 2675 700 
C 2528 591 2483 533 2298 436 
C 1907 224 1446 224 1114 459 
C 794 689 608 1065 608 1600 
L 2720 1600 
C 2720 2075 2611 2487 2342 2776 
C 2048 3065 1587 3155 1197 3033 
C 1050 2988 915 2911 794 2814 
C 390 2487 218 1966 224 1458 
C 237 790 691 122 1363 -20 
C 1715 -91 2086 -13 2400 147 
C 2458 179 2669 295 2694 353 
C 2714 385 2675 700 2675 700 
z
M 2381 1850 
L 640 1850 
C 717 2319 1101 2814 1619 2756 
C 2042 2718 2266 2416 2349 2037 
C 2362 1972 2368 1915 2381 1850 
z
" transform="scale(0.015625)"/>
       <path id="HFBR17-66" d="M 678 3009 
L 128 3009 
L 128 2688 
L 678 2688 
L 678 -32 
L 1082 -32 
L 1082 2688 
L 1875 2688 
L 1875 3009 
L 1075 3009 
L 1075 3570 
C 1075 3660 1056 3771 1094 3861 
C 1229 4144 1683 4196 2054 4132 
C 2131 4119 2202 4093 2278 4080 
L 2278 4441 
C 1843 4512 1363 4512 1005 4219 
C 947 4168 896 4118 851 4053 
C 717 3888 678 3704 678 3417 
L 678 3009 
z
" transform="scale(0.015625)"/>
       <path id="HFBR17-64" d="M 2278 4460 
L 2278 2648 
C 2157 2783 2035 2911 1869 2988 
C 1299 3226 749 2918 467 2410 
C 141 1806 179 1009 570 443 
C 845 51 1299 -141 1779 32 
C 1965 103 2189 289 2266 456 
L 2272 456 
L 2272 0 
L 2682 0 
L 2682 4460 
L 2278 4460 
z
M 2253 2397 
C 2285 2339 2272 2262 2272 2198 
L 2272 874 
C 2272 726 2266 713 2182 598 
C 2067 424 1888 302 1677 283 
C 1370 257 1056 405 877 656 
C 774 803 717 983 685 1163 
C 672 1234 672 1298 666 1369 
C 627 1793 717 2294 1088 2564 
C 1152 2609 1222 2641 1293 2673 
C 1664 2815 2074 2776 2253 2397 
z
" transform="scale(0.015625)"/>
       <path id="HFBR17-6f" d="M 685 2693 
C 115 2127 51 1144 544 508 
C 614 411 698 328 794 257 
C 1030 64 1376 -77 1779 -32 
C 2419 45 2861 566 2995 1112 
C 3174 1877 2797 2731 2093 3001 
C 1542 3226 992 3001 685 2693 
z
M 2285 2519 
C 2592 2242 2650 1799 2624 1407 
C 2605 1105 2522 790 2310 565 
C 1965 192 1325 192 954 552 
C 762 758 646 1053 627 1407 
C 595 1927 723 2480 1235 2686 
C 1613 2853 2048 2731 2285 2519 
z
" transform="scale(0.015625)"/>
       <path id="HFBR17-69" d="M 410 4480 
L 410 4075 
L 813 4075 
L 813 4480 
L 410 4480 
z
M 410 3033 
L 410 0 
L 813 0 
L 813 3033 
L 410 3033 
z
" transform="scale(0.015625)"/>
       <path id="HFBR17-6e" d="M 806 2386 
L 800 2386 
L 800 3033 
L 410 3033 
L 410 0 
L 819 0 
L 819 1404 
C 819 1718 800 2040 941 2334 
C 1011 2482 1120 2610 1267 2687 
C 1389 2745 1517 2745 1651 2732 
C 1843 2732 2029 2681 2150 2520 
C 2266 2372 2272 2180 2272 2000 
L 2272 0 
L 2682 0 
L 2682 1719 
C 2682 2040 2714 2392 2560 2681 
C 2438 2912 2202 3021 1952 3053 
C 1824 3072 1690 3072 1562 3047 
C 1229 2976 922 2707 806 2386 
z
" transform="scale(0.015625)"/>
       <path id="HFBR17-74" d="M 691 3872 
L 691 3009 
L 70 3009 
L 70 2688 
L 685 2688 
L 685 961 
C 685 677 666 335 851 97 
C 960 -45 1107 -83 1331 -64 
C 1517 -64 1702 -25 1875 42 
C 1933 68 2144 161 2170 207 
C 2182 233 2099 518 2099 518 
L 1946 401 
C 1747 278 1350 149 1184 382 
C 1037 582 1075 880 1075 1112 
L 1075 2688 
L 2067 2688 
L 2067 3009 
L 1075 3009 
L 1075 3872 
L 691 3872 
z
" transform="scale(0.015625)"/>
       <path id="HFBR17-61" d="M 506 2497 
C 614 2551 704 2630 813 2683 
C 986 2762 1165 2816 1357 2816 
C 1446 2822 1549 2835 1638 2816 
C 1798 2790 1939 2693 2035 2557 
C 2131 2401 2170 2265 2170 2014 
L 2170 1729 
C 1862 1729 1555 1703 1261 1625 
C 890 1541 486 1352 352 1014 
C 218 690 358 261 646 66 
C 787 -32 954 -32 1120 -19 
C 1389 0 1658 65 1888 208 
C 1997 272 2106 357 2170 467 
L 2176 467 
L 2176 13 
L 2579 13 
L 2579 1721 
C 2579 1908 2598 2109 2560 2297 
C 2522 2555 2362 2769 2176 2918 
C 1958 3086 1709 3143 1376 3118 
C 1069 3118 832 3040 602 2929 
C 570 2916 506 2895 486 2857 
C 467 2830 480 2785 480 2752 
C 493 2667 499 2582 506 2497 
z
M 2170 1536 
L 2170 1048 
C 2170 900 2176 765 2093 637 
C 2022 534 1926 463 1824 412 
C 1459 225 902 283 742 592 
C 614 816 749 1080 934 1228 
C 1210 1440 1747 1536 2170 1536 
z
" transform="scale(0.015625)"/>
       <path id="HFBR17-75" d="M 410 3008 
L 410 830 
C 410 643 416 457 493 283 
C 614 33 870 -64 1133 -64 
C 1485 -64 1837 52 2093 303 
C 2163 373 2227 444 2272 534 
L 2278 534 
L 2278 -25 
L 2682 -25 
L 2682 3008 
L 2272 3008 
L 2272 1466 
C 2272 1196 2310 900 2170 656 
C 2067 476 1888 335 1690 271 
C 1555 232 1414 232 1274 245 
C 1139 258 992 271 902 386 
C 774 541 819 907 819 1132 
L 819 3008 
L 410 3008 
z
" transform="scale(0.015625)"/>
       <path id="HFBR17-73" d="M 198 617 
C 186 527 166 444 154 354 
C 141 283 122 251 186 219 
C 448 65 762 -19 1133 -51 
C 1549 -90 2074 7 2278 418 
C 2336 534 2368 662 2374 791 
C 2400 1253 2035 1549 1722 1658 
C 1370 1793 890 1748 646 2018 
C 518 2166 512 2385 634 2539 
C 890 2899 1715 2744 2042 2584 
C 2093 2558 2138 2526 2195 2513 
L 2253 2860 
C 1952 2995 1690 3072 1274 3072 
C 915 3072 589 2989 384 2783 
C 179 2571 109 2217 230 1948 
C 346 1690 589 1523 851 1440 
C 1229 1305 1658 1369 1907 1061 
C 2048 881 2022 611 1862 450 
C 1555 167 902 270 544 424 
C 422 476 314 553 198 617 
z
" transform="scale(0.015625)"/>
       <path id="HFBR17-28" d="M 2189 -1408 
C 2138 -1350 2074 -1298 2016 -1247 
C 1965 -1202 1920 -1151 1875 -1099 
C 1235 -392 902 739 954 1941 
C 979 2596 1107 3264 1414 3856 
C 1555 4119 1798 4492 2016 4678 
C 2074 4730 2138 4781 2189 4839 
L 1978 4839 
C 1946 4839 1901 4845 1869 4833 
C 1792 4794 1600 4601 1574 4575 
C 960 3959 595 3027 544 1941 
C 512 1163 640 372 986 -322 
C 1139 -630 1344 -913 1587 -1157 
C 1651 -1221 1792 -1363 1869 -1401 
C 1901 -1414 1946 -1408 1978 -1408 
L 2189 -1408 
z
" transform="scale(0.015625)"/>
       <path id="HFBRSY10-e" d="M 582 2413 
C 250 1933 282 1248 698 819 
C 858 659 1050 550 1267 486 
C 1773 339 2266 570 2509 832 
C 2938 1293 2944 2029 2541 2502 
C 2394 2682 2182 2803 1965 2874 
C 1389 3072 832 2758 582 2413 
z
M 1894 2630 
C 2029 2586 2150 2522 2253 2432 
C 2643 2080 2694 1472 2368 1062 
C 2202 864 1978 723 1658 698 
C 1357 685 1107 794 941 941 
C 550 1293 499 1901 826 2310 
C 902 2400 992 2483 1094 2541 
C 1318 2669 1606 2726 1894 2630 
z
" transform="scale(0.015625)"/>
       <path id="HFBR17-29" d="M 320 4839 
C 371 4781 435 4730 493 4678 
C 544 4633 589 4582 634 4530 
C 1190 3888 1510 3014 1555 1941 
C 1587 1144 1466 315 1101 -405 
C 979 -656 819 -894 634 -1099 
C 589 -1151 544 -1202 493 -1247 
C 435 -1298 371 -1350 320 -1408 
L 531 -1408 
C 563 -1408 608 -1414 640 -1401 
C 717 -1363 909 -1170 934 -1144 
C 1549 -527 1914 405 1965 1491 
C 1997 2268 1869 3059 1523 3753 
C 1370 4061 1165 4344 922 4588 
C 858 4653 717 4794 640 4833 
C 608 4845 563 4839 531 4839 
L 320 4839 
z
" transform="scale(0.015625)"/>
      </defs>
      <use xlink:href="#HFBR17-50" transform="scale(0.996264)"/>
      <use xlink:href="#HFBR17-72" transform="translate(62.888907 0) scale(0.996264)"/>
      <use xlink:href="#HFBR17-65" transform="translate(94.852266 0) scale(0.996264)"/>
      <use xlink:href="#HFBR17-66" transform="translate(139.683934 0) scale(0.996264)"/>
      <use xlink:href="#HFBR17-65" transform="translate(169.986878 0) scale(0.996264)"/>
      <use xlink:href="#HFBR17-72" transform="translate(214.818545 0) scale(0.996264)"/>
      <use xlink:href="#HFBR17-72" transform="translate(246.781904 0) scale(0.996264)"/>
      <use xlink:href="#HFBR17-65" transform="translate(278.745263 0) scale(0.996264)"/>
      <use xlink:href="#HFBR17-64" transform="translate(323.576931 0) scale(0.996264)"/>
      <use xlink:href="#HFBR17-6f" transform="translate(403.194639 0) scale(0.996264)"/>
      <use xlink:href="#HFBR17-72" transform="translate(450.932128 0) scale(0.996264)"/>
      <use xlink:href="#HFBR17-69" transform="translate(482.895487 0) scale(0.996264)"/>
      <use xlink:href="#HFBR17-65" transform="translate(501.990445 0) scale(0.996264)"/>
      <use xlink:href="#HFBR17-6e" transform="translate(546.822113 0) scale(0.996264)"/>
      <use xlink:href="#HFBR17-74" transform="translate(594.97461 0) scale(0.996264)"/>
      <use xlink:href="#HFBR17-61" transform="translate(631.088998 0) scale(0.996264)"/>
      <use xlink:href="#HFBR17-74" transform="translate(677.58108 0) scale(0.996264)"/>
      <use xlink:href="#HFBR17-69" transform="translate(713.695468 0) scale(0.996264)"/>
      <use xlink:href="#HFBR17-6f" transform="translate(732.790427 0) scale(0.996264)"/>
      <use xlink:href="#HFBR17-6e" transform="translate(783.433645 0) scale(0.996264)"/>
      <use xlink:href="#HFBR17-6f" transform="translate(863.051353 0) scale(0.996264)"/>
      <use xlink:href="#HFBR17-66" transform="translate(913.694571 0) scale(0.996264)"/>
      <use xlink:href="#HFBR17-6e" transform="translate(975.462727 0) scale(0.996264)"/>
      <use xlink:href="#HFBR17-65" transform="translate(1023.615224 0) scale(0.996264)"/>
      <use xlink:href="#HFBR17-75" transform="translate(1068.446892 0) scale(0.996264)"/>
      <use xlink:href="#HFBR17-72" transform="translate(1116.599389 0) scale(0.996264)"/>
      <use xlink:href="#HFBR17-6f" transform="translate(1148.562747 0) scale(0.996264)"/>
      <use xlink:href="#HFBR17-6e" transform="translate(1199.205965 0) scale(0.996264)"/>
      <use xlink:href="#HFBR17-73" transform="translate(1247.358462 0) scale(0.996264)"/>
      <use xlink:href="#HFBR17-28" transform="translate(1317.262703 0) scale(0.996264)"/>
      <use xlink:href="#HFBRSY10-e" transform="translate(1356.282912 36.153639) scale(0.697382)"/>
      <use xlink:href="#HFBR17-29" transform="translate(1391.650254 0) scale(0.996264)"/>
     </g>
    </g>
   </g>
   <g id="matplotlib.axis_2">
    <g id="ytick_1">
     <g id="line2d_9">
      <defs>
       <path id="m8e8912f1f2" d="M 0 0 
L -3.5 0 
" style="stroke: #000000; stroke-width: 0.8"/>
      </defs>
      <g>
       <use xlink:href="#m8e8912f1f2" x="63" y="377.100264" style="stroke: #000000; stroke-width: 0.8"/>
      </g>
     </g>
     <g id="text_9">
      <!-- $\mathdefault{0}$ -->
      <g transform="translate(48.154497 382.289134) scale(0.15 -0.15)">
       <use xlink:href="#HFBR17-30" transform="scale(0.996264)"/>
      </g>
     </g>
    </g>
    <g id="ytick_2">
     <g id="line2d_10">
      <g>
       <use xlink:href="#m8e8912f1f2" x="63" y="341.110837" style="stroke: #000000; stroke-width: 0.8"/>
      </g>
     </g>
     <g id="text_10">
      <!-- $\mathdefault{10}$ -->
      <g transform="translate(40.308994 346.299707) scale(0.15 -0.15)">
       <use xlink:href="#HFBR17-31" transform="scale(0.996264)"/>
       <use xlink:href="#HFBR17-30" transform="translate(50.643218 0) scale(0.996264)"/>
      </g>
     </g>
    </g>
    <g id="ytick_3">
     <g id="line2d_11">
      <g>
       <use xlink:href="#m8e8912f1f2" x="63" y="305.12141" style="stroke: #000000; stroke-width: 0.8"/>
      </g>
     </g>
     <g id="text_11">
      <!-- $\mathdefault{20}$ -->
      <g transform="translate(40.308994 310.31028) scale(0.15 -0.15)">
       <defs>
        <path id="HFBR17-32" d="M 467 2942 
C 557 3302 710 3711 1075 3872 
C 1229 3936 1395 3949 1562 3936 
C 1875 3910 2182 3782 2374 3526 
C 2515 3333 2566 3096 2541 2866 
C 2464 2198 1811 1718 1389 1359 
C 1146 1154 454 500 454 500 
L 346 397 
C 288 340 282 340 282 224 
L 282 0 
L 2970 0 
L 2970 360 
L 653 360 
C 858 559 1709 1313 1824 1403 
C 2195 1706 2611 2008 2835 2446 
C 3085 2948 2976 3580 2554 3953 
C 2298 4179 1946 4288 1606 4288 
C 1293 4288 973 4224 723 4026 
C 531 3865 371 3628 282 3384 
C 262 3346 230 3282 237 3237 
C 243 3199 282 3167 301 3141 
C 352 3077 403 3000 467 2942 
z
" transform="scale(0.015625)"/>
       </defs>
       <use xlink:href="#HFBR17-32" transform="scale(0.996264)"/>
       <use xlink:href="#HFBR17-30" transform="translate(50.643218 0) scale(0.996264)"/>
      </g>
     </g>
    </g>
    <g id="ytick_4">
     <g id="line2d_12">
      <g>
       <use xlink:href="#m8e8912f1f2" x="63" y="269.131983" style="stroke: #000000; stroke-width: 0.8"/>
      </g>
     </g>
     <g id="text_12">
      <!-- $\mathdefault{30}$ -->
      <g transform="translate(40.308994 274.320853) scale(0.15 -0.15)">
       <defs>
        <path id="HFBR17-33" d="M 518 3246 
C 570 3323 608 3407 666 3484 
C 800 3664 986 3805 1197 3889 
C 1530 4024 2016 4024 2278 3726 
C 2509 3461 2413 3047 2202 2802 
C 2010 2576 1760 2466 1389 2466 
C 1280 2466 1178 2434 1069 2434 
L 1069 2112 
L 1510 2112 
C 1882 2112 2125 2055 2330 1836 
C 2682 1463 2650 801 2259 461 
C 2061 294 1786 242 1530 261 
C 1030 300 589 564 294 975 
C 262 911 262 821 250 750 
C 230 647 230 647 294 564 
C 480 313 845 82 1133 -2 
C 1645 -156 2240 -86 2637 306 
C 2714 384 2784 467 2842 557 
C 3078 930 3085 1418 2822 1778 
C 2714 1926 2573 2042 2413 2132 
C 2304 2196 2176 2260 2048 2273 
C 2419 2447 2765 2741 2829 3223 
C 2886 3672 2624 3948 2355 4108 
C 1939 4352 1395 4352 966 4139 
C 768 4043 589 3902 454 3728 
C 429 3696 333 3587 333 3535 
C 333 3503 358 3471 378 3445 
L 518 3246 
z
" transform="scale(0.015625)"/>
       </defs>
       <use xlink:href="#HFBR17-33" transform="scale(0.996264)"/>
       <use xlink:href="#HFBR17-30" transform="translate(50.643218 0) scale(0.996264)"/>
      </g>
     </g>
    </g>
    <g id="ytick_5">
     <g id="line2d_13">
      <g>
       <use xlink:href="#m8e8912f1f2" x="63" y="233.142556" style="stroke: #000000; stroke-width: 0.8"/>
      </g>
     </g>
     <g id="text_13">
      <!-- $\mathdefault{40}$ -->
      <g transform="translate(40.308994 238.331426) scale(0.15 -0.15)">
       <defs>
        <path id="HFBR17-34" d="M 134 1152 
L 1984 1152 
L 1984 0 
L 2387 0 
L 2387 1152 
L 3117 1152 
L 3117 1493 
L 2387 1493 
L 2387 4254 
L 2042 4254 
C 1926 4254 1894 4261 1843 4164 
C 1587 3745 237 1649 192 1591 
C 141 1500 134 1507 134 1372 
L 134 1152 
z
M 2003 3896 
L 2003 1493 
L 550 1493 
C 595 1583 659 1666 717 1756 
C 1037 2251 1798 3427 1958 3794 
C 1978 3826 1984 3864 2003 3896 
z
" transform="scale(0.015625)"/>
       </defs>
       <use xlink:href="#HFBR17-34" transform="scale(0.996264)"/>
       <use xlink:href="#HFBR17-30" transform="translate(50.643218 0) scale(0.996264)"/>
      </g>
     </g>
    </g>
    <g id="ytick_6">
     <g id="line2d_14">
      <g>
       <use xlink:href="#m8e8912f1f2" x="63" y="197.153129" style="stroke: #000000; stroke-width: 0.8"/>
      </g>
     </g>
     <g id="text_14">
      <!-- $\mathdefault{50}$ -->
      <g transform="translate(40.308994 202.341999) scale(0.15 -0.15)">
       <use xlink:href="#HFBR17-35" transform="scale(0.996264)"/>
       <use xlink:href="#HFBR17-30" transform="translate(50.643218 0) scale(0.996264)"/>
      </g>
     </g>
    </g>
    <g id="ytick_7">
     <g id="line2d_15">
      <g>
       <use xlink:href="#m8e8912f1f2" x="63" y="161.163702" style="stroke: #000000; stroke-width: 0.8"/>
      </g>
     </g>
     <g id="text_15">
      <!-- $\mathdefault{60}$ -->
      <g transform="translate(40.308994 166.352572) scale(0.15 -0.15)">
       <defs>
        <path id="HFBR17-36" d="M 723 2088 
L 717 2088 
C 717 2673 819 3355 1318 3728 
C 1594 3928 1965 4030 2445 3915 
C 2547 3889 2643 3850 2739 3825 
L 2739 4050 
C 2739 4075 2746 4120 2726 4146 
C 2682 4204 2323 4262 2310 4262 
C 1754 4326 1389 4204 1050 3915 
C 640 3561 403 3041 326 2514 
C 256 2090 314 1408 397 1074 
C 531 579 787 142 1261 -25 
C 1542 -128 1888 -128 2157 1 
C 2374 105 2554 286 2694 480 
C 2918 790 2976 1166 2950 1547 
C 2938 1735 2912 1923 2835 2097 
C 2714 2376 2509 2667 2246 2796 
C 2125 2848 1997 2848 1869 2848 
C 1530 2848 1210 2700 973 2455 
C 870 2352 768 2222 723 2088 
z
M 1562 2529 
C 1805 2548 2061 2510 2246 2336 
C 2490 2105 2534 1777 2534 1460 
C 2534 1246 2541 1025 2477 823 
C 2438 719 2387 629 2330 544 
C 2189 356 2010 264 1715 225 
C 1427 225 1139 340 973 584 
C 870 725 819 899 787 1065 
C 749 1238 723 1417 736 1591 
C 768 2047 1088 2465 1562 2529 
z
" transform="scale(0.015625)"/>
       </defs>
       <use xlink:href="#HFBR17-36" transform="scale(0.996264)"/>
       <use xlink:href="#HFBR17-30" transform="translate(50.643218 0) scale(0.996264)"/>
      </g>
     </g>
    </g>
    <g id="ytick_8">
     <g id="line2d_16">
      <g>
       <use xlink:href="#m8e8912f1f2" x="63" y="125.174275" style="stroke: #000000; stroke-width: 0.8"/>
      </g>
     </g>
     <g id="text_16">
      <!-- $\mathdefault{70}$ -->
      <g transform="translate(40.308994 130.363145) scale(0.15 -0.15)">
       <defs>
        <path id="HFBR17-37" d="M 230 4200 
L 230 3840 
L 2739 3840 
L 2502 3608 
C 2291 3383 2099 3144 1926 2887 
C 1350 2017 1037 980 1037 -64 
L 1466 -64 
C 1466 877 1702 1817 2150 2648 
C 2368 3067 2598 3369 2899 3723 
C 2938 3762 2995 3807 3014 3858 
C 3027 3890 3021 3935 3021 3975 
L 3021 4200 
L 230 4200 
z
" transform="scale(0.015625)"/>
       </defs>
       <use xlink:href="#HFBR17-37" transform="scale(0.996264)"/>
       <use xlink:href="#HFBR17-30" transform="translate(50.643218 0) scale(0.996264)"/>
      </g>
     </g>
    </g>
    <g id="text_17">
     <!-- Firing rate (Hz) -->
     <g transform="translate(32.434637 270.314588) rotate(-90) scale(0.175 -0.175)">
      <defs>
       <path id="HFBR17-46" d="M 512 4437 
L 512 0 
L 960 0 
L 960 2048 
L 3078 2048 
L 3078 2388 
L 960 2388 
L 960 4096 
L 3354 4096 
L 3354 4437 
L 512 4437 
z
" transform="scale(0.015625)"/>
       <path id="HFBR17-67" d="M 2266 767 
L 2272 767 
L 2272 170 
C 2272 -10 2272 -183 2214 -356 
C 2118 -588 1952 -800 1677 -838 
C 1600 -845 1517 -838 1440 -832 
C 1024 -832 749 -707 416 -555 
L 416 -799 
C 416 -922 435 -928 557 -967 
C 883 -1102 1472 -1236 1875 -1134 
C 2323 -1018 2650 -594 2682 -78 
C 2688 12 2682 109 2682 200 
L 2682 3072 
L 2278 3072 
L 2278 2559 
C 2182 2719 2080 2867 1914 2970 
C 1466 3240 858 2944 608 2597 
C 198 2089 122 1302 448 735 
C 512 626 589 523 678 433 
C 986 131 1510 -30 1888 240 
C 2042 343 2221 581 2266 767 
z
M 1632 2752 
C 1690 2752 1754 2752 1811 2739 
C 2042 2694 2170 2488 2246 2282 
C 2291 2141 2278 1987 2278 1839 
C 2278 1518 2272 1184 2163 881 
C 2086 657 1926 457 1677 432 
C 1594 425 1510 438 1427 457 
C 1037 547 768 881 685 1267 
C 570 1826 845 2507 1408 2700 
C 1478 2726 1555 2745 1632 2752 
z
" transform="scale(0.015625)"/>
       <path id="HFBR17-48" d="M 512 4460 
L 512 0 
L 960 0 
L 960 2155 
L 3386 2155 
L 3386 0 
L 3834 0 
L 3834 4460 
L 3386 4460 
L 3386 2496 
L 960 2496 
L 960 4460 
L 512 4460 
z
" transform="scale(0.015625)"/>
       <path id="HFBR17-7a" d="M 230 3008 
L 230 2693 
L 2074 2693 
L 646 866 
C 480 643 294 446 141 210 
C 134 147 134 70 134 0 
L 2650 0 
L 2650 321 
L 691 321 
L 2131 2155 
C 2291 2372 2464 2575 2624 2798 
C 2630 2862 2630 2939 2630 3008 
L 230 3008 
z
" transform="scale(0.015625)"/>
      </defs>
      <use xlink:href="#HFBR17-46" transform="scale(0.996264)"/>
      <use xlink:href="#HFBR17-69" transform="translate(55.832057 0) scale(0.996264)"/>
      <use xlink:href="#HFBR17-72" transform="translate(74.927016 0) scale(0.996264)"/>
      <use xlink:href="#HFBR17-69" transform="translate(106.890375 0) scale(0.996264)"/>
      <use xlink:href="#HFBR17-6e" transform="translate(125.985334 0) scale(0.996264)"/>
      <use xlink:href="#HFBR17-67" transform="translate(174.137831 0) scale(0.996264)"/>
      <use xlink:href="#HFBR17-72" transform="translate(253.75554 0) scale(0.996264)"/>
      <use xlink:href="#HFBR17-61" transform="translate(285.718898 0) scale(0.996264)"/>
      <use xlink:href="#HFBR17-74" transform="translate(332.210981 0) scale(0.996264)"/>
      <use xlink:href="#HFBR17-65" transform="translate(368.325369 0) scale(0.996264)"/>
      <use xlink:href="#HFBR17-28" transform="translate(444.622248 0) scale(0.996264)"/>
      <use xlink:href="#HFBR17-48" transform="translate(483.642457 0) scale(0.996264)"/>
      <use xlink:href="#HFBR17-7a" transform="translate(551.30521 0) scale(0.996264)"/>
      <use xlink:href="#HFBR17-29" transform="translate(594.061363 0) scale(0.996264)"/>
     </g>
    </g>
   </g>
   <g id="PathCollection_2">
    <defs>
     <path id="m47f5660421" d="M -0 8.660254 
L 8.660254 -8.660254 
L -8.660254 -8.660254 
z
" style="stroke: #00008b"/>
    </defs>
    <g clip-path="url(#p79b497a6d7)">
     <use xlink:href="#m47f5660421" x="225.201181" y="67.328584" style="fill: #00008b; stroke: #00008b"/>
    </g>
   </g>
   <g id="line2d_17">
    <path d="M 63 376.955331 
L 90.479397 376.871254 
L 102.256281 376.717102 
L 110.107538 376.347554 
L 114.033166 376.032234 
L 119.921608 375.295578 
L 123.847236 374.564773 
L 127.772864 373.553648 
L 131.698492 372.232484 
L 135.624121 370.511696 
L 137.586935 369.515976 
L 141.512563 367.104359 
L 145.438191 364.145666 
L 147.401005 362.425564 
L 151.326633 358.457673 
L 153.289447 356.207227 
L 155.252261 353.729426 
L 157.215075 351.064246 
L 161.140704 345.16279 
L 165.066332 338.292161 
L 168.99196 330.517923 
L 172.917588 321.809078 
L 176.843216 312.130775 
L 180.768844 301.634157 
L 184.694472 290.307324 
L 188.620101 278.193181 
L 194.508543 258.912976 
L 202.359799 231.921993 
L 212.173869 198.191594 
L 214.136683 191.836028 
L 216.099497 185.95799 
L 218.062312 180.468119 
L 220.025126 175.39905 
L 221.98794 170.743235 
L 223.950754 166.452855 
L 225.913568 162.537902 
L 227.876382 158.924681 
L 229.839196 155.689165 
L 231.80201 152.780078 
L 233.764824 150.172417 
L 235.727638 147.907249 
L 237.690452 145.984265 
L 239.653266 144.330244 
L 241.61608 142.930983 
L 243.578894 141.974904 
L 245.541709 141.300816 
L 247.504523 140.863416 
L 249.467337 140.723639 
L 251.430151 140.954282 
L 253.392965 141.522801 
L 255.355779 142.284416 
L 257.318593 143.412512 
L 259.281407 144.881392 
L 261.244221 146.647586 
L 265.169849 151.090022 
L 267.132663 153.792128 
L 269.095477 156.862891 
L 271.058291 160.237187 
L 273.021106 163.961548 
L 274.98392 168.070471 
L 276.946734 172.450953 
L 278.909548 177.233572 
L 280.872362 182.454719 
L 282.835176 188.069014 
L 284.79799 194.13533 
L 290.686432 213.912347 
L 302.463317 254.724752 
L 306.388945 267.833845 
L 312.277387 286.526001 
L 316.203015 298.117886 
L 320.128643 308.943404 
L 324.054271 318.853913 
L 327.979899 327.831922 
L 331.905528 335.86974 
L 335.831156 343.025551 
L 339.756784 349.276688 
L 341.719598 352.066425 
L 343.682412 354.618368 
L 347.60804 359.201357 
L 351.533668 363.046885 
L 353.496482 364.721304 
L 357.422111 367.538415 
L 359.384925 368.79612 
L 361.347739 369.894341 
L 365.273367 371.728681 
L 369.198995 373.140232 
L 373.124623 374.239333 
L 377.050251 375.060069 
L 380.975879 375.647146 
L 384.901508 376.08898 
L 394.715578 376.652294 
L 408.455276 376.883824 
L 453.6 376.962571 
L 453.6 376.962571 
" clip-path="url(#p79b497a6d7)" style="fill: none; stroke: #1e90ff; stroke-width: 3; stroke-linecap: square"/>
   </g>
   <g id="line2d_18">
    <path d="M 63 377.100264 
L 117.958794 377.017229 
L 121.884422 376.795382 
L 125.81005 376.371109 
L 129.735678 375.672736 
L 133.661307 374.617213 
L 135.624121 373.926677 
L 137.586935 373.111067 
L 139.549749 372.157346 
L 141.512563 371.052072 
L 143.475377 369.781496 
L 145.438191 368.331665 
L 147.401005 366.688536 
L 149.363819 364.838105 
L 151.326633 362.766535 
L 153.289447 360.460303 
L 155.252261 357.906348 
L 157.215075 355.092221 
L 159.177889 352.00625 
L 161.140704 348.637698 
L 163.103518 344.97692 
L 165.066332 341.015532 
L 167.029146 336.746562 
L 168.99196 332.164608 
L 170.954774 327.265985 
L 172.917588 322.048863 
L 176.843216 310.661844 
L 180.768844 298.030619 
L 184.694472 284.218791 
L 188.620101 269.328398 
L 192.545729 253.500502 
L 198.434171 228.402863 
L 208.248241 185.491922 
L 210.211055 177.877625 
L 212.173869 170.782988 
L 214.136683 164.171766 
L 216.099497 158.01499 
L 218.062312 152.289244 
L 220.025126 146.975425 
L 221.98794 142.057831 
L 223.950754 137.523477 
L 225.913568 133.361577 
L 227.876382 129.563145 
L 229.839196 126.120674 
L 231.80201 123.0279 
L 233.764824 120.279596 
L 235.727638 117.871422 
L 237.690452 115.799797 
L 239.653266 114.061798 
L 241.61608 112.655082 
L 243.578894 111.577823 
L 245.541709 110.828664 
L 247.504523 110.406683 
L 249.467337 110.311366 
L 251.430151 110.542599 
L 253.392965 111.100661 
L 255.355779 111.986234 
L 257.318593 113.200417 
L 259.281407 114.744758 
L 261.244221 116.621292 
L 263.207035 118.832594 
L 265.169849 121.38185 
L 267.132663 124.272944 
L 269.095477 127.51057 
L 271.058291 131.100363 
L 273.021106 135.04908 
L 274.98392 139.364809 
L 276.946734 144.057244 
L 278.909548 149.138032 
L 280.872362 154.621218 
L 282.835176 160.523827 
L 284.79799 166.866631 
L 286.760804 173.675185 
L 288.723618 180.981246 
L 290.686432 188.824767 
L 294.61206 205.997595 
L 302.463317 240.41922 
L 306.388945 256.864658 
L 310.314573 272.511632 
L 314.240201 287.18866 
L 318.165829 300.762704 
L 322.091457 313.139712 
L 326.017085 324.263756 
L 327.979899 329.348368 
L 329.942714 334.114926 
L 331.905528 338.566044 
L 333.868342 342.70614 
L 335.831156 346.541293 
L 337.79397 350.079092 
L 339.756784 353.328476 
L 341.719598 356.29958 
L 343.682412 359.003567 
L 345.645226 361.452468 
L 347.60804 363.659018 
L 349.570854 365.636504 
L 351.533668 367.398606 
L 353.496482 368.959256 
L 355.459296 370.332493 
L 357.422111 371.53234 
L 359.384925 372.572678 
L 361.347739 373.467136 
L 363.310553 374.228995 
L 367.236181 375.405774 
L 371.161809 376.199213 
L 375.087437 376.695504 
L 379.013065 376.969679 
L 384.901508 377.099978 
L 453.6 377.100264 
L 453.6 377.100264 
" clip-path="url(#p79b497a6d7)" style="fill: none; stroke-dasharray: 11.1,4.8; stroke-dashoffset: 0; stroke: #1e90ff; stroke-width: 3"/>
   </g>
   <g id="patch_3">
    <path d="M 63 377.100264 
L 63 99.981676 
" style="fill: none; stroke: #000000; stroke-width: 0.8; stroke-linejoin: miter; stroke-linecap: square"/>
   </g>
   <g id="patch_4">
    <path d="M 63 378 
L 453.6 378 
" style="fill: none; stroke: #000000; stroke-width: 0.8; stroke-linejoin: miter; stroke-linecap: square"/>
   </g>
   <g id="line2d_19">
    <path d="M 63 377.095548 
L 74.776884 377.084026 
L 92.442211 377.062645 
L 100.293467 376.706067 
L 104.219095 376.22762 
L 106.18191 375.853744 
L 112.070352 374.155116 
L 115.99598 372.46526 
L 117.958794 371.3368 
L 119.921608 370.072236 
L 123.847236 367.017347 
L 125.81005 365.127697 
L 127.772864 363.008632 
L 129.735678 360.720373 
L 131.698492 358.125048 
L 133.661307 355.229039 
L 135.624121 352.059525 
L 137.586935 348.674682 
L 139.549749 344.929397 
L 143.475377 336.444441 
L 145.438191 331.798451 
L 147.401005 326.779835 
L 149.363819 321.428562 
L 153.289447 309.66338 
L 155.252261 303.397301 
L 161.140704 282.301262 
L 165.066332 266.74882 
L 170.954774 241.917644 
L 178.80603 206.124877 
L 182.731658 188.157539 
L 184.694472 179.946795 
L 188.620101 165.184328 
L 192.545729 152.482532 
L 196.471357 141.301425 
L 198.434171 136.27249 
L 200.396985 131.601174 
L 202.359799 127.393074 
L 206.285427 119.963464 
L 208.248241 116.891064 
L 212.173869 111.579796 
L 214.136683 109.383173 
L 216.099497 107.607184 
L 218.062312 106.136026 
L 220.025126 104.981452 
L 221.98794 104.018358 
L 223.950754 103.499032 
L 225.913568 103.318011 
L 227.876382 103.49495 
L 229.839196 104.172601 
L 231.80201 104.701334 
L 233.764824 105.834924 
L 235.727638 107.33657 
L 237.690452 109.232936 
L 241.61608 113.765009 
L 245.541709 119.480953 
L 249.467337 126.902385 
L 253.392965 135.822577 
L 255.355779 140.742058 
L 257.318593 146.033231 
L 259.281407 151.759628 
L 261.244221 157.89551 
L 265.169849 171.736588 
L 267.132663 179.017275 
L 271.058291 196.073287 
L 280.872362 240.883984 
L 284.79799 257.930827 
L 290.686432 281.398015 
L 292.649246 288.790186 
L 296.574874 302.583442 
L 300.500503 314.926973 
L 304.426131 326.192418 
L 308.351759 336.006397 
L 310.314573 340.357787 
L 314.240201 348.209733 
L 316.203015 351.726895 
L 320.128643 357.768664 
L 322.091457 360.426789 
L 326.017085 364.855811 
L 327.979899 366.76164 
L 329.942714 368.464017 
L 331.905528 369.931403 
L 333.868342 371.193868 
L 337.79397 373.267056 
L 339.756784 374.071581 
L 341.719598 374.753468 
L 345.645226 375.777823 
L 349.570854 376.462995 
L 355.459296 376.966306 
L 359.384925 377.067866 
L 375.087437 377.085067 
L 453.6 377.088144 
L 453.6 377.088144 
" clip-path="url(#p79b497a6d7)" style="fill: none; stroke: #00008b; stroke-width: 3; stroke-linecap: square"/>
   </g>
   <g id="legend_1">
    <g id="patch_5">
     <path d="M 369.205021 133.274248 
L 444.5 133.274248 
Q 447.1 133.274248 447.1 130.674248 
L 447.1 60.94 
Q 447.1 58.34 444.5 58.34 
L 369.205021 58.34 
Q 366.605021 58.34 366.605021 60.94 
L 366.605021 130.674248 
Q 366.605021 133.274248 369.205021 133.274248 
z
" style="fill: #ffffff; opacity: 0.8; stroke: #cccccc; stroke-linejoin: miter"/>
    </g>
    <g id="line2d_20">
     <path d="M 371.805021 68.09 
L 384.805021 68.09 
L 397.805021 68.09 
" style="fill: none; stroke: #add8e6; stroke-width: 3; stroke-linecap: square"/>
    </g>
    <g id="text_18">
     <!-- 0 s -->
     <g transform="translate(408.205021 72.64) scale(0.13 -0.13)">
      <use xlink:href="#HFBR17-30" transform="scale(0.996264)"/>
      <use xlink:href="#HFBR17-73" transform="translate(82.108429 0) scale(0.996264)"/>
     </g>
    </g>
    <g id="line2d_21">
     <path d="M 371.805021 85.848562 
L 384.805021 85.848562 
L 397.805021 85.848562 
" style="fill: none; stroke: #1e90ff; stroke-width: 3; stroke-linecap: square"/>
    </g>
    <g id="text_19">
     <!-- 0.75 s -->
     <g transform="translate(408.205021 90.398562) scale(0.13 -0.13)">
      <defs>
       <path id="HFBR17-2e" d="M 634 501 
L 634 0 
L 1133 0 
L 1133 501 
L 634 501 
z
" transform="scale(0.015625)"/>
      </defs>
      <use xlink:href="#HFBR17-30" transform="scale(0.996264)"/>
      <use xlink:href="#HFBR17-2e" transform="translate(50.643218 0) scale(0.996264)"/>
      <use xlink:href="#HFBR17-37" transform="translate(78.040341 0) scale(0.996264)"/>
      <use xlink:href="#HFBR17-35" transform="translate(128.683559 0) scale(0.996264)"/>
      <use xlink:href="#HFBR17-73" transform="translate(210.791989 0) scale(0.996264)"/>
     </g>
    </g>
    <g id="line2d_22">
     <path d="M 371.805021 103.607124 
L 384.805021 103.607124 
L 397.805021 103.607124 
" style="fill: none; stroke-dasharray: 11.1,4.8; stroke-dashoffset: 0; stroke: #1e90ff; stroke-width: 3"/>
    </g>
    <g id="text_20">
     <!-- 2.75 -->
     <g transform="translate(408.205021 108.157124) scale(0.13 -0.13)">
      <use xlink:href="#HFBR17-32" transform="scale(0.996264)"/>
      <use xlink:href="#HFBR17-2e" transform="translate(50.643218 0) scale(0.996264)"/>
      <use xlink:href="#HFBR17-37" transform="translate(78.040341 0) scale(0.996264)"/>
      <use xlink:href="#HFBR17-35" transform="translate(128.683559 0) scale(0.996264)"/>
     </g>
    </g>
    <g id="line2d_23">
     <path d="M 371.805021 121.365686 
L 384.805021 121.365686 
L 397.805021 121.365686 
" style="fill: none; stroke: #00008b; stroke-width: 3; stroke-linecap: square"/>
    </g>
    <g id="text_21">
     <!-- 3.5 s -->
     <g transform="translate(408.205021 125.915686) scale(0.13 -0.13)">
      <use xlink:href="#HFBR17-33" transform="scale(0.996264)"/>
      <use xlink:href="#HFBR17-2e" transform="translate(50.643218 0) scale(0.996264)"/>
      <use xlink:href="#HFBR17-35" transform="translate(78.040341 0) scale(0.996264)"/>
      <use xlink:href="#HFBR17-73" transform="translate(160.148771 0) scale(0.996264)"/>
     </g>
    </g>
   </g>
  </g>
  <g id="text_22">
   <!-- \textbf{Firing rate of the integration circuit} -->
   <g transform="translate(89.40058 46.236997) scale(0.2 -0.2)">
    <defs>
     <path id="HFBRBX10-46" d="M 582 4480 
L 582 0 
L 1523 0 
L 1523 1920 
L 3315 1920 
L 3315 2535 
L 1523 2535 
L 1523 3812 
L 3610 3812 
L 3610 4480 
L 582 4480 
z
" transform="scale(0.015625)"/>
     <path id="HFBRBX10-69" d="M 390 4502 
L 390 3712 
L 1242 3712 
L 1242 4502 
L 390 4502 
z
M 390 3057 
L 390 0 
L 1242 0 
L 1242 3057 
L 390 3057 
z
" transform="scale(0.015625)"/>
     <path id="HFBRBX10-72" d="M 1216 2320 
L 1210 2320 
L 1210 3096 
L 390 3096 
L 390 0 
L 1242 0 
L 1242 1521 
C 1242 1631 1242 1742 1274 1845 
C 1414 2267 1869 2476 2278 2476 
L 2278 3136 
C 1894 3136 1568 2923 1357 2605 
C 1306 2521 1242 2424 1216 2320 
z
" transform="scale(0.015625)"/>
     <path id="HFBRBX10-6e" d="M 1222 2409 
L 1216 2409 
L 1216 3096 
L 384 3096 
L 384 0 
L 1254 0 
L 1254 1367 
C 1254 1645 1229 1943 1325 2209 
C 1408 2422 1568 2610 1798 2656 
C 1952 2675 2106 2649 2189 2578 
C 2362 2448 2330 2131 2330 1872 
L 2330 0 
L 3200 0 
L 3200 1805 
C 3200 2155 3219 2506 3091 2759 
C 2970 3006 2714 3109 2406 3109 
C 2259 3136 2112 3136 1965 3097 
C 1715 3026 1498 2857 1350 2643 
C 1299 2571 1248 2494 1222 2409 
z
" transform="scale(0.015625)"/>
     <path id="HFBRBX10-67" d="M 2317 784 
L 2323 784 
L 2323 75 
C 2323 -202 2304 -447 2131 -621 
C 1990 -756 1792 -756 1606 -736 
C 1331 -736 1069 -677 826 -538 
C 704 -466 602 -373 486 -301 
L 486 -730 
C 486 -775 474 -859 499 -892 
C 531 -931 595 -950 640 -969 
C 941 -1125 1312 -1216 1747 -1216 
C 2195 -1216 2714 -1138 2989 -737 
C 3251 -355 3194 130 3194 563 
L 3194 3136 
L 2342 3136 
L 2342 2681 
C 2125 2959 1907 3167 1414 3128 
C 1082 3102 755 2979 544 2707 
C 256 2337 218 1817 243 1362 
C 256 1109 307 848 448 628 
C 646 317 992 188 1344 162 
C 1754 123 1997 272 2182 531 
C 2234 609 2291 693 2317 784 
z
M 2342 1612 
L 2323 1612 
C 2323 1334 2285 997 2099 777 
C 1920 576 1581 576 1370 738 
C 1306 783 1261 841 1222 913 
C 1101 1133 1107 1392 1107 1632 
C 1107 1897 1152 2215 1325 2428 
C 1498 2629 1811 2720 2054 2603 
C 2150 2558 2234 2474 2285 2383 
C 2355 2292 2342 2221 2342 2059 
L 2342 1612 
z
" transform="scale(0.015625)"/>
     <path id="HFBRBX10-61" d="M 582 2253 
C 666 2325 736 2409 826 2474 
C 1043 2642 1293 2720 1562 2739 
C 1696 2752 1837 2752 1946 2648 
C 2074 2518 2099 2309 2099 2082 
L 2099 1757 
C 1997 1744 1888 1744 1786 1744 
C 1152 1692 397 1568 230 1041 
C 109 677 333 293 525 132 
C 1037 -302 1882 34 2112 449 
L 2118 449 
L 2118 0 
L 2970 0 
L 2970 1840 
C 2970 2180 2982 2552 2746 2827 
C 2438 3179 1926 3179 1491 3179 
C 1126 3179 851 3076 582 2932 
C 538 2919 531 2897 531 2836 
C 531 2794 538 2752 538 2713 
C 557 2558 570 2409 582 2253 
z
M 2099 1497 
L 2099 1082 
C 2099 991 2106 901 2080 810 
C 1984 454 1434 253 1146 545 
C 954 752 1018 1076 1222 1244 
C 1434 1425 1773 1451 2099 1497 
z
" transform="scale(0.015625)"/>
     <path id="HFBRBX10-74" d="M 582 3904 
L 582 3026 
L 128 3026 
L 128 2560 
L 563 2560 
L 563 809 
C 563 512 621 168 813 27 
C 966 -96 1158 -96 1344 -96 
C 1786 -96 2042 22 2387 189 
L 2272 642 
C 2157 557 2189 551 2042 480 
C 1882 402 1606 337 1485 512 
C 1382 687 1395 888 1395 1166 
L 1395 2560 
L 2272 2560 
L 2272 3026 
L 1395 3026 
L 1395 3904 
L 582 3904 
z
" transform="scale(0.015625)"/>
     <path id="HFBRBX10-65" d="M 2976 817 
C 2867 745 2778 661 2662 596 
C 2259 376 1536 188 1203 681 
C 1043 933 1011 1186 1011 1600 
L 3072 1600 
C 3072 2008 3027 2468 2746 2786 
C 2573 2973 2336 3077 2086 3122 
C 1491 3213 896 3077 576 2747 
C 250 2403 186 1905 192 1445 
C 198 1017 320 557 646 266 
C 1056 -90 1850 -194 2547 20 
C 2669 52 2778 104 2893 156 
C 2931 175 2995 195 3014 234 
C 3027 247 3021 266 3021 285 
C 3008 467 2989 642 2976 817 
z
M 2349 1944 
L 1037 1944 
C 1056 2170 1165 2403 1293 2520 
C 1510 2714 1882 2747 2106 2552 
C 2272 2403 2336 2157 2349 1944 
z
" transform="scale(0.015625)"/>
     <path id="HFBRBX10-6f" d="M 627 2737 
C 282 2413 198 1919 198 1465 
C 198 992 301 591 550 325 
C 928 -83 1530 -141 2048 -89 
C 2394 -50 2746 73 2982 345 
C 3238 643 3347 1122 3309 1640 
C 3283 2023 3206 2411 2957 2708 
C 2694 3011 2298 3136 1920 3136 
C 1376 3136 922 3016 627 2737 
z
M 1933 2681 
C 1990 2675 2048 2656 2099 2630 
C 2445 2455 2445 2008 2445 1671 
L 2445 1470 
C 2445 1179 2426 874 2304 687 
C 2131 421 1690 356 1395 518 
C 1050 706 1069 1192 1069 1684 
C 1069 1937 1069 2228 1210 2448 
C 1344 2662 1645 2746 1933 2681 
z
" transform="scale(0.015625)"/>
     <path id="HFBRBX10-66" d="M 550 3026 
L 186 3026 
L 186 2560 
L 550 2560 
L 550 -32 
L 1402 -32 
L 1402 2560 
L 2016 2560 
L 2016 3026 
L 1382 3026 
L 1382 3555 
C 1382 3658 1370 3768 1421 3864 
C 1523 4096 1875 4096 2093 4032 
C 2253 3993 2310 3903 2438 3812 
L 2438 4459 
C 2208 4504 2144 4530 1843 4530 
C 1459 4530 1005 4478 749 4149 
C 589 3962 550 3698 550 3381 
L 550 3026 
z
" transform="scale(0.015625)"/>
     <path id="HFBRBX10-68" d="M 384 4495 
L 384 0 
L 1254 0 
L 1254 1367 
C 1254 1645 1229 1943 1325 2209 
C 1408 2422 1568 2610 1798 2656 
C 1952 2675 2106 2649 2189 2578 
C 2362 2448 2330 2131 2330 1872 
L 2330 0 
L 3200 0 
L 3200 1815 
C 3200 2166 3219 2517 3091 2771 
C 2950 3031 2688 3122 2413 3122 
C 2266 3122 2118 3122 1971 3084 
C 1728 3020 1517 2868 1370 2671 
C 1318 2601 1267 2530 1242 2448 
L 1235 2448 
L 1235 4495 
L 384 4495 
z
" transform="scale(0.015625)"/>
     <path id="HFBRBX10-63" d="M 2874 881 
C 2771 810 2682 732 2573 667 
C 2362 544 2131 486 1888 466 
C 1728 453 1562 466 1421 551 
C 1158 719 1114 1082 1107 1367 
L 1107 1535 
C 1107 1976 1120 2390 1395 2578 
C 1549 2688 1741 2688 1926 2688 
C 2099 2675 2272 2648 2426 2562 
C 2554 2490 2656 2385 2778 2299 
C 2816 2428 2861 2724 2880 2852 
C 2880 2930 2854 2924 2784 2962 
C 2701 3007 2618 3039 2534 3072 
C 2349 3148 2163 3168 1971 3168 
C 1421 3213 928 3085 646 2801 
C 378 2537 275 2151 243 1784 
C 198 1212 294 524 819 188 
C 1363 -162 2253 -91 2797 188 
C 2829 201 2893 220 2912 259 
C 2925 272 2918 298 2918 317 
C 2912 512 2880 693 2874 881 
z
" transform="scale(0.015625)"/>
     <path id="HFBRBX10-75" d="M 384 3058 
L 384 828 
C 384 639 390 437 480 268 
C 608 20 883 -64 1146 -64 
C 1267 -64 1395 -64 1517 -51 
C 1766 -13 2010 107 2182 290 
C 2246 354 2310 436 2342 518 
L 2349 518 
L 2349 0 
L 3200 0 
L 3200 3057 
L 2330 3057 
L 2330 1211 
C 2330 1049 2323 900 2266 751 
C 2189 570 2048 408 1856 350 
C 1779 324 1702 324 1619 324 
C 1523 324 1402 324 1325 396 
C 1267 454 1267 539 1261 610 
C 1248 772 1254 942 1254 1104 
L 1254 3058 
L 384 3058 
z
" transform="scale(0.015625)"/>
    </defs>
    <use xlink:href="#HFBRBX10-46" transform="scale(0.996264)"/>
    <use xlink:href="#HFBRBX10-69" transform="translate(60.883138 0) scale(0.996264)"/>
    <use xlink:href="#HFBRBX10-72" transform="translate(86.343357 0) scale(0.996264)"/>
    <use xlink:href="#HFBRBX10-69" transform="translate(123.426768 0) scale(0.996264)"/>
    <use xlink:href="#HFBRBX10-6e" transform="translate(148.886986 0) scale(0.996264)"/>
    <use xlink:href="#HFBRBX10-67" transform="translate(204.788774 0) scale(0.996264)"/>
    <use xlink:href="#HFBRBX10-72" transform="translate(295.393951 0) scale(0.996264)"/>
    <use xlink:href="#HFBRBX10-61" transform="translate(332.477362 0) scale(0.996264)"/>
    <use xlink:href="#HFBRBX10-74" transform="translate(384.781556 0) scale(0.996264)"/>
    <use xlink:href="#HFBRBX10-65" transform="translate(425.04746 0) scale(0.996264)"/>
    <use xlink:href="#HFBRBX10-6f" transform="translate(510.671302 0) scale(0.996264)"/>
    <use xlink:href="#HFBRBX10-66" transform="translate(565.466126 0) scale(0.996264)"/>
    <use xlink:href="#HFBRBX10-74" transform="translate(633.655241 0) scale(0.996264)"/>
    <use xlink:href="#HFBRBX10-68" transform="translate(673.921145 0) scale(0.996264)"/>
    <use xlink:href="#HFBRBX10-65" transform="translate(729.822933 0) scale(0.996264)"/>
    <use xlink:href="#HFBRBX10-69" transform="translate(815.446774 0) scale(0.996264)"/>
    <use xlink:href="#HFBRBX10-6e" transform="translate(840.906993 0) scale(0.996264)"/>
    <use xlink:href="#HFBRBX10-74" transform="translate(896.808781 0) scale(0.996264)"/>
    <use xlink:href="#HFBRBX10-65" transform="translate(937.074685 0) scale(0.996264)"/>
    <use xlink:href="#HFBRBX10-67" transform="translate(987.995137 0) scale(0.996264)"/>
    <use xlink:href="#HFBRBX10-72" transform="translate(1043.896925 0) scale(0.996264)"/>
    <use xlink:href="#HFBRBX10-61" transform="translate(1080.980336 0) scale(0.996264)"/>
    <use xlink:href="#HFBRBX10-74" transform="translate(1133.284531 0) scale(0.996264)"/>
    <use xlink:href="#HFBRBX10-69" transform="translate(1173.550434 0) scale(0.996264)"/>
    <use xlink:href="#HFBRBX10-6f" transform="translate(1199.010653 0) scale(0.996264)"/>
    <use xlink:href="#HFBRBX10-6e" transform="translate(1253.805477 0) scale(0.996264)"/>
    <use xlink:href="#HFBRBX10-63" transform="translate(1344.410654 0) scale(0.996264)"/>
    <use xlink:href="#HFBRBX10-69" transform="translate(1393.117165 0) scale(0.996264)"/>
    <use xlink:href="#HFBRBX10-72" transform="translate(1418.577384 0) scale(0.996264)"/>
    <use xlink:href="#HFBRBX10-63" transform="translate(1455.660794 0) scale(0.996264)"/>
    <use xlink:href="#HFBRBX10-75" transform="translate(1504.367305 0) scale(0.996264)"/>
    <use xlink:href="#HFBRBX10-69" transform="translate(1560.269093 0) scale(0.996264)"/>
    <use xlink:href="#HFBRBX10-74" transform="translate(1585.729312 0) scale(0.996264)"/>
   </g>
  </g>
 </g>
 <defs>
  <clipPath id="p79b497a6d7">
   <rect x="63" y="51.84" width="390.6" height="326.16"/>
  </clipPath>
 </defs>
</svg>
