<?xml version="1.0" encoding="utf-8" standalone="no"?>
<!DOCTYPE svg PUBLIC "-//W3C//DTD SVG 1.1//EN"
  "http://www.w3.org/Graphics/SVG/1.1/DTD/svg11.dtd">
<svg xmlns:xlink="http://www.w3.org/1999/xlink" width="504pt" height="432pt" viewBox="0 0 504 432" xmlns="http://www.w3.org/2000/svg" version="1.1">
 <metadata>
  <rdf:RDF xmlns:dc="http://purl.org/dc/elements/1.1/" xmlns:cc="http://creativecommons.org/ns#" xmlns:rdf="http://www.w3.org/1999/02/22-rdf-syntax-ns#">
   <cc:Work>
    <dc:type rdf:resource="http://purl.org/dc/dcmitype/StillImage"/>
    <dc:date>2023-06-27T11:27:52.796089</dc:date>
    <dc:format>image/svg+xml</dc:format>
    <dc:creator>
     <cc:Agent>
      <dc:title>Matplotlib v3.6.1, https://matplotlib.org/</dc:title>
     </cc:Agent>
    </dc:creator>
   </cc:Work>
  </rdf:RDF>
 </metadata>
 <defs>
  <style type="text/css">*{stroke-linejoin: round; stroke-linecap: butt}</style>
 </defs>
 <g id="figure_1">
  <g id="patch_1">
   <path d="M 0 432 
L 504 432 
L 504 0 
L 0 0 
L 0 432 
z
" style="fill: none"/>
  </g>
  <g id="axes_1">
   <g id="patch_2">
    <path d="M 63 378 
L 453.6 378 
L 453.6 51.84 
L 63 51.84 
L 63 378 
z
" style="fill: none"/>
   </g>
   <g id="PathCollection_1">
    <defs>
     <path id="m28718d1de1" d="M -0 8.660254 
L 8.660254 -8.660254 
L -8.660254 -8.660254 
z
" style="stroke: #1e90ff"/>
    </defs>
    <g clip-path="url(#p0b0c260d40)">
     <use xlink:href="#m28718d1de1" x="208.781097" y="67.068926" style="fill: #1e90ff; stroke: #1e90ff"/>
    </g>
   </g>
   <g id="LineCollection_1">
    <path d="M 208.781097 180.938105 
L 208.781097 67.068926 
" clip-path="url(#p0b0c260d40)" style="fill: none; stroke-dasharray: 4.625,2; stroke-dashoffset: 0; stroke: #1e90ff; stroke-width: 1.25"/>
   </g>
   <g id="LineCollection_2">
    <path d="M 242.115599 165.696598 
L 242.115599 67.068926 
" clip-path="url(#p0b0c260d40)" style="fill: none; stroke-dasharray: 4.625,2; stroke-dashoffset: 0; stroke: #00008b; stroke-width: 1.25"/>
   </g>
   <g id="line2d_1">
    <path d="M 63 370.945148 
L 64.962814 371.539587 
L 66.925628 367.340031 
L 68.888442 369.228547 
L 70.851256 368.382461 
L 72.81407 362.606279 
L 74.776884 371.589527 
L 76.739698 369.235733 
L 78.702513 368.510171 
L 80.665327 370.13781 
L 82.628141 365.496821 
L 84.590955 369.734987 
L 86.553769 369.03356 
L 88.516583 370.917457 
L 90.479397 369.420354 
L 92.442211 371.016949 
L 94.405025 370.150706 
L 96.367839 367.249856 
L 98.330653 369.653872 
L 100.293467 363.350891 
L 102.256281 366.341283 
L 104.219095 366.756561 
L 106.18191 367.902812 
L 110.107538 368.340657 
L 112.070352 365.447337 
L 114.033166 367.748723 
L 115.99598 365.428247 
L 117.958794 365.500827 
L 119.921608 363.142177 
L 121.884422 363.618868 
L 123.847236 363.757223 
L 125.81005 364.965215 
L 127.772864 363.621013 
L 129.735678 357.753426 
L 131.698492 363.129311 
L 133.661307 359.069106 
L 135.624121 359.84537 
L 137.586935 356.968063 
L 139.549749 353.788112 
L 141.512563 352.552279 
L 143.475377 345.273058 
L 145.438191 351.887865 
L 147.401005 346.985494 
L 149.363819 347.002708 
L 151.326633 353.413729 
L 153.289447 352.184715 
L 155.252261 340.222808 
L 157.215075 337.670144 
L 159.177889 333.541116 
L 161.140704 342.396617 
L 163.103518 329.664076 
L 165.066332 323.68624 
L 167.029146 331.353503 
L 168.99196 332.590762 
L 170.954774 326.857905 
L 172.917588 329.923174 
L 174.880402 318.802223 
L 176.843216 316.690267 
L 178.80603 317.663368 
L 180.768844 300.986189 
L 182.731658 295.096486 
L 184.694472 303.106663 
L 186.657286 301.571368 
L 188.620101 292.59491 
L 190.582915 281.378564 
L 192.545729 293.305582 
L 194.508543 277.350268 
L 196.471357 273.191122 
L 198.434171 257.97837 
L 200.396985 267.817536 
L 202.359799 247.948538 
L 204.322613 242.608177 
L 206.285427 245.945157 
L 208.248241 250.515273 
L 210.211055 238.079146 
L 212.173869 219.600882 
L 214.136683 235.782766 
L 216.099497 235.746901 
L 218.062312 208.005838 
L 220.025126 211.551217 
L 221.98794 205.437871 
L 223.950754 186.73682 
L 225.913568 187.589787 
L 227.876382 194.498923 
L 229.839196 213.136456 
L 233.764824 170.933913 
L 235.727638 183.211765 
L 237.690452 152.58345 
L 239.653266 184.43288 
L 241.61608 159.928433 
L 243.578894 186.321152 
L 245.541709 178.753199 
L 247.504523 164.292217 
L 249.467337 161.759552 
L 251.430151 149.690549 
L 253.392965 155.667351 
L 255.355779 166.365791 
L 257.318593 160.731354 
L 259.281407 145.536098 
L 261.244221 160.813562 
L 263.207035 125.884203 
L 265.169849 175.36247 
L 267.132663 172.884341 
L 269.095477 153.200158 
L 271.058291 168.257563 
L 273.021106 159.101264 
L 274.98392 175.800706 
L 276.946734 155.223202 
L 278.909548 146.563656 
L 280.872362 167.012177 
L 282.835176 161.076481 
L 284.79799 167.296166 
L 286.760804 168.998546 
L 288.723618 197.478928 
L 290.686432 186.542166 
L 292.649246 204.249737 
L 294.61206 207.23769 
L 296.574874 191.693553 
L 298.537688 198.170564 
L 300.500503 206.995149 
L 302.463317 229.934832 
L 304.426131 222.851254 
L 306.388945 222.372108 
L 308.351759 251.764383 
L 310.314573 230.258692 
L 312.277387 243.987985 
L 314.240201 226.437547 
L 316.203015 249.389261 
L 318.165829 255.618463 
L 320.128643 261.188678 
L 322.091457 267.619231 
L 324.054271 272.602588 
L 326.017085 270.385965 
L 327.979899 289.690657 
L 329.942714 277.026928 
L 331.905528 286.637996 
L 333.868342 286.188161 
L 335.831156 295.480766 
L 337.79397 306.110483 
L 339.756784 304.454135 
L 341.719598 300.715577 
L 343.682412 314.528319 
L 345.645226 320.060732 
L 347.60804 324.022943 
L 349.570854 326.95386 
L 351.533668 324.487608 
L 353.496482 319.819501 
L 355.459296 333.489844 
L 357.422111 336.143737 
L 359.384925 333.56256 
L 361.347739 344.03789 
L 363.310553 342.912428 
L 365.273367 337.897307 
L 367.236181 340.002071 
L 369.198995 346.296899 
L 371.161809 349.013007 
L 373.124623 348.838279 
L 375.087437 347.365943 
L 377.050251 353.810671 
L 379.013065 352.362054 
L 380.975879 351.096315 
L 382.938693 357.066079 
L 384.901508 349.358782 
L 386.864322 358.40926 
L 388.827136 359.630992 
L 390.78995 358.209616 
L 392.752764 362.530771 
L 394.715578 360.892274 
L 396.678392 365.02981 
L 398.641206 359.584227 
L 400.60402 362.33754 
L 402.566834 362.372779 
L 404.529648 365.662057 
L 406.492462 363.698884 
L 408.455276 365.172454 
L 410.41809 365.39164 
L 412.380905 369.120719 
L 414.343719 364.521466 
L 416.306533 362.227565 
L 418.269347 368.692527 
L 420.232161 369.107632 
L 422.194975 365.150763 
L 424.157789 366.437279 
L 426.120603 364.631417 
L 428.083417 370.337671 
L 430.046231 365.724724 
L 432.009045 371.00816 
L 433.971859 367.099341 
L 435.934673 369.806449 
L 437.897487 369.83316 
L 439.860302 371.647454 
L 441.823116 364.684857 
L 443.78593 367.670788 
L 445.748744 370.974466 
L 447.711558 370.359988 
L 449.674372 367.905862 
L 451.637186 367.816058 
L 453.6 369.420266 
L 453.6 369.420266 
" clip-path="url(#p0b0c260d40)" style="fill: none; stroke: #add8e6; stroke-width: 3; stroke-linecap: square"/>
   </g>
   <g id="matplotlib.axis_1">
    <g id="xtick_1">
     <g id="line2d_2">
      <defs>
       <path id="me90dbfe378" d="M 0 0 
L 0 3.5 
" style="stroke: #000000; stroke-width: 0.8"/>
      </defs>
      <g>
       <use xlink:href="#me90dbfe378" x="95.55" y="378" style="stroke: #000000; stroke-width: 0.8"/>
      </g>
     </g>
     <g id="text_1">
      <!-- $\mathdefault{−150}$ -->
      <g transform="translate(77.970188 395.37774) scale(0.15 -0.15)">
       <defs>
        <path id="HFBRSY10-0" d="M 627 1797 
C 512 1759 499 1586 627 1554 
C 659 1541 698 1548 736 1548 
L 4141 1548 
C 4218 1548 4339 1522 4403 1586 
C 4474 1656 4435 1784 4333 1804 
C 4256 1816 4166 1804 4090 1804 
L 730 1804 
C 698 1804 659 1810 627 1797 
z
" transform="scale(0.015625)"/>
        <path id="HFBR17-31" d="M 621 3841 
L 621 3520 
C 973 3520 1216 3584 1498 3706 
L 1498 321 
L 659 321 
L 659 0 
L 2752 0 
L 2752 321 
L 1914 321 
L 1914 4288 
C 1760 4288 1786 4247 1664 4152 
C 1402 3950 1037 3841 621 3841 
z
" transform="scale(0.015625)"/>
        <path id="HFBR17-35" d="M 538 4245 
L 538 1949 
L 781 1949 
C 813 1949 858 1943 883 1956 
C 915 1975 934 2020 954 2046 
C 998 2103 1050 2148 1101 2193 
C 1331 2386 1773 2463 2067 2315 
C 2470 2123 2547 1614 2515 1216 
C 2496 964 2419 733 2272 585 
C 1933 224 1363 224 947 435 
C 742 538 570 699 442 891 
L 435 891 
C 416 859 269 634 269 595 
C 269 569 288 550 301 531 
C 493 306 742 132 1030 36 
C 1600 -144 2240 -3 2643 460 
C 3123 1019 3059 1930 2502 2417 
C 2336 2572 2106 2681 1830 2706 
C 1459 2758 1126 2578 928 2411 
L 928 3904 
L 2746 3904 
L 2746 4245 
L 538 4245 
z
" transform="scale(0.015625)"/>
        <path id="HFBR17-30" d="M 947 4087 
C 762 3959 634 3785 538 3586 
C 307 3136 282 2609 282 2037 
C 282 1317 410 656 768 276 
C 1107 -77 1645 -167 2099 19 
C 2381 129 2586 366 2714 623 
C 2944 1080 2970 1626 2970 2191 
C 2970 2371 2963 2551 2944 2731 
C 2899 3162 2752 3637 2515 3901 
C 2125 4332 1427 4428 947 4087 
z
M 2234 3721 
C 2534 3400 2560 2783 2560 2198 
L 2560 1851 
C 2560 1555 2509 1170 2445 951 
C 2355 649 2208 431 1914 296 
C 1555 167 1184 289 979 572 
C 704 938 691 1587 691 2159 
C 691 2699 698 3297 960 3650 
C 1248 4036 1869 4100 2234 3721 
z
" transform="scale(0.015625)"/>
       </defs>
       <use xlink:href="#HFBRSY10-0" transform="scale(0.996264)"/>
       <use xlink:href="#HFBR17-31" transform="translate(77.487468 0) scale(0.996264)"/>
       <use xlink:href="#HFBR17-35" transform="translate(128.130685 0) scale(0.996264)"/>
       <use xlink:href="#HFBR17-30" transform="translate(178.773903 0) scale(0.996264)"/>
      </g>
     </g>
    </g>
    <g id="xtick_2">
     <g id="line2d_3">
      <g>
       <use xlink:href="#me90dbfe378" x="149.8" y="378" style="stroke: #000000; stroke-width: 0.8"/>
      </g>
     </g>
     <g id="text_2">
      <!-- $\mathdefault{−100}$ -->
      <g transform="translate(132.220188 395.37774) scale(0.15 -0.15)">
       <use xlink:href="#HFBRSY10-0" transform="scale(0.996264)"/>
       <use xlink:href="#HFBR17-31" transform="translate(77.487468 0) scale(0.996264)"/>
       <use xlink:href="#HFBR17-30" transform="translate(128.130685 0) scale(0.996264)"/>
       <use xlink:href="#HFBR17-30" transform="translate(178.773903 0) scale(0.996264)"/>
      </g>
     </g>
    </g>
    <g id="xtick_3">
     <g id="line2d_4">
      <g>
       <use xlink:href="#me90dbfe378" x="204.05" y="378" style="stroke: #000000; stroke-width: 0.8"/>
      </g>
     </g>
     <g id="text_3">
      <!-- $\mathdefault{−50}$ -->
      <g transform="translate(190.392939 395.37774) scale(0.15 -0.15)">
       <use xlink:href="#HFBRSY10-0" transform="scale(0.996264)"/>
       <use xlink:href="#HFBR17-35" transform="translate(77.487468 0) scale(0.996264)"/>
       <use xlink:href="#HFBR17-30" transform="translate(128.130685 0) scale(0.996264)"/>
      </g>
     </g>
    </g>
    <g id="xtick_4">
     <g id="line2d_5">
      <g>
       <use xlink:href="#me90dbfe378" x="258.3" y="378" style="stroke: #000000; stroke-width: 0.8"/>
      </g>
     </g>
     <g id="text_4">
      <!-- $\mathdefault{0}$ -->
      <g transform="translate(254.377248 395.37774) scale(0.15 -0.15)">
       <use xlink:href="#HFBR17-30" transform="scale(0.996264)"/>
      </g>
     </g>
    </g>
    <g id="xtick_5">
     <g id="line2d_6">
      <g>
       <use xlink:href="#me90dbfe378" x="312.55" y="378" style="stroke: #000000; stroke-width: 0.8"/>
      </g>
     </g>
     <g id="text_5">
      <!-- $\mathdefault{50}$ -->
      <g transform="translate(304.704497 395.37774) scale(0.15 -0.15)">
       <use xlink:href="#HFBR17-35" transform="scale(0.996264)"/>
       <use xlink:href="#HFBR17-30" transform="translate(50.643218 0) scale(0.996264)"/>
      </g>
     </g>
    </g>
    <g id="xtick_6">
     <g id="line2d_7">
      <g>
       <use xlink:href="#me90dbfe378" x="366.8" y="378" style="stroke: #000000; stroke-width: 0.8"/>
      </g>
     </g>
     <g id="text_6">
      <!-- $\mathdefault{100}$ -->
      <g transform="translate(355.031745 395.37774) scale(0.15 -0.15)">
       <use xlink:href="#HFBR17-31" transform="scale(0.996264)"/>
       <use xlink:href="#HFBR17-30" transform="translate(50.643218 0) scale(0.996264)"/>
       <use xlink:href="#HFBR17-30" transform="translate(101.286436 0) scale(0.996264)"/>
      </g>
     </g>
    </g>
    <g id="xtick_7">
     <g id="line2d_8">
      <g>
       <use xlink:href="#me90dbfe378" x="421.05" y="378" style="stroke: #000000; stroke-width: 0.8"/>
      </g>
     </g>
     <g id="text_7">
      <!-- $\mathdefault{150}$ -->
      <g transform="translate(409.281745 395.37774) scale(0.15 -0.15)">
       <use xlink:href="#HFBR17-31" transform="scale(0.996264)"/>
       <use xlink:href="#HFBR17-35" transform="translate(50.643218 0) scale(0.996264)"/>
       <use xlink:href="#HFBR17-30" transform="translate(101.286436 0) scale(0.996264)"/>
      </g>
     </g>
    </g>
    <g id="text_8">
     <!-- Preferred orientation of neurons $(^\circ)$ -->
     <g transform="translate(132.910948 418.444335) scale(0.175 -0.175)">
      <defs>
       <path id="HFBR17-50" d="M 512 4480 
L 512 32 
L 960 32 
L 960 1920 
L 1862 1920 
C 2003 1920 2144 1920 2278 1920 
C 2752 1959 3149 2153 3418 2443 
C 3693 2746 3814 3210 3635 3603 
C 3430 4099 2944 4415 2323 4480 
C 2138 4480 1946 4480 1760 4480 
L 512 4480 
z
M 954 2254 
L 954 4139 
L 1830 4139 
C 2387 4139 2893 4075 3149 3690 
C 3322 3432 3347 3072 3206 2795 
C 3130 2646 3014 2531 2874 2447 
C 2560 2254 2195 2254 1843 2254 
L 954 2254 
z
" transform="scale(0.015625)"/>
       <path id="HFBR17-72" d="M 800 2224 
L 794 2224 
L 794 3033 
L 410 3033 
L 410 0 
L 813 0 
L 813 1465 
C 813 1562 813 1658 826 1754 
C 915 2301 1389 2706 2010 2706 
L 2010 3072 
C 1600 3072 1222 2873 979 2545 
C 909 2449 832 2339 800 2224 
z
" transform="scale(0.015625)"/>
       <path id="HFBR17-65" d="M 2675 700 
C 2528 591 2483 533 2298 436 
C 1907 224 1446 224 1114 459 
C 794 689 608 1065 608 1600 
L 2720 1600 
C 2720 2075 2611 2487 2342 2776 
C 2048 3065 1587 3155 1197 3033 
C 1050 2988 915 2911 794 2814 
C 390 2487 218 1966 224 1458 
C 237 790 691 122 1363 -20 
C 1715 -91 2086 -13 2400 147 
C 2458 179 2669 295 2694 353 
C 2714 385 2675 700 2675 700 
z
M 2381 1850 
L 640 1850 
C 717 2319 1101 2814 1619 2756 
C 2042 2718 2266 2416 2349 2037 
C 2362 1972 2368 1915 2381 1850 
z
" transform="scale(0.015625)"/>
       <path id="HFBR17-66" d="M 678 3009 
L 128 3009 
L 128 2688 
L 678 2688 
L 678 -32 
L 1082 -32 
L 1082 2688 
L 1875 2688 
L 1875 3009 
L 1075 3009 
L 1075 3570 
C 1075 3660 1056 3771 1094 3861 
C 1229 4144 1683 4196 2054 4132 
C 2131 4119 2202 4093 2278 4080 
L 2278 4441 
C 1843 4512 1363 4512 1005 4219 
C 947 4168 896 4118 851 4053 
C 717 3888 678 3704 678 3417 
L 678 3009 
z
" transform="scale(0.015625)"/>
       <path id="HFBR17-64" d="M 2278 4460 
L 2278 2648 
C 2157 2783 2035 2911 1869 2988 
C 1299 3226 749 2918 467 2410 
C 141 1806 179 1009 570 443 
C 845 51 1299 -141 1779 32 
C 1965 103 2189 289 2266 456 
L 2272 456 
L 2272 0 
L 2682 0 
L 2682 4460 
L 2278 4460 
z
M 2253 2397 
C 2285 2339 2272 2262 2272 2198 
L 2272 874 
C 2272 726 2266 713 2182 598 
C 2067 424 1888 302 1677 283 
C 1370 257 1056 405 877 656 
C 774 803 717 983 685 1163 
C 672 1234 672 1298 666 1369 
C 627 1793 717 2294 1088 2564 
C 1152 2609 1222 2641 1293 2673 
C 1664 2815 2074 2776 2253 2397 
z
" transform="scale(0.015625)"/>
       <path id="HFBR17-6f" d="M 685 2693 
C 115 2127 51 1144 544 508 
C 614 411 698 328 794 257 
C 1030 64 1376 -77 1779 -32 
C 2419 45 2861 566 2995 1112 
C 3174 1877 2797 2731 2093 3001 
C 1542 3226 992 3001 685 2693 
z
M 2285 2519 
C 2592 2242 2650 1799 2624 1407 
C 2605 1105 2522 790 2310 565 
C 1965 192 1325 192 954 552 
C 762 758 646 1053 627 1407 
C 595 1927 723 2480 1235 2686 
C 1613 2853 2048 2731 2285 2519 
z
" transform="scale(0.015625)"/>
       <path id="HFBR17-69" d="M 410 4480 
L 410 4075 
L 813 4075 
L 813 4480 
L 410 4480 
z
M 410 3033 
L 410 0 
L 813 0 
L 813 3033 
L 410 3033 
z
" transform="scale(0.015625)"/>
       <path id="HFBR17-6e" d="M 806 2386 
L 800 2386 
L 800 3033 
L 410 3033 
L 410 0 
L 819 0 
L 819 1404 
C 819 1718 800 2040 941 2334 
C 1011 2482 1120 2610 1267 2687 
C 1389 2745 1517 2745 1651 2732 
C 1843 2732 2029 2681 2150 2520 
C 2266 2372 2272 2180 2272 2000 
L 2272 0 
L 2682 0 
L 2682 1719 
C 2682 2040 2714 2392 2560 2681 
C 2438 2912 2202 3021 1952 3053 
C 1824 3072 1690 3072 1562 3047 
C 1229 2976 922 2707 806 2386 
z
" transform="scale(0.015625)"/>
       <path id="HFBR17-74" d="M 691 3872 
L 691 3009 
L 70 3009 
L 70 2688 
L 685 2688 
L 685 961 
C 685 677 666 335 851 97 
C 960 -45 1107 -83 1331 -64 
C 1517 -64 1702 -25 1875 42 
C 1933 68 2144 161 2170 207 
C 2182 233 2099 518 2099 518 
L 1946 401 
C 1747 278 1350 149 1184 382 
C 1037 582 1075 880 1075 1112 
L 1075 2688 
L 2067 2688 
L 2067 3009 
L 1075 3009 
L 1075 3872 
L 691 3872 
z
" transform="scale(0.015625)"/>
       <path id="HFBR17-61" d="M 506 2497 
C 614 2551 704 2630 813 2683 
C 986 2762 1165 2816 1357 2816 
C 1446 2822 1549 2835 1638 2816 
C 1798 2790 1939 2693 2035 2557 
C 2131 2401 2170 2265 2170 2014 
L 2170 1729 
C 1862 1729 1555 1703 1261 1625 
C 890 1541 486 1352 352 1014 
C 218 690 358 261 646 66 
C 787 -32 954 -32 1120 -19 
C 1389 0 1658 65 1888 208 
C 1997 272 2106 357 2170 467 
L 2176 467 
L 2176 13 
L 2579 13 
L 2579 1721 
C 2579 1908 2598 2109 2560 2297 
C 2522 2555 2362 2769 2176 2918 
C 1958 3086 1709 3143 1376 3118 
C 1069 3118 832 3040 602 2929 
C 570 2916 506 2895 486 2857 
C 467 2830 480 2785 480 2752 
C 493 2667 499 2582 506 2497 
z
M 2170 1536 
L 2170 1048 
C 2170 900 2176 765 2093 637 
C 2022 534 1926 463 1824 412 
C 1459 225 902 283 742 592 
C 614 816 749 1080 934 1228 
C 1210 1440 1747 1536 2170 1536 
z
" transform="scale(0.015625)"/>
       <path id="HFBR17-75" d="M 410 3008 
L 410 830 
C 410 643 416 457 493 283 
C 614 33 870 -64 1133 -64 
C 1485 -64 1837 52 2093 303 
C 2163 373 2227 444 2272 534 
L 2278 534 
L 2278 -25 
L 2682 -25 
L 2682 3008 
L 2272 3008 
L 2272 1466 
C 2272 1196 2310 900 2170 656 
C 2067 476 1888 335 1690 271 
C 1555 232 1414 232 1274 245 
C 1139 258 992 271 902 386 
C 774 541 819 907 819 1132 
L 819 3008 
L 410 3008 
z
" transform="scale(0.015625)"/>
       <path id="HFBR17-73" d="M 198 617 
C 186 527 166 444 154 354 
C 141 283 122 251 186 219 
C 448 65 762 -19 1133 -51 
C 1549 -90 2074 7 2278 418 
C 2336 534 2368 662 2374 791 
C 2400 1253 2035 1549 1722 1658 
C 1370 1793 890 1748 646 2018 
C 518 2166 512 2385 634 2539 
C 890 2899 1715 2744 2042 2584 
C 2093 2558 2138 2526 2195 2513 
L 2253 2860 
C 1952 2995 1690 3072 1274 3072 
C 915 3072 589 2989 384 2783 
C 179 2571 109 2217 230 1948 
C 346 1690 589 1523 851 1440 
C 1229 1305 1658 1369 1907 1061 
C 2048 881 2022 611 1862 450 
C 1555 167 902 270 544 424 
C 422 476 314 553 198 617 
z
" transform="scale(0.015625)"/>
       <path id="HFBR17-28" d="M 2189 -1408 
C 2138 -1350 2074 -1298 2016 -1247 
C 1965 -1202 1920 -1151 1875 -1099 
C 1235 -392 902 739 954 1941 
C 979 2596 1107 3264 1414 3856 
C 1555 4119 1798 4492 2016 4678 
C 2074 4730 2138 4781 2189 4839 
L 1978 4839 
C 1946 4839 1901 4845 1869 4833 
C 1792 4794 1600 4601 1574 4575 
C 960 3959 595 3027 544 1941 
C 512 1163 640 372 986 -322 
C 1139 -630 1344 -913 1587 -1157 
C 1651 -1221 1792 -1363 1869 -1401 
C 1901 -1414 1946 -1408 1978 -1408 
L 2189 -1408 
z
" transform="scale(0.015625)"/>
       <path id="HFBRSY10-e" d="M 582 2413 
C 250 1933 282 1248 698 819 
C 858 659 1050 550 1267 486 
C 1773 339 2266 570 2509 832 
C 2938 1293 2944 2029 2541 2502 
C 2394 2682 2182 2803 1965 2874 
C 1389 3072 832 2758 582 2413 
z
M 1894 2630 
C 2029 2586 2150 2522 2253 2432 
C 2643 2080 2694 1472 2368 1062 
C 2202 864 1978 723 1658 698 
C 1357 685 1107 794 941 941 
C 550 1293 499 1901 826 2310 
C 902 2400 992 2483 1094 2541 
C 1318 2669 1606 2726 1894 2630 
z
" transform="scale(0.015625)"/>
       <path id="HFBR17-29" d="M 320 4839 
C 371 4781 435 4730 493 4678 
C 544 4633 589 4582 634 4530 
C 1190 3888 1510 3014 1555 1941 
C 1587 1144 1466 315 1101 -405 
C 979 -656 819 -894 634 -1099 
C 589 -1151 544 -1202 493 -1247 
C 435 -1298 371 -1350 320 -1408 
L 531 -1408 
C 563 -1408 608 -1414 640 -1401 
C 717 -1363 909 -1170 934 -1144 
C 1549 -527 1914 405 1965 1491 
C 1997 2268 1869 3059 1523 3753 
C 1370 4061 1165 4344 922 4588 
C 858 4653 717 4794 640 4833 
C 608 4845 563 4839 531 4839 
L 320 4839 
z
" transform="scale(0.015625)"/>
      </defs>
      <use xlink:href="#HFBR17-50" transform="scale(0.996264)"/>
      <use xlink:href="#HFBR17-72" transform="translate(62.888907 0) scale(0.996264)"/>
      <use xlink:href="#HFBR17-65" transform="translate(94.852266 0) scale(0.996264)"/>
      <use xlink:href="#HFBR17-66" transform="translate(139.683934 0) scale(0.996264)"/>
      <use xlink:href="#HFBR17-65" transform="translate(169.986878 0) scale(0.996264)"/>
      <use xlink:href="#HFBR17-72" transform="translate(214.818545 0) scale(0.996264)"/>
      <use xlink:href="#HFBR17-72" transform="translate(246.781904 0) scale(0.996264)"/>
      <use xlink:href="#HFBR17-65" transform="translate(278.745263 0) scale(0.996264)"/>
      <use xlink:href="#HFBR17-64" transform="translate(323.576931 0) scale(0.996264)"/>
      <use xlink:href="#HFBR17-6f" transform="translate(403.194639 0) scale(0.996264)"/>
      <use xlink:href="#HFBR17-72" transform="translate(450.932128 0) scale(0.996264)"/>
      <use xlink:href="#HFBR17-69" transform="translate(482.895487 0) scale(0.996264)"/>
      <use xlink:href="#HFBR17-65" transform="translate(501.990445 0) scale(0.996264)"/>
      <use xlink:href="#HFBR17-6e" transform="translate(546.822113 0) scale(0.996264)"/>
      <use xlink:href="#HFBR17-74" transform="translate(594.97461 0) scale(0.996264)"/>
      <use xlink:href="#HFBR17-61" transform="translate(631.088998 0) scale(0.996264)"/>
      <use xlink:href="#HFBR17-74" transform="translate(677.58108 0) scale(0.996264)"/>
      <use xlink:href="#HFBR17-69" transform="translate(713.695468 0) scale(0.996264)"/>
      <use xlink:href="#HFBR17-6f" transform="translate(732.790427 0) scale(0.996264)"/>
      <use xlink:href="#HFBR17-6e" transform="translate(783.433645 0) scale(0.996264)"/>
      <use xlink:href="#HFBR17-6f" transform="translate(863.051353 0) scale(0.996264)"/>
      <use xlink:href="#HFBR17-66" transform="translate(913.694571 0) scale(0.996264)"/>
      <use xlink:href="#HFBR17-6e" transform="translate(975.462727 0) scale(0.996264)"/>
      <use xlink:href="#HFBR17-65" transform="translate(1023.615224 0) scale(0.996264)"/>
      <use xlink:href="#HFBR17-75" transform="translate(1068.446892 0) scale(0.996264)"/>
      <use xlink:href="#HFBR17-72" transform="translate(1116.599389 0) scale(0.996264)"/>
      <use xlink:href="#HFBR17-6f" transform="translate(1148.562747 0) scale(0.996264)"/>
      <use xlink:href="#HFBR17-6e" transform="translate(1199.205965 0) scale(0.996264)"/>
      <use xlink:href="#HFBR17-73" transform="translate(1247.358462 0) scale(0.996264)"/>
      <use xlink:href="#HFBR17-28" transform="translate(1317.262703 0) scale(0.996264)"/>
      <use xlink:href="#HFBRSY10-e" transform="translate(1356.282912 36.153639) scale(0.697382)"/>
      <use xlink:href="#HFBR17-29" transform="translate(1391.650254 0) scale(0.996264)"/>
     </g>
    </g>
   </g>
   <g id="matplotlib.axis_2">
    <g id="ytick_1">
     <g id="line2d_9">
      <defs>
       <path id="m7c3894e070" d="M 0 0 
L -3.5 0 
" style="stroke: #000000; stroke-width: 0.8"/>
      </defs>
      <g>
       <use xlink:href="#m7c3894e070" x="63" y="376.529618" style="stroke: #000000; stroke-width: 0.8"/>
      </g>
     </g>
     <g id="text_9">
      <!-- $\mathdefault{0}$ -->
      <g transform="translate(48.154497 381.718488) scale(0.15 -0.15)">
       <use xlink:href="#HFBR17-30" transform="scale(0.996264)"/>
      </g>
     </g>
    </g>
    <g id="ytick_2">
     <g id="line2d_10">
      <g>
       <use xlink:href="#m7c3894e070" x="63" y="317.714341" style="stroke: #000000; stroke-width: 0.8"/>
      </g>
     </g>
     <g id="text_10">
      <!-- $\mathdefault{10}$ -->
      <g transform="translate(40.308994 322.903211) scale(0.15 -0.15)">
       <use xlink:href="#HFBR17-31" transform="scale(0.996264)"/>
       <use xlink:href="#HFBR17-30" transform="translate(50.643218 0) scale(0.996264)"/>
      </g>
     </g>
    </g>
    <g id="ytick_3">
     <g id="line2d_11">
      <g>
       <use xlink:href="#m7c3894e070" x="63" y="258.899064" style="stroke: #000000; stroke-width: 0.8"/>
      </g>
     </g>
     <g id="text_11">
      <!-- $\mathdefault{20}$ -->
      <g transform="translate(40.308994 264.087934) scale(0.15 -0.15)">
       <defs>
        <path id="HFBR17-32" d="M 467 2942 
C 557 3302 710 3711 1075 3872 
C 1229 3936 1395 3949 1562 3936 
C 1875 3910 2182 3782 2374 3526 
C 2515 3333 2566 3096 2541 2866 
C 2464 2198 1811 1718 1389 1359 
C 1146 1154 454 500 454 500 
L 346 397 
C 288 340 282 340 282 224 
L 282 0 
L 2970 0 
L 2970 360 
L 653 360 
C 858 559 1709 1313 1824 1403 
C 2195 1706 2611 2008 2835 2446 
C 3085 2948 2976 3580 2554 3953 
C 2298 4179 1946 4288 1606 4288 
C 1293 4288 973 4224 723 4026 
C 531 3865 371 3628 282 3384 
C 262 3346 230 3282 237 3237 
C 243 3199 282 3167 301 3141 
C 352 3077 403 3000 467 2942 
z
" transform="scale(0.015625)"/>
       </defs>
       <use xlink:href="#HFBR17-32" transform="scale(0.996264)"/>
       <use xlink:href="#HFBR17-30" transform="translate(50.643218 0) scale(0.996264)"/>
      </g>
     </g>
    </g>
    <g id="ytick_4">
     <g id="line2d_12">
      <g>
       <use xlink:href="#m7c3894e070" x="63" y="200.083787" style="stroke: #000000; stroke-width: 0.8"/>
      </g>
     </g>
     <g id="text_12">
      <!-- $\mathdefault{30}$ -->
      <g transform="translate(40.308994 205.272657) scale(0.15 -0.15)">
       <defs>
        <path id="HFBR17-33" d="M 518 3246 
C 570 3323 608 3407 666 3484 
C 800 3664 986 3805 1197 3889 
C 1530 4024 2016 4024 2278 3726 
C 2509 3461 2413 3047 2202 2802 
C 2010 2576 1760 2466 1389 2466 
C 1280 2466 1178 2434 1069 2434 
L 1069 2112 
L 1510 2112 
C 1882 2112 2125 2055 2330 1836 
C 2682 1463 2650 801 2259 461 
C 2061 294 1786 242 1530 261 
C 1030 300 589 564 294 975 
C 262 911 262 821 250 750 
C 230 647 230 647 294 564 
C 480 313 845 82 1133 -2 
C 1645 -156 2240 -86 2637 306 
C 2714 384 2784 467 2842 557 
C 3078 930 3085 1418 2822 1778 
C 2714 1926 2573 2042 2413 2132 
C 2304 2196 2176 2260 2048 2273 
C 2419 2447 2765 2741 2829 3223 
C 2886 3672 2624 3948 2355 4108 
C 1939 4352 1395 4352 966 4139 
C 768 4043 589 3902 454 3728 
C 429 3696 333 3587 333 3535 
C 333 3503 358 3471 378 3445 
L 518 3246 
z
" transform="scale(0.015625)"/>
       </defs>
       <use xlink:href="#HFBR17-33" transform="scale(0.996264)"/>
       <use xlink:href="#HFBR17-30" transform="translate(50.643218 0) scale(0.996264)"/>
      </g>
     </g>
    </g>
    <g id="ytick_5">
     <g id="line2d_13">
      <g>
       <use xlink:href="#m7c3894e070" x="63" y="141.26851" style="stroke: #000000; stroke-width: 0.8"/>
      </g>
     </g>
     <g id="text_13">
      <!-- $\mathdefault{40}$ -->
      <g transform="translate(40.308994 146.45738) scale(0.15 -0.15)">
       <defs>
        <path id="HFBR17-34" d="M 134 1152 
L 1984 1152 
L 1984 0 
L 2387 0 
L 2387 1152 
L 3117 1152 
L 3117 1493 
L 2387 1493 
L 2387 4254 
L 2042 4254 
C 1926 4254 1894 4261 1843 4164 
C 1587 3745 237 1649 192 1591 
C 141 1500 134 1507 134 1372 
L 134 1152 
z
M 2003 3896 
L 2003 1493 
L 550 1493 
C 595 1583 659 1666 717 1756 
C 1037 2251 1798 3427 1958 3794 
C 1978 3826 1984 3864 2003 3896 
z
" transform="scale(0.015625)"/>
       </defs>
       <use xlink:href="#HFBR17-34" transform="scale(0.996264)"/>
       <use xlink:href="#HFBR17-30" transform="translate(50.643218 0) scale(0.996264)"/>
      </g>
     </g>
    </g>
    <g id="text_14">
     <!-- Firing rate (Hz) -->
     <g transform="translate(32.434637 270.314588) rotate(-90) scale(0.175 -0.175)">
      <defs>
       <path id="HFBR17-46" d="M 512 4437 
L 512 0 
L 960 0 
L 960 2048 
L 3078 2048 
L 3078 2388 
L 960 2388 
L 960 4096 
L 3354 4096 
L 3354 4437 
L 512 4437 
z
" transform="scale(0.015625)"/>
       <path id="HFBR17-67" d="M 2266 767 
L 2272 767 
L 2272 170 
C 2272 -10 2272 -183 2214 -356 
C 2118 -588 1952 -800 1677 -838 
C 1600 -845 1517 -838 1440 -832 
C 1024 -832 749 -707 416 -555 
L 416 -799 
C 416 -922 435 -928 557 -967 
C 883 -1102 1472 -1236 1875 -1134 
C 2323 -1018 2650 -594 2682 -78 
C 2688 12 2682 109 2682 200 
L 2682 3072 
L 2278 3072 
L 2278 2559 
C 2182 2719 2080 2867 1914 2970 
C 1466 3240 858 2944 608 2597 
C 198 2089 122 1302 448 735 
C 512 626 589 523 678 433 
C 986 131 1510 -30 1888 240 
C 2042 343 2221 581 2266 767 
z
M 1632 2752 
C 1690 2752 1754 2752 1811 2739 
C 2042 2694 2170 2488 2246 2282 
C 2291 2141 2278 1987 2278 1839 
C 2278 1518 2272 1184 2163 881 
C 2086 657 1926 457 1677 432 
C 1594 425 1510 438 1427 457 
C 1037 547 768 881 685 1267 
C 570 1826 845 2507 1408 2700 
C 1478 2726 1555 2745 1632 2752 
z
" transform="scale(0.015625)"/>
       <path id="HFBR17-48" d="M 512 4460 
L 512 0 
L 960 0 
L 960 2155 
L 3386 2155 
L 3386 0 
L 3834 0 
L 3834 4460 
L 3386 4460 
L 3386 2496 
L 960 2496 
L 960 4460 
L 512 4460 
z
" transform="scale(0.015625)"/>
       <path id="HFBR17-7a" d="M 230 3008 
L 230 2693 
L 2074 2693 
L 646 866 
C 480 643 294 446 141 210 
C 134 147 134 70 134 0 
L 2650 0 
L 2650 321 
L 691 321 
L 2131 2155 
C 2291 2372 2464 2575 2624 2798 
C 2630 2862 2630 2939 2630 3008 
L 230 3008 
z
" transform="scale(0.015625)"/>
      </defs>
      <use xlink:href="#HFBR17-46" transform="scale(0.996264)"/>
      <use xlink:href="#HFBR17-69" transform="translate(55.832057 0) scale(0.996264)"/>
      <use xlink:href="#HFBR17-72" transform="translate(74.927016 0) scale(0.996264)"/>
      <use xlink:href="#HFBR17-69" transform="translate(106.890375 0) scale(0.996264)"/>
      <use xlink:href="#HFBR17-6e" transform="translate(125.985334 0) scale(0.996264)"/>
      <use xlink:href="#HFBR17-67" transform="translate(174.137831 0) scale(0.996264)"/>
      <use xlink:href="#HFBR17-72" transform="translate(253.75554 0) scale(0.996264)"/>
      <use xlink:href="#HFBR17-61" transform="translate(285.718898 0) scale(0.996264)"/>
      <use xlink:href="#HFBR17-74" transform="translate(332.210981 0) scale(0.996264)"/>
      <use xlink:href="#HFBR17-65" transform="translate(368.325369 0) scale(0.996264)"/>
      <use xlink:href="#HFBR17-28" transform="translate(444.622248 0) scale(0.996264)"/>
      <use xlink:href="#HFBR17-48" transform="translate(483.642457 0) scale(0.996264)"/>
      <use xlink:href="#HFBR17-7a" transform="translate(551.30521 0) scale(0.996264)"/>
      <use xlink:href="#HFBR17-29" transform="translate(594.061363 0) scale(0.996264)"/>
     </g>
    </g>
   </g>
   <g id="PathCollection_2">
    <defs>
     <path id="m57a684a296" d="M -0 8.660254 
L 8.660254 -8.660254 
L -8.660254 -8.660254 
z
" style="stroke: #00008b"/>
    </defs>
    <g clip-path="url(#p0b0c260d40)">
     <use xlink:href="#m57a684a296" x="242.115599" y="67.068926" style="fill: #00008b; stroke: #00008b"/>
    </g>
   </g>
   <g id="line2d_14">
    <path d="M 63 352.645297 
L 68.888442 350.32141 
L 72.81407 348.493063 
L 76.739698 346.487446 
L 80.665327 344.179511 
L 84.590955 341.659533 
L 88.516583 338.854484 
L 92.442211 335.710998 
L 96.367839 332.209991 
L 98.330653 330.460449 
L 104.219095 324.426975 
L 110.107538 317.609571 
L 114.033166 312.59324 
L 119.921608 304.388773 
L 123.847236 298.562836 
L 127.772864 292.341449 
L 133.661307 282.431431 
L 137.586935 275.587272 
L 147.401005 257.54105 
L 159.177889 235.438251 
L 167.029146 221.358511 
L 172.917588 211.500083 
L 178.80603 202.676461 
L 182.731658 197.511686 
L 186.657286 192.873303 
L 192.545729 187.26022 
L 196.471357 184.623951 
L 198.434171 183.444952 
L 200.396985 182.482142 
L 202.359799 181.81093 
L 206.285427 180.938105 
L 210.211055 180.994357 
L 212.173869 181.546666 
L 214.136683 181.862602 
L 216.099497 182.714513 
L 220.025126 184.974094 
L 221.98794 186.291478 
L 223.950754 187.874116 
L 225.913568 189.65514 
L 229.839196 193.616432 
L 231.80201 195.921033 
L 235.727638 200.899636 
L 241.61608 209.513413 
L 245.541709 215.827165 
L 251.430151 225.875165 
L 263.207035 247.66559 
L 271.058291 262.410498 
L 278.909548 276.682523 
L 286.760804 290.11603 
L 292.649246 299.493137 
L 296.574874 305.28029 
L 300.500503 310.739566 
L 306.388945 318.306527 
L 310.314573 322.886687 
L 318.165829 330.96236 
L 320.128643 332.812782 
L 326.017085 337.759464 
L 329.942714 340.653656 
L 331.905528 342.061682 
L 335.831156 344.50939 
L 339.756784 346.750365 
L 345.645226 349.680727 
L 349.570854 351.365513 
L 355.459296 353.490546 
L 361.347739 355.257289 
L 369.198995 357.116413 
L 377.050251 358.483462 
L 384.901508 359.411265 
L 394.715578 360.120042 
L 400.60402 360.289987 
L 408.455276 360.249554 
L 414.343719 360.090253 
L 418.269347 359.830544 
L 422.194975 359.549434 
L 428.083417 358.937225 
L 435.934673 357.777098 
L 445.748744 355.629694 
L 453.6 353.285601 
L 453.6 353.285601 
" clip-path="url(#p0b0c260d40)" style="fill: none; stroke: #1e90ff; stroke-width: 3; stroke-linecap: square"/>
   </g>
   <g id="line2d_15">
    <path d="M 63 362.567559 
L 66.925628 361.328291 
L 70.851256 359.882942 
L 74.776884 358.204133 
L 78.702513 356.262203 
L 82.628141 354.02547 
L 86.553769 351.460629 
L 90.479397 348.533306 
L 94.405025 345.208778 
L 98.330653 341.452859 
L 102.256281 337.232946 
L 106.18191 332.519215 
L 110.107538 327.285938 
L 114.033166 321.512889 
L 117.958794 315.186789 
L 121.884422 308.30275 
L 125.81005 300.86565 
L 129.735678 292.891376 
L 133.661307 284.407883 
L 137.586935 275.455995 
L 143.475377 261.272139 
L 149.363819 246.398959 
L 167.029146 200.960652 
L 170.954774 191.454138 
L 174.880402 182.441148 
L 178.80603 174.051169 
L 182.731658 166.409086 
L 184.694472 162.905523 
L 186.657286 159.632134 
L 188.620101 156.601891 
L 190.582915 153.826929 
L 192.545729 151.318463 
L 194.508543 149.086715 
L 196.471357 147.140847 
L 198.434171 145.488899 
L 200.396985 144.13773 
L 202.359799 143.092977 
L 204.322613 142.359013 
L 206.285427 141.938919 
L 208.248241 141.83446 
L 210.211055 142.046077 
L 212.173869 142.572881 
L 214.136683 143.412658 
L 216.099497 144.561888 
L 218.062312 146.015766 
L 220.025126 147.768238 
L 221.98794 149.812037 
L 223.950754 152.13874 
L 225.913568 154.738819 
L 227.876382 157.601705 
L 229.839196 160.715864 
L 231.80201 164.068867 
L 235.727638 171.437728 
L 239.653266 179.59423 
L 243.578894 188.415656 
L 247.504523 197.773676 
L 253.392965 212.530579 
L 273.021106 262.915304 
L 278.909548 277.004704 
L 282.835176 285.880514 
L 286.760804 294.280106 
L 290.686432 302.164877 
L 294.61206 309.508975 
L 298.537688 316.298455 
L 302.463317 322.530181 
L 306.388945 328.210562 
L 310.314573 333.354153 
L 314.240201 337.982214 
L 318.165829 342.121263 
L 322.091457 345.801683 
L 326.017085 349.056424 
L 329.942714 351.919833 
L 333.868342 354.426631 
L 337.79397 356.611058 
L 341.719598 358.50618 
L 345.645226 360.143364 
L 349.570854 361.551903 
L 353.496482 362.758772 
L 357.422111 363.788512 
L 363.310553 365.048621 
L 369.198995 366.023652 
L 375.087437 366.76652 
L 380.975879 367.319716 
L 388.827136 367.818309 
L 396.678392 368.09326 
L 404.529648 368.176448 
L 412.380905 368.077715 
L 420.232161 367.785393 
L 428.083417 367.265684 
L 433.971859 366.692922 
L 439.860302 365.926178 
L 445.748744 364.921828 
L 451.637186 363.625701 
L 453.6 363.117807 
L 453.6 363.117807 
" clip-path="url(#p0b0c260d40)" style="fill: none; stroke-dasharray: 11.1,4.8; stroke-dashoffset: 0; stroke: #1e90ff; stroke-width: 3"/>
   </g>
   <g id="patch_3">
    <path d="M 63 376.529618 
L 63 123.623927 
" style="fill: none; stroke: #000000; stroke-width: 0.8; stroke-linejoin: miter; stroke-linecap: square"/>
   </g>
   <g id="patch_4">
    <path d="M 63 378 
L 453.6 378 
" style="fill: none; stroke: #000000; stroke-width: 0.8; stroke-linejoin: miter; stroke-linecap: square"/>
   </g>
   <g id="line2d_16">
    <path d="M 63 363.058467 
L 64.962814 362.954548 
L 68.888442 362.434191 
L 70.851256 362.340801 
L 78.702513 361.301123 
L 84.590955 360.348168 
L 88.516583 359.393775 
L 90.479397 359.024125 
L 96.367839 357.405623 
L 102.256281 355.322459 
L 108.144724 352.838503 
L 112.070352 350.750294 
L 115.99598 348.553911 
L 117.958794 347.248344 
L 119.921608 346.104295 
L 121.884422 344.614224 
L 123.847236 343.307395 
L 129.735678 338.434235 
L 131.698492 336.38279 
L 133.661307 334.728681 
L 135.624121 332.779869 
L 139.549749 328.32083 
L 141.512563 326.121175 
L 147.401005 318.456789 
L 149.363819 315.909519 
L 153.289447 310.059411 
L 157.215075 303.789502 
L 161.140704 297.126096 
L 167.029146 286.415903 
L 170.954774 278.883046 
L 176.843216 267.014951 
L 178.80603 262.638183 
L 180.768844 258.761271 
L 182.731658 254.410003 
L 188.620101 242.133119 
L 194.508543 229.041105 
L 196.471357 225.198521 
L 198.434171 220.727906 
L 208.248241 201.40134 
L 214.136683 191.28791 
L 216.099497 188.086996 
L 221.98794 179.766799 
L 223.950754 177.22097 
L 229.839196 171.256292 
L 231.80201 170.240384 
L 233.764824 168.554488 
L 235.727638 167.814786 
L 237.690452 166.76796 
L 239.653266 166.501216 
L 241.61608 165.696598 
L 245.541709 165.885576 
L 247.504523 166.179027 
L 249.467337 167.425213 
L 251.430151 167.954796 
L 253.392965 169.559126 
L 255.355779 170.832754 
L 261.244221 176.286719 
L 263.207035 178.870576 
L 265.169849 181.245811 
L 269.095477 186.966228 
L 274.98392 196.593186 
L 280.872362 207.420548 
L 286.760804 219.35462 
L 300.500503 248.689252 
L 302.463317 253.035546 
L 308.351759 265.142814 
L 310.314573 269.703757 
L 314.240201 277.295258 
L 318.165829 285.007239 
L 320.128643 288.771664 
L 326.017085 299.087855 
L 329.942714 305.723718 
L 337.79397 317.451826 
L 339.756784 319.924988 
L 341.719598 322.703715 
L 349.570854 331.774351 
L 355.459296 337.68724 
L 357.422111 339.279868 
L 359.384925 341.030493 
L 365.273367 345.462132 
L 367.236181 346.613964 
L 369.198995 348.029408 
L 371.161809 349.044741 
L 373.124623 350.316027 
L 375.087437 351.238425 
L 377.050251 352.389736 
L 380.975879 354.063074 
L 382.938693 354.707209 
L 386.864322 356.31811 
L 388.827136 357.025921 
L 390.78995 357.477064 
L 392.752764 358.198562 
L 396.678392 359.238136 
L 408.455276 361.5602 
L 420.232161 362.824548 
L 422.194975 362.76682 
L 424.157789 363.025836 
L 432.009045 363.49614 
L 435.934673 363.623033 
L 439.860302 363.550277 
L 441.823116 363.58923 
L 445.748744 363.497586 
L 449.674372 363.40678 
L 451.637186 363.233597 
L 453.6 363.185238 
L 453.6 363.185238 
" clip-path="url(#p0b0c260d40)" style="fill: none; stroke: #00008b; stroke-width: 3; stroke-linecap: square"/>
   </g>
   <g id="legend_1">
    <g id="patch_5">
     <path d="M 369.205021 133.274248 
L 444.5 133.274248 
Q 447.1 133.274248 447.1 130.674248 
L 447.1 60.94 
Q 447.1 58.34 444.5 58.34 
L 369.205021 58.34 
Q 366.605021 58.34 366.605021 60.94 
L 366.605021 130.674248 
Q 366.605021 133.274248 369.205021 133.274248 
z
" style="fill: #ffffff; opacity: 0.8; stroke: #cccccc; stroke-linejoin: miter"/>
    </g>
    <g id="line2d_17">
     <path d="M 371.805021 68.09 
L 384.805021 68.09 
L 397.805021 68.09 
" style="fill: none; stroke: #add8e6; stroke-width: 3; stroke-linecap: square"/>
    </g>
    <g id="text_15">
     <!-- 0 s -->
     <g transform="translate(408.205021 72.64) scale(0.13 -0.13)">
      <use xlink:href="#HFBR17-30" transform="scale(0.996264)"/>
      <use xlink:href="#HFBR17-73" transform="translate(82.108429 0) scale(0.996264)"/>
     </g>
    </g>
    <g id="line2d_18">
     <path d="M 371.805021 85.848562 
L 384.805021 85.848562 
L 397.805021 85.848562 
" style="fill: none; stroke: #1e90ff; stroke-width: 3; stroke-linecap: square"/>
    </g>
    <g id="text_16">
     <!-- 0.75 s -->
     <g transform="translate(408.205021 90.398562) scale(0.13 -0.13)">
      <defs>
       <path id="HFBR17-2e" d="M 634 501 
L 634 0 
L 1133 0 
L 1133 501 
L 634 501 
z
" transform="scale(0.015625)"/>
       <path id="HFBR17-37" d="M 230 4200 
L 230 3840 
L 2739 3840 
L 2502 3608 
C 2291 3383 2099 3144 1926 2887 
C 1350 2017 1037 980 1037 -64 
L 1466 -64 
C 1466 877 1702 1817 2150 2648 
C 2368 3067 2598 3369 2899 3723 
C 2938 3762 2995 3807 3014 3858 
C 3027 3890 3021 3935 3021 3975 
L 3021 4200 
L 230 4200 
z
" transform="scale(0.015625)"/>
      </defs>
      <use xlink:href="#HFBR17-30" transform="scale(0.996264)"/>
      <use xlink:href="#HFBR17-2e" transform="translate(50.643218 0) scale(0.996264)"/>
      <use xlink:href="#HFBR17-37" transform="translate(78.040341 0) scale(0.996264)"/>
      <use xlink:href="#HFBR17-35" transform="translate(128.683559 0) scale(0.996264)"/>
      <use xlink:href="#HFBR17-73" transform="translate(210.791989 0) scale(0.996264)"/>
     </g>
    </g>
    <g id="line2d_19">
     <path d="M 371.805021 103.607124 
L 384.805021 103.607124 
L 397.805021 103.607124 
" style="fill: none; stroke-dasharray: 11.1,4.8; stroke-dashoffset: 0; stroke: #1e90ff; stroke-width: 3"/>
    </g>
    <g id="text_17">
     <!-- 2.75 -->
     <g transform="translate(408.205021 108.157124) scale(0.13 -0.13)">
      <use xlink:href="#HFBR17-32" transform="scale(0.996264)"/>
      <use xlink:href="#HFBR17-2e" transform="translate(50.643218 0) scale(0.996264)"/>
      <use xlink:href="#HFBR17-37" transform="translate(78.040341 0) scale(0.996264)"/>
      <use xlink:href="#HFBR17-35" transform="translate(128.683559 0) scale(0.996264)"/>
     </g>
    </g>
    <g id="line2d_20">
     <path d="M 371.805021 121.365686 
L 384.805021 121.365686 
L 397.805021 121.365686 
" style="fill: none; stroke: #00008b; stroke-width: 3; stroke-linecap: square"/>
    </g>
    <g id="text_18">
     <!-- 3.5 s -->
     <g transform="translate(408.205021 125.915686) scale(0.13 -0.13)">
      <use xlink:href="#HFBR17-33" transform="scale(0.996264)"/>
      <use xlink:href="#HFBR17-2e" transform="translate(50.643218 0) scale(0.996264)"/>
      <use xlink:href="#HFBR17-35" transform="translate(78.040341 0) scale(0.996264)"/>
      <use xlink:href="#HFBR17-73" transform="translate(160.148771 0) scale(0.996264)"/>
     </g>
    </g>
   </g>
  </g>
  <g id="text_19">
   <!-- \textbf{Firing rate of the integration circuit} -->
   <g transform="translate(89.40058 46.236997) scale(0.2 -0.2)">
    <defs>
     <path id="HFBRBX10-46" d="M 582 4480 
L 582 0 
L 1523 0 
L 1523 1920 
L 3315 1920 
L 3315 2535 
L 1523 2535 
L 1523 3812 
L 3610 3812 
L 3610 4480 
L 582 4480 
z
" transform="scale(0.015625)"/>
     <path id="HFBRBX10-69" d="M 390 4502 
L 390 3712 
L 1242 3712 
L 1242 4502 
L 390 4502 
z
M 390 3057 
L 390 0 
L 1242 0 
L 1242 3057 
L 390 3057 
z
" transform="scale(0.015625)"/>
     <path id="HFBRBX10-72" d="M 1216 2320 
L 1210 2320 
L 1210 3096 
L 390 3096 
L 390 0 
L 1242 0 
L 1242 1521 
C 1242 1631 1242 1742 1274 1845 
C 1414 2267 1869 2476 2278 2476 
L 2278 3136 
C 1894 3136 1568 2923 1357 2605 
C 1306 2521 1242 2424 1216 2320 
z
" transform="scale(0.015625)"/>
     <path id="HFBRBX10-6e" d="M 1222 2409 
L 1216 2409 
L 1216 3096 
L 384 3096 
L 384 0 
L 1254 0 
L 1254 1367 
C 1254 1645 1229 1943 1325 2209 
C 1408 2422 1568 2610 1798 2656 
C 1952 2675 2106 2649 2189 2578 
C 2362 2448 2330 2131 2330 1872 
L 2330 0 
L 3200 0 
L 3200 1805 
C 3200 2155 3219 2506 3091 2759 
C 2970 3006 2714 3109 2406 3109 
C 2259 3136 2112 3136 1965 3097 
C 1715 3026 1498 2857 1350 2643 
C 1299 2571 1248 2494 1222 2409 
z
" transform="scale(0.015625)"/>
     <path id="HFBRBX10-67" d="M 2317 784 
L 2323 784 
L 2323 75 
C 2323 -202 2304 -447 2131 -621 
C 1990 -756 1792 -756 1606 -736 
C 1331 -736 1069 -677 826 -538 
C 704 -466 602 -373 486 -301 
L 486 -730 
C 486 -775 474 -859 499 -892 
C 531 -931 595 -950 640 -969 
C 941 -1125 1312 -1216 1747 -1216 
C 2195 -1216 2714 -1138 2989 -737 
C 3251 -355 3194 130 3194 563 
L 3194 3136 
L 2342 3136 
L 2342 2681 
C 2125 2959 1907 3167 1414 3128 
C 1082 3102 755 2979 544 2707 
C 256 2337 218 1817 243 1362 
C 256 1109 307 848 448 628 
C 646 317 992 188 1344 162 
C 1754 123 1997 272 2182 531 
C 2234 609 2291 693 2317 784 
z
M 2342 1612 
L 2323 1612 
C 2323 1334 2285 997 2099 777 
C 1920 576 1581 576 1370 738 
C 1306 783 1261 841 1222 913 
C 1101 1133 1107 1392 1107 1632 
C 1107 1897 1152 2215 1325 2428 
C 1498 2629 1811 2720 2054 2603 
C 2150 2558 2234 2474 2285 2383 
C 2355 2292 2342 2221 2342 2059 
L 2342 1612 
z
" transform="scale(0.015625)"/>
     <path id="HFBRBX10-61" d="M 582 2253 
C 666 2325 736 2409 826 2474 
C 1043 2642 1293 2720 1562 2739 
C 1696 2752 1837 2752 1946 2648 
C 2074 2518 2099 2309 2099 2082 
L 2099 1757 
C 1997 1744 1888 1744 1786 1744 
C 1152 1692 397 1568 230 1041 
C 109 677 333 293 525 132 
C 1037 -302 1882 34 2112 449 
L 2118 449 
L 2118 0 
L 2970 0 
L 2970 1840 
C 2970 2180 2982 2552 2746 2827 
C 2438 3179 1926 3179 1491 3179 
C 1126 3179 851 3076 582 2932 
C 538 2919 531 2897 531 2836 
C 531 2794 538 2752 538 2713 
C 557 2558 570 2409 582 2253 
z
M 2099 1497 
L 2099 1082 
C 2099 991 2106 901 2080 810 
C 1984 454 1434 253 1146 545 
C 954 752 1018 1076 1222 1244 
C 1434 1425 1773 1451 2099 1497 
z
" transform="scale(0.015625)"/>
     <path id="HFBRBX10-74" d="M 582 3904 
L 582 3026 
L 128 3026 
L 128 2560 
L 563 2560 
L 563 809 
C 563 512 621 168 813 27 
C 966 -96 1158 -96 1344 -96 
C 1786 -96 2042 22 2387 189 
L 2272 642 
C 2157 557 2189 551 2042 480 
C 1882 402 1606 337 1485 512 
C 1382 687 1395 888 1395 1166 
L 1395 2560 
L 2272 2560 
L 2272 3026 
L 1395 3026 
L 1395 3904 
L 582 3904 
z
" transform="scale(0.015625)"/>
     <path id="HFBRBX10-65" d="M 2976 817 
C 2867 745 2778 661 2662 596 
C 2259 376 1536 188 1203 681 
C 1043 933 1011 1186 1011 1600 
L 3072 1600 
C 3072 2008 3027 2468 2746 2786 
C 2573 2973 2336 3077 2086 3122 
C 1491 3213 896 3077 576 2747 
C 250 2403 186 1905 192 1445 
C 198 1017 320 557 646 266 
C 1056 -90 1850 -194 2547 20 
C 2669 52 2778 104 2893 156 
C 2931 175 2995 195 3014 234 
C 3027 247 3021 266 3021 285 
C 3008 467 2989 642 2976 817 
z
M 2349 1944 
L 1037 1944 
C 1056 2170 1165 2403 1293 2520 
C 1510 2714 1882 2747 2106 2552 
C 2272 2403 2336 2157 2349 1944 
z
" transform="scale(0.015625)"/>
     <path id="HFBRBX10-6f" d="M 627 2737 
C 282 2413 198 1919 198 1465 
C 198 992 301 591 550 325 
C 928 -83 1530 -141 2048 -89 
C 2394 -50 2746 73 2982 345 
C 3238 643 3347 1122 3309 1640 
C 3283 2023 3206 2411 2957 2708 
C 2694 3011 2298 3136 1920 3136 
C 1376 3136 922 3016 627 2737 
z
M 1933 2681 
C 1990 2675 2048 2656 2099 2630 
C 2445 2455 2445 2008 2445 1671 
L 2445 1470 
C 2445 1179 2426 874 2304 687 
C 2131 421 1690 356 1395 518 
C 1050 706 1069 1192 1069 1684 
C 1069 1937 1069 2228 1210 2448 
C 1344 2662 1645 2746 1933 2681 
z
" transform="scale(0.015625)"/>
     <path id="HFBRBX10-66" d="M 550 3026 
L 186 3026 
L 186 2560 
L 550 2560 
L 550 -32 
L 1402 -32 
L 1402 2560 
L 2016 2560 
L 2016 3026 
L 1382 3026 
L 1382 3555 
C 1382 3658 1370 3768 1421 3864 
C 1523 4096 1875 4096 2093 4032 
C 2253 3993 2310 3903 2438 3812 
L 2438 4459 
C 2208 4504 2144 4530 1843 4530 
C 1459 4530 1005 4478 749 4149 
C 589 3962 550 3698 550 3381 
L 550 3026 
z
" transform="scale(0.015625)"/>
     <path id="HFBRBX10-68" d="M 384 4495 
L 384 0 
L 1254 0 
L 1254 1367 
C 1254 1645 1229 1943 1325 2209 
C 1408 2422 1568 2610 1798 2656 
C 1952 2675 2106 2649 2189 2578 
C 2362 2448 2330 2131 2330 1872 
L 2330 0 
L 3200 0 
L 3200 1815 
C 3200 2166 3219 2517 3091 2771 
C 2950 3031 2688 3122 2413 3122 
C 2266 3122 2118 3122 1971 3084 
C 1728 3020 1517 2868 1370 2671 
C 1318 2601 1267 2530 1242 2448 
L 1235 2448 
L 1235 4495 
L 384 4495 
z
" transform="scale(0.015625)"/>
     <path id="HFBRBX10-63" d="M 2874 881 
C 2771 810 2682 732 2573 667 
C 2362 544 2131 486 1888 466 
C 1728 453 1562 466 1421 551 
C 1158 719 1114 1082 1107 1367 
L 1107 1535 
C 1107 1976 1120 2390 1395 2578 
C 1549 2688 1741 2688 1926 2688 
C 2099 2675 2272 2648 2426 2562 
C 2554 2490 2656 2385 2778 2299 
C 2816 2428 2861 2724 2880 2852 
C 2880 2930 2854 2924 2784 2962 
C 2701 3007 2618 3039 2534 3072 
C 2349 3148 2163 3168 1971 3168 
C 1421 3213 928 3085 646 2801 
C 378 2537 275 2151 243 1784 
C 198 1212 294 524 819 188 
C 1363 -162 2253 -91 2797 188 
C 2829 201 2893 220 2912 259 
C 2925 272 2918 298 2918 317 
C 2912 512 2880 693 2874 881 
z
" transform="scale(0.015625)"/>
     <path id="HFBRBX10-75" d="M 384 3058 
L 384 828 
C 384 639 390 437 480 268 
C 608 20 883 -64 1146 -64 
C 1267 -64 1395 -64 1517 -51 
C 1766 -13 2010 107 2182 290 
C 2246 354 2310 436 2342 518 
L 2349 518 
L 2349 0 
L 3200 0 
L 3200 3057 
L 2330 3057 
L 2330 1211 
C 2330 1049 2323 900 2266 751 
C 2189 570 2048 408 1856 350 
C 1779 324 1702 324 1619 324 
C 1523 324 1402 324 1325 396 
C 1267 454 1267 539 1261 610 
C 1248 772 1254 942 1254 1104 
L 1254 3058 
L 384 3058 
z
" transform="scale(0.015625)"/>
    </defs>
    <use xlink:href="#HFBRBX10-46" transform="scale(0.996264)"/>
    <use xlink:href="#HFBRBX10-69" transform="translate(60.883138 0) scale(0.996264)"/>
    <use xlink:href="#HFBRBX10-72" transform="translate(86.343357 0) scale(0.996264)"/>
    <use xlink:href="#HFBRBX10-69" transform="translate(123.426768 0) scale(0.996264)"/>
    <use xlink:href="#HFBRBX10-6e" transform="translate(148.886986 0) scale(0.996264)"/>
    <use xlink:href="#HFBRBX10-67" transform="translate(204.788774 0) scale(0.996264)"/>
    <use xlink:href="#HFBRBX10-72" transform="translate(295.393951 0) scale(0.996264)"/>
    <use xlink:href="#HFBRBX10-61" transform="translate(332.477362 0) scale(0.996264)"/>
    <use xlink:href="#HFBRBX10-74" transform="translate(384.781556 0) scale(0.996264)"/>
    <use xlink:href="#HFBRBX10-65" transform="translate(425.04746 0) scale(0.996264)"/>
    <use xlink:href="#HFBRBX10-6f" transform="translate(510.671302 0) scale(0.996264)"/>
    <use xlink:href="#HFBRBX10-66" transform="translate(565.466126 0) scale(0.996264)"/>
    <use xlink:href="#HFBRBX10-74" transform="translate(633.655241 0) scale(0.996264)"/>
    <use xlink:href="#HFBRBX10-68" transform="translate(673.921145 0) scale(0.996264)"/>
    <use xlink:href="#HFBRBX10-65" transform="translate(729.822933 0) scale(0.996264)"/>
    <use xlink:href="#HFBRBX10-69" transform="translate(815.446774 0) scale(0.996264)"/>
    <use xlink:href="#HFBRBX10-6e" transform="translate(840.906993 0) scale(0.996264)"/>
    <use xlink:href="#HFBRBX10-74" transform="translate(896.808781 0) scale(0.996264)"/>
    <use xlink:href="#HFBRBX10-65" transform="translate(937.074685 0) scale(0.996264)"/>
    <use xlink:href="#HFBRBX10-67" transform="translate(987.995137 0) scale(0.996264)"/>
    <use xlink:href="#HFBRBX10-72" transform="translate(1043.896925 0) scale(0.996264)"/>
    <use xlink:href="#HFBRBX10-61" transform="translate(1080.980336 0) scale(0.996264)"/>
    <use xlink:href="#HFBRBX10-74" transform="translate(1133.284531 0) scale(0.996264)"/>
    <use xlink:href="#HFBRBX10-69" transform="translate(1173.550434 0) scale(0.996264)"/>
    <use xlink:href="#HFBRBX10-6f" transform="translate(1199.010653 0) scale(0.996264)"/>
    <use xlink:href="#HFBRBX10-6e" transform="translate(1253.805477 0) scale(0.996264)"/>
    <use xlink:href="#HFBRBX10-63" transform="translate(1344.410654 0) scale(0.996264)"/>
    <use xlink:href="#HFBRBX10-69" transform="translate(1393.117165 0) scale(0.996264)"/>
    <use xlink:href="#HFBRBX10-72" transform="translate(1418.577384 0) scale(0.996264)"/>
    <use xlink:href="#HFBRBX10-63" transform="translate(1455.660794 0) scale(0.996264)"/>
    <use xlink:href="#HFBRBX10-75" transform="translate(1504.367305 0) scale(0.996264)"/>
    <use xlink:href="#HFBRBX10-69" transform="translate(1560.269093 0) scale(0.996264)"/>
    <use xlink:href="#HFBRBX10-74" transform="translate(1585.729312 0) scale(0.996264)"/>
   </g>
  </g>
 </g>
 <defs>
  <clipPath id="p0b0c260d40">
   <rect x="63" y="51.84" width="390.6" height="326.16"/>
  </clipPath>
 </defs>
</svg>
